<svg width="16" height="16" viewBox="0 0 16 16" fill="none" xmlns="http://www.w3.org/2000/svg">
<g id="api">
<path id="Vector" d="M4.66667 4.66663H3.33333C2.97971 4.66663 2.64057 4.8071 2.39052 5.05715C2.14048 5.3072 2 5.64634 2 5.99996V11.3333H3.33333V8.66663H4.66667V11.3333H6V5.99996C6 5.64634 5.85952 5.3072 5.60948 5.05715C5.35943 4.8071 5.02029 4.66663 4.66667 4.66663ZM4.66667 7.33329H3.33333V5.99996H4.66667M9.33333 4.66663H6.66667V11.3333H8V8.66663H9.33333C9.68696 8.66663 10.0261 8.52615 10.2761 8.2761C10.5262 8.02605 10.6667 7.68691 10.6667 7.33329V5.99996C10.6667 5.64634 10.5262 5.3072 10.2761 5.05715C10.0261 4.8071 9.68696 4.66663 9.33333 4.66663ZM9.33333 7.33329H8V5.99996H9.33333M13.3333 5.99996V9.99996H14V11.3333H11.3333V9.99996H12V5.99996H11.3333V4.66663H14V5.99996H13.3333Z" fill="#263238"/>
</g>
</svg>
