<svg width="18" height="18" viewBox="0 0 18 18" fill="none" xmlns="http://www.w3.org/2000/svg">
<path d="M17.3334 8.99984C17.3334 11.21 16.4554 13.3296 14.8926 14.8924C13.3298 16.4552 11.2102 17.3332 9.00008 17.3332C7.90573 17.3332 6.8221 17.1176 5.81105 16.6988C4.80001 16.28 3.88135 15.6662 3.10752 14.8924C1.54472 13.3296 0.666748 11.21 0.666748 8.99984C0.666748 6.7897 1.54472 4.67008 3.10752 3.10728C4.67033 1.54448 6.78994 0.666504 9.00008 0.666504C10.0944 0.666504 11.1781 0.882052 12.1891 1.30084C13.2002 1.71963 14.1188 2.33346 14.8926 3.10728C15.6665 3.8811 16.2803 4.79976 16.6991 5.81081C17.1179 6.82186 17.3334 7.90549 17.3334 8.99984ZM4.00008 7.33317L9.00008 12.3332L14.0001 7.33317L12.8334 6.1665L9.00008 9.99984L5.16675 6.1665L4.00008 7.33317Z" fill="#1976D2"/>
</svg>
