<svg width="17" height="15" viewBox="0 0 17 15" fill="none" xmlns="http://www.w3.org/2000/svg">
<path d="M15.5833 7.41683L16.75 8.59183L11.3083 14.0835L8.41667 11.1668L9.58333 9.99183L11.3083 11.7252L15.5833 7.41683ZM6.33333 11.1668L8.83333 13.6668H0.5V12.0002C0.5 10.1585 3.48333 8.66683 7.16667 8.66683L8.74167 8.7585L6.33333 11.1668ZM7.16667 0.333496C8.05072 0.333496 8.89857 0.684685 9.52369 1.30981C10.1488 1.93493 10.5 2.78277 10.5 3.66683C10.5 4.55088 10.1488 5.39873 9.52369 6.02385C8.89857 6.64897 8.05072 7.00016 7.16667 7.00016C6.28261 7.00016 5.43476 6.64897 4.80964 6.02385C4.18452 5.39873 3.83333 4.55088 3.83333 3.66683C3.83333 2.78277 4.18452 1.93493 4.80964 1.30981C5.43476 0.684685 6.28261 0.333496 7.16667 0.333496Z" fill="#455A64"/>
</svg>
