<svg width="18" height="16" viewBox="0 0 18 16" fill="none" xmlns="http://www.w3.org/2000/svg">
<path d="M14.0001 10.5H12.3334V12.1667H14.0001M14.0001 7.16667H12.3334V8.83333H14.0001M15.6667 13.8333H9.00008V12.1667H10.6667V10.5H9.00008V8.83333H10.6667V7.16667H9.00008V5.5H15.6667M7.33342 3.83333H5.66675V2.16667H7.33342M7.33342 7.16667H5.66675V5.5H7.33342M7.33342 10.5H5.66675V8.83333H7.33342M7.33342 13.8333H5.66675V12.1667H7.33342M4.00008 3.83333H2.33341V2.16667H4.00008M4.00008 7.16667H2.33341V5.5H4.00008M4.00008 10.5H2.33341V8.83333H4.00008M4.00008 13.8333H2.33341V12.1667H4.00008M9.00008 3.83333V0.5H0.666748V15.5H17.3334V3.83333H9.00008Z" fill="#455A64"/>
</svg>
