<svg width="64" height="64" viewBox="0 0 64 64" fill="none" xmlns="http://www.w3.org/2000/svg">
<g filter="url(#filter0_i_3851_9185)">
<g clip-path="url(#clip0_3851_9185)">
<rect width="64" height="64" rx="8" fill="#C09031"/>
<path d="M19 39C15.15 39 11.8542 37.6292 9.1125 34.8875C6.37083 32.1458 5 28.85 5 25C5 21.15 6.37083 17.8542 9.1125 15.1125C11.8542 12.3708 15.15 11 19 11C22.85 11 26.1458 12.3708 28.8875 15.1125C31.6292 17.8542 33 21.15 33 25C33 28.85 31.6292 32.1458 28.8875 34.8875C26.1458 37.6292 22.85 39 19 39ZM-9 67V57.2C-9 55.2167 -8.489 53.3943 -7.467 51.733C-6.445 50.0717 -5.08933 48.8023 -3.4 47.925C0.216665 46.1167 3.89166 44.761 7.625 43.858C11.3583 42.955 15.15 42.5023 19 42.5C22.85 42.4977 26.6417 42.9503 30.375 43.858C34.1083 44.7657 37.7833 46.1213 41.4 47.925C43.0917 48.8 44.4485 50.0693 45.4705 51.733C46.4925 53.3967 47.0023 55.219 47 57.2V67H-9Z" fill="#845800"/>
<g filter="url(#filter1_d_3851_9185)">
<path d="M48 25.7279L39 20.864L48 16L57 20.864L48 25.7279Z" fill="#FFE3AB"/>
<path d="M48 34.8993V25.7273L57 20.8633V30.0353L48 34.8993Z" fill="#D0A550"/>
<path d="M48 34.8993L39 30.0353V20.8633L48 25.7273V34.8993Z" fill="#DFB96E"/>
</g>
</g>
<rect x="1.5" y="1.5" width="61" height="61" rx="6.5" stroke="#FFCE6B" stroke-width="3"/>
</g>
<defs>
<filter id="filter0_i_3851_9185" x="0" y="0" width="64" height="68" filterUnits="userSpaceOnUse" color-interpolation-filters="sRGB">
<feFlood flood-opacity="0" result="BackgroundImageFix"/>
<feBlend mode="normal" in="SourceGraphic" in2="BackgroundImageFix" result="shape"/>
<feColorMatrix in="SourceAlpha" type="matrix" values="0 0 0 0 0 0 0 0 0 0 0 0 0 0 0 0 0 0 127 0" result="hardAlpha"/>
<feOffset dy="4"/>
<feGaussianBlur stdDeviation="2"/>
<feComposite in2="hardAlpha" operator="arithmetic" k2="-1" k3="1"/>
<feColorMatrix type="matrix" values="0 0 0 0 0.548333 0 0 0 0 0.417342 0 0 0 0 0.155361 0 0 0 1 0"/>
<feBlend mode="normal" in2="shape" result="effect1_innerShadow_3851_9185"/>
</filter>
<filter id="filter1_d_3851_9185" x="37" y="16" width="22" height="22.8984" filterUnits="userSpaceOnUse" color-interpolation-filters="sRGB">
<feFlood flood-opacity="0" result="BackgroundImageFix"/>
<feColorMatrix in="SourceAlpha" type="matrix" values="0 0 0 0 0 0 0 0 0 0 0 0 0 0 0 0 0 0 127 0" result="hardAlpha"/>
<feOffset dy="2"/>
<feGaussianBlur stdDeviation="1"/>
<feComposite in2="hardAlpha" operator="out"/>
<feColorMatrix type="matrix" values="0 0 0 0 0 0 0 0 0 0 0 0 0 0 0 0 0 0 0.25 0"/>
<feBlend mode="normal" in2="BackgroundImageFix" result="effect1_dropShadow_3851_9185"/>
<feBlend mode="normal" in="SourceGraphic" in2="effect1_dropShadow_3851_9185" result="shape"/>
</filter>
<clipPath id="clip0_3851_9185">
<rect width="64" height="64" rx="8" fill="white"/>
</clipPath>
</defs>
</svg>
