<svg width="64" height="64" viewBox="0 0 64 64" fill="none" xmlns="http://www.w3.org/2000/svg">
<g clip-path="url(#clip0_3034_379)">
<rect width="64" height="64" rx="8" fill="#31B4C0"/>
<g filter="url(#filter0_dd_3034_379)">
<g clip-path="url(#clip1_3034_379)">
<rect x="14" y="11" width="36" height="41" rx="4" fill="#214B58"/>
<path d="M21 20C21 19.4477 21.4477 19 22 19H35C35.5523 19 36 19.4477 36 20V23C36 23.5523 35.5523 24 35 24H22C21.4477 24 21 23.5523 21 23V20Z" fill="#6BF3FF"/>
<path d="M21 44C21 43.4477 21.4477 43 22 43H35C35.5523 43 36 43.4477 36 44V47C36 47.5523 35.5523 48 35 48H22C21.4477 48 21 47.5523 21 47V44Z" fill="#6BF3FF"/>
<rect x="21" y="27" width="31" height="3" rx="1.5" fill="#B1FFD1"/>
<rect x="21" y="33" width="23" height="3" rx="1.5" fill="#B1FFD1"/>
<rect x="21" y="51" width="23" height="3" rx="1.5" fill="#B1FFD1"/>
<rect x="19" y="39" width="36" height="1" rx="0.5" fill="#B1F9FF" fill-opacity="0.2"/>
</g>
<rect x="14.5" y="11.5" width="35" height="40" rx="3.5" stroke="#49B2BC"/>
</g>
<g filter="url(#filter1_dd_3034_379)">
<rect x="11" y="15" width="42" height="47" rx="4" fill="#1E3739"/>
<rect x="11.5" y="15.5" width="41" height="46" rx="3.5" stroke="#56C2CC"/>
<path d="M18 24C18 23.4477 18.4477 23 19 23H32C32.5523 23 33 23.4477 33 24V27C33 27.5523 32.5523 28 32 28H19C18.4477 28 18 27.5523 18 27V24Z" fill="#6BF3FF"/>
<path d="M18 48C18 47.4477 18.4477 47 19 47H32C32.5523 47 33 47.4477 33 48V51C33 51.5523 32.5523 52 32 52H19C18.4477 52 18 51.5523 18 51V48Z" fill="#6BF3FF"/>
<rect x="18" y="31" width="31" height="3" rx="1.5" fill="#B1FFD1"/>
<rect x="18" y="37" width="23" height="3" rx="1.5" fill="#B1FFD1"/>
<rect x="18" y="55" width="23" height="3" rx="1.5" fill="#B1FFD1"/>
<rect x="16" y="43" width="36" height="1" rx="0.5" fill="#B1F9FF" fill-opacity="0.2"/>
</g>
<g filter="url(#filter2_dd_3034_379)">
<rect x="8" y="20" width="48" height="53" rx="4" fill="#262626"/>
<rect x="8.5" y="20.5" width="47" height="52" rx="3.5" stroke="#6BF3FF"/>
<path d="M15 29C15 28.4477 15.4477 28 16 28H29C29.5523 28 30 28.4477 30 29V32C30 32.5523 29.5523 33 29 33H16C15.4477 33 15 32.5523 15 32V29Z" fill="#6BF3FF"/>
<path d="M15 54C15 53.4477 15.4477 53 16 53H29C29.5523 53 30 53.4477 30 54V57C30 57.5523 29.5523 58 29 58H16C15.4477 58 15 57.5523 15 57V54Z" fill="#6BF3FF"/>
<rect x="15" y="36" width="31" height="3" rx="1.5" fill="#B1F9FF"/>
<rect x="15" y="42" width="23" height="3" rx="1.5" fill="#B1F9FF"/>
<rect x="15" y="61" width="23" height="3" rx="1.5" fill="#B1F9FF"/>
<rect x="14" y="48" width="36" height="1" rx="0.5" fill="#B1F9FF" fill-opacity="0.2"/>
</g>
</g>
<rect x="1.5" y="1.5" width="61" height="61" rx="6.5" stroke="#6BF3FF" stroke-width="3"/>
<defs>
<filter id="filter0_dd_3034_379" x="12" y="10" width="40" height="45" filterUnits="userSpaceOnUse" color-interpolation-filters="sRGB">
<feFlood flood-opacity="0" result="BackgroundImageFix"/>
<feColorMatrix in="SourceAlpha" type="matrix" values="0 0 0 0 0 0 0 0 0 0 0 0 0 0 0 0 0 0 127 0" result="hardAlpha"/>
<feOffset dy="1"/>
<feGaussianBlur stdDeviation="1"/>
<feComposite in2="hardAlpha" operator="out"/>
<feColorMatrix type="matrix" values="0 0 0 0 0 0 0 0 0 0 0 0 0 0 0 0 0 0 0.25 0"/>
<feBlend mode="normal" in2="BackgroundImageFix" result="effect1_dropShadow_3034_379"/>
<feColorMatrix in="SourceAlpha" type="matrix" values="0 0 0 0 0 0 0 0 0 0 0 0 0 0 0 0 0 0 127 0" result="hardAlpha"/>
<feOffset/>
<feComposite in2="hardAlpha" operator="out"/>
<feColorMatrix type="matrix" values="0 0 0 0 0.552941 0 0 0 0 0.937582 0 0 0 0 0.972549 0 0 0 1 0"/>
<feBlend mode="normal" in2="effect1_dropShadow_3034_379" result="effect2_dropShadow_3034_379"/>
<feBlend mode="normal" in="SourceGraphic" in2="effect2_dropShadow_3034_379" result="shape"/>
</filter>
<filter id="filter1_dd_3034_379" x="9" y="14" width="46" height="51" filterUnits="userSpaceOnUse" color-interpolation-filters="sRGB">
<feFlood flood-opacity="0" result="BackgroundImageFix"/>
<feColorMatrix in="SourceAlpha" type="matrix" values="0 0 0 0 0 0 0 0 0 0 0 0 0 0 0 0 0 0 127 0" result="hardAlpha"/>
<feOffset dy="1"/>
<feGaussianBlur stdDeviation="1"/>
<feComposite in2="hardAlpha" operator="out"/>
<feColorMatrix type="matrix" values="0 0 0 0 0 0 0 0 0 0 0 0 0 0 0 0 0 0 0.25 0"/>
<feBlend mode="normal" in2="BackgroundImageFix" result="effect1_dropShadow_3034_379"/>
<feColorMatrix in="SourceAlpha" type="matrix" values="0 0 0 0 0 0 0 0 0 0 0 0 0 0 0 0 0 0 127 0" result="hardAlpha"/>
<feOffset/>
<feComposite in2="hardAlpha" operator="out"/>
<feColorMatrix type="matrix" values="0 0 0 0 0.552941 0 0 0 0 0.937582 0 0 0 0 0.972549 0 0 0 1 0"/>
<feBlend mode="normal" in2="effect1_dropShadow_3034_379" result="effect2_dropShadow_3034_379"/>
<feBlend mode="normal" in="SourceGraphic" in2="effect2_dropShadow_3034_379" result="shape"/>
</filter>
<filter id="filter2_dd_3034_379" x="6" y="20" width="52" height="57" filterUnits="userSpaceOnUse" color-interpolation-filters="sRGB">
<feFlood flood-opacity="0" result="BackgroundImageFix"/>
<feColorMatrix in="SourceAlpha" type="matrix" values="0 0 0 0 0 0 0 0 0 0 0 0 0 0 0 0 0 0 127 0" result="hardAlpha"/>
<feOffset dy="2"/>
<feGaussianBlur stdDeviation="1"/>
<feComposite in2="hardAlpha" operator="out"/>
<feColorMatrix type="matrix" values="0 0 0 0 0 0 0 0 0 0 0 0 0 0 0 0 0 0 0.25 0"/>
<feBlend mode="normal" in2="BackgroundImageFix" result="effect1_dropShadow_3034_379"/>
<feColorMatrix in="SourceAlpha" type="matrix" values="0 0 0 0 0 0 0 0 0 0 0 0 0 0 0 0 0 0 127 0" result="hardAlpha"/>
<feOffset dy="2"/>
<feComposite in2="hardAlpha" operator="out"/>
<feColorMatrix type="matrix" values="0 0 0 0 0.552941 0 0 0 0 0.972549 0 0 0 0 0.721569 0 0 0 1 0"/>
<feBlend mode="normal" in2="effect1_dropShadow_3034_379" result="effect2_dropShadow_3034_379"/>
<feBlend mode="normal" in="SourceGraphic" in2="effect2_dropShadow_3034_379" result="shape"/>
</filter>
<clipPath id="clip0_3034_379">
<rect width="64" height="64" rx="8" fill="white"/>
</clipPath>
<clipPath id="clip1_3034_379">
<rect x="14" y="11" width="36" height="41" rx="4" fill="white"/>
</clipPath>
</defs>
</svg>
