<svg width="20" height="20" viewBox="0 0 20 20" fill="none" xmlns="http://www.w3.org/2000/svg">
<path d="M14.6673 16.0003H7.33398V6.66699H14.6673M14.6673 5.33366H7.33398C6.98036 5.33366 6.64122 5.47413 6.39118 5.72418C6.14113 5.97423 6.00065 6.31337 6.00065 6.66699V16.0003C6.00065 16.3539 6.14113 16.6931 6.39118 16.9431C6.64122 17.1932 6.98036 17.3337 7.33398 17.3337H14.6673C15.0209 17.3337 15.3601 17.1932 15.6101 16.9431C15.8602 16.6931 16.0007 16.3539 16.0007 16.0003V6.66699C16.0007 6.31337 15.8602 5.97423 15.6101 5.72418C15.3601 5.47413 15.0209 5.33366 14.6673 5.33366ZM12.6673 2.66699H4.66732C4.3137 2.66699 3.97456 2.80747 3.72451 3.05752C3.47446 3.30756 3.33398 3.6467 3.33398 4.00033V13.3337H4.66732V4.00033H12.6673V2.66699Z" fill="#607D8B"/>
</svg>
