<svg width="24" height="24" viewBox="0 0 24 24" fill="none" xmlns="http://www.w3.org/2000/svg">
<path d="M12.9774 2V2.02003V4.02303C17.3784 4.56385 20.4962 8.55984 19.9549 12.9564C19.4937 16.6019 16.6266 19.4962 12.9774 19.9269V21.9299C18.4912 21.3791 22.5013 16.4917 21.9499 10.9835C21.4987 6.22634 17.7193 2.47071 12.9774 2ZM10.9724 2.03005C9.01754 2.22033 7.15288 2.97146 5.62907 4.23335L7.06266 5.71557C8.18546 4.81422 9.53885 4.23335 10.9724 4.03305V2.03005ZM4.21554 5.64547C2.95238 7.16775 2.2005 9.02053 2 10.9835H4.00501C4.19549 9.56134 4.75689 8.20931 5.64912 7.07762L4.21554 5.64547ZM2.01003 12.9865C2.21053 14.9494 2.98246 16.8022 4.22556 18.3245L5.64912 16.8923C4.76692 15.7606 4.19549 14.4086 4.01504 12.9865H2.01003ZM7.06266 18.3645L5.62907 19.7366C7.14286 20.9985 9.00752 21.7897 10.9724 22V19.997C9.54887 19.8167 8.19549 19.2459 7.06266 18.3645ZM12.4762 6.97747V12.2354L16.9875 14.9094L16.2356 16.1412L10.9724 12.9865V6.97747H12.4762Z" fill="#5A5A62"/>
</svg>
