<svg width="18" height="18" viewBox="0 0 18 18" fill="none" xmlns="http://www.w3.org/2000/svg">
<path d="M9.00008 0.666504C7.90573 0.666504 6.8221 0.882052 5.81105 1.30084C4.80001 1.71963 3.88135 2.33346 3.10752 3.10728C1.54472 4.67008 0.666748 6.7897 0.666748 8.99984C0.666748 11.21 1.54472 13.3296 3.10752 14.8924C3.88135 15.6662 4.80001 16.28 5.81105 16.6988C6.8221 17.1176 7.90573 17.3332 9.00008 17.3332C11.2102 17.3332 13.3298 16.4552 14.8926 14.8924C16.4554 13.3296 17.3334 11.21 17.3334 8.99984C17.3334 7.90549 17.1179 6.82186 16.6991 5.81081C16.2803 4.79976 15.6665 3.8811 14.8926 3.10728C14.1188 2.33346 13.2002 1.71963 12.1891 1.30084C11.1781 0.882052 10.0944 0.666504 9.00008 0.666504ZM12.5001 12.4998L8.16675 9.83317V4.83317H9.41675V9.1665L13.1667 11.4165L12.5001 12.4998Z" fill="#455A64"/>
</svg>
