<svg width="16" height="16" viewBox="0 0 16 16" fill="none" xmlns="http://www.w3.org/2000/svg">
<path d="M0.5 2.16667C0.5 1.72464 0.675595 1.30072 0.988155 0.988155C1.30072 0.675595 1.72464 0.5 2.16667 0.5H13.8333C14.2754 0.5 14.6993 0.675595 15.0118 0.988155C15.3244 1.30072 15.5 1.72464 15.5 2.16667V13.8333C15.5 14.2754 15.3244 14.6993 15.0118 15.0118C14.6993 15.3244 14.2754 15.5 13.8333 15.5H2.16667C1.24167 15.5 0.5 14.75 0.5 13.8333V2.16667ZM3 3V13H6.33333V11.3333H4.66667V4.66667H6.33333V3H3ZM11.3333 11.3333H9.66667V13H13V3H9.66667V4.66667H11.3333V11.3333Z" fill="#455A64"/>
</svg>
