<svg width="24" height="24" viewBox="0 0 24 24" fill="none" xmlns="http://www.w3.org/2000/svg">
<path d="M16.6316 18.5455H9.10526V8.36364H16.6316M16.6316 6.90909H9.10526C8.74234 6.90909 8.39427 7.06234 8.13764 7.33512C7.88101 7.6079 7.73684 7.97787 7.73684 8.36364V18.5455C7.73684 18.9312 7.88101 19.3012 8.13764 19.574C8.39427 19.8468 8.74234 20 9.10526 20H16.6316C16.9945 20 17.3426 19.8468 17.5992 19.574C17.8558 19.3012 18 18.9312 18 18.5455V8.36364C18 7.97787 17.8558 7.6079 17.5992 7.33512C17.3426 7.06234 16.9945 6.90909 16.6316 6.90909ZM14.5789 4H6.36842C6.00549 4 5.65743 4.15325 5.4008 4.42603C5.14417 4.69881 5 5.06878 5 5.45455V15.6364H6.36842V5.45455H14.5789V4Z" fill="#969CB3"/>
</svg>
