<svg width="69" height="28" viewBox="0 0 69 28" fill="none" xmlns="http://www.w3.org/2000/svg">
<g filter="url(#filter0_d_3133_1207)">
<rect x="2" y="2" width="37" height="24" rx="4" fill="white" shape-rendering="crispEdges"/>
<path d="M16.2979 15.2227H17.7627C17.7159 15.7812 17.5596 16.2793 17.294 16.7168C17.0284 17.1504 16.6553 17.4922 16.1748 17.7422C15.6944 17.9922 15.1104 18.1172 14.4229 18.1172C13.8955 18.1172 13.4209 18.0234 12.9991 17.8359C12.5772 17.6445 12.2159 17.375 11.9151 17.0273C11.6143 16.6758 11.3838 16.252 11.2237 15.7559C11.0674 15.2598 10.9893 14.7051 10.9893 14.0918V13.3828C10.9893 12.7695 11.0694 12.2148 11.2295 11.7188C11.3936 11.2227 11.628 10.7988 11.9327 10.4473C12.2373 10.0918 12.6026 9.82031 13.0284 9.63281C13.458 9.44531 13.9405 9.35156 14.4756 9.35156C15.1553 9.35156 15.7295 9.47656 16.1983 9.72656C16.667 9.97656 17.0303 10.3223 17.2881 10.7637C17.5498 11.2051 17.71 11.7109 17.7686 12.2812H16.3038C16.2647 11.9141 16.1788 11.5996 16.0459 11.3379C15.917 11.0762 15.7256 10.877 15.4717 10.7402C15.2178 10.5996 14.8858 10.5293 14.4756 10.5293C14.1397 10.5293 13.8467 10.5918 13.5967 10.7168C13.3467 10.8418 13.1377 11.0254 12.9698 11.2676C12.8018 11.5098 12.6748 11.8086 12.5889 12.1641C12.5069 12.5156 12.4659 12.918 12.4659 13.3711V14.0918C12.4659 14.5215 12.503 14.9121 12.5772 15.2637C12.6553 15.6113 12.7725 15.9102 12.9288 16.1602C13.0889 16.4102 13.292 16.6035 13.5381 16.7402C13.7842 16.877 14.0791 16.9453 14.4229 16.9453C14.8409 16.9453 15.1788 16.8789 15.4366 16.7461C15.6983 16.6133 15.8955 16.4199 16.0284 16.166C16.1651 15.9082 16.2549 15.5938 16.2979 15.2227ZM22.2243 11.6602V12.6914H18.6501V11.6602H22.2243ZM19.6813 10.1074H21.0934V16.248C21.0934 16.4434 21.1208 16.5938 21.1755 16.6992C21.2341 16.8008 21.3141 16.8691 21.4157 16.9043C21.5173 16.9395 21.6364 16.957 21.7731 16.957C21.8708 16.957 21.9645 16.9512 22.0544 16.9395C22.1442 16.9277 22.2165 16.916 22.2712 16.9043L22.277 17.9824C22.1598 18.0176 22.0231 18.0488 21.8669 18.0762C21.7145 18.1035 21.5387 18.1172 21.3395 18.1172C21.0153 18.1172 20.7282 18.0605 20.4782 17.9473C20.2282 17.8301 20.0329 17.6406 19.8923 17.3789C19.7516 17.1172 19.6813 16.7695 19.6813 16.3359V10.1074ZM25.0921 12.8672V18H23.68V11.6602H25.0277L25.0921 12.8672ZM27.0316 11.6191L27.0198 12.9316C26.9339 12.916 26.8402 12.9043 26.7386 12.8965C26.6409 12.8887 26.5433 12.8848 26.4456 12.8848C26.2034 12.8848 25.9905 12.9199 25.807 12.9902C25.6234 13.0566 25.4691 13.1543 25.3441 13.2832C25.223 13.4082 25.1292 13.5605 25.0628 13.7402C24.9964 13.9199 24.9573 14.1211 24.9456 14.3438L24.6234 14.3672C24.6234 13.9688 24.6624 13.5996 24.7405 13.2598C24.8187 12.9199 24.9359 12.6211 25.0921 12.3633C25.2523 12.1055 25.4515 11.9043 25.6898 11.7598C25.932 11.6152 26.2113 11.543 26.5277 11.543C26.6136 11.543 26.7054 11.5508 26.803 11.5664C26.9046 11.582 26.9808 11.5996 27.0316 11.6191ZM29.788 9V18H28.3701V9H29.788Z" fill="#969CB2"/>
</g>
<g filter="url(#filter1_d_3133_1207)">
<rect x="43" y="2" width="24" height="24" rx="4" fill="white" shape-rendering="crispEdges"/>
<path d="M53.5469 9.46875V18H52.0762V9.46875H53.5469ZM58.6738 9.46875L55.2168 13.5762L53.248 15.6621L52.9902 14.2031L54.3965 12.4688L56.8809 9.46875H58.6738ZM57.0918 18L54.2852 13.957L55.2988 12.9551L58.8379 18H57.0918Z" fill="#969CB2"/>
</g>
<defs>
<filter id="filter0_d_3133_1207" x="0" y="0" width="41" height="28" filterUnits="userSpaceOnUse" color-interpolation-filters="sRGB">
<feFlood flood-opacity="0" result="BackgroundImageFix"/>
<feColorMatrix in="SourceAlpha" type="matrix" values="0 0 0 0 0 0 0 0 0 0 0 0 0 0 0 0 0 0 127 0" result="hardAlpha"/>
<feOffset/>
<feGaussianBlur stdDeviation="1"/>
<feComposite in2="hardAlpha" operator="out"/>
<feColorMatrix type="matrix" values="0 0 0 0 0 0 0 0 0 0 0 0 0 0 0 0 0 0 0.32 0"/>
<feBlend mode="normal" in2="BackgroundImageFix" result="effect1_dropShadow_3133_1207"/>
<feBlend mode="normal" in="SourceGraphic" in2="effect1_dropShadow_3133_1207" result="shape"/>
</filter>
<filter id="filter1_d_3133_1207" x="41" y="0" width="28" height="28" filterUnits="userSpaceOnUse" color-interpolation-filters="sRGB">
<feFlood flood-opacity="0" result="BackgroundImageFix"/>
<feColorMatrix in="SourceAlpha" type="matrix" values="0 0 0 0 0 0 0 0 0 0 0 0 0 0 0 0 0 0 127 0" result="hardAlpha"/>
<feOffset/>
<feGaussianBlur stdDeviation="1"/>
<feComposite in2="hardAlpha" operator="out"/>
<feColorMatrix type="matrix" values="0 0 0 0 0 0 0 0 0 0 0 0 0 0 0 0 0 0 0.32 0"/>
<feBlend mode="normal" in2="BackgroundImageFix" result="effect1_dropShadow_3133_1207"/>
<feBlend mode="normal" in="SourceGraphic" in2="effect1_dropShadow_3133_1207" result="shape"/>
</filter>
</defs>
</svg>
