<svg width="65" height="24" viewBox="0 0 65 24" fill="none" xmlns="http://www.w3.org/2000/svg">
<rect width="37" height="24" rx="4" fill="#15161D"/>
<path d="M14.2979 13.2227H15.7627C15.7159 13.7812 15.5596 14.2793 15.294 14.7168C15.0284 15.1504 14.6553 15.4922 14.1748 15.7422C13.6944 15.9922 13.1104 16.1172 12.4229 16.1172C11.8955 16.1172 11.4209 16.0234 10.9991 15.8359C10.5772 15.6445 10.2159 15.375 9.91508 15.0273C9.6143 14.6758 9.38383 14.252 9.22367 13.7559C9.06742 13.2598 8.9893 12.7051 8.9893 12.0918V11.3828C8.9893 10.7695 9.06938 10.2148 9.22953 9.71875C9.39359 9.22266 9.62797 8.79883 9.93266 8.44727C10.2373 8.0918 10.6026 7.82031 11.0284 7.63281C11.458 7.44531 11.9405 7.35156 12.4756 7.35156C13.1553 7.35156 13.7295 7.47656 14.1983 7.72656C14.667 7.97656 15.0303 8.32227 15.2881 8.76367C15.5498 9.20508 15.71 9.71094 15.7686 10.2812H14.3038C14.2647 9.91406 14.1788 9.59961 14.0459 9.33789C13.917 9.07617 13.7256 8.87695 13.4717 8.74023C13.2178 8.59961 12.8858 8.5293 12.4756 8.5293C12.1397 8.5293 11.8467 8.5918 11.5967 8.7168C11.3467 8.8418 11.1377 9.02539 10.9698 9.26758C10.8018 9.50977 10.6748 9.80859 10.5889 10.1641C10.5069 10.5156 10.4659 10.918 10.4659 11.3711V12.0918C10.4659 12.5215 10.503 12.9121 10.5772 13.2637C10.6553 13.6113 10.7725 13.9102 10.9288 14.1602C11.0889 14.4102 11.292 14.6035 11.5381 14.7402C11.7842 14.877 12.0791 14.9453 12.4229 14.9453C12.8409 14.9453 13.1788 14.8789 13.4366 14.7461C13.6983 14.6133 13.8955 14.4199 14.0284 14.166C14.1651 13.9082 14.2549 13.5938 14.2979 13.2227ZM20.2243 9.66016V10.6914H16.6501V9.66016H20.2243ZM17.6813 8.10742H19.0934V14.248C19.0934 14.4434 19.1208 14.5938 19.1755 14.6992C19.2341 14.8008 19.3141 14.8691 19.4157 14.9043C19.5173 14.9395 19.6364 14.957 19.7731 14.957C19.8708 14.957 19.9645 14.9512 20.0544 14.9395C20.1442 14.9277 20.2165 14.916 20.2712 14.9043L20.277 15.9824C20.1598 16.0176 20.0231 16.0488 19.8669 16.0762C19.7145 16.1035 19.5387 16.1172 19.3395 16.1172C19.0153 16.1172 18.7282 16.0605 18.4782 15.9473C18.2282 15.8301 18.0329 15.6406 17.8923 15.3789C17.7516 15.1172 17.6813 14.7695 17.6813 14.3359V8.10742ZM23.0921 10.8672V16H21.68V9.66016H23.0277L23.0921 10.8672ZM25.0316 9.61914L25.0198 10.9316C24.9339 10.916 24.8402 10.9043 24.7386 10.8965C24.6409 10.8887 24.5433 10.8848 24.4456 10.8848C24.2034 10.8848 23.9905 10.9199 23.807 10.9902C23.6234 11.0566 23.4691 11.1543 23.3441 11.2832C23.223 11.4082 23.1292 11.5605 23.0628 11.7402C22.9964 11.9199 22.9573 12.1211 22.9456 12.3438L22.6234 12.3672C22.6234 11.9688 22.6624 11.5996 22.7405 11.2598C22.8187 10.9199 22.9359 10.6211 23.0921 10.3633C23.2523 10.1055 23.4515 9.9043 23.6898 9.75977C23.932 9.61523 24.2113 9.54297 24.5277 9.54297C24.6136 9.54297 24.7054 9.55078 24.803 9.56641C24.9046 9.58203 24.9808 9.59961 25.0316 9.61914ZM27.788 7V16H26.3701V7H27.788Z" fill="#DEE2F1"/>
<rect x="41" width="24" height="24" rx="4" fill="#15161D"/>
<path d="M51.5469 7.46875V16H50.0762V7.46875H51.5469ZM56.6738 7.46875L53.2168 11.5762L51.248 13.6621L50.9902 12.2031L52.3965 10.4688L54.8809 7.46875H56.6738ZM55.0918 16L52.2852 11.957L53.2988 10.9551L56.8379 16H55.0918Z" fill="#DEE2F1"/>
</svg>
