<svg width="20" height="20" viewBox="0 0 20 20" fill="none" xmlns="http://www.w3.org/2000/svg">
<path fill="#455a64" d="M17.5 13.7503C17.5 14.067 17.325 14.342 17.0583 14.4837L10.475 18.1837C10.3417 18.2837 10.175 18.3337 10 18.3337C9.825 18.3337 9.65833 18.2837 9.525 18.1837L2.94167 14.4837C2.675 14.342 2.5 14.067 2.5 13.7503V6.25033C2.5 5.93366 2.675 5.65866 2.94167 5.51699L9.525 1.81699C9.65833 1.71699 9.825 1.66699 10 1.66699C10.175 1.66699 10.3417 1.71699 10.475 1.81699L17.0583 5.51699C17.325 5.65866 17.5 5.93366 17.5 6.25033V13.7503ZM10 3.45866L5.03333 6.25033L10 9.04199L14.9667 6.25033L10 3.45866Z"/>
</svg>
