<svg width="54" height="51" viewBox="0 0 54 51" fill="none" xmlns="http://www.w3.org/2000/svg">
<g filter="url(#filter0_dd_3983_9362)">
<rect x="4" width="46" height="43" rx="8" fill="white" shape-rendering="crispEdges"/>
<path d="M20.1928 13.412H26.4808C31.8888 13.412 34.5928 16.26 34.5928 21.956C34.5928 24.676 33.9448 26.78 32.6488 28.268C31.3688 29.756 29.4728 30.5 26.9608 30.5H20.1928V13.412ZM23.7448 27.5H26.5048C28.1528 27.5 29.3208 27.076 30.0088 26.228C30.6968 25.364 31.0408 23.94 31.0408 21.956C31.0408 19.94 30.6808 18.484 29.9608 17.588C29.2088 16.724 27.8968 16.292 26.0248 16.292H23.7448V27.5Z" fill="#202020"/>
</g>
<defs>
<filter id="filter0_dd_3983_9362" x="0" y="0" width="54" height="51" filterUnits="userSpaceOnUse" color-interpolation-filters="sRGB">
<feFlood flood-opacity="0" result="BackgroundImageFix"/>
<feColorMatrix in="SourceAlpha" type="matrix" values="0 0 0 0 0 0 0 0 0 0 0 0 0 0 0 0 0 0 127 0" result="hardAlpha"/>
<feOffset dy="4"/>
<feGaussianBlur stdDeviation="2"/>
<feComposite in2="hardAlpha" operator="out"/>
<feColorMatrix type="matrix" values="0 0 0 0 0 0 0 0 0 0 0 0 0 0 0 0 0 0 0.12 0"/>
<feBlend mode="normal" in2="BackgroundImageFix" result="effect1_dropShadow_3983_9362"/>
<feColorMatrix in="SourceAlpha" type="matrix" values="0 0 0 0 0 0 0 0 0 0 0 0 0 0 0 0 0 0 127 0" result="hardAlpha"/>
<feOffset dy="8"/>
<feComposite in2="hardAlpha" operator="out"/>
<feColorMatrix type="matrix" values="0 0 0 0 0.36915 0 0 0 0 0.385735 0 0 0 0 0.535 0 0 0 1 0"/>
<feBlend mode="normal" in2="effect1_dropShadow_3983_9362" result="effect2_dropShadow_3983_9362"/>
<feBlend mode="normal" in="SourceGraphic" in2="effect2_dropShadow_3983_9362" result="shape"/>
</filter>
</defs>
</svg>
