<svg width="24" height="24" viewBox="0 0 24 24" fill="none" xmlns="http://www.w3.org/2000/svg">
<path opacity="0.3" fill-rule="evenodd" clip-rule="evenodd" d="M19 11C19.5046 10.9998 19.9906 11.1904 20.3605 11.5335C20.7305 11.8766 20.9572 12.3468 20.995 12.85L21 13V19C21.0002 19.5046 20.8096 19.9906 20.4665 20.3605C20.1234 20.7305 19.6532 20.9572 19.15 20.995L19 21H15C14.4954 21.0002 14.0094 20.8096 13.6395 20.4665C13.2695 20.1234 13.0428 19.6532 13.005 19.15L13 19V13C12.9998 12.4954 13.1904 12.0094 13.5335 11.6395C13.8766 11.2695 14.3468 11.0428 14.85 11.005L15 11H19ZM19 3C19.5304 3 20.0391 3.21071 20.4142 3.58579C20.7893 3.96086 21 4.46957 21 5V7C21 7.53043 20.7893 8.03914 20.4142 8.41421C20.0391 8.78929 19.5304 9 19 9H15C14.4696 9 13.9609 8.78929 13.5858 8.41421C13.2107 8.03914 13 7.53043 13 7V5C13 4.46957 13.2107 3.96086 13.5858 3.58579C13.9609 3.21071 14.4696 3 15 3H19Z" fill="#8F73FF"/>
<path fill-rule="evenodd" clip-rule="evenodd" d="M9 3C9.53043 3 10.0391 3.21071 10.4142 3.58579C10.7893 3.96086 11 4.46957 11 5V11C11 11.5304 10.7893 12.0391 10.4142 12.4142C10.0391 12.7893 9.53043 13 9 13H5C4.46957 13 3.96086 12.7893 3.58579 12.4142C3.21071 12.0391 3 11.5304 3 11V5C3 4.46957 3.21071 3.96086 3.58579 3.58579C3.96086 3.21071 4.46957 3 5 3H9Z" fill="#8F73FF"/>
<path opacity="0.3" fill-rule="evenodd" clip-rule="evenodd" d="M9 15C9.53043 15 10.0391 15.2107 10.4142 15.5858C10.7893 15.9609 11 16.4696 11 17V19C11 19.5304 10.7893 20.0391 10.4142 20.4142C10.0391 20.7893 9.53043 21 9 21H5C4.46957 21 3.96086 20.7893 3.58579 20.4142C3.21071 20.0391 3 19.5304 3 19V17C3 16.4696 3.21071 15.9609 3.58579 15.5858C3.96086 15.2107 4.46957 15 5 15H9Z" fill="#8F73FF"/>
</svg>
