<svg width="11" height="18" viewBox="0 0 11 18" fill="none" xmlns="http://www.w3.org/2000/svg">
<path fill-rule="evenodd" clip-rule="evenodd" d="M6.42836 9.85631V14.142C7.93651 14.0066 8.57122 13.1619 8.57122 12.0463C8.57122 10.9719 8.07751 10.3363 6.42836 9.85631ZM5.14265 7.71345V3.85631C3.73993 4.03416 2.99979 4.85488 2.99979 5.75488C2.99979 6.65488 3.58436 7.31788 5.14265 7.71345ZM6.35979 8.0293L6.81922 8.14802C9.33579 8.75188 10.7141 9.82073 10.7141 11.9289C10.7141 14.3537 8.80008 15.7294 6.35979 15.9077V17.5706H5.27851V15.9077C2.84765 15.7196 0.924219 14.3044 0.856934 11.9289H2.83779C3.01008 13.0869 3.73779 13.938 5.27851 14.106V9.79159L4.88593 9.69259C2.45508 9.10845 1.14408 7.98002 1.14408 5.97088C1.14408 3.75388 2.86693 2.28902 5.27851 2.10088V0.427734H6.35979V2.10045C8.75208 2.29845 10.4844 3.78302 10.5611 6.03002H8.57036C8.44608 4.78288 7.58465 4.06031 6.35979 3.90173V8.0293Z" fill="#666B80"/>
</svg>
