<svg width="24" height="24" viewBox="0 0 24 24" fill="none" xmlns="http://www.w3.org/2000/svg">
<path fill-rule="evenodd" clip-rule="evenodd" d="M12.4269 12.8583V17.144C13.935 17.0085 14.5698 16.1638 14.5698 15.0483C14.5698 13.9738 14.076 13.3383 12.4269 12.8583ZM11.1412 10.7154V6.85826C9.73847 7.03612 8.99833 7.85683 8.99833 8.75683C8.99833 9.65683 9.5829 10.3198 11.1412 10.7154ZM12.3583 11.0313L12.8178 11.15C15.3343 11.7538 16.7126 12.8227 16.7126 14.9308C16.7126 17.3557 14.7986 18.7314 12.3583 18.9097V20.5725H11.277V18.9097C8.84618 18.7215 6.92275 17.3064 6.85547 14.9308H8.83633C9.00861 16.0888 9.73633 16.94 11.277 17.108V12.7935L10.8845 12.6945C8.45361 12.1104 7.14261 10.982 7.14261 8.97283C7.14261 6.75583 8.86547 5.29097 11.277 5.10283V3.42969H12.3583V5.1024C14.7506 5.3004 16.4829 6.78497 16.5596 9.03197H14.5689C14.4446 7.78483 13.5832 7.06226 12.3583 6.90369V11.0313Z" fill="#5A5A62"/>
</svg>
