<svg width="24" height="24" viewBox="0 0 24 24" fill="none" xmlns="http://www.w3.org/2000/svg">
<path fill-rule="evenodd" clip-rule="evenodd" d="M12.4284 12.8563V17.142C13.9365 17.0066 14.5712 16.1619 14.5712 15.0463C14.5712 13.9719 14.0775 13.3363 12.4284 12.8563ZM11.1426 10.7134V6.85631C9.73993 7.03416 8.99979 7.85488 8.99979 8.75488C8.99979 9.65488 9.58436 10.3179 11.1426 10.7134ZM12.3598 11.0293L12.8192 11.148C15.3358 11.7519 16.7141 12.8207 16.7141 14.9289C16.7141 17.3537 14.8001 18.7294 12.3598 18.9077V20.5706H11.2785V18.9077C8.84765 18.7196 6.92422 17.3044 6.85693 14.9289H8.83779C9.01008 16.0869 9.73779 16.938 11.2785 17.106V12.7916L10.8859 12.6926C8.45508 12.1084 7.14408 10.98 7.14408 8.97088C7.14408 6.75388 8.86693 5.28902 11.2785 5.10088V3.42773H12.3598V5.10045C14.7521 5.29845 16.4844 6.78302 16.5611 9.03002H14.5704C14.4461 7.78288 13.5846 7.06031 12.3598 6.90173V11.0293Z" fill="#969CB3"/>
</svg>
