<svg xmlns="http://www.w3.org/2000/svg" width="60.787" height="60.033" viewBox="0 0 60.787 60.033">
  <g id="icon_logo" data-name="icon logo" transform="translate(-347.682 -127.304)">
    <g id="Group_40313" data-name="Group 40313" transform="translate(347.682 127.304)">
      <g id="Group_40312" data-name="Group 40312" transform="translate(0)">
        <g id="Group_39074" data-name="Group 39074" transform="translate(0)">
          <path id="Path_32914" data-name="Path 32914" d="M1762.67,1729.856a30.019,30.019,0,1,0,30.393,30.017,30.207,30.207,0,0,0-30.393-30.017Z" transform="translate(-1732.276 -1729.856)" fill="#00edbe"/>
        </g>
      </g>
    </g>
    <g id="Group_45823" data-name="Group 45823" transform="translate(59.986)">
      <g id="Group_45822" data-name="Group 45822">
        <path id="Path_95273" data-name="Path 95273" d="M169.625,128.513a7.591,7.591,0,0,1,1.052-4.285h-24.5a1.672,1.672,0,0,0-1.678,1.666v5.237a1.672,1.672,0,0,0,1.678,1.666h24.5a7.591,7.591,0,0,1-1.052-4.285" transform="translate(160.476 17.708)" fill="#141beb"/>
        <path id="Path_95274" data-name="Path 95274" d="M104.056,223.785A7.591,7.591,0,0,1,103,228.069h24.5a1.672,1.672,0,0,0,1.678-1.666v-5.237A1.672,1.672,0,0,0,127.5,219.5H103a7.591,7.591,0,0,1,1.052,4.285" transform="translate(197.101 -66.38)" fill="#141beb"/>
        <path id="Path_95275" data-name="Path 95275" d="M169.625,319.057a7.591,7.591,0,0,1,1.052-4.285h-24.5a1.672,1.672,0,0,0-1.678,1.666v5.237a1.672,1.672,0,0,0,1.678,1.666h24.5a7.591,7.591,0,0,1-1.052-4.285" transform="translate(160.476 -150.469)" fill="#141beb"/>
      </g>
    </g>
  </g>
</svg>
