<svg width="16" height="16" viewBox="0 0 16 16" fill="none" xmlns="http://www.w3.org/2000/svg">
<g id="eye">
<path id="Vector" d="M8.0013 6C7.47087 6 6.96216 6.21071 6.58709 6.58579C6.21202 6.96086 6.0013 7.46957 6.0013 8C6.0013 8.53043 6.21202 9.03914 6.58709 9.41421C6.96216 9.78929 7.47087 10 8.0013 10C8.53173 10 9.04044 9.78929 9.41551 9.41421C9.79059 9.03914 10.0013 8.53043 10.0013 8C10.0013 7.46957 9.79059 6.96086 9.41551 6.58579C9.04044 6.21071 8.53173 6 8.0013 6ZM8.0013 11.3333C7.11725 11.3333 6.2694 10.9821 5.64428 10.357C5.01916 9.7319 4.66797 8.88406 4.66797 8C4.66797 7.11595 5.01916 6.2681 5.64428 5.64298C6.2694 5.01786 7.11725 4.66667 8.0013 4.66667C8.88536 4.66667 9.7332 5.01786 10.3583 5.64298C10.9834 6.2681 11.3346 7.11595 11.3346 8C11.3346 8.88406 10.9834 9.7319 10.3583 10.357C9.7332 10.9821 8.88536 11.3333 8.0013 11.3333ZM8.0013 3C4.66797 3 1.8213 5.07333 0.667969 8C1.8213 10.9267 4.66797 13 8.0013 13C11.3346 13 14.1813 10.9267 15.3346 8C14.1813 5.07333 11.3346 3 8.0013 3Z" fill="#607D8B"/>
</g>
</svg>
