<svg width="19" height="18" viewBox="0 0 19 18" fill="none" xmlns="http://www.w3.org/2000/svg">
<path d="M13.3334 8.99984C15.6334 8.99984 17.5001 7.13317 17.5001 4.83317C17.5001 2.53317 15.6334 0.666504 13.3334 0.666504C11.0334 0.666504 9.16673 2.53317 9.16673 4.83317C9.16673 7.13317 11.0334 8.99984 13.3334 8.99984ZM17.8751 13.6665C17.5501 13.3332 17.1417 13.1665 16.6667 13.1665H10.8334L9.10007 12.5582L9.37507 11.7748L10.8334 12.3332H13.1667C13.4584 12.3332 13.6917 12.2165 13.8834 12.0248C14.0751 11.8332 14.1667 11.5998 14.1667 11.3415C14.1667 10.8915 13.9501 10.5832 13.5167 10.4082L7.4584 8.1665H5.8334V15.6665L11.6667 17.3332L18.3584 14.8332C18.3667 14.3915 18.2001 13.9998 17.8751 13.6665ZM4.16673 8.1665H0.820068V17.3332H4.16673V8.1665Z" fill="#455A64"/>
</svg>
