<svg width="181" height="28" viewBox="0 0 181 28" fill="none" xmlns="http://www.w3.org/2000/svg">
<path d="M18.6667 4.66602L10.5 9.37935V18.6193L18.6667 23.3327L26.8333 18.6193V9.37935M18.6667 7.36102L23.1 9.91602L18.6667 12.471L14.245 9.91602M0 8.16602V10.4993H8.16667V8.16602M12.8333 11.7943L17.5 14.4893V19.961L12.8333 17.2777M24.5 11.7943V17.2777L19.8333 19.961V14.4893M2.33333 12.8327V15.166H8.16667V12.8327M4.66667 17.4993V19.8327H8.16667V17.4993" fill="#FF9800"/>
<path d="M37.3047 10.4336H39.9023V21.7812C39.9023 22.5299 39.7656 23.1647 39.4922 23.6855C39.2253 24.2064 38.8379 24.6003 38.3301 24.8672C37.8223 25.1341 37.2005 25.2676 36.4648 25.2676C36.237 25.2676 36.0091 25.2546 35.7812 25.2285C35.5534 25.2025 35.3288 25.1602 35.1074 25.1016L35.1172 23.1094C35.2604 23.1354 35.4069 23.1549 35.5566 23.168C35.7064 23.1875 35.8561 23.1973 36.0059 23.1973C36.2858 23.1973 36.5202 23.1484 36.709 23.0508C36.9043 22.9531 37.0508 22.8001 37.1484 22.5918C37.2526 22.3835 37.3047 22.1133 37.3047 21.7812V10.4336ZM37.0898 7.66992C37.0898 7.28581 37.2201 6.9668 37.4805 6.71289C37.7474 6.45898 38.1055 6.33203 38.5547 6.33203C39.0039 6.33203 39.3587 6.45898 39.6191 6.71289C39.8861 6.9668 40.0195 7.28581 40.0195 7.66992C40.0195 8.04753 39.8861 8.36328 39.6191 8.61719C39.3587 8.87109 39.0039 8.99805 38.5547 8.99805C38.1055 8.99805 37.7474 8.87109 37.4805 8.61719C37.2201 8.36328 37.0898 8.04753 37.0898 7.66992ZM45.0293 10.4336V21H42.4414V10.4336H45.0293ZM42.2656 7.66992C42.2656 7.28581 42.3958 6.9668 42.6562 6.71289C42.9232 6.45898 43.2812 6.33203 43.7305 6.33203C44.1797 6.33203 44.5345 6.45898 44.7949 6.71289C45.0618 6.9668 45.1953 7.28581 45.1953 7.66992C45.1953 8.04753 45.0618 8.36328 44.7949 8.61719C44.5345 8.87109 44.1797 8.99805 43.7305 8.99805C43.2812 8.99805 42.9232 8.87109 42.6562 8.61719C42.3958 8.36328 42.2656 8.04753 42.2656 7.66992ZM50.8691 21H48.2715V9.45703C48.2715 8.66276 48.4245 7.99544 48.7305 7.45508C49.0365 6.9082 49.4727 6.49479 50.0391 6.21484C50.6055 5.9349 51.2728 5.79492 52.041 5.79492C52.2949 5.79492 52.5358 5.8112 52.7637 5.84375C52.998 5.8763 53.2292 5.92188 53.457 5.98047L53.4082 7.94336C53.2845 7.91081 53.1478 7.88802 52.998 7.875C52.8548 7.86198 52.6953 7.85547 52.5195 7.85547C52.168 7.85547 51.8685 7.91732 51.6211 8.04102C51.3737 8.16471 51.1849 8.34701 51.0547 8.58789C50.931 8.82227 50.8691 9.11198 50.8691 9.45703V21ZM53.0078 10.4336V12.2891H46.6797V10.4336H53.0078ZM57.9785 21H55.3809V9.45703C55.3809 8.66276 55.5339 7.99544 55.8398 7.45508C56.1458 6.9082 56.582 6.49479 57.1484 6.21484C57.7148 5.9349 58.3822 5.79492 59.1504 5.79492C59.4043 5.79492 59.6452 5.8112 59.873 5.84375C60.1074 5.8763 60.3385 5.92188 60.5664 5.98047L60.5176 7.94336C60.3939 7.91081 60.2572 7.88802 60.1074 7.875C59.9642 7.86198 59.8047 7.85547 59.6289 7.85547C59.2773 7.85547 58.9779 7.91732 58.7305 8.04102C58.4831 8.16471 58.2943 8.34701 58.1641 8.58789C58.0404 8.82227 57.9785 9.11198 57.9785 9.45703V21ZM60.1172 10.4336V12.2891H53.7891V10.4336H60.1172ZM64.8047 19.8281L67.6367 10.4336H70.4004L66.1621 22.6016C66.0645 22.862 65.9375 23.1452 65.7812 23.4512C65.6315 23.7572 65.4297 24.0469 65.1758 24.3203C64.9219 24.6003 64.6029 24.8281 64.2188 25.0039C63.8411 25.1797 63.3822 25.2676 62.8418 25.2676C62.6074 25.2676 62.3991 25.2513 62.2168 25.2188C62.0345 25.1862 61.8424 25.1439 61.6406 25.0918V23.1582C61.7057 23.1647 61.7806 23.168 61.8652 23.168C61.9564 23.1745 62.0345 23.1777 62.0996 23.1777C62.4772 23.1777 62.7897 23.1322 63.0371 23.041C63.2845 22.9564 63.4831 22.8164 63.6328 22.6211C63.7891 22.4323 63.9193 22.1849 64.0234 21.8789L64.8047 19.8281ZM63.4082 10.4336L65.8008 18.2168L66.2207 20.9414L64.4434 21.2637L60.625 10.4336H63.4082ZM77.4609 18.1094C77.4609 17.888 77.4023 17.6895 77.2852 17.5137C77.168 17.3379 76.9466 17.1784 76.6211 17.0352C76.3021 16.8854 75.8333 16.7454 75.2148 16.6152C74.668 16.498 74.1634 16.3516 73.7012 16.1758C73.2389 16 72.8418 15.7884 72.5098 15.541C72.1777 15.2871 71.9173 14.9909 71.7285 14.6523C71.5462 14.3073 71.4551 13.9102 71.4551 13.4609C71.4551 13.0247 71.5495 12.6146 71.7383 12.2305C71.9271 11.8398 72.2005 11.498 72.5586 11.2051C72.9167 10.9056 73.3529 10.6712 73.8672 10.502C74.3815 10.3262 74.9609 10.2383 75.6055 10.2383C76.5039 10.2383 77.2754 10.3848 77.9199 10.6777C78.571 10.9707 79.069 11.3743 79.4141 11.8887C79.7591 12.3965 79.9316 12.9694 79.9316 13.6074H77.3535C77.3535 13.3275 77.2884 13.0736 77.1582 12.8457C77.0345 12.6178 76.8424 12.4355 76.582 12.2988C76.3216 12.1556 75.9928 12.084 75.5957 12.084C75.2376 12.084 74.9349 12.1426 74.6875 12.2598C74.4466 12.377 74.2643 12.5299 74.1406 12.7188C74.0169 12.9076 73.9551 13.1159 73.9551 13.3438C73.9551 13.513 73.9876 13.666 74.0527 13.8027C74.1243 13.9329 74.2383 14.0534 74.3945 14.1641C74.5508 14.2747 74.7624 14.3757 75.0293 14.4668C75.3027 14.5579 75.638 14.6458 76.0352 14.7305C76.8229 14.8867 77.5098 15.0951 78.0957 15.3555C78.6882 15.6094 79.1504 15.9479 79.4824 16.3711C79.8145 16.7943 79.9805 17.3346 79.9805 17.9922C79.9805 18.4609 79.8796 18.8906 79.6777 19.2812C79.4759 19.6654 79.1829 20.0007 78.7988 20.2871C78.4147 20.5736 77.9557 20.7982 77.4219 20.9609C76.888 21.1172 76.2858 21.1953 75.6152 21.1953C74.6452 21.1953 73.8249 21.0228 73.1543 20.6777C72.4837 20.3262 71.9759 19.8835 71.6309 19.3496C71.2858 18.8092 71.1133 18.2493 71.1133 17.6699H73.584C73.6035 18.0801 73.7142 18.4089 73.916 18.6562C74.1178 18.9036 74.3717 19.0827 74.6777 19.1934C74.9902 19.2975 75.319 19.3496 75.6641 19.3496C76.0547 19.3496 76.3835 19.2975 76.6504 19.1934C76.9173 19.0827 77.1191 18.9362 77.2559 18.7539C77.3926 18.5651 77.4609 18.3503 77.4609 18.1094ZM86.2793 19.1641C86.6439 19.1641 86.9694 19.0924 87.2559 18.9492C87.5423 18.806 87.7702 18.6042 87.9395 18.3438C88.1152 18.0833 88.2096 17.7806 88.2227 17.4355H90.6543C90.6413 18.1517 90.4395 18.793 90.0488 19.3594C89.6582 19.9258 89.1374 20.375 88.4863 20.707C87.8418 21.0326 87.1191 21.1953 86.3184 21.1953C85.5046 21.1953 84.7949 21.0586 84.1895 20.7852C83.584 20.5117 83.0794 20.1309 82.6758 19.6426C82.2786 19.1543 81.9792 18.5879 81.7773 17.9434C81.582 17.2988 81.4844 16.6087 81.4844 15.873V15.5605C81.4844 14.8249 81.582 14.1348 81.7773 13.4902C81.9792 12.8457 82.2786 12.2793 82.6758 11.791C83.0794 11.3027 83.584 10.9219 84.1895 10.6484C84.7949 10.375 85.5013 10.2383 86.3086 10.2383C87.1615 10.2383 87.9102 10.4043 88.5547 10.7363C89.2057 11.0684 89.7135 11.5371 90.0781 12.1426C90.4492 12.748 90.6413 13.4609 90.6543 14.2812H88.2227C88.2096 13.9036 88.125 13.5651 87.9688 13.2656C87.8125 12.9661 87.5911 12.7253 87.3047 12.543C87.0182 12.3607 86.6699 12.2695 86.2598 12.2695C85.8236 12.2695 85.459 12.3607 85.166 12.543C84.8796 12.7253 84.6549 12.9759 84.4922 13.2949C84.3359 13.6074 84.2253 13.959 84.1602 14.3496C84.1016 14.7337 84.0723 15.1374 84.0723 15.5605V15.873C84.0723 16.3027 84.1016 16.7129 84.1602 17.1035C84.2253 17.4941 84.3359 17.8457 84.4922 18.1582C84.6549 18.4642 84.8796 18.7083 85.166 18.8906C85.459 19.0729 85.8301 19.1641 86.2793 19.1641ZM98.1934 18.7539V13.8809C98.1934 13.5228 98.1315 13.2135 98.0078 12.9531C97.8841 12.6927 97.6953 12.4909 97.4414 12.3477C97.1875 12.2044 96.8652 12.1328 96.4746 12.1328C96.1296 12.1328 95.8268 12.1914 95.5664 12.3086C95.3125 12.4258 95.1172 12.5918 94.9805 12.8066C94.8438 13.015 94.7754 13.2559 94.7754 13.5293H92.1875C92.1875 13.0931 92.2917 12.6797 92.5 12.2891C92.7083 11.8919 93.0046 11.5404 93.3887 11.2344C93.7793 10.9219 94.2448 10.6777 94.7852 10.502C95.332 10.3262 95.944 10.2383 96.6211 10.2383C97.4219 10.2383 98.1348 10.375 98.7598 10.6484C99.3913 10.9154 99.8861 11.319 100.244 11.8594C100.609 12.3997 100.791 13.0801 100.791 13.9004V18.5098C100.791 19.0371 100.824 19.4896 100.889 19.8672C100.96 20.2383 101.064 20.5605 101.201 20.834V21H98.5742C98.4505 20.7331 98.3561 20.3945 98.291 19.9844C98.2259 19.5677 98.1934 19.1576 98.1934 18.7539ZM98.5547 14.5645L98.5742 16.0977H96.9434C96.5397 16.0977 96.1849 16.14 95.8789 16.2246C95.5729 16.3027 95.3223 16.4199 95.127 16.5762C94.9316 16.7259 94.7852 16.9082 94.6875 17.123C94.5898 17.3314 94.541 17.569 94.541 17.8359C94.541 18.0964 94.5996 18.3307 94.7168 18.5391C94.8405 18.7474 95.0163 18.9134 95.2441 19.0371C95.4785 19.1543 95.752 19.2129 96.0645 19.2129C96.5202 19.2129 96.9173 19.1217 97.2559 18.9395C97.5944 18.7507 97.8581 18.5228 98.0469 18.2559C98.2357 17.9889 98.3366 17.735 98.3496 17.4941L99.0918 18.6074C99.0007 18.8743 98.8639 19.1576 98.6816 19.457C98.4993 19.7565 98.265 20.0365 97.9785 20.2969C97.6921 20.5573 97.347 20.7721 96.9434 20.9414C96.5397 21.1107 96.071 21.1953 95.5371 21.1953C94.8535 21.1953 94.2415 21.0586 93.7012 20.7852C93.1608 20.5117 92.7344 20.1374 92.4219 19.6621C92.1094 19.1868 91.9531 18.6465 91.9531 18.041C91.9531 17.4811 92.0573 16.9863 92.2656 16.5566C92.474 16.127 92.7832 15.7656 93.1934 15.4727C93.6035 15.1732 94.1113 14.9486 94.7168 14.7988C95.3288 14.6426 96.0286 14.5645 96.8164 14.5645H98.5547ZM105.645 12.6895V21H103.066V10.4336H105.488L105.645 12.6895ZM105.234 15.3359H104.473C104.479 14.5677 104.583 13.8711 104.785 13.2461C104.987 12.6211 105.27 12.084 105.635 11.6348C106.006 11.1855 106.445 10.8405 106.953 10.5996C107.461 10.3587 108.027 10.2383 108.652 10.2383C109.16 10.2383 109.619 10.3099 110.029 10.4531C110.439 10.5964 110.791 10.8242 111.084 11.1367C111.383 11.4492 111.611 11.8594 111.768 12.3672C111.93 12.8685 112.012 13.487 112.012 14.2227V21H109.414V14.2031C109.414 13.7214 109.342 13.3405 109.199 13.0605C109.062 12.7806 108.861 12.582 108.594 12.4648C108.333 12.3477 108.011 12.2891 107.627 12.2891C107.23 12.2891 106.882 12.3704 106.582 12.5332C106.289 12.6895 106.042 12.9076 105.84 13.1875C105.645 13.4674 105.495 13.7897 105.391 14.1543C105.286 14.5189 105.234 14.9128 105.234 15.3359ZM114.395 19.7402C114.395 19.3496 114.528 19.0208 114.795 18.7539C115.062 18.487 115.423 18.3535 115.879 18.3535C116.335 18.3535 116.696 18.487 116.963 18.7539C117.23 19.0208 117.363 19.3496 117.363 19.7402C117.363 20.1243 117.23 20.4499 116.963 20.7168C116.696 20.9772 116.335 21.1074 115.879 21.1074C115.423 21.1074 115.062 20.9772 114.795 20.7168C114.528 20.4499 114.395 20.1243 114.395 19.7402ZM121.992 10.4336L123.877 13.793L125.791 10.4336H128.594L125.488 15.6094L128.721 21H125.918L123.896 17.4746L121.865 21H119.062L122.285 15.6094L119.199 10.4336H121.992ZM133.184 19.8281L136.016 10.4336H138.779L134.541 22.6016C134.443 22.862 134.316 23.1452 134.16 23.4512C134.01 23.7572 133.809 24.0469 133.555 24.3203C133.301 24.6003 132.982 24.8281 132.598 25.0039C132.22 25.1797 131.761 25.2676 131.221 25.2676C130.986 25.2676 130.778 25.2513 130.596 25.2188C130.413 25.1862 130.221 25.1439 130.02 25.0918V23.1582C130.085 23.1647 130.16 23.168 130.244 23.168C130.335 23.1745 130.413 23.1777 130.479 23.1777C130.856 23.1777 131.169 23.1322 131.416 23.041C131.663 22.9564 131.862 22.8164 132.012 22.6211C132.168 22.4323 132.298 22.1849 132.402 21.8789L133.184 19.8281ZM131.787 10.4336L134.18 18.2168L134.6 20.9414L132.822 21.2637L129.004 10.4336H131.787ZM148.311 18.9688V21H140.361V18.9688H148.311ZM148.125 11.9766L141.328 21H139.629V19.4082L146.387 10.4336H148.125V11.9766ZM147.178 10.4336V12.4746H139.766V10.4336H147.178Z" fill="#263238"/>
<path d="M37.3047 10.4336V10.2336L37.1047 10.4336H37.3047ZM39.9023 10.4336H40.1023L39.9023 10.2336V10.4336ZM39.4922 23.6855L39.3151 23.5926L39.3142 23.5943L39.4922 23.6855ZM35.1074 25.1016L34.9074 25.1006L35.0562 25.2949L35.1074 25.1016ZM35.1172 23.1094L35.153 22.9126L34.9172 23.1084L35.1172 23.1094ZM35.5566 23.168L35.5825 22.9695L35.574 22.9687L35.5566 23.168ZM36.709 23.0508L36.6195 22.8719L36.6171 22.8731L36.709 23.0508ZM37.1484 22.5918L36.9695 22.5023L36.9673 22.5069L37.1484 22.5918ZM37.4805 6.71289L37.3426 6.56797L37.3408 6.56969L37.4805 6.71289ZM39.6191 6.71289L39.4795 6.8561L39.4813 6.8578L39.6191 6.71289ZM39.6191 8.61719L39.4813 8.47226L39.4795 8.47399L39.6191 8.61719ZM37.4805 8.61719L37.3408 8.7604L37.3426 8.7621L37.4805 8.61719ZM37.3047 10.6336H39.9023V10.2336H37.3047V10.6336ZM39.7023 10.4336V21.7812H40.1023V10.4336H39.7023ZM39.7023 21.7812C39.7023 22.5062 39.5699 23.1072 39.3151 23.5926L39.6693 23.7785C39.9613 23.2222 40.1023 22.5537 40.1023 21.7812H39.7023ZM39.3142 23.5943C39.0657 24.0793 38.7076 24.4428 38.237 24.6902L38.4231 25.0442C38.9682 24.7577 39.3849 24.3335 39.6702 23.7768L39.3142 23.5943ZM38.237 24.6902C37.7649 24.9383 37.177 25.0676 36.4648 25.0676V25.4676C37.224 25.4676 37.8797 25.3299 38.4231 25.0442L38.237 24.6902ZM36.4648 25.0676C36.2446 25.0676 36.0243 25.055 35.804 25.0298L35.7585 25.4272C35.9939 25.4541 36.2293 25.4676 36.4648 25.4676V25.0676ZM35.804 25.0298C35.5857 25.0049 35.3706 24.9643 35.1586 24.9082L35.0562 25.2949C35.287 25.356 35.5211 25.4001 35.7585 25.4272L35.804 25.0298ZM35.3074 25.1025L35.3172 23.1104L34.9172 23.1084L34.9074 25.1006L35.3074 25.1025ZM35.0814 23.3061C35.2309 23.3333 35.3836 23.3537 35.5393 23.3672L35.574 22.9687C35.4302 22.9562 35.2899 22.9375 35.153 22.9126L35.0814 23.3061ZM35.5308 23.3663C35.689 23.3869 35.8474 23.3973 36.0059 23.3973V22.9973C35.8648 22.9973 35.7237 22.9881 35.5825 22.9696L35.5308 23.3663ZM36.0059 23.3973C36.308 23.3973 36.5761 23.3447 36.8009 23.2284L36.6171 22.8731C36.4643 22.9522 36.2636 22.9973 36.0059 22.9973V23.3973ZM36.7984 23.2297C37.0363 23.1108 37.2139 22.9234 37.3295 22.6767L36.9673 22.5069C36.8877 22.6768 36.7723 22.7955 36.6195 22.8719L36.7984 23.2297ZM37.3273 22.6812C37.45 22.4359 37.5047 22.132 37.5047 21.7812H37.1047C37.1047 22.0946 37.0552 22.331 36.9696 22.5024L37.3273 22.6812ZM37.5047 21.7812V10.4336H37.1047V21.7812H37.5047ZM37.2898 7.66992C37.2898 7.33635 37.4006 7.07006 37.6201 6.85609L37.3408 6.56969C37.0395 6.86353 36.8898 7.23526 36.8898 7.66992H37.2898ZM37.6183 6.8578C37.8403 6.64669 38.1449 6.53203 38.5547 6.53203V6.13203C38.0661 6.13203 37.6545 6.27128 37.3426 6.56798L37.6183 6.8578ZM38.5547 6.53203C38.9647 6.53203 39.2648 6.64674 39.4795 6.85609L39.7588 6.56969C39.4526 6.27123 39.0431 6.13203 38.5547 6.13203V6.53203ZM39.4813 6.8578C39.7067 7.07218 39.8195 7.33796 39.8195 7.66992H40.2195C40.2195 7.23366 40.0655 6.86141 39.757 6.56798L39.4813 6.8578ZM39.8195 7.66992C39.8195 7.99429 39.7074 8.25718 39.4813 8.47228L39.757 8.7621C40.0647 8.46939 40.2195 8.10076 40.2195 7.66992H39.8195ZM39.4795 8.47399C39.2648 8.68334 38.9647 8.79805 38.5547 8.79805V9.19805C39.0431 9.19805 39.4526 9.05885 39.7588 8.76039L39.4795 8.47399ZM38.5547 8.79805C38.1449 8.79805 37.8403 8.68339 37.6183 8.47228L37.3426 8.7621C37.6545 9.0588 38.0661 9.19805 38.5547 9.19805V8.79805ZM37.6201 8.47399C37.3999 8.25931 37.2898 7.99591 37.2898 7.66992H36.8898C36.8898 8.09914 37.0402 8.46726 37.3408 8.76039L37.6201 8.47399ZM45.0293 10.4336H45.2293L45.0293 10.2336V10.4336ZM45.0293 21V21.2L45.2293 21H45.0293ZM42.4414 21H42.2414L42.4414 21.2V21ZM42.4414 10.4336V10.2336L42.2414 10.4336H42.4414ZM42.6562 6.71289L42.5184 6.56797L42.5166 6.56969L42.6562 6.71289ZM44.7949 6.71289L44.6553 6.8561L44.6571 6.8578L44.7949 6.71289ZM44.7949 8.61719L44.6571 8.47226L44.6553 8.47399L44.7949 8.61719ZM42.6562 8.61719L42.5166 8.7604L42.5184 8.7621L42.6562 8.61719ZM44.8293 10.4336V21H45.2293V10.4336H44.8293ZM45.0293 20.8H42.4414V21.2H45.0293V20.8ZM42.6414 21V10.4336H42.2414V21H42.6414ZM42.4414 10.6336H45.0293V10.2336H42.4414V10.6336ZM42.4656 7.66992C42.4656 7.33635 42.5764 7.07006 42.7959 6.85609L42.5166 6.56969C42.2153 6.86353 42.0656 7.23526 42.0656 7.66992H42.4656ZM42.7941 6.8578C43.016 6.64669 43.3207 6.53203 43.7305 6.53203V6.13203C43.2418 6.13203 42.8303 6.27128 42.5184 6.56798L42.7941 6.8578ZM43.7305 6.53203C44.1405 6.53203 44.4406 6.64674 44.6553 6.85609L44.9345 6.56969C44.6284 6.27123 44.2189 6.13203 43.7305 6.13203V6.53203ZM44.6571 6.8578C44.8825 7.07218 44.9953 7.33796 44.9953 7.66992H45.3953C45.3953 7.23366 45.2412 6.86141 44.9328 6.56798L44.6571 6.8578ZM44.9953 7.66992C44.9953 7.99429 44.8832 8.25718 44.6571 8.47228L44.9328 8.7621C45.2405 8.46939 45.3953 8.10076 45.3953 7.66992H44.9953ZM44.6553 8.47399C44.4406 8.68334 44.1405 8.79805 43.7305 8.79805V9.19805C44.2189 9.19805 44.6284 9.05885 44.9345 8.76039L44.6553 8.47399ZM43.7305 8.79805C43.3207 8.79805 43.016 8.68339 42.7941 8.47228L42.5184 8.7621C42.8303 9.0588 43.2418 9.19805 43.7305 9.19805V8.79805ZM42.7959 8.47399C42.5757 8.25931 42.4656 7.99591 42.4656 7.66992H42.0656C42.0656 8.09914 42.216 8.46726 42.5166 8.76039L42.7959 8.47399ZM50.8691 21V21.2L51.0691 21H50.8691ZM48.2715 21H48.0715L48.2715 21.2V21ZM48.7305 7.45508L48.9045 7.55363L48.905 7.55274L48.7305 7.45508ZM52.7637 5.84375L52.7354 6.04174L52.7362 6.04185L52.7637 5.84375ZM53.457 5.98047L53.657 5.98544L53.5068 5.78677L53.457 5.98047ZM53.4082 7.94336L53.3573 8.13677L53.6081 7.94833L53.4082 7.94336ZM52.998 7.875L52.9799 8.07418L52.9807 8.07425L52.998 7.875ZM51.0547 8.58789L50.8787 8.49278L50.8778 8.49454L51.0547 8.58789ZM53.0078 10.4336H53.2078L53.0078 10.2336V10.4336ZM53.0078 12.2891V12.4891L53.2078 12.2891H53.0078ZM46.6797 12.2891H46.4797L46.6797 12.4891V12.2891ZM46.6797 10.4336V10.2336L46.4797 10.4336H46.6797ZM50.8691 20.8H48.2715V21.2H50.8691V20.8ZM48.4715 21V9.45703H48.0715V21H48.4715ZM48.4715 9.45703C48.4715 8.68787 48.6196 8.05667 48.9045 7.55363L48.5564 7.35653C48.2293 7.93421 48.0715 8.63766 48.0715 9.45703H48.4715ZM48.905 7.55274C49.1911 7.04144 49.5972 6.65634 50.1277 6.39414L49.9504 6.03555C49.3481 6.33325 48.8818 6.77497 48.5559 7.35742L48.905 7.55274ZM50.1277 6.39414C50.6612 6.13044 51.297 5.99492 52.041 5.99492V5.59492C51.2486 5.59492 50.5497 5.73935 49.9504 6.03555L50.1277 6.39414ZM52.041 5.99492C52.2864 5.99492 52.5178 6.01065 52.7354 6.04174L52.792 5.64576C52.5538 5.61174 52.3034 5.59492 52.041 5.59492V5.99492ZM52.7362 6.04185C52.9631 6.07336 53.1867 6.11747 53.4072 6.17417L53.5068 5.78677C53.2716 5.72628 53.033 5.67924 52.7912 5.64565L52.7362 6.04185ZM53.2571 5.9755L53.2083 7.93839L53.6081 7.94833L53.657 5.98544L53.2571 5.9755ZM53.4591 7.74994C53.3227 7.71405 53.1745 7.68959 53.0154 7.67575L52.9807 8.07425C53.121 8.08645 53.2463 8.10757 53.3573 8.13677L53.4591 7.74994ZM53.0162 7.67582C52.8658 7.66215 52.7001 7.65547 52.5195 7.65547V8.05547C52.6905 8.05547 52.8439 8.06181 52.9799 8.07418L53.0162 7.67582ZM52.5195 7.65547C52.1451 7.65547 51.8133 7.7213 51.5317 7.86213L51.7105 8.2199C51.9237 8.11333 52.1908 8.05547 52.5195 8.05547V7.65547ZM51.5317 7.86213C51.2479 8.00401 51.0287 8.21536 50.8787 8.49279L51.2306 8.68299C51.3411 8.47865 51.4995 8.32542 51.7105 8.2199L51.5317 7.86213ZM50.8778 8.49454C50.735 8.76506 50.6691 9.08895 50.6691 9.45703H51.0691C51.0691 9.13501 51.1269 8.87947 51.2316 8.68124L50.8778 8.49454ZM50.6691 9.45703V21H51.0691V9.45703H50.6691ZM52.8078 10.4336V12.2891H53.2078V10.4336H52.8078ZM53.0078 12.0891H46.6797V12.4891H53.0078V12.0891ZM46.8797 12.2891V10.4336H46.4797V12.2891H46.8797ZM46.6797 10.6336H53.0078V10.2336H46.6797V10.6336ZM57.9785 21V21.2L58.1785 21H57.9785ZM55.3809 21H55.1809L55.3809 21.2V21ZM55.8398 7.45508L56.0139 7.55363L56.0144 7.55274L55.8398 7.45508ZM59.873 5.84375L59.8448 6.04174L59.8455 6.04185L59.873 5.84375ZM60.5664 5.98047L60.7663 5.98544L60.6162 5.78677L60.5664 5.98047ZM60.5176 7.94336L60.4667 8.13677L60.7175 7.94833L60.5176 7.94336ZM60.1074 7.875L60.0893 8.07418L60.0901 8.07425L60.1074 7.875ZM58.1641 8.58789L57.9881 8.49278L57.9872 8.49454L58.1641 8.58789ZM60.1172 10.4336H60.3172L60.1172 10.2336V10.4336ZM60.1172 12.2891V12.4891L60.3172 12.2891H60.1172ZM53.7891 12.2891H53.5891L53.7891 12.4891V12.2891ZM53.7891 10.4336V10.2336L53.5891 10.4336H53.7891ZM57.9785 20.8H55.3809V21.2H57.9785V20.8ZM55.5809 21V9.45703H55.1809V21H55.5809ZM55.5809 9.45703C55.5809 8.68787 55.729 8.05667 56.0139 7.55363L55.6658 7.35653C55.3387 7.93421 55.1809 8.63766 55.1809 9.45703H55.5809ZM56.0144 7.55274C56.3005 7.04144 56.7066 6.65634 57.2371 6.39414L57.0598 6.03555C56.4575 6.33325 55.9912 6.77497 55.6653 7.35742L56.0144 7.55274ZM57.2371 6.39414C57.7706 6.13044 58.4064 5.99492 59.1504 5.99492V5.59492C58.358 5.59492 57.6591 5.73935 57.0598 6.03555L57.2371 6.39414ZM59.1504 5.99492C59.3958 5.99492 59.6272 6.01065 59.8448 6.04174L59.9013 5.64576C59.6632 5.61174 59.4128 5.59492 59.1504 5.59492V5.99492ZM59.8455 6.04185C60.0724 6.07336 60.2961 6.11747 60.5166 6.17417L60.6162 5.78677C60.381 5.72628 60.1424 5.67924 59.9006 5.64565L59.8455 6.04185ZM60.3665 5.9755L60.3176 7.93839L60.7175 7.94833L60.7663 5.98544L60.3665 5.9755ZM60.5685 7.74994C60.4321 7.71405 60.2839 7.68959 60.1247 7.67575L60.0901 8.07425C60.2304 8.08645 60.3557 8.10757 60.4667 8.13677L60.5685 7.74994ZM60.1255 7.67582C59.9751 7.66215 59.8095 7.65547 59.6289 7.65547V8.05547C59.7999 8.05547 59.9533 8.06181 60.0893 8.07418L60.1255 7.67582ZM59.6289 7.65547C59.2545 7.65547 58.9227 7.7213 58.641 7.86213L58.8199 8.2199C59.033 8.11333 59.3002 8.05547 59.6289 8.05547V7.65547ZM58.641 7.86213C58.3573 8.00401 58.1381 8.21536 57.9881 8.49279L58.34 8.68299C58.4505 8.47865 58.6089 8.32542 58.8199 8.2199L58.641 7.86213ZM57.9872 8.49454C57.8444 8.76506 57.7785 9.08895 57.7785 9.45703H58.1785C58.1785 9.13501 58.2363 8.87947 58.3409 8.68124L57.9872 8.49454ZM57.7785 9.45703V21H58.1785V9.45703H57.7785ZM59.9172 10.4336V12.2891H60.3172V10.4336H59.9172ZM60.1172 12.0891H53.7891V12.4891H60.1172V12.0891ZM53.9891 12.2891V10.4336H53.5891V12.2891H53.9891ZM53.7891 10.6336H60.1172V10.2336H53.7891V10.6336ZM64.8047 19.8281L64.9916 19.8993L64.9962 19.8859L64.8047 19.8281ZM67.6367 10.4336V10.2336L67.4452 10.3759L67.6367 10.4336ZM70.4004 10.4336L70.5893 10.4994L70.4004 10.2336V10.4336ZM66.1621 22.6016L66.3494 22.6718L66.351 22.6673L66.1621 22.6016ZM65.7812 23.4512L65.6031 23.3602L65.6016 23.3633L65.7812 23.4512ZM65.1758 24.3203L65.0292 24.1842L65.0276 24.1859L65.1758 24.3203ZM64.2188 25.0039L64.1355 24.822L64.1343 24.8226L64.2188 25.0039ZM61.6406 25.0918H61.4406L61.5906 25.2855L61.6406 25.0918ZM61.6406 23.1582L61.6605 22.9592L61.4406 23.1582H61.6406ZM61.8652 23.168L61.8795 22.9685L61.8652 22.968V23.168ZM63.0371 23.041L62.9724 22.8517L62.968 22.8533L63.0371 23.041ZM63.6328 22.6211L63.4786 22.4935L63.4741 22.4994L63.6328 22.6211ZM64.0234 21.8789L63.8364 21.8077L63.8341 21.8145L64.0234 21.8789ZM63.4082 10.4336L63.5994 10.3748L63.4082 10.2336V10.4336ZM65.8008 18.2168L65.9984 18.1863L65.992 18.158L65.8008 18.2168ZM66.2207 20.9414L66.2564 21.1382L66.4184 20.9109L66.2207 20.9414ZM64.4434 21.2637L64.2547 21.3302L64.479 21.4605L64.4434 21.2637ZM60.625 10.4336V10.2336L60.4364 10.5001L60.625 10.4336ZM64.9962 19.8859L67.8282 10.4913L67.4452 10.3759L64.6132 19.7704L64.9962 19.8859ZM67.6367 10.6336H70.4004V10.2336H67.6367V10.6336ZM70.2115 10.3678L65.9732 22.5358L66.351 22.6673L70.5893 10.4994L70.2115 10.3678ZM65.9748 22.5313C65.8804 22.7833 65.7567 23.0595 65.6031 23.3602L65.9594 23.5421C66.1183 23.2309 66.2485 22.9407 66.3494 22.6718L65.9748 22.5313ZM65.6016 23.3633C65.4613 23.6501 65.2711 23.9238 65.0292 24.1842L65.3223 24.4564C65.5883 24.17 65.8018 23.8643 65.9609 23.5391L65.6016 23.3633ZM65.0276 24.1859C64.794 24.4436 64.4979 24.6562 64.1355 24.822L64.302 25.1858C64.7078 25 65.0498 24.7569 65.3239 24.4547L65.0276 24.1859ZM64.1343 24.8226C63.7898 24.983 63.3613 25.0676 62.8418 25.0676V25.4676C63.403 25.4676 63.8925 25.3764 64.3032 25.1852L64.1343 24.8226ZM62.8418 25.0676C62.6163 25.0676 62.4201 25.0519 62.252 25.0219L62.1816 25.4156C62.3781 25.4507 62.5986 25.4676 62.8418 25.4676V25.0676ZM62.252 25.0219C62.0752 24.9903 61.8881 24.9491 61.6906 24.8981L61.5906 25.2855C61.7968 25.3386 61.9938 25.3821 62.1816 25.4156L62.252 25.0219ZM61.8406 25.0918V23.1582H61.4406V25.0918H61.8406ZM61.6207 23.3572C61.694 23.3645 61.7758 23.368 61.8652 23.368V22.968C61.7854 22.968 61.7174 22.9649 61.6605 22.9592L61.6207 23.3572ZM61.851 23.3675C61.9451 23.3742 62.0283 23.3777 62.0996 23.3777V22.9777C62.0407 22.9777 61.9676 22.9748 61.8795 22.9685L61.851 23.3675ZM62.0996 23.3777C62.4915 23.3777 62.8294 23.3307 63.1063 23.2287L62.968 22.8533C62.75 22.9336 62.463 22.9777 62.0996 22.9777V23.3777ZM63.1018 23.2302C63.3841 23.1337 63.6163 22.9714 63.7915 22.7428L63.4741 22.4994C63.3499 22.6614 63.1849 22.7791 62.9724 22.8518L63.1018 23.2302ZM63.7869 22.7486C63.9627 22.5362 64.1031 22.2654 64.2128 21.9434L63.8341 21.8145C63.7354 22.1044 63.6154 22.3284 63.4787 22.4936L63.7869 22.7486ZM64.2103 21.9501L64.9916 19.8993L64.6178 19.7569L63.8365 21.8077L64.2103 21.9501ZM63.217 10.4924L65.6096 18.2756L65.992 18.158L63.5994 10.3748L63.217 10.4924ZM65.6031 18.2473L66.023 20.9719L66.4184 20.9109L65.9984 18.1863L65.6031 18.2473ZM66.185 20.7446L64.4077 21.0669L64.479 21.4605L66.2564 21.1382L66.185 20.7446ZM64.632 21.1972L60.8136 10.3671L60.4364 10.5001L64.2547 21.3302L64.632 21.1972ZM60.625 10.6336H63.4082V10.2336H60.625V10.6336ZM76.6211 17.0352L76.5361 17.2163L76.5405 17.2182L76.6211 17.0352ZM75.2148 16.6152L75.1729 16.8108L75.1736 16.8109L75.2148 16.6152ZM72.5098 15.541L72.3883 15.6999L72.3903 15.7014L72.5098 15.541ZM71.7285 14.6523L71.5516 14.7458L71.5538 14.7498L71.7285 14.6523ZM71.7383 12.2305L71.9178 12.3187L71.9184 12.3175L71.7383 12.2305ZM72.5586 11.2051L72.6852 11.3599L72.6869 11.3585L72.5586 11.2051ZM73.8672 10.502L73.9297 10.6919L73.9319 10.6912L73.8672 10.502ZM77.9199 10.6777L77.8372 10.8598L77.8378 10.8601L77.9199 10.6777ZM79.4141 11.8887L79.248 12.0001L79.2486 12.0011L79.4141 11.8887ZM79.9316 13.6074V13.8074L80.1316 13.6074H79.9316ZM77.3535 13.6074H77.1535L77.3535 13.8074V13.6074ZM77.1582 12.8457L76.9824 12.9411L76.9846 12.9449L77.1582 12.8457ZM76.582 12.2988L76.4856 12.4741L76.4891 12.4759L76.582 12.2988ZM74.6875 12.2598L74.6019 12.079L74.6 12.0799L74.6875 12.2598ZM74.0527 13.8027L73.8719 13.8889L73.8775 13.8991L74.0527 13.8027ZM75.0293 14.4668L74.9647 14.6561L74.9661 14.6565L75.0293 14.4668ZM76.0352 14.7305L75.9935 14.9261L75.9962 14.9266L76.0352 14.7305ZM78.0957 15.3555L78.0145 15.5382L78.0169 15.5393L78.0957 15.3555ZM79.4824 16.3711L79.3251 16.4946L79.4824 16.3711ZM79.6777 19.2812L79.8548 19.3743L79.8554 19.3731L79.6777 19.2812ZM77.4219 20.9609L77.4781 21.1529L77.4802 21.1522L77.4219 20.9609ZM73.1543 20.6777L73.0614 20.8549L73.0628 20.8556L73.1543 20.6777ZM71.6309 19.3496L71.4623 19.4572L71.4629 19.4582L71.6309 19.3496ZM71.1133 17.6699V17.4699L70.9133 17.6699H71.1133ZM73.584 17.6699L73.7838 17.6604L73.584 17.4699V17.6699ZM73.916 18.6562L74.071 18.5298L73.916 18.6562ZM74.6777 19.1934L74.6097 19.3815L74.6145 19.3831L74.6777 19.1934ZM76.6504 19.1934L76.7231 19.3797L76.727 19.3781L76.6504 19.1934ZM77.2559 18.7539L77.4159 18.8739L77.4178 18.8712L77.2559 18.7539ZM77.6609 18.1094C77.6609 17.8505 77.5917 17.613 77.4516 17.4027L77.1187 17.6246C77.213 17.7659 77.2609 17.9255 77.2609 18.1094H77.6609ZM77.4516 17.4027C77.3032 17.1802 77.0408 17.0013 76.7016 16.8521L76.5405 17.2182C76.8524 17.3554 77.0327 17.4955 77.1187 17.6246L77.4516 17.4027ZM76.7061 16.8541C76.3662 16.6946 75.8797 16.5508 75.256 16.4195L75.1736 16.8109C75.7869 16.9401 76.238 17.0763 76.5361 17.2162L76.7061 16.8541ZM75.2567 16.4197C74.7185 16.3043 74.2239 16.1606 73.7723 15.9888L73.6301 16.3627C74.103 16.5425 74.6174 16.6917 75.1729 16.8108L75.2567 16.4197ZM73.7723 15.9888C73.3241 15.8184 72.9439 15.6151 72.6293 15.3806L72.3903 15.7014C72.7397 15.9617 73.1538 16.1816 73.6301 16.3627L73.7723 15.9888ZM72.6313 15.3821C72.3192 15.1435 72.0776 14.8677 71.9032 14.5549L71.5538 14.7498C71.757 15.114 72.0362 15.4307 72.3883 15.6999L72.6313 15.3821ZM71.9054 14.5589C71.7404 14.2467 71.6551 13.8825 71.6551 13.4609H71.2551C71.2551 13.9378 71.352 14.3678 71.5517 14.7458L71.9054 14.5589ZM71.6551 13.4609C71.6551 13.0547 71.7427 12.6748 71.9178 12.3187L71.5588 12.1422C71.3562 12.5544 71.2551 12.9948 71.2551 13.4609H71.6551ZM71.9184 12.3175C72.0937 11.9548 72.3482 11.6357 72.6852 11.3599L72.4319 11.0503C72.0529 11.3604 71.7605 11.7249 71.5582 12.1434L71.9184 12.3175ZM72.6869 11.3585C73.0227 11.0776 73.4356 10.8545 73.9297 10.6919L73.8047 10.312C73.2701 10.4879 72.8106 10.7336 72.4303 11.0517L72.6869 11.3585ZM73.9319 10.6912C74.4219 10.5237 74.979 10.4383 75.6055 10.4383V10.0383C74.9429 10.0383 74.3411 10.1286 73.8025 10.3127L73.9319 10.6912ZM75.6055 10.4383C76.4828 10.4383 77.2246 10.5814 77.8372 10.8598L78.0027 10.4957C77.3262 10.1882 76.525 10.0383 75.6055 10.0383V10.4383ZM77.8378 10.8601C78.4601 11.1401 78.9268 11.5213 79.248 12.0001L79.5801 11.7772C79.2113 11.2274 78.6818 10.8013 78.002 10.4954L77.8378 10.8601ZM79.2486 12.0011C79.5702 12.4744 79.7316 13.0078 79.7316 13.6074H80.1316C80.1316 12.931 79.948 12.3186 79.5795 11.7763L79.2486 12.0011ZM79.9316 13.4074H77.3535V13.8074H79.9316V13.4074ZM77.5535 13.6074C77.5535 13.2951 77.4805 13.0066 77.3319 12.7465L76.9846 12.9449C77.0963 13.1406 77.1535 13.3599 77.1535 13.6074H77.5535ZM77.334 12.7503C77.1889 12.4831 76.9656 12.2743 76.675 12.1217L76.4891 12.4759C76.7193 12.5968 76.8801 12.7526 76.9824 12.9411L77.334 12.7503ZM76.6784 12.1236C76.3802 11.9596 76.0156 11.884 75.5957 11.884V12.284C75.97 12.284 76.263 12.3516 76.4856 12.4741L76.6784 12.1236ZM75.5957 11.884C75.2168 11.884 74.883 11.9459 74.6019 12.079L74.7731 12.4405C74.9868 12.3393 75.2585 12.284 75.5957 12.284V11.884ZM74.6 12.0799C74.3328 12.2099 74.1202 12.3849 73.9733 12.6091L74.3079 12.8284C74.4084 12.675 74.5605 12.544 74.775 12.4396L74.6 12.0799ZM73.9733 12.6091C73.8281 12.8308 73.7551 13.0773 73.7551 13.3438H74.1551C74.1551 13.1544 74.2058 12.9843 74.3079 12.8284L73.9733 12.6091ZM73.7551 13.3438C73.7551 13.5392 73.7928 13.7221 73.8722 13.8887L74.2333 13.7167C74.1824 13.6099 74.1551 13.4868 74.1551 13.3438H73.7551ZM73.8775 13.8991C73.9673 14.0623 74.1049 14.204 74.2789 14.3273L74.5101 14.0009C74.3717 13.9028 74.2814 13.8036 74.228 13.7064L73.8775 13.8991ZM74.2789 14.3273C74.4563 14.4529 74.6873 14.5614 74.9647 14.6561L75.0939 14.2775C74.8374 14.1899 74.6452 14.0966 74.5101 14.0009L74.2789 14.3273ZM74.9661 14.6565C75.2488 14.7508 75.5917 14.8405 75.9935 14.9261L76.0768 14.5349C75.6843 14.4512 75.3567 14.3651 75.0925 14.2771L74.9661 14.6565ZM75.9962 14.9266C76.7729 15.0807 77.445 15.2851 78.0145 15.5382L78.1769 15.1727C77.5745 14.905 76.8729 14.6927 76.0741 14.5343L75.9962 14.9266ZM78.0169 15.5393C78.5846 15.7826 79.0175 16.1025 79.3251 16.4946L79.6398 16.2476C79.2833 15.7933 78.7917 15.4361 78.1745 15.1716L78.0169 15.5393ZM79.3251 16.4946C79.6238 16.8752 79.7805 17.3692 79.7805 17.9922H80.1805C80.1805 17.3001 80.0052 16.7133 79.6398 16.2476L79.3251 16.4946ZM79.7805 17.9922C79.7805 18.4312 79.6862 18.8291 79.5 19.1894L79.8554 19.3731C80.0729 18.9522 80.1805 18.4907 80.1805 17.9922H79.7805ZM79.5007 19.1882C79.3142 19.5432 79.042 19.8563 78.6793 20.1268L78.9184 20.4474C79.3239 20.145 79.6377 19.7875 79.8548 19.3743L79.5007 19.1882ZM78.6793 20.1268C78.3164 20.3974 77.8789 20.6125 77.3635 20.7696L77.4802 21.1522C78.0325 20.9838 78.513 20.7497 78.9184 20.4474L78.6793 20.1268ZM77.3657 20.769C76.8534 20.9189 76.2706 20.9953 75.6152 20.9953V21.3953C76.3011 21.3953 76.9227 21.3154 77.4781 21.1529L77.3657 20.769ZM75.6152 20.9953C74.6682 20.9953 73.8811 20.8268 73.2458 20.4999L73.0628 20.8556C73.7686 21.2188 74.6222 21.3953 75.6152 21.3953V20.9953ZM73.2472 20.5006C72.6013 20.162 72.1219 19.7409 71.7988 19.241L71.4629 19.4582C71.8299 20.0261 72.3662 20.4904 73.0614 20.8549L73.2472 20.5006ZM71.7994 19.242C71.4726 18.7302 71.3133 18.2072 71.3133 17.6699H70.9133C70.9133 18.2915 71.099 18.8883 71.4623 19.4572L71.7994 19.242ZM71.1133 17.8699H73.584V17.4699H71.1133V17.8699ZM73.3842 17.6794C73.4052 18.1201 73.5253 18.4937 73.761 18.7827L74.071 18.5298C73.9031 18.324 73.8018 18.0401 73.7838 17.6604L73.3842 17.6794ZM73.761 18.7827C73.9862 19.0587 74.2704 19.2587 74.6097 19.3814L74.7458 19.0053C74.4731 18.9067 74.2495 18.7486 74.071 18.5298L73.761 18.7827ZM74.6145 19.3831C74.9483 19.4944 75.2985 19.5496 75.6641 19.5496V19.1496C75.3395 19.1496 75.0321 19.1007 74.741 19.0036L74.6145 19.3831ZM75.6641 19.5496C76.0711 19.5496 76.4262 19.4955 76.7231 19.3797L76.5777 19.007C76.3407 19.0995 76.0383 19.1496 75.6641 19.1496V19.5496ZM76.727 19.3781C77.0183 19.2573 77.2526 19.0916 77.4159 18.8739L77.0959 18.6339C76.9857 18.7808 76.8164 18.908 76.5738 19.0086L76.727 19.3781ZM77.4178 18.8712C77.5801 18.6471 77.6609 18.3909 77.6609 18.1094H77.2609C77.2609 18.3096 77.205 18.4831 77.0939 18.6366L77.4178 18.8712ZM87.9395 18.3438L87.7737 18.2318L87.7718 18.2348L87.9395 18.3438ZM88.2227 17.4355V17.2355L88.0228 17.428L88.2227 17.4355ZM90.6543 17.4355L90.8543 17.4392L90.6543 17.2355V17.4355ZM88.4863 20.707L88.5765 20.8856L88.5772 20.8852L88.4863 20.707ZM82.6758 19.6426L82.5206 19.7688L82.5216 19.77L82.6758 19.6426ZM81.7773 17.9434L81.5859 18.0014L81.5865 18.0031L81.7773 17.9434ZM81.7773 13.4902L81.5865 13.4305L81.5859 13.4322L81.7773 13.4902ZM82.6758 11.791L82.5216 11.6636L82.5206 11.6648L82.6758 11.791ZM88.5547 10.7363L88.4631 10.9141L88.4638 10.9145L88.5547 10.7363ZM90.0781 12.1426L89.9068 12.2458L89.9076 12.2471L90.0781 12.1426ZM90.6543 14.2812V14.4813L90.8543 14.2781L90.6543 14.2812ZM88.2227 14.2812L88.0228 14.2881L88.2227 14.4813V14.2812ZM85.166 12.543L85.0603 12.3731L85.0586 12.3742L85.166 12.543ZM84.4922 13.2949L84.314 13.204L84.3133 13.2055L84.4922 13.2949ZM84.1602 14.3496L83.9629 14.3167L83.9624 14.3194L84.1602 14.3496ZM84.1602 17.1035L83.9623 17.1332L83.9629 17.1364L84.1602 17.1035ZM84.4922 18.1582L84.3132 18.2477L84.3156 18.2521L84.4922 18.1582ZM85.166 18.8906L85.0586 19.0594L85.0604 19.0604L85.166 18.8906ZM86.2793 19.3641C86.6706 19.3641 87.0275 19.287 87.3453 19.1281L87.1664 18.7703C86.9114 18.8979 86.6172 18.9641 86.2793 18.9641V19.3641ZM87.3453 19.1281C87.6626 18.9695 87.9178 18.744 88.1071 18.4527L87.7718 18.2348C87.6225 18.4644 87.4221 18.6425 87.1664 18.7703L87.3453 19.1281ZM88.1052 18.4556C88.3039 18.1613 88.4082 17.8216 88.4225 17.4431L88.0228 17.428C88.011 17.7396 87.9266 18.0054 87.7737 18.2319L88.1052 18.4556ZM88.2227 17.6355H90.6543V17.2355H88.2227V17.6355ZM90.4543 17.4319C90.442 18.1104 90.2515 18.7132 89.8842 19.2458L90.2135 19.4729C90.6274 18.8728 90.8406 18.1929 90.8543 17.4392L90.4543 17.4319ZM89.8842 19.2458C89.5136 19.7832 89.0188 20.2109 88.3955 20.5289L88.5772 20.8852C89.2559 20.5391 89.8028 20.0684 90.2135 19.4729L89.8842 19.2458ZM88.3962 20.5285C87.7825 20.8384 87.0913 20.9953 86.3184 20.9953V21.3953C87.147 21.3953 87.9011 21.2267 88.5765 20.8856L88.3962 20.5285ZM86.3184 20.9953C85.5267 20.9953 84.8462 20.8623 84.2718 20.6029L84.1071 20.9674C84.7436 21.2549 85.4824 21.3953 86.3184 21.3953V20.9953ZM84.2718 20.6029C83.6927 20.3414 83.2132 19.9788 82.8299 19.5151L82.5216 19.77C82.9457 20.283 83.4752 20.6821 84.1071 20.9674L84.2718 20.6029ZM82.8309 19.5164C82.451 19.0492 82.163 18.5057 81.9682 17.8836L81.5865 18.0031C81.7953 18.6701 82.1063 19.2594 82.5206 19.7688L82.8309 19.5164ZM81.9687 17.8854C81.7796 17.2613 81.6844 16.5909 81.6844 15.873H81.2844C81.2844 16.6266 81.3844 17.3364 81.5859 18.0014L81.9687 17.8854ZM81.6844 15.873V15.5605H81.2844V15.873H81.6844ZM81.6844 15.5605C81.6844 14.8427 81.7796 14.1723 81.9687 13.5482L81.5859 13.4322C81.3844 14.0972 81.2844 14.807 81.2844 15.5605H81.6844ZM81.9682 13.55C82.163 12.9279 82.451 12.3844 82.8309 11.9172L82.5206 11.6648C82.1063 12.1742 81.7953 12.7635 81.5865 13.4305L81.9682 13.55ZM82.8299 11.9184C83.2132 11.4548 83.6927 11.0922 84.2718 10.8307L84.1071 10.4662C83.4752 10.7515 82.9457 11.1506 82.5216 11.6636L82.8299 11.9184ZM84.2718 10.8307C84.8464 10.5712 85.5237 10.4383 86.3086 10.4383V10.0383C85.4789 10.0383 84.7434 10.1788 84.1071 10.4662L84.2718 10.8307ZM86.3086 10.4383C87.1352 10.4383 87.8515 10.5991 88.4631 10.9141L88.6463 10.5585C87.9688 10.2095 87.1877 10.0383 86.3086 10.0383V10.4383ZM88.4638 10.9145C89.0828 11.2301 89.5622 11.6734 89.9068 12.2457L90.2495 12.0394C89.8649 11.4008 89.3287 10.9066 88.6456 10.5582L88.4638 10.9145ZM89.9076 12.2471C90.2572 12.8175 90.4418 13.4943 90.4543 14.2844L90.8543 14.2781C90.8408 13.4276 90.6412 12.6785 90.2486 12.0381L89.9076 12.2471ZM90.6543 14.0812H88.2227V14.4813H90.6543V14.0812ZM88.4225 14.2744C88.4086 13.8705 88.3177 13.5021 88.1461 13.1731L87.7914 13.3581C87.9323 13.6281 88.0107 13.9368 88.0228 14.2881L88.4225 14.2744ZM88.1461 13.1731C87.9735 12.8424 87.728 12.5753 87.4121 12.3742L87.1973 12.7117C87.4543 12.8753 87.6515 13.0899 87.7914 13.3581L88.1461 13.1731ZM87.4121 12.3742C87.0874 12.1676 86.7 12.0695 86.2598 12.0695V12.4695C86.6399 12.4695 86.9491 12.5537 87.1973 12.7117L87.4121 12.3742ZM86.2598 12.0695C85.796 12.0695 85.3924 12.1665 85.0604 12.3732L85.2717 12.7128C85.5255 12.5548 85.8511 12.4695 86.2598 12.4695V12.0695ZM85.0586 12.3742C84.7404 12.5768 84.4921 12.855 84.314 13.204L84.6703 13.3858C84.8178 13.0968 85.0187 12.8738 85.2734 12.7117L85.0586 12.3742ZM84.3133 13.2055C84.147 13.538 84.0308 13.909 83.9629 14.3167L84.3574 14.3825C84.4197 14.0089 84.5248 13.6768 84.6711 13.3844L84.3133 13.2055ZM83.9624 14.3194C83.9022 14.7144 83.8723 15.1282 83.8723 15.5605H84.2723C84.2723 15.1466 84.3009 14.7531 84.3579 14.3798L83.9624 14.3194ZM83.8723 15.5605V15.873H84.2723V15.5605H83.8723ZM83.8723 15.873C83.8723 16.3118 83.9022 16.7319 83.9624 17.1332L84.3579 17.0738C84.3009 16.6939 84.2723 16.2937 84.2723 15.873H83.8723ZM83.9629 17.1364C84.0308 17.5441 84.147 17.9151 84.3133 18.2476L84.6711 18.0688C84.5248 17.7763 84.4197 17.4442 84.3574 17.0706L83.9629 17.1364ZM84.3156 18.2521C84.4942 18.5879 84.7424 18.8581 85.0586 19.0594L85.2734 18.7219C85.0167 18.5585 84.8157 18.3404 84.6688 18.0643L84.3156 18.2521ZM85.0604 19.0604C85.3933 19.2676 85.8038 19.3641 86.2793 19.3641V18.9641C85.8564 18.9641 85.5247 18.8782 85.2717 18.7208L85.0604 19.0604ZM95.5664 12.3086L95.4843 12.1262L95.4826 12.127L95.5664 12.3086ZM94.9805 12.8066L95.1477 12.9164L95.1492 12.914L94.9805 12.8066ZM94.7754 13.5293V13.7293L94.9754 13.5293H94.7754ZM92.1875 13.5293H91.9875L92.1875 13.7293V13.5293ZM92.5 12.2891L92.6765 12.3832L92.6771 12.382L92.5 12.2891ZM93.3887 11.2344L93.5133 11.3908L93.5136 11.3905L93.3887 11.2344ZM94.7852 10.502L94.724 10.3115L94.7233 10.3118L94.7852 10.502ZM98.7598 10.6484L98.6796 10.8317L98.6819 10.8327L98.7598 10.6484ZM100.244 11.8594L100.077 11.9699L100.078 11.9712L100.244 11.8594ZM100.889 19.8672L100.692 19.9012L100.692 19.9051L100.889 19.8672ZM101.201 20.834H101.401L101.38 20.7445L101.201 20.834ZM101.201 21V21.2L101.401 21H101.201ZM98.5742 21L98.3928 21.0841L98.5742 21.2V21ZM98.291 19.9844L98.0934 20.0153L98.0935 20.0157L98.291 19.9844ZM98.5547 14.5645L98.7547 14.5619L98.5547 14.3645V14.5645ZM98.5742 16.0977V16.2977L98.7742 16.0951L98.5742 16.0977ZM95.8789 16.2246L95.9284 16.4184L95.9322 16.4174L95.8789 16.2246ZM95.127 16.5762L95.2487 16.7349L95.2519 16.7323L95.127 16.5762ZM94.6875 17.123L94.8686 17.2079L94.8696 17.2058L94.6875 17.123ZM94.7168 18.5391L94.5424 18.6371L94.5448 18.6412L94.7168 18.5391ZM95.2441 19.0371L95.1487 19.213L95.1547 19.216L95.2441 19.0371ZM97.2559 18.9395L97.3507 19.1156L97.3533 19.1141L97.2559 18.9395ZM98.0469 18.2559L97.8836 18.1404L98.0469 18.2559ZM98.3496 17.4941L98.516 17.3832L98.1499 17.4833L98.3496 17.4941ZM99.0918 18.6074L99.2811 18.6721L99.2582 18.4965L99.0918 18.6074ZM98.6816 19.457L98.5108 19.353L98.6816 19.457ZM92.2656 16.5566L92.0857 16.4694L92.2656 16.5566ZM93.1934 15.4727L93.3096 15.6354L93.3113 15.6342L93.1934 15.4727ZM94.7168 14.7988L94.7648 14.993L94.7663 14.9926L94.7168 14.7988ZM98.3934 18.7539V13.8809H97.9934V18.7539H98.3934ZM98.3934 13.8809C98.3934 13.5001 98.3276 13.1602 98.1885 12.8673L97.8272 13.0389C97.9354 13.2669 97.9934 13.5455 97.9934 13.8809H98.3934ZM98.1885 12.8673C98.0469 12.5692 97.8291 12.3367 97.5397 12.1735L97.3431 12.5219C97.5616 12.6451 97.7214 12.8162 97.8272 13.0389L98.1885 12.8673ZM97.5397 12.1735C97.2473 12.0085 96.8884 11.9328 96.4746 11.9328V12.3328C96.8421 12.3328 97.1277 12.4003 97.3431 12.5219L97.5397 12.1735ZM96.4746 11.9328C96.107 11.9328 95.7754 11.9953 95.4843 12.1262L95.6485 12.491C95.8783 12.3876 96.1521 12.3328 96.4746 12.3328V11.9328ZM95.4826 12.127C95.1974 12.2586 94.9711 12.4489 94.8117 12.6993L95.1492 12.914C95.2633 12.7347 95.4276 12.5929 95.6502 12.4902L95.4826 12.127ZM94.8133 12.6969C94.6531 12.941 94.5754 13.2208 94.5754 13.5293H94.9754C94.9754 13.2909 95.0344 13.089 95.1477 12.9164L94.8133 12.6969ZM94.7754 13.3293H92.1875V13.7293H94.7754V13.3293ZM92.3875 13.5293C92.3875 13.1264 92.4833 12.7453 92.6765 12.3832L92.3235 12.1949C92.1 12.6141 91.9875 13.0598 91.9875 13.5293H92.3875ZM92.6771 12.382C92.8714 12.0117 93.1488 11.6812 93.5133 11.3908L93.2641 11.0779C92.8603 11.3996 92.5453 11.7722 92.3229 12.1962L92.6771 12.382ZM93.5136 11.3905C93.8831 11.095 94.3265 10.8615 94.847 10.6921L94.7233 10.3118C94.1631 10.494 93.6755 10.7488 93.2637 11.0782L93.5136 11.3905ZM94.8464 10.6924C95.3703 10.524 95.9612 10.4383 96.6211 10.4383V10.0383C95.9268 10.0383 95.2938 10.1284 94.724 10.3115L94.8464 10.6924ZM96.6211 10.4383C97.399 10.4383 98.0839 10.571 98.6796 10.8317L98.8399 10.4652C98.1856 10.179 97.4447 10.0383 96.6211 10.0383V10.4383ZM98.6819 10.8327C99.2794 11.0852 99.7424 11.4642 100.077 11.9699L100.411 11.7489C100.03 11.1738 99.5032 10.7455 98.8376 10.4642L98.6819 10.8327ZM100.078 11.9712C100.415 12.4709 100.591 13.1096 100.591 13.9004H100.991C100.991 13.0505 100.802 12.3285 100.41 11.7475L100.078 11.9712ZM100.591 13.9004V18.5098H100.991V13.9004H100.591ZM100.591 18.5098C100.591 19.0446 100.624 19.5091 100.692 19.9012L101.086 19.8332C101.023 19.4701 100.991 19.0296 100.991 18.5098H100.591ZM100.692 19.9051C100.767 20.29 100.876 20.6304 101.022 20.9234L101.38 20.7445C101.253 20.4907 101.154 20.1865 101.085 19.8293L100.692 19.9051ZM101.001 20.834V21H101.401V20.834H101.001ZM101.201 20.8H98.5742V21.2H101.201V20.8ZM98.7557 20.9159C98.6422 20.671 98.5518 20.3518 98.4885 19.953L98.0935 20.0157C98.1604 20.4373 98.2588 20.7951 98.3928 21.0841L98.7557 20.9159ZM98.4886 19.9535C98.425 19.5466 98.3934 19.1468 98.3934 18.7539H97.9934C97.9934 19.1683 98.0268 19.5888 98.0934 20.0153L98.4886 19.9535ZM98.3547 14.567L98.3742 16.1002L98.7742 16.0951L98.7547 14.5619L98.3547 14.567ZM98.5742 15.8977H96.9434V16.2977H98.5742V15.8977ZM96.9434 15.8977C96.5263 15.8977 96.1529 15.9413 95.8256 16.0318L95.9322 16.4174C96.2169 16.3386 96.5531 16.2977 96.9434 16.2977V15.8977ZM95.8294 16.0308C95.5029 16.1142 95.2245 16.242 95.002 16.42L95.2519 16.7323C95.42 16.5979 95.6429 16.4913 95.9284 16.4184L95.8294 16.0308ZM95.0053 16.4175C94.7851 16.5863 94.6173 16.7943 94.5054 17.0403L94.8696 17.2058C94.9531 17.0222 95.0782 16.8655 95.2486 16.7349L95.0053 16.4175ZM94.5064 17.0382C94.3945 17.277 94.341 17.5443 94.341 17.8359H94.741C94.741 17.5937 94.7852 17.3858 94.8686 17.2079L94.5064 17.0382ZM94.341 17.8359C94.341 18.1275 94.407 18.3962 94.5425 18.6371L94.8911 18.441C94.7922 18.2653 94.741 18.0652 94.741 17.8359H94.341ZM94.5448 18.6412C94.6882 18.8827 94.8915 19.0732 95.1487 19.2129L95.3396 18.8613C95.1411 18.7536 94.9928 18.6121 94.8888 18.437L94.5448 18.6412ZM95.1547 19.216C95.4217 19.3495 95.7268 19.4129 96.0645 19.4129V19.0129C95.7771 19.0129 95.5353 18.9591 95.3336 18.8582L95.1547 19.216ZM96.0645 19.4129C96.5472 19.4129 96.978 19.3162 97.3507 19.1155L97.161 18.7634C96.8566 18.9273 96.4932 19.0129 96.0645 19.0129V19.4129ZM97.3533 19.1141C97.7131 18.9134 98.0012 18.6668 98.2102 18.3714L97.8836 18.1404C97.715 18.3788 97.4757 18.5879 97.1584 18.7648L97.3533 19.1141ZM98.2102 18.3714C98.4132 18.0842 98.5337 17.7946 98.5493 17.5049L98.1499 17.4833C98.1395 17.6755 98.0581 17.8936 97.8836 18.1404L98.2102 18.3714ZM98.1832 17.6051L98.9254 18.7184L99.2582 18.4965L98.516 17.3832L98.1832 17.6051ZM98.9025 18.5428C98.817 18.7931 98.6873 19.0631 98.5108 19.353L98.8525 19.561C99.0406 19.252 99.1843 18.9556 99.2811 18.6721L98.9025 18.5428ZM98.5108 19.353C98.3394 19.6346 98.1178 19.9 97.844 20.1489L98.1131 20.4449C98.4122 20.1729 98.6593 19.8784 98.8525 19.561L98.5108 19.353ZM97.844 20.1489C97.5764 20.3921 97.2514 20.5954 96.866 20.757L97.0207 21.1258C97.4426 20.9489 97.8077 20.7225 98.1131 20.4449L97.844 20.1489ZM96.866 20.757C96.4916 20.914 96.0501 20.9953 95.5371 20.9953V21.3953C96.0918 21.3953 96.5878 21.3074 97.0207 21.1258L96.866 20.757ZM95.5371 20.9953C94.8808 20.9953 94.3004 20.8642 93.7915 20.6067L93.6109 20.9636C94.1827 21.2529 94.8262 21.3953 95.5371 21.3953V20.9953ZM93.7915 20.6067C93.2802 20.348 92.8811 19.9964 92.589 19.5522L92.2548 19.772C92.5877 20.2783 93.0414 20.6755 93.6109 20.9636L93.7915 20.6067ZM92.589 19.5522C92.2993 19.1117 92.1531 18.6101 92.1531 18.041H91.7531C91.7531 18.6829 91.9194 19.262 92.2548 19.772L92.589 19.5522ZM92.1531 18.041C92.1531 17.5062 92.2525 17.0421 92.4456 16.6439L92.0857 16.4694C91.8621 16.9306 91.7531 17.4561 91.7531 18.041H92.1531ZM92.4456 16.6439C92.6385 16.246 92.9251 15.91 93.3096 15.6354L93.0771 15.3099C92.6413 15.6212 92.3094 16.0079 92.0857 16.4694L92.4456 16.6439ZM93.3113 15.6342C93.6963 15.3531 94.179 15.1379 94.7648 14.993L94.6688 14.6047C94.0437 14.7593 93.5107 14.9933 93.0754 15.3111L93.3113 15.6342ZM94.7663 14.9926C95.3587 14.8414 96.0414 14.7645 96.8164 14.7645V14.3645C96.0159 14.3645 95.2989 14.4438 94.6673 14.605L94.7663 14.9926ZM96.8164 14.7645H98.5547V14.3645H96.8164V14.7645ZM105.645 12.6895H105.845L105.844 12.6756L105.645 12.6895ZM105.645 21V21.2L105.845 21H105.645ZM103.066 21H102.866L103.066 21.2V21ZM103.066 10.4336V10.2336L102.866 10.4336H103.066ZM105.488 10.4336L105.688 10.4198L105.488 10.2336V10.4336ZM105.234 15.3359V15.5359L105.434 15.3359H105.234ZM104.473 15.3359L104.273 15.3342L104.473 15.5359V15.3359ZM105.635 11.6348L105.481 11.5074L105.479 11.5087L105.635 11.6348ZM111.084 11.1367L110.938 11.2735L110.94 11.2751L111.084 11.1367ZM111.768 12.3672L111.576 12.426L111.577 12.4289L111.768 12.3672ZM112.012 21V21.2L112.212 21H112.012ZM109.414 21H109.214L109.414 21.2V21ZM109.199 13.0605L109.019 13.1483L109.021 13.1516L109.199 13.0605ZM108.594 12.4648L108.512 12.6472L108.513 12.648L108.594 12.4648ZM106.582 12.5332L106.676 12.7097L106.678 12.7089L106.582 12.5332ZM105.84 13.1875L105.678 13.0705L105.676 13.0731L105.84 13.1875ZM105.445 12.6895V21H105.845V12.6895H105.445ZM105.645 20.8H103.066V21.2H105.645V20.8ZM103.266 21V10.4336H102.866V21H103.266ZM103.066 10.6336H105.488V10.2336H103.066V10.6336ZM105.289 10.4474L105.445 12.7033L105.844 12.6756L105.688 10.4198L105.289 10.4474ZM105.234 15.1359H104.473V15.5359H105.234V15.1359ZM104.673 15.3376C104.679 14.5863 104.781 13.9103 104.975 13.3076L104.595 13.1846C104.386 13.8319 104.279 14.5491 104.273 15.3342L104.673 15.3376ZM104.975 13.3076C105.171 12.7029 105.443 12.1884 105.79 11.7608L105.479 11.5087C105.097 11.9795 104.803 12.5393 104.595 13.1846L104.975 13.3076ZM105.789 11.7621C106.142 11.3346 106.558 11.0082 107.039 10.7803L106.867 10.4189C106.332 10.6728 105.87 11.0364 105.481 11.5074L105.789 11.7621ZM107.039 10.7803C107.517 10.5535 108.054 10.4383 108.652 10.4383V10.0383C108.001 10.0383 107.405 10.164 106.867 10.4189L107.039 10.7803ZM108.652 10.4383C109.141 10.4383 109.578 10.5072 109.963 10.6419L110.095 10.2643C109.661 10.1125 109.179 10.0383 108.652 10.0383V10.4383ZM109.963 10.6419C110.344 10.7747 110.668 10.9849 110.938 11.2735L111.23 10.9999C110.915 10.6635 110.535 10.418 110.095 10.2643L109.963 10.6419ZM110.94 11.2751C111.213 11.5605 111.427 11.9413 111.576 12.426L111.959 12.3084C111.795 11.7774 111.554 11.3379 111.228 10.9983L110.94 11.2751ZM111.577 12.4289C111.732 12.9041 111.812 13.5003 111.812 14.2227H112.212C112.212 13.4736 112.129 12.8328 111.958 12.3054L111.577 12.4289ZM111.812 14.2227V21H112.212V14.2227H111.812ZM112.012 20.8H109.414V21.2H112.012V20.8ZM109.614 21V14.2031H109.214V21H109.614ZM109.614 14.2031C109.614 13.705 109.541 13.2886 109.377 12.9695L109.021 13.1516C109.144 13.3923 109.214 13.7377 109.214 14.2031H109.614ZM109.379 12.9728C109.223 12.6535 108.988 12.4193 108.674 12.2817L108.513 12.648C108.734 12.7448 108.902 12.9077 109.02 13.1483L109.379 12.9728ZM108.676 12.2825C108.382 12.1504 108.03 12.0891 107.627 12.0891V12.4891C107.992 12.4891 108.284 12.5449 108.512 12.6472L108.676 12.2825ZM107.627 12.0891C107.202 12.0891 106.82 12.1763 106.487 12.3575L106.678 12.7089C106.943 12.5645 107.258 12.4891 107.627 12.4891V12.0891ZM106.488 12.3567C106.167 12.5279 105.897 12.7668 105.678 13.0705L106.002 13.3045C106.187 13.0483 106.411 12.851 106.676 12.7097L106.488 12.3567ZM105.676 13.0731C105.467 13.373 105.308 13.7159 105.198 14.0994L105.583 14.2092C105.682 13.8636 105.823 13.5619 106.004 13.3019L105.676 13.0731ZM105.198 14.0994C105.088 14.4837 105.034 14.8963 105.034 15.3359H105.434C105.434 14.9292 105.484 14.554 105.583 14.2092L105.198 14.0994ZM114.795 18.7539L114.654 18.6125L114.795 18.7539ZM116.963 18.7539L117.104 18.6125L116.963 18.7539ZM116.963 20.7168L117.103 20.86L117.104 20.8582L116.963 20.7168ZM114.795 20.7168L114.653 20.8582L114.655 20.86L114.795 20.7168ZM114.595 19.7402C114.595 19.4006 114.708 19.1233 114.936 18.8953L114.654 18.6125C114.348 18.9184 114.195 19.2986 114.195 19.7402H114.595ZM114.936 18.8953C115.158 18.6735 115.464 18.5535 115.879 18.5535V18.1535C115.382 18.1535 114.965 18.3005 114.654 18.6125L114.936 18.8953ZM115.879 18.5535C116.293 18.5535 116.6 18.6735 116.821 18.8953L117.104 18.6125C116.792 18.3005 116.376 18.1535 115.879 18.1535V18.5535ZM116.821 18.8953C117.049 19.1233 117.163 19.4006 117.163 19.7402H117.563C117.563 19.2986 117.41 18.9184 117.104 18.6125L116.821 18.8953ZM117.163 19.7402C117.163 20.0723 117.05 20.3467 116.821 20.5754L117.104 20.8582C117.409 20.5531 117.563 20.1763 117.563 19.7402H117.163ZM116.823 20.5736C116.602 20.7899 116.295 20.9074 115.879 20.9074V21.3074C116.375 21.3074 116.79 21.1646 117.103 20.86L116.823 20.5736ZM115.879 20.9074C115.463 20.9074 115.156 20.7899 114.935 20.5736L114.655 20.86C114.967 21.1646 115.383 21.3074 115.879 21.3074V20.9074ZM114.936 20.5754C114.708 20.3467 114.595 20.0723 114.595 19.7402H114.195C114.195 20.1763 114.348 20.5531 114.654 20.8582L114.936 20.5754ZM121.992 10.4336L122.167 10.3357L121.992 10.2336V10.4336ZM123.877 13.793L123.703 13.8908L124.051 13.892L123.877 13.793ZM125.791 10.4336V10.2336L125.617 10.3346L125.791 10.4336ZM128.594 10.4336L128.765 10.5365L128.594 10.2336V10.4336ZM125.488 15.6094L125.317 15.5065L125.317 15.7122L125.488 15.6094ZM128.721 21V21.2L128.892 20.8971L128.721 21ZM125.918 21L125.744 21.0995L125.918 21.2V21ZM123.896 17.4746L124.07 17.3751L123.723 17.3748L123.896 17.4746ZM121.865 21V21.2L122.039 21.0998L121.865 21ZM119.062 21L118.891 20.8974L119.062 21.2V21ZM122.285 15.6094L122.457 15.712L122.457 15.507L122.285 15.6094ZM119.199 10.4336V10.2336L119.027 10.536L119.199 10.4336ZM121.818 10.5315L123.703 13.8908L124.051 13.6951L122.167 10.3357L121.818 10.5315ZM124.051 13.892L125.965 10.5326L125.617 10.3346L123.703 13.694L124.051 13.892ZM125.791 10.6336H128.594V10.2336H125.791V10.6336ZM128.422 10.3307L125.317 15.5065L125.66 15.7123L128.765 10.5365L128.422 10.3307ZM125.317 15.7122L128.549 21.1029L128.892 20.8971L125.66 15.5065L125.317 15.7122ZM128.721 20.8H125.918V21.2H128.721V20.8ZM126.091 20.9005L124.07 17.3751L123.723 17.5741L125.744 21.0995L126.091 20.9005ZM123.723 17.3748L121.692 20.9002L122.039 21.0998L124.07 17.5745L123.723 17.3748ZM121.865 20.8H119.062V21.2H121.865V20.8ZM119.234 21.1026L122.457 15.712L122.113 15.5068L118.891 20.8974L119.234 21.1026ZM122.457 15.507L119.371 10.3312L119.027 10.536L122.113 15.7118L122.457 15.507ZM119.199 10.6336H121.992V10.2336H119.199V10.6336ZM133.184 19.8281L133.37 19.8993L133.375 19.8859L133.184 19.8281ZM136.016 10.4336V10.2336L135.824 10.3759L136.016 10.4336ZM138.779 10.4336L138.968 10.4994L138.779 10.2336V10.4336ZM134.541 22.6016L134.728 22.6718L134.73 22.6673L134.541 22.6016ZM134.16 23.4512L133.982 23.3602L133.981 23.3633L134.16 23.4512ZM133.555 24.3203L133.408 24.1842L133.407 24.1859L133.555 24.3203ZM132.598 25.0039L132.514 24.822L132.513 24.8226L132.598 25.0039ZM130.02 25.0918H129.82L129.97 25.2855L130.02 25.0918ZM130.02 23.1582L130.039 22.9592L129.82 23.1582H130.02ZM130.244 23.168L130.258 22.9685L130.244 22.968V23.168ZM131.416 23.041L131.351 22.8517L131.347 22.8533L131.416 23.041ZM132.012 22.6211L131.858 22.4935L131.853 22.4994L132.012 22.6211ZM132.402 21.8789L132.215 21.8077L132.213 21.8145L132.402 21.8789ZM131.787 10.4336L131.978 10.3748L131.787 10.2336V10.4336ZM134.18 18.2168L134.377 18.1863L134.371 18.158L134.18 18.2168ZM134.6 20.9414L134.635 21.1382L134.797 20.9109L134.6 20.9414ZM132.822 21.2637L132.634 21.3302L132.858 21.4605L132.822 21.2637ZM129.004 10.4336V10.2336L128.815 10.5001L129.004 10.4336ZM133.375 19.8859L136.207 10.4913L135.824 10.3759L132.992 19.7704L133.375 19.8859ZM136.016 10.6336H138.779V10.2336H136.016V10.6336ZM138.59 10.3678L134.352 22.5358L134.73 22.6673L138.968 10.4994L138.59 10.3678ZM134.354 22.5313C134.259 22.7833 134.136 23.0595 133.982 23.3602L134.338 23.5421C134.497 23.2309 134.627 22.9407 134.728 22.6718L134.354 22.5313ZM133.981 23.3633C133.84 23.6501 133.65 23.9238 133.408 24.1842L133.701 24.4564C133.967 24.17 134.181 23.8643 134.34 23.5391L133.981 23.3633ZM133.407 24.1859C133.173 24.4436 132.877 24.6562 132.514 24.822L132.681 25.1858C133.087 25 133.429 24.7569 133.703 24.4547L133.407 24.1859ZM132.513 24.8226C132.169 24.983 131.74 25.0676 131.221 25.0676V25.4676C131.782 25.4676 132.271 25.3764 132.682 25.1852L132.513 24.8226ZM131.221 25.0676C130.995 25.0676 130.799 25.0519 130.631 25.0219L130.561 25.4156C130.757 25.4507 130.977 25.4676 131.221 25.4676V25.0676ZM130.631 25.0219C130.454 24.9903 130.267 24.9491 130.07 24.8981L129.97 25.2855C130.176 25.3386 130.373 25.3821 130.561 25.4156L130.631 25.0219ZM130.22 25.0918V23.1582H129.82V25.0918H130.22ZM130 23.3572C130.073 23.3645 130.155 23.368 130.244 23.368V22.968C130.164 22.968 130.096 22.9649 130.039 22.9592L130 23.3572ZM130.23 23.3675C130.324 23.3742 130.407 23.3777 130.479 23.3777V22.9777C130.42 22.9777 130.347 22.9748 130.258 22.9685L130.23 23.3675ZM130.479 23.3777C130.87 23.3777 131.208 23.3307 131.485 23.2287L131.347 22.8533C131.129 22.9336 130.842 22.9777 130.479 22.9777V23.3777ZM131.481 23.2302C131.763 23.1337 131.995 22.9714 132.17 22.7428L131.853 22.4994C131.729 22.6614 131.564 22.7791 131.351 22.8518L131.481 23.2302ZM132.166 22.7486C132.342 22.5362 132.482 22.2654 132.592 21.9434L132.213 21.8145C132.114 22.1044 131.994 22.3284 131.858 22.4936L132.166 22.7486ZM132.589 21.9501L133.37 19.8993L132.997 19.7569L132.215 21.8077L132.589 21.9501ZM131.596 10.4924L133.989 18.2756L134.371 18.158L131.978 10.3748L131.596 10.4924ZM133.982 18.2473L134.402 20.9719L134.797 20.9109L134.377 18.1863L133.982 18.2473ZM134.564 20.7446L132.787 21.0669L132.858 21.4605L134.635 21.1382L134.564 20.7446ZM133.011 21.1972L129.193 10.3671L128.815 10.5001L132.634 21.3302L133.011 21.1972ZM129.004 10.6336H131.787V10.2336H129.004V10.6336ZM148.311 18.9688H148.511L148.311 18.7687V18.9688ZM148.311 21V21.2L148.511 21H148.311ZM140.361 21H140.161L140.361 21.2V21ZM140.361 18.9688V18.7687L140.161 18.9688H140.361ZM148.125 11.9766L148.285 12.0969L148.325 11.9766H148.125ZM141.328 21V21.2L141.488 21.1203L141.328 21ZM139.629 21H139.429L139.629 21.2V21ZM139.629 19.4082L139.469 19.2879L139.429 19.4082H139.629ZM146.387 10.4336V10.2336L146.227 10.3133L146.387 10.4336ZM148.125 10.4336H148.325L148.125 10.2336V10.4336ZM147.178 10.4336H147.378L147.178 10.2336V10.4336ZM147.178 12.4746V12.6746L147.378 12.4746H147.178ZM139.766 12.4746H139.566L139.766 12.6746V12.4746ZM139.766 10.4336V10.2336L139.566 10.4336H139.766ZM148.111 18.9688V21H148.511V18.9688H148.111ZM148.311 20.8H140.361V21.2H148.311V20.8ZM140.561 21V18.9688H140.161V21H140.561ZM140.361 19.1688H148.311V18.7687H140.361V19.1688ZM147.965 11.8562L141.168 20.8797L141.488 21.1203L148.285 12.0969L147.965 11.8562ZM141.328 20.8H139.629V21.2H141.328V20.8ZM139.829 21V19.4082H139.429V21H139.829ZM139.789 19.5285L146.546 10.5539L146.227 10.3133L139.469 19.2879L139.789 19.5285ZM146.387 10.6336H148.125V10.2336H146.387V10.6336ZM147.925 10.4336V11.9766H148.325V10.4336H147.925ZM146.978 10.4336V12.4746H147.378V10.4336H146.978ZM147.178 12.2746H139.766V12.6746H147.178V12.2746ZM139.966 12.4746V10.4336H139.566V12.4746H139.966ZM139.766 10.6336H147.178V10.2336H139.766V10.6336Z" fill="#263238"/>
<path d="M159.754 21.0215L161.488 15.6602H162.596L160.316 22H159.59L159.754 21.0215ZM158.307 15.6602L160.094 21.0508L160.217 22H159.49L157.193 15.6602H158.307ZM169.277 17.0547V18.3555C169.277 19.0547 169.214 19.6445 169.089 20.125C168.964 20.6055 168.785 20.9922 168.55 21.2852C168.316 21.5781 168.033 21.791 167.701 21.9238C167.373 22.0527 167.002 22.1172 166.588 22.1172C166.259 22.1172 165.957 22.0762 165.679 21.9941C165.402 21.9121 165.152 21.7812 164.929 21.6016C164.711 21.418 164.523 21.1797 164.367 20.8867C164.211 20.5938 164.091 20.2383 164.009 19.8203C163.927 19.4023 163.886 18.9141 163.886 18.3555V17.0547C163.886 16.3555 163.949 15.7695 164.074 15.2969C164.203 14.8242 164.384 14.4453 164.619 14.1602C164.853 13.8711 165.134 13.6641 165.463 13.5391C165.795 13.4141 166.166 13.3516 166.576 13.3516C166.908 13.3516 167.213 13.3926 167.49 13.4746C167.771 13.5527 168.021 13.6797 168.24 13.8555C168.459 14.0273 168.644 14.2578 168.796 14.5469C168.953 14.832 169.072 15.1816 169.154 15.5957C169.236 16.0098 169.277 16.4961 169.277 17.0547ZM168.187 18.5312V16.873C168.187 16.4902 168.164 16.1543 168.117 15.8652C168.074 15.5723 168.009 15.3223 167.923 15.1152C167.838 14.9082 167.728 14.7402 167.595 14.6113C167.466 14.4824 167.316 14.3887 167.144 14.3301C166.976 14.2676 166.787 14.2363 166.576 14.2363C166.318 14.2363 166.089 14.2852 165.89 14.3828C165.691 14.4766 165.523 14.627 165.386 14.834C165.254 15.041 165.152 15.3125 165.082 15.6484C165.011 15.9844 164.976 16.3926 164.976 16.873V18.5312C164.976 18.9141 164.998 19.252 165.041 19.5449C165.088 19.8379 165.156 20.0918 165.246 20.3066C165.336 20.5176 165.445 20.6914 165.574 20.8281C165.703 20.9648 165.851 21.0664 166.019 21.1328C166.191 21.1953 166.38 21.2266 166.588 21.2266C166.853 21.2266 167.086 21.1758 167.285 21.0742C167.484 20.9727 167.65 20.8145 167.783 20.5996C167.92 20.3809 168.021 20.1016 168.088 19.7617C168.154 19.418 168.187 19.0078 168.187 18.5312ZM171.206 21.4258C171.206 21.2422 171.263 21.0879 171.376 20.9629C171.493 20.834 171.661 20.7695 171.88 20.7695C172.099 20.7695 172.265 20.834 172.378 20.9629C172.495 21.0879 172.554 21.2422 172.554 21.4258C172.554 21.6055 172.495 21.7578 172.378 21.8828C172.265 22.0078 172.099 22.0703 171.88 22.0703C171.661 22.0703 171.493 22.0078 171.376 21.8828C171.263 21.7578 171.206 21.6055 171.206 21.4258ZM176.007 17.9395L175.139 17.7168L175.567 13.4688H179.944V14.4707H176.487L176.229 16.791C176.386 16.7012 176.583 16.6172 176.821 16.5391C177.063 16.4609 177.341 16.4219 177.653 16.4219C178.048 16.4219 178.401 16.4902 178.714 16.627C179.026 16.7598 179.292 16.9512 179.511 17.2012C179.733 17.4512 179.903 17.752 180.02 18.1035C180.138 18.4551 180.196 18.8477 180.196 19.2812C180.196 19.6914 180.139 20.0684 180.026 20.4121C179.917 20.7559 179.751 21.0566 179.528 21.3145C179.305 21.5684 179.024 21.7656 178.684 21.9062C178.348 22.0469 177.952 22.1172 177.495 22.1172C177.151 22.1172 176.825 22.0703 176.516 21.9766C176.212 21.8789 175.938 21.7324 175.696 21.5371C175.458 21.3379 175.263 21.0918 175.11 20.7988C174.962 20.502 174.868 20.1543 174.829 19.7559H175.86C175.907 20.0762 176.001 20.3457 176.141 20.5645C176.282 20.7832 176.466 20.9492 176.692 21.0625C176.923 21.1719 177.19 21.2266 177.495 21.2266C177.753 21.2266 177.981 21.1816 178.18 21.0918C178.38 21.002 178.548 20.873 178.684 20.7051C178.821 20.5371 178.925 20.334 178.995 20.0957C179.069 19.8574 179.106 19.5898 179.106 19.293C179.106 19.0234 179.069 18.7734 178.995 18.543C178.921 18.3125 178.809 18.1113 178.661 17.9395C178.516 17.7676 178.339 17.6348 178.128 17.541C177.917 17.4434 177.675 17.3945 177.401 17.3945C177.038 17.3945 176.763 17.4434 176.575 17.541C176.391 17.6387 176.202 17.7715 176.007 17.9395Z" fill="#263238"/>
</svg>
