<svg width="128" height="24" viewBox="0 0 128 24" fill="none" xmlns="http://www.w3.org/2000/svg">
<path d="M16 4L9 8.04V15.96L16 20L23 15.96V8.04M16 6.31L19.8 8.5L16 10.69L12.21 8.5M0 7V9H7V7M11 10.11L15 12.42V17.11L11 14.81M21 10.11V14.81L17 17.11V12.42M2 11V13H7V11M4 15V17H7V15" fill="#FF9800"/>
<path d="M32.0472 8.94308H34.2737V18.6696C34.2737 19.3114 34.1565 19.8555 33.9222 20.3019C33.6934 20.7483 33.3613 21.0859 32.9261 21.3147C32.4908 21.5435 31.9579 21.6579 31.3273 21.6579C31.132 21.6579 30.9367 21.6468 30.7414 21.6244C30.546 21.6021 30.3535 21.5658 30.1638 21.5156L30.1722 19.808C30.2949 19.8304 30.4205 19.8471 30.5488 19.8583C30.6772 19.875 30.8055 19.8834 30.9339 19.8834C31.1738 19.8834 31.3747 19.8415 31.5366 19.7578C31.704 19.6741 31.8295 19.543 31.9132 19.3644C32.0025 19.1858 32.0472 18.9542 32.0472 18.6696V8.94308ZM31.863 6.57422C31.863 6.24498 31.9746 5.97154 32.1978 5.75391C32.4266 5.53627 32.7335 5.42746 33.1186 5.42746C33.5036 5.42746 33.8078 5.53627 34.031 5.75391C34.2598 5.97154 34.3742 6.24498 34.3742 6.57422C34.3742 6.89788 34.2598 7.16853 34.031 7.38616C33.8078 7.60379 33.5036 7.71261 33.1186 7.71261C32.7335 7.71261 32.4266 7.60379 32.1978 7.38616C31.9746 7.16853 31.863 6.89788 31.863 6.57422ZM38.6682 8.94308V18H36.4501V8.94308H38.6682ZM36.2994 6.57422C36.2994 6.24498 36.411 5.97154 36.6342 5.75391C36.863 5.53627 37.1699 5.42746 37.555 5.42746C37.94 5.42746 38.2441 5.53627 38.4674 5.75391C38.6962 5.97154 38.8105 6.24498 38.8105 6.57422C38.8105 6.89788 38.6962 7.16853 38.4674 7.38616C38.2441 7.60379 37.94 7.71261 37.555 7.71261C37.1699 7.71261 36.863 7.60379 36.6342 7.38616C36.411 7.16853 36.2994 6.89788 36.2994 6.57422ZM43.6738 18H41.4473V8.10603C41.4473 7.42522 41.5784 6.85324 41.8407 6.39007C42.103 5.92132 42.4768 5.56696 42.9623 5.32701C43.4478 5.08705 44.0198 4.96708 44.6783 4.96708C44.8959 4.96708 45.1024 4.98103 45.2977 5.00893C45.4986 5.03683 45.6967 5.07589 45.892 5.12612L45.8502 6.80859C45.7441 6.78069 45.627 6.76116 45.4986 6.75C45.3758 6.73884 45.2391 6.73326 45.0884 6.73326C44.7871 6.73326 44.5304 6.78627 44.3184 6.8923C44.1063 6.99833 43.9445 7.15458 43.8329 7.36105C43.7268 7.56194 43.6738 7.81027 43.6738 8.10603V18ZM45.507 8.94308V10.5335H40.0829V8.94308H45.507ZM49.7676 18H47.541V8.10603C47.541 7.42522 47.6722 6.85324 47.9344 6.39007C48.1967 5.92132 48.5706 5.56696 49.0561 5.32701C49.5416 5.08705 50.1136 4.96708 50.772 4.96708C50.9897 4.96708 51.1962 4.98103 51.3915 5.00893C51.5924 5.03683 51.7905 5.07589 51.9858 5.12612L51.9439 6.80859C51.8379 6.78069 51.7207 6.76116 51.5924 6.75C51.4696 6.73884 51.3329 6.73326 51.1822 6.73326C50.8809 6.73326 50.6242 6.78627 50.4121 6.8923C50.2001 6.99833 50.0382 7.15458 49.9266 7.36105C49.8206 7.56194 49.7676 7.81027 49.7676 8.10603V18ZM51.6007 8.94308V10.5335H46.1766V8.94308H51.6007ZM55.6186 16.9955L58.046 8.94308H60.4149L56.7821 19.3728C56.6984 19.596 56.5896 19.8387 56.4556 20.101C56.3273 20.3633 56.1543 20.6116 55.9367 20.846C55.719 21.0859 55.4456 21.2812 55.1164 21.4319C54.7927 21.5826 54.3993 21.6579 53.9361 21.6579C53.7352 21.6579 53.5566 21.644 53.4004 21.6161C53.2441 21.5882 53.0795 21.5519 52.9065 21.5073V19.8499C52.9623 19.8555 53.0265 19.8583 53.0991 19.8583C53.1772 19.8638 53.2441 19.8666 53.2999 19.8666C53.6236 19.8666 53.8915 19.8276 54.1035 19.7494C54.3156 19.6769 54.4858 19.5569 54.6141 19.3895C54.748 19.2277 54.8597 19.0156 54.9489 18.7533L55.6186 16.9955ZM54.4216 8.94308L56.4724 15.6144L56.8323 17.9498L55.3089 18.226L52.036 8.94308H54.4216ZM66.4668 15.5223C66.4668 15.3326 66.4166 15.1624 66.3161 15.0117C66.2157 14.861 66.026 14.7243 65.7469 14.6016C65.4735 14.4732 65.0717 14.3532 64.5416 14.2416C64.0728 14.1412 63.6403 14.0156 63.2441 13.865C62.8479 13.7143 62.5075 13.5329 62.2229 13.3209C61.9383 13.1032 61.7151 12.8493 61.5533 12.5592C61.397 12.2634 61.3189 11.923 61.3189 11.5379C61.3189 11.1641 61.3998 10.8125 61.5617 10.4833C61.7235 10.1484 61.9579 9.85547 62.2648 9.60435C62.5717 9.34766 62.9456 9.14676 63.3864 9.00167C63.8273 8.851 64.3239 8.77567 64.8764 8.77567C65.6465 8.77567 66.3078 8.90123 66.8602 9.15234C67.4182 9.40346 67.8451 9.74944 68.1409 10.1903C68.4367 10.6256 68.5845 11.1166 68.5845 11.6635H66.3747C66.3747 11.4235 66.3189 11.2059 66.2073 11.0106C66.1013 10.8153 65.9367 10.659 65.7135 10.5419C65.4902 10.4191 65.2084 10.3577 64.868 10.3577C64.5611 10.3577 64.3016 10.4079 64.0896 10.5084C63.8831 10.6088 63.7268 10.74 63.6208 10.9018C63.5148 11.0636 63.4618 11.2422 63.4618 11.4375C63.4618 11.5826 63.4897 11.7137 63.5455 11.8309C63.6069 11.9425 63.7045 12.0458 63.8385 12.1406C63.9724 12.2355 64.1537 12.322 64.3825 12.4001C64.6169 12.4782 64.9043 12.5536 65.2447 12.6261C65.9199 12.76 66.5087 12.9386 67.0109 13.1618C67.5187 13.3795 67.9149 13.6696 68.1995 14.0324C68.4841 14.3951 68.6264 14.8583 68.6264 15.4219C68.6264 15.8237 68.5399 16.192 68.3669 16.5268C68.1939 16.856 67.9428 17.1434 67.6136 17.389C67.2843 17.6345 66.8909 17.827 66.4333 17.9665C65.9757 18.1004 65.4595 18.1674 64.8848 18.1674C64.0533 18.1674 63.3502 18.0195 62.7754 17.7238C62.2006 17.4224 61.7653 17.043 61.4696 16.5854C61.1738 16.1222 61.026 15.6423 61.026 15.1456H63.1437C63.1604 15.4972 63.2553 15.779 63.4283 15.9911C63.6013 16.2031 63.8189 16.3566 64.0812 16.4515C64.3491 16.5407 64.6309 16.5854 64.9266 16.5854C65.2614 16.5854 65.5432 16.5407 65.772 16.4515C66.0008 16.3566 66.1738 16.231 66.291 16.0748C66.4082 15.9129 66.4668 15.7288 66.4668 15.5223ZM74.0254 16.4263C74.3379 16.4263 74.6169 16.365 74.8624 16.2422C75.108 16.1194 75.3033 15.9464 75.4484 15.7232C75.5991 15.5 75.68 15.2405 75.6911 14.9448H77.7754C77.7642 15.5586 77.5912 16.1083 77.2564 16.5938C76.9216 17.0792 76.4752 17.4643 75.9171 17.7489C75.3647 18.0279 74.7453 18.1674 74.0589 18.1674C73.3613 18.1674 72.7531 18.0502 72.2341 17.8158C71.7151 17.5815 71.2826 17.255 70.9367 16.8365C70.5963 16.418 70.3396 15.9325 70.1666 15.38C69.9992 14.8276 69.9155 14.236 69.9155 13.6055V13.3376C69.9155 12.707 69.9992 12.1155 70.1666 11.5631C70.3396 11.0106 70.5963 10.5251 70.9367 10.1066C71.2826 9.68806 71.7151 9.36161 72.2341 9.12723C72.7531 8.89286 73.3585 8.77567 74.0505 8.77567C74.7815 8.77567 75.4233 8.91797 75.9757 9.20257C76.5338 9.48717 76.969 9.88895 77.2815 10.4079C77.5996 10.9269 77.7642 11.5379 77.7754 12.2411H75.6911C75.68 11.9174 75.6074 11.6272 75.4735 11.3705C75.3396 11.1138 75.1498 10.9074 74.9043 10.7511C74.6588 10.5949 74.3602 10.5167 74.0086 10.5167C73.6348 10.5167 73.3223 10.5949 73.0711 10.7511C72.8256 10.9074 72.6331 11.1222 72.4936 11.3956C72.3597 11.6635 72.2648 11.9648 72.209 12.2997C72.1588 12.6289 72.1336 12.9749 72.1336 13.3376V13.6055C72.1336 13.9738 72.1588 14.3253 72.209 14.6602C72.2648 14.995 72.3597 15.2963 72.4936 15.5642C72.6331 15.8265 72.8256 16.0357 73.0711 16.192C73.3223 16.3482 73.6403 16.4263 74.0254 16.4263ZM84.2374 16.0748V11.8979C84.2374 11.591 84.1844 11.3259 84.0784 11.1027C83.9724 10.8795 83.8105 10.7065 83.5929 10.5837C83.3753 10.4609 83.0991 10.3996 82.7642 10.3996C82.4685 10.3996 82.209 10.4498 81.9858 10.5502C81.7681 10.6507 81.6007 10.793 81.4835 10.9771C81.3663 11.1557 81.3078 11.3622 81.3078 11.5965H79.0896C79.0896 11.2227 79.1788 10.8683 79.3574 10.5335C79.536 10.1931 79.7899 9.89174 80.1191 9.62946C80.454 9.36161 80.853 9.15234 81.3161 9.00167C81.7849 8.851 82.3094 8.77567 82.8898 8.77567C83.5762 8.77567 84.1872 8.89286 84.7229 9.12723C85.2642 9.35603 85.6883 9.70201 85.9953 10.1652C86.3078 10.6283 86.464 11.2115 86.464 11.9146V15.8655C86.464 16.3175 86.4919 16.7054 86.5477 17.029C86.6091 17.3471 86.6984 17.6233 86.8156 17.8577V18H84.5639C84.4579 17.7712 84.377 17.481 84.3211 17.1295C84.2653 16.7723 84.2374 16.4208 84.2374 16.0748ZM84.5472 12.4838L84.5639 13.798H83.166C82.82 13.798 82.5159 13.8343 82.2536 13.9068C81.9913 13.9738 81.7765 14.0742 81.6091 14.2081C81.4417 14.3365 81.3161 14.4927 81.2324 14.6769C81.1487 14.8555 81.1069 15.0592 81.1069 15.2879C81.1069 15.5112 81.1571 15.7121 81.2575 15.8906C81.3636 16.0692 81.5142 16.2115 81.7095 16.3175C81.9104 16.418 82.1448 16.4682 82.4127 16.4682C82.8033 16.4682 83.1437 16.3901 83.4339 16.2338C83.7241 16.072 83.9501 15.8767 84.1119 15.6479C84.2737 15.4191 84.3602 15.2015 84.3714 14.995L85.0075 15.9492C84.9294 16.178 84.8122 16.4208 84.656 16.6775C84.4997 16.9342 84.2988 17.1741 84.0533 17.3973C83.8078 17.6205 83.512 17.8047 83.166 17.9498C82.82 18.0949 82.4182 18.1674 81.9607 18.1674C81.3747 18.1674 80.8502 18.0502 80.387 17.8158C79.9238 17.5815 79.5583 17.2606 79.2905 16.8532C79.0226 16.4459 78.8887 15.9827 78.8887 15.4637C78.8887 14.9838 78.978 14.5597 79.1565 14.1914C79.3351 13.8231 79.6002 13.5134 79.9517 13.2623C80.3033 13.0056 80.7386 12.8131 81.2575 12.6847C81.7821 12.5508 82.382 12.4838 83.0572 12.4838H84.5472ZM90.6242 10.8767V18H88.4143V8.94308H90.4902L90.6242 10.8767ZM90.2726 13.1451H89.6197C89.6253 12.4866 89.7146 11.8895 89.8876 11.3538C90.0605 10.8181 90.3033 10.3577 90.6158 9.97266C90.9339 9.58761 91.3105 9.29185 91.7458 9.08538C92.1811 8.87891 92.6666 8.77567 93.2023 8.77567C93.6376 8.77567 94.031 8.83705 94.3825 8.95982C94.7341 9.08259 95.0354 9.2779 95.2866 9.54576C95.5432 9.81362 95.7386 10.1652 95.8725 10.6004C96.012 11.0301 96.0818 11.5603 96.0818 12.1908V18H93.8552V12.1741C93.8552 11.7612 93.7938 11.4347 93.671 11.1948C93.5539 10.9548 93.3809 10.7846 93.1521 10.6842C92.9289 10.5837 92.6526 10.5335 92.3234 10.5335C91.983 10.5335 91.6844 10.6032 91.4277 10.7427C91.1766 10.8767 90.9646 11.0636 90.7916 11.3036C90.6242 11.5435 90.4958 11.8198 90.4065 12.1323C90.3172 12.4448 90.2726 12.7824 90.2726 13.1451ZM98.1242 16.9202C98.1242 16.5854 98.2386 16.3036 98.4674 16.0748C98.6962 15.846 99.0059 15.7316 99.3965 15.7316C99.7871 15.7316 100.097 15.846 100.326 16.0748C100.554 16.3036 100.669 16.5854 100.669 16.9202C100.669 17.2494 100.554 17.5285 100.326 17.7573C100.097 17.9805 99.7871 18.0921 99.3965 18.0921C99.0059 18.0921 98.6962 17.9805 98.4674 17.7573C98.2386 17.5285 98.1242 17.2494 98.1242 16.9202ZM104.636 8.94308L106.252 11.8225L107.893 8.94308H110.295L107.633 13.3795L110.404 18H108.001L106.269 14.9782L104.528 18H102.125L104.888 13.3795L102.242 8.94308H104.636ZM114.229 16.9955L116.657 8.94308H119.025L115.393 19.3728C115.309 19.596 115.2 19.8387 115.066 20.101C114.938 20.3633 114.765 20.6116 114.547 20.846C114.33 21.0859 114.056 21.2812 113.727 21.4319C113.403 21.5826 113.01 21.6579 112.547 21.6579C112.346 21.6579 112.167 21.644 112.011 21.6161C111.855 21.5882 111.69 21.5519 111.517 21.5073V19.8499C111.573 19.8555 111.637 19.8583 111.71 19.8583C111.788 19.8638 111.855 19.8666 111.91 19.8666C112.234 19.8666 112.502 19.8276 112.714 19.7494C112.926 19.6769 113.096 19.5569 113.225 19.3895C113.359 19.2277 113.47 19.0156 113.559 18.7533L114.229 16.9955ZM113.032 8.94308L115.083 15.6144L115.443 17.9498L113.919 18.226L110.646 8.94308H113.032ZM127.195 16.2589V18H120.381V16.2589H127.195ZM127.036 10.2656L121.21 18H119.754V16.6356L125.546 8.94308H127.036V10.2656ZM126.224 8.94308V10.6925H119.871V8.94308H126.224Z" fill="#263238"/>
<path d="M32.0472 8.94308V8.77165L31.8757 8.94308H32.0472ZM34.2737 8.94308H34.4451L34.2737 8.77165V8.94308ZM33.9222 20.3019L33.7704 20.2222L33.7696 20.2237L33.9222 20.3019ZM30.7414 21.6244L30.7608 21.4541L30.7608 21.4541L30.7414 21.6244ZM30.1638 21.5156L29.9924 21.5148L30.1199 21.6813L30.1638 21.5156ZM30.1722 19.808L30.2028 19.6394L30.0007 19.8072L30.1722 19.808ZM30.5488 19.8583L30.571 19.6881L30.5637 19.6875L30.5488 19.8583ZM31.5366 19.7578L31.4599 19.6045L31.4578 19.6055L31.5366 19.7578ZM31.9132 19.3644L31.7598 19.2877L31.758 19.2916L31.9132 19.3644ZM32.1978 5.75391L32.0797 5.62969L32.0782 5.63116L32.1978 5.75391ZM34.031 5.75391L33.9113 5.87666L33.9128 5.87812L34.031 5.75391ZM34.031 7.38616L33.9128 7.26194L33.9113 7.26342L34.031 7.38616ZM32.1978 7.38616L32.0781 7.50891L32.0797 7.51037L32.1978 7.38616ZM32.0472 9.11451H34.2737V8.77165H32.0472V9.11451ZM34.1023 8.94308V18.6696H34.4451V8.94308H34.1023ZM34.1023 18.6696C34.1023 19.291 33.9888 19.8062 33.7704 20.2222L34.0739 20.3816C34.3243 19.9048 34.4451 19.3318 34.4451 18.6696H34.1023ZM33.7696 20.2237C33.5566 20.6394 33.2496 20.951 32.8463 21.163L33.0058 21.4665C33.473 21.2209 33.8302 20.8573 34.0747 20.3801L33.7696 20.2237ZM32.8463 21.163C32.4416 21.3757 31.9377 21.4865 31.3273 21.4865V21.8294C31.978 21.8294 32.54 21.7113 33.0058 21.4665L32.8463 21.163ZM31.3273 21.4865C31.1385 21.4865 30.9497 21.4757 30.7608 21.4541L30.7219 21.7948C30.9236 21.8178 31.1254 21.8294 31.3273 21.8294V21.4865ZM30.7608 21.4541C30.5737 21.4327 30.3894 21.398 30.2077 21.3499L30.1199 21.6813C30.3177 21.7337 30.5184 21.7715 30.7219 21.7948L30.7608 21.4541ZM30.3352 21.5165L30.3436 19.8089L30.0007 19.8072L29.9924 21.5148L30.3352 21.5165ZM30.1415 19.9767C30.2697 20 30.4005 20.0174 30.534 20.029L30.5637 19.6875C30.4405 19.6768 30.3202 19.6607 30.2028 19.6394L30.1415 19.9767ZM30.5267 20.0282C30.6623 20.0459 30.798 20.0548 30.9339 20.0548V19.7119C30.813 19.7119 30.6921 19.7041 30.571 19.6883L30.5267 20.0282ZM30.9339 20.0548C31.1929 20.0548 31.4227 20.0097 31.6153 19.9101L31.4578 19.6055C31.3268 19.6733 31.1548 19.7119 30.9339 19.7119V20.0548ZM31.6132 19.9111C31.8171 19.8092 31.9693 19.6486 32.0684 19.4372L31.758 19.2916C31.6897 19.4373 31.5909 19.539 31.4599 19.6045L31.6132 19.9111ZM32.0666 19.4411C32.1717 19.2308 32.2186 18.9703 32.2186 18.6696H31.8757C31.8757 18.9382 31.8333 19.1409 31.7599 19.2877L32.0666 19.4411ZM32.2186 18.6696V8.94308H31.8757V18.6696H32.2186ZM32.0344 6.57422C32.0344 6.2883 32.1294 6.06005 32.3175 5.87665L32.0782 5.63116C31.8198 5.88303 31.6916 6.20165 31.6916 6.57422H32.0344ZM32.316 5.87812C32.5062 5.69716 32.7673 5.59888 33.1186 5.59888V5.25603C32.6998 5.25603 32.347 5.37538 32.0797 5.6297L32.316 5.87812ZM33.1186 5.59888C33.47 5.59888 33.7273 5.69721 33.9113 5.87665L34.1506 5.63116C33.8883 5.37534 33.5372 5.25603 33.1186 5.25603V5.59888ZM33.9128 5.87812C34.106 6.06187 34.2027 6.28968 34.2027 6.57422H34.5456C34.5456 6.20028 34.4135 5.88121 34.1491 5.6297L33.9128 5.87812ZM34.2027 6.57422C34.2027 6.85225 34.1066 7.07758 33.9128 7.26195L34.1491 7.51037C34.4129 7.25948 34.5456 6.94351 34.5456 6.57422H34.2027ZM33.9113 7.26342C33.7273 7.44286 33.47 7.54118 33.1186 7.54118V7.88404C33.5372 7.88404 33.8883 7.76473 34.1506 7.5089L33.9113 7.26342ZM33.1186 7.54118C32.7673 7.54118 32.5062 7.44291 32.316 7.26195L32.0797 7.51037C32.347 7.76468 32.6998 7.88404 33.1186 7.88404V7.54118ZM32.3175 7.26342C32.1288 7.0794 32.0344 6.85364 32.0344 6.57422H31.6916C31.6916 6.94212 31.8205 7.25765 32.0782 7.5089L32.3175 7.26342ZM38.6682 8.94308H38.8397L38.6682 8.77165V8.94308ZM38.6682 18V18.1714L38.8397 18H38.6682ZM36.4501 18H36.2786L36.4501 18.1714V18ZM36.4501 8.94308V8.77165L36.2786 8.94308H36.4501ZM36.6342 5.75391L36.516 5.62969L36.5145 5.63116L36.6342 5.75391ZM38.4674 5.75391L38.3477 5.87666L38.3492 5.87812L38.4674 5.75391ZM38.4674 7.38616L38.3492 7.26194L38.3477 7.26342L38.4674 7.38616ZM36.6342 7.38616L36.5145 7.50891L36.5161 7.51037L36.6342 7.38616ZM38.4968 8.94308V18H38.8397V8.94308H38.4968ZM38.6682 17.8286H36.4501V18.1714H38.6682V17.8286ZM36.6215 18V8.94308H36.2786V18H36.6215ZM36.4501 9.11451H38.6682V8.77165H36.4501V9.11451ZM36.4708 6.57422C36.4708 6.2883 36.5658 6.06005 36.7539 5.87665L36.5145 5.63116C36.2562 5.88303 36.128 6.20165 36.128 6.57422H36.4708ZM36.7524 5.87812C36.9426 5.69716 37.2037 5.59888 37.555 5.59888V5.25603C37.1361 5.25603 36.7834 5.37538 36.5161 5.6297L36.7524 5.87812ZM37.555 5.59888C37.9064 5.59888 38.1636 5.69721 38.3477 5.87665L38.587 5.63116C38.3246 5.37534 37.9736 5.25603 37.555 5.25603V5.59888ZM38.3492 5.87812C38.5424 6.06187 38.6391 6.28968 38.6391 6.57422H38.982C38.982 6.20028 38.8499 5.88121 38.5855 5.6297L38.3492 5.87812ZM38.6391 6.57422C38.6391 6.85225 38.543 7.07758 38.3492 7.26195L38.5855 7.51037C38.8493 7.25948 38.982 6.94351 38.982 6.57422H38.6391ZM38.3477 7.26342C38.1636 7.44286 37.9064 7.54118 37.555 7.54118V7.88404C37.9736 7.88404 38.3246 7.76473 38.587 7.5089L38.3477 7.26342ZM37.555 7.54118C37.2037 7.54118 36.9426 7.44291 36.7524 7.26195L36.5161 7.51037C36.7834 7.76468 37.1361 7.88404 37.555 7.88404V7.54118ZM36.7539 7.26342C36.5652 7.0794 36.4708 6.85364 36.4708 6.57422H36.128C36.128 6.94212 36.2568 7.25765 36.5145 7.5089L36.7539 7.26342ZM43.6738 18V18.1714L43.8453 18H43.6738ZM41.4473 18H41.2758L41.4473 18.1714V18ZM41.8407 6.39007L41.9899 6.47454L41.9903 6.47377L41.8407 6.39007ZM45.2977 5.00893L45.2735 5.17864L45.2741 5.17873L45.2977 5.00893ZM45.892 5.12612L46.0634 5.13038L45.9347 4.96009L45.892 5.12612ZM45.8502 6.80859L45.8065 6.97438L46.0215 6.81286L45.8502 6.80859ZM45.4986 6.75L45.4831 6.92073L45.4838 6.92078L45.4986 6.75ZM43.8329 7.36105L43.6821 7.27953L43.6813 7.28103L43.8329 7.36105ZM45.507 8.94308H45.6784L45.507 8.77165V8.94308ZM45.507 10.5335V10.7049L45.6784 10.5335H45.507ZM40.0829 10.5335H39.9114L40.0829 10.7049V10.5335ZM40.0829 8.94308V8.77165L39.9114 8.94308H40.0829ZM43.6738 17.8286H41.4473V18.1714H43.6738V17.8286ZM41.6187 18V8.10603H41.2758V18H41.6187ZM41.6187 8.10603C41.6187 7.44674 41.7457 6.90572 41.9899 6.47454L41.6915 6.3056C41.4111 6.80075 41.2758 7.4037 41.2758 8.10603H41.6187ZM41.9903 6.47377C42.2355 6.03552 42.5836 5.70543 43.0383 5.48069L42.8864 5.17333C42.3701 5.4285 41.9704 5.80712 41.6911 6.30636L41.9903 6.47377ZM43.0383 5.48069C43.4956 5.25466 44.0406 5.1385 44.6783 5.1385V4.79565C43.9991 4.79565 43.4 4.91945 42.8864 5.17333L43.0383 5.48069ZM44.6783 5.1385C44.8886 5.1385 45.087 5.15199 45.2735 5.17863L45.322 4.83922C45.1178 4.81006 44.9032 4.79565 44.6783 4.79565V5.1385ZM45.2741 5.17873C45.4686 5.20574 45.6603 5.24355 45.8493 5.29214L45.9347 4.96009C45.7331 4.90824 45.5286 4.86792 45.3213 4.83913L45.2741 5.17873ZM45.7206 5.12185L45.6788 6.80433L46.0215 6.81286L46.0634 5.13038L45.7206 5.12185ZM45.8938 6.64281C45.7769 6.61204 45.6499 6.59108 45.5135 6.57922L45.4838 6.92078C45.604 6.93124 45.7114 6.94934 45.8065 6.97438L45.8938 6.64281ZM45.5141 6.57928C45.3852 6.56756 45.2432 6.56183 45.0884 6.56183V6.90469C45.235 6.90469 45.3665 6.91012 45.4831 6.92072L45.5141 6.57928ZM45.0884 6.56183C44.7675 6.56183 44.4831 6.61826 44.2417 6.73897L44.395 7.04563C44.5777 6.95429 44.8067 6.90469 45.0884 6.90469V6.56183ZM44.2417 6.73897C43.9985 6.86058 43.8106 7.04174 43.6821 7.27953L43.9837 7.44257C44.0784 7.26741 44.2141 7.13608 44.395 7.04563L44.2417 6.73897ZM43.6813 7.28103C43.5589 7.51291 43.5024 7.79053 43.5024 8.10603H43.8453C43.8453 7.83001 43.8948 7.61097 43.9845 7.44107L43.6813 7.28103ZM43.5024 8.10603V18H43.8453V8.10603H43.5024ZM45.3355 8.94308V10.5335H45.6784V8.94308H45.3355ZM45.507 10.3621H40.0829V10.7049H45.507V10.3621ZM40.2543 10.5335V8.94308H39.9114V10.5335H40.2543ZM40.0829 9.11451H45.507V8.77165H40.0829V9.11451ZM49.7676 18V18.1714L49.939 18H49.7676ZM47.541 18H47.3696L47.541 18.1714V18ZM47.9344 6.39007L48.0836 6.47454L48.084 6.47377L47.9344 6.39007ZM51.3915 5.00893L51.3672 5.17864L51.3679 5.17873L51.3915 5.00893ZM51.9858 5.12612L52.1571 5.13038L52.0285 4.96009L51.9858 5.12612ZM51.9439 6.80859L51.9003 6.97438L52.1153 6.81286L51.9439 6.80859ZM51.5924 6.75L51.5768 6.92073L51.5775 6.92078L51.5924 6.75ZM49.9266 7.36105L49.7758 7.27953L49.775 7.28103L49.9266 7.36105ZM51.6007 8.94308H51.7722L51.6007 8.77165V8.94308ZM51.6007 10.5335V10.7049L51.7722 10.5335H51.6007ZM46.1766 10.5335H46.0052L46.1766 10.7049V10.5335ZM46.1766 8.94308V8.77165L46.0052 8.94308H46.1766ZM49.7676 17.8286H47.541V18.1714H49.7676V17.8286ZM47.7124 18V8.10603H47.3696V18H47.7124ZM47.7124 8.10603C47.7124 7.44674 47.8394 6.90572 48.0836 6.47454L47.7853 6.3056C47.5049 6.80075 47.3696 7.4037 47.3696 8.10603H47.7124ZM48.084 6.47377C48.3292 6.03552 48.6773 5.70543 49.132 5.48069L48.9801 5.17333C48.4639 5.4285 48.0642 5.80712 47.7848 6.30636L48.084 6.47377ZM49.132 5.48069C49.5894 5.25466 50.1343 5.1385 50.772 5.1385V4.79565C50.0928 4.79565 49.4938 4.91945 48.9801 5.17333L49.132 5.48069ZM50.772 5.1385C50.9824 5.1385 51.1807 5.15199 51.3672 5.17863L51.4157 4.83922C51.2116 4.81006 50.997 4.79565 50.772 4.79565V5.1385ZM51.3679 5.17873C51.5624 5.20574 51.7541 5.24355 51.9431 5.29214L52.0285 4.96009C51.8268 4.90824 51.6223 4.86792 51.415 4.83913L51.3679 5.17873ZM51.8144 5.12185L51.7725 6.80433L52.1153 6.81286L52.1571 5.13038L51.8144 5.12185ZM51.9875 6.64281C51.8706 6.61204 51.7436 6.59108 51.6072 6.57922L51.5775 6.92078C51.6978 6.93124 51.8052 6.94934 51.9003 6.97438L51.9875 6.64281ZM51.6079 6.57928C51.479 6.56756 51.337 6.56183 51.1822 6.56183V6.90469C51.3288 6.90469 51.4602 6.91012 51.5768 6.92072L51.6079 6.57928ZM51.1822 6.56183C50.8613 6.56183 50.5769 6.61826 50.3354 6.73897L50.4888 7.04563C50.6715 6.95429 50.9005 6.90469 51.1822 6.90469V6.56183ZM50.3354 6.73897C50.0922 6.86058 49.9043 7.04174 49.7758 7.27953L50.0774 7.44257C50.1721 7.26741 50.3079 7.13608 50.4888 7.04563L50.3354 6.73897ZM49.775 7.28103C49.6526 7.51291 49.5962 7.79053 49.5962 8.10603H49.939C49.939 7.83001 49.9886 7.61097 50.0782 7.44107L49.775 7.28103ZM49.5962 8.10603V18H49.939V8.10603H49.5962ZM51.4293 8.94308V10.5335H51.7722V8.94308H51.4293ZM51.6007 10.3621H46.1766V10.7049H51.6007V10.3621ZM46.348 10.5335V8.94308H46.0052V10.5335H46.348ZM46.1766 9.11451H51.6007V8.77165H46.1766V9.11451ZM55.6186 16.9955L55.7792 17.0567L55.7827 17.045L55.6186 16.9955ZM58.046 8.94308V8.77165L57.8819 8.8936L58.046 8.94308ZM60.4149 8.94308L60.5768 8.99947L60.4149 8.77165V8.94308ZM56.7821 19.3728L56.9426 19.433L56.944 19.4292L56.7821 19.3728ZM56.4556 20.101L56.3029 20.023L56.3017 20.0257L56.4556 20.101ZM55.9367 20.846L55.811 20.7293L55.8097 20.7308L55.9367 20.846ZM55.1164 21.4319L55.045 21.276L55.044 21.2765L55.1164 21.4319ZM52.9065 21.5073H52.7351L52.8637 21.6732L52.9065 21.5073ZM52.9065 19.8499L52.9236 19.6793L52.7351 19.8499H52.9065ZM53.0991 19.8583L53.1113 19.6868H53.0991V19.8583ZM54.1035 19.7494L54.048 19.5872L54.0443 19.5886L54.1035 19.7494ZM54.6141 19.3895L54.482 19.2801L54.4781 19.2852L54.6141 19.3895ZM54.9489 18.7533L54.7886 18.6923L54.7867 18.6981L54.9489 18.7533ZM54.4216 8.94308L54.5855 8.89271L54.4216 8.77165V8.94308ZM56.4724 15.6144L56.6418 15.5883L56.6362 15.564L56.4724 15.6144ZM56.8323 17.9498L56.8629 18.1185L57.0017 17.9237L56.8323 17.9498ZM55.3089 18.226L55.1472 18.283L55.3395 18.3947L55.3089 18.226ZM52.036 8.94308V8.77165L51.8743 9.00008L52.036 8.94308ZM55.7827 17.045L58.2102 8.99256L57.8819 8.8936L55.4545 16.9461L55.7827 17.045ZM58.046 9.11451H60.4149V8.77165H58.046V9.11451ZM60.253 8.88669L56.6202 19.3164L56.944 19.4292L60.5768 8.99947L60.253 8.88669ZM56.6216 19.3126C56.5406 19.5285 56.4346 19.7653 56.303 20.023L56.6083 20.179C56.7445 19.9122 56.8562 19.6635 56.9426 19.433L56.6216 19.3126ZM56.3017 20.0257C56.1814 20.2715 56.0183 20.5061 55.811 20.7293L56.0623 20.9626C56.2903 20.7171 56.4732 20.4551 56.6096 20.1764L56.3017 20.0257ZM55.8097 20.7308C55.6094 20.9517 55.3556 21.1339 55.045 21.276L55.1877 21.5878C55.5356 21.4286 55.8287 21.2202 56.0636 20.9612L55.8097 20.7308ZM55.044 21.2765C54.7487 21.414 54.3814 21.4865 53.9361 21.4865V21.8294C54.4171 21.8294 54.8367 21.7512 55.1887 21.5873L55.044 21.2765ZM53.9361 21.4865C53.7428 21.4865 53.5746 21.473 53.4305 21.4473L53.3703 21.7848C53.5387 21.8149 53.7276 21.8294 53.9361 21.8294V21.4865ZM53.4305 21.4473C53.279 21.4203 53.1187 21.385 52.9494 21.3413L52.8637 21.6732C53.0404 21.7188 53.2092 21.7561 53.3703 21.7848L53.4305 21.4473ZM53.078 21.5073V19.8499H52.7351V21.5073H53.078ZM52.8895 20.0205C52.9523 20.0267 53.0224 20.0297 53.0991 20.0297V19.6868C53.0307 19.6868 52.9724 19.6842 52.9236 19.6793L52.8895 20.0205ZM53.0868 20.0293C53.1675 20.035 53.2388 20.0381 53.2999 20.0381V19.6952C53.2495 19.6952 53.1868 19.6927 53.1113 19.6873L53.0868 20.0293ZM53.2999 20.0381C53.6358 20.0381 53.9255 19.9977 54.1628 19.9103L54.0443 19.5886C53.8575 19.6574 53.6114 19.6952 53.2999 19.6952V20.0381ZM54.159 19.9116C54.4009 19.8289 54.5999 19.6897 54.7502 19.4938L54.4781 19.2852C54.3716 19.4241 54.2302 19.5249 54.048 19.5872L54.159 19.9116ZM54.7462 19.4988C54.8969 19.3167 55.0173 19.0846 55.1112 18.8086L54.7867 18.6981C54.7021 18.9466 54.5992 19.1386 54.4821 19.2802L54.7462 19.4988ZM55.1091 18.8144L55.7788 17.0566L55.4584 16.9345L54.7887 18.6923L55.1091 18.8144ZM54.2577 8.99345L56.3085 15.6648L56.6362 15.564L54.5855 8.89271L54.2577 8.99345ZM56.303 15.6405L56.6629 17.9759L57.0017 17.9237L56.6418 15.5883L56.303 15.6405ZM56.8017 17.7811L55.2783 18.0573L55.3395 18.3947L56.8629 18.1185L56.8017 17.7811ZM55.4705 18.169L52.1977 8.88608L51.8743 9.00008L55.1472 18.283L55.4705 18.169ZM52.036 9.11451H54.4216V8.77165H52.036V9.11451ZM65.7469 14.6016L65.6741 14.7568L65.6779 14.7585L65.7469 14.6016ZM64.5416 14.2416L64.5057 14.4093L64.5063 14.4094L64.5416 14.2416ZM62.2229 13.3209L62.1188 13.4571L62.1205 13.4583L62.2229 13.3209ZM61.5533 12.5592L61.4017 12.6393L61.4036 12.6426L61.5533 12.5592ZM61.5617 10.4833L61.7155 10.5589L61.716 10.5579L61.5617 10.4833ZM62.2648 9.60435L62.3734 9.73704L62.3748 9.73585L62.2648 9.60435ZM63.3864 9.00167L63.44 9.16452L63.4419 9.16389L63.3864 9.00167ZM66.8602 9.15234L66.7893 9.30841L66.7899 9.30867L66.8602 9.15234ZM68.1409 10.1903L67.9985 10.2858L67.9991 10.2866L68.1409 10.1903ZM68.5845 11.6635V11.8349L68.756 11.6635H68.5845ZM66.3747 11.6635H66.2033L66.3747 11.8349V11.6635ZM66.2073 11.0106L66.0566 11.0924L66.0585 11.0957L66.2073 11.0106ZM65.7135 10.5419L65.6308 10.6921L65.6338 10.6936L65.7135 10.5419ZM64.0896 10.5084L64.0162 10.3534L64.0146 10.3542L64.0896 10.5084ZM63.5455 11.8309L63.3904 11.9047L63.3953 11.9135L63.5455 11.8309ZM64.3825 12.4001L64.3271 12.5623L64.3283 12.5627L64.3825 12.4001ZM65.2447 12.6261L65.209 12.7938L65.2113 12.7943L65.2447 12.6261ZM67.0109 13.1618L66.9413 13.3185L66.9434 13.3194L67.0109 13.1618ZM68.1995 14.0324L68.0646 14.1382L68.1995 14.0324ZM68.3669 16.5268L68.5187 16.6065L68.5192 16.6055L68.3669 16.5268ZM67.6136 17.389L67.5111 17.2515L67.6136 17.389ZM66.4333 17.9665L66.4815 18.1311L66.4833 18.1305L66.4333 17.9665ZM62.7754 17.7238L62.6958 17.8756L62.697 17.8762L62.7754 17.7238ZM61.4696 16.5854L61.3251 16.6776L61.3256 16.6784L61.4696 16.5854ZM61.026 15.1456V14.9742L60.8545 15.1456H61.026ZM63.1437 15.1456L63.3149 15.1375L63.1437 14.9742V15.1456ZM63.4283 15.9911L63.5611 15.8827L63.4283 15.9911ZM64.0812 16.4515L64.0229 16.6127L64.027 16.6141L64.0812 16.4515ZM65.772 16.4515L65.8344 16.6112L65.8377 16.6098L65.772 16.4515ZM66.291 16.0748L66.4282 16.1776L66.4299 16.1753L66.291 16.0748ZM66.6382 15.5223C66.6382 15.3005 66.5789 15.0968 66.4588 14.9166L66.1735 15.1068C66.2542 15.2279 66.2954 15.3647 66.2954 15.5223H66.6382ZM66.4588 14.9166C66.3316 14.7259 66.1067 14.5726 65.816 14.4447L65.6779 14.7585C65.9452 14.8761 66.0997 14.9962 66.1735 15.1068L66.4588 14.9166ZM65.8198 14.4464C65.5285 14.3096 65.1115 14.1864 64.5769 14.0739L64.5063 14.4094C65.0319 14.52 65.4185 14.6368 65.6741 14.7567L65.8198 14.4464ZM64.5775 14.074C64.1162 13.9752 63.6922 13.8519 63.3051 13.7047L63.1832 14.0252C63.5885 14.1793 64.0295 14.3072 64.5057 14.4093L64.5775 14.074ZM63.3051 13.7047C62.9209 13.5586 62.5951 13.3844 62.3254 13.1834L62.1205 13.4583C62.42 13.6815 62.775 13.8699 63.1832 14.0252L63.3051 13.7047ZM62.3271 13.1847C62.0596 12.9802 61.8525 12.7438 61.703 12.4757L61.4036 12.6426C61.5777 12.9549 61.817 13.2263 62.1188 13.457L62.3271 13.1847ZM61.7049 12.4791C61.5635 12.2115 61.4903 11.8993 61.4903 11.5379H61.1475C61.1475 11.9467 61.2306 12.3153 61.4017 12.6392L61.7049 12.4791ZM61.4903 11.5379C61.4903 11.1898 61.5655 10.8641 61.7155 10.5589L61.4078 10.4076C61.2342 10.7609 61.1475 11.1384 61.1475 11.5379H61.4903ZM61.716 10.5579C61.8663 10.247 62.0844 9.97342 62.3733 9.73703L62.1562 9.47167C61.8313 9.73752 61.5807 10.0499 61.4073 10.4087L61.716 10.5579ZM62.3748 9.73585C62.6626 9.49512 63.0165 9.30389 63.44 9.16451L63.3328 8.83884C62.8746 8.98964 62.4808 9.2002 62.1548 9.47285L62.3748 9.73585ZM63.4419 9.16389C63.8619 9.02033 64.3394 8.9471 64.8764 8.9471V8.60424C64.3085 8.60424 63.7927 8.68168 63.331 8.83946L63.4419 9.16389ZM64.8764 8.9471C65.6284 8.9471 66.2642 9.06975 66.7893 9.30841L66.9312 8.99628C66.3513 8.7327 65.6646 8.60424 64.8764 8.60424V8.9471ZM66.7899 9.30867C67.3232 9.54869 67.7232 9.87542 67.9985 10.2858L68.2833 10.0948C67.9671 9.62347 67.5133 9.25823 66.9306 8.99601L66.7899 9.30867ZM67.9991 10.2866C68.2748 10.6923 68.4131 11.1496 68.4131 11.6635H68.756C68.756 11.0837 68.5986 10.5588 68.2827 10.0939L67.9991 10.2866ZM68.5845 11.4921H66.3747V11.8349H68.5845V11.4921ZM66.5462 11.6635C66.5462 11.3958 66.4836 11.1485 66.3562 10.9256L66.0585 11.0957C66.1543 11.2633 66.2033 11.4513 66.2033 11.6635H66.5462ZM66.358 10.9288C66.2336 10.6998 66.0422 10.5209 65.7931 10.3901L65.6338 10.6936C65.8311 10.7972 65.9689 10.9308 66.0567 11.0924L66.358 10.9288ZM65.7961 10.3916C65.5405 10.2511 65.228 10.1863 64.868 10.1863V10.5291C65.1889 10.5291 65.44 10.5871 65.6308 10.6921L65.7961 10.3916ZM64.868 10.1863C64.5432 10.1863 64.2571 10.2393 64.0162 10.3534L64.163 10.6633C64.3461 10.5765 64.579 10.5291 64.868 10.5291V10.1863ZM64.0146 10.3542C63.7855 10.4656 63.6033 10.6157 63.4774 10.8078L63.7642 10.9957C63.8504 10.8642 63.9807 10.752 64.1646 10.6625L64.0146 10.3542ZM63.4774 10.8078C63.3529 10.9979 63.2903 11.2091 63.2903 11.4375H63.6332C63.6332 11.2752 63.6767 11.1294 63.7642 10.9957L63.4774 10.8078ZM63.2903 11.4375C63.2903 11.6051 63.3227 11.7618 63.3907 11.9046L63.7003 11.7572C63.6566 11.6656 63.6332 11.5601 63.6332 11.4375H63.2903ZM63.3953 11.9135C63.4722 12.0534 63.5902 12.1748 63.7394 12.2805L63.9375 12.0007C63.8189 11.9167 63.7415 11.8316 63.6957 11.7483L63.3953 11.9135ZM63.7394 12.2805C63.8914 12.3882 64.0894 12.4812 64.3271 12.5623L64.4379 12.2379C64.2181 12.1628 64.0533 12.0828 63.9375 12.0007L63.7394 12.2805ZM64.3283 12.5627C64.5706 12.6435 64.8646 12.7204 65.209 12.7938L65.2804 12.4585C64.944 12.3867 64.6632 12.313 64.4367 12.2375L64.3283 12.5627ZM65.2113 12.7943C65.8771 12.9263 66.4531 13.1015 66.9413 13.3185L67.0805 13.0052C66.5642 12.7757 65.9628 12.5938 65.2781 12.458L65.2113 12.7943ZM66.9434 13.3194C67.43 13.5279 67.801 13.8022 68.0646 14.1382L68.3344 13.9265C68.0288 13.5371 67.6074 13.231 67.0784 13.0043L66.9434 13.3194ZM68.0646 14.1382C68.3206 14.4645 68.455 14.8879 68.455 15.4219H68.7978C68.7978 14.8287 68.6476 14.3257 68.3344 13.9265L68.0646 14.1382ZM68.455 15.4219C68.455 15.7981 68.3742 16.1392 68.2146 16.4481L68.5192 16.6055C68.7056 16.2447 68.7978 15.8492 68.7978 15.4219H68.455ZM68.2152 16.447C68.0553 16.7513 67.822 17.0197 67.5111 17.2515L67.716 17.5264C68.0636 17.2671 68.3326 16.9607 68.5187 16.6065L68.2152 16.447ZM67.5111 17.2515C67.2 17.4835 66.8251 17.6679 66.3833 17.8025L66.4833 18.1305C66.9567 17.9862 67.3686 17.7855 67.716 17.5264L67.5111 17.2515ZM66.3852 17.802C65.946 17.9305 65.4465 17.996 64.8848 17.996V18.3388C65.4726 18.3388 66.0054 18.2704 66.4815 18.131L66.3852 17.802ZM64.8848 17.996C64.073 17.996 63.3984 17.8516 62.8538 17.5713L62.697 17.8762C63.3019 18.1875 64.0336 18.3388 64.8848 18.3388V17.996ZM62.855 17.5719C62.3014 17.2817 61.8905 16.9208 61.6136 16.4923L61.3256 16.6784C61.6402 17.1652 62.0999 17.5632 62.6958 17.8756L62.855 17.5719ZM61.6141 16.4931C61.334 16.0545 61.1974 15.6062 61.1974 15.1456H60.8545C60.8545 15.6784 61.0137 16.19 61.3251 16.6776L61.6141 16.4931ZM61.026 15.3171H63.1437V14.9742H61.026V15.3171ZM62.9725 15.1538C62.9904 15.5315 63.0934 15.8517 63.2955 16.0994L63.5611 15.8827C63.4172 15.7063 63.3304 15.4629 63.3149 15.1375L62.9725 15.1538ZM63.2955 16.0994C63.4884 16.336 63.732 16.5075 64.0229 16.6127L64.1395 16.2902C63.9058 16.2057 63.7141 16.0702 63.5611 15.8827L63.2955 16.0994ZM64.027 16.6141C64.3131 16.7095 64.6133 16.7568 64.9266 16.7568V16.414C64.6484 16.414 64.385 16.372 64.1354 16.2888L64.027 16.6141ZM64.9266 16.7568C65.2755 16.7568 65.5799 16.7104 65.8344 16.6111L65.7097 16.2918C65.5066 16.371 65.2474 16.414 64.9266 16.414V16.7568ZM65.8377 16.6098C66.0874 16.5063 66.2882 16.3642 66.4282 16.1776L66.1539 15.9719C66.0594 16.0978 65.9143 16.2069 65.7064 16.2931L65.8377 16.6098ZM66.4299 16.1753C66.569 15.9832 66.6382 15.7636 66.6382 15.5223H66.2954C66.2954 15.694 66.2474 15.8427 66.1522 15.9742L66.4299 16.1753ZM75.4484 15.7232L75.3063 15.6273L75.3046 15.6298L75.4484 15.7232ZM75.6911 14.9448V14.7733L75.5198 14.9383L75.6911 14.9448ZM77.7754 14.9448L77.9468 14.9479L77.7754 14.7733V14.9448ZM75.9171 17.7489L75.9944 17.9019L75.995 17.9016L75.9171 17.7489ZM70.9367 16.8365L70.8037 16.9447L70.8045 16.9457L70.9367 16.8365ZM70.1666 15.38L70.0025 15.4297L70.003 15.4312L70.1666 15.38ZM70.1666 11.5631L70.003 11.5118L70.0025 11.5133L70.1666 11.5631ZM70.9367 10.1066L70.8045 9.99736L70.8037 9.99842L70.9367 10.1066ZM75.9757 9.20257L75.8972 9.35496L75.8978 9.35528L75.9757 9.20257ZM77.2815 10.4079L77.1347 10.4964L77.1354 10.4975L77.2815 10.4079ZM77.7754 12.2411V12.4125L77.9468 12.2384L77.7754 12.2411ZM75.6911 12.2411L75.5198 12.247L75.6911 12.4125V12.2411ZM73.0711 10.7511L72.9806 10.6056L72.9791 10.6065L73.0711 10.7511ZM72.4936 11.3956L72.3409 11.3177L72.3403 11.319L72.4936 11.3956ZM72.209 12.2997L72.0399 12.2715L72.0395 12.2738L72.209 12.2997ZM72.209 14.6602L72.0394 14.6856L72.0399 14.6883L72.209 14.6602ZM72.4936 15.5642L72.3402 15.6409L72.3422 15.6447L72.4936 15.5642ZM73.0711 16.192L72.9791 16.3366L72.9806 16.3375L73.0711 16.192ZM74.0254 16.5978C74.3608 16.5978 74.6667 16.5317 74.9391 16.3955L74.7858 16.0889C74.5672 16.1982 74.315 16.2549 74.0254 16.2549V16.5978ZM74.9391 16.3955C75.211 16.2596 75.4299 16.0663 75.5921 15.8166L75.3046 15.6298C75.1767 15.8266 75.0049 15.9793 74.7858 16.0889L74.9391 16.3955ZM75.5905 15.8191C75.7608 15.5668 75.8502 15.2757 75.8624 14.9512L75.5198 14.9383C75.5097 15.2054 75.4373 15.4332 75.3063 15.6273L75.5905 15.8191ZM75.6911 15.1162H77.7754V14.7733H75.6911V15.1162ZM77.604 14.9416C77.5934 15.5232 77.4302 16.0399 77.1153 16.4964L77.3975 16.6911C77.7523 16.1767 77.935 15.5939 77.9468 14.9479L77.604 14.9416ZM77.1153 16.4964C76.7976 16.957 76.3736 17.3237 75.8392 17.5962L75.995 17.9016C76.5768 17.6049 77.0456 17.2014 77.3975 16.6911L77.1153 16.4964ZM75.8398 17.5959C75.3139 17.8615 74.7214 17.996 74.0589 17.996V18.3388C74.7691 18.3388 75.4155 18.1943 75.9944 17.9019L75.8398 17.5959ZM74.0589 17.996C73.3803 17.996 72.797 17.882 72.3047 17.6596L72.1635 17.9721C72.7091 18.2185 73.3423 18.3388 74.0589 18.3388V17.996ZM72.3047 17.6596C71.8083 17.4355 71.3973 17.1247 71.0688 16.7273L70.8045 16.9457C71.168 17.3854 71.6219 17.7275 72.1635 17.9721L72.3047 17.6596ZM71.0697 16.7283C70.744 16.3279 70.4971 15.862 70.3302 15.3288L70.003 15.4312C70.182 16.0029 70.4486 16.5081 70.8037 16.9447L71.0697 16.7283ZM70.3306 15.3303C70.1685 14.7954 70.0869 14.2208 70.0869 13.6055H69.744C69.744 14.2513 69.8298 14.8597 70.0025 15.4297L70.3306 15.3303ZM70.0869 13.6055V13.3376H69.744V13.6055H70.0869ZM70.0869 13.3376C70.0869 12.7223 70.1685 12.1477 70.3306 11.6128L70.0025 11.5133C69.8298 12.0833 69.744 12.6917 69.744 13.3376H70.0869ZM70.3302 11.6143C70.4971 11.081 70.744 10.6152 71.0697 10.2148L70.8037 9.99842C70.4486 10.435 70.182 10.9402 70.003 11.5118L70.3302 11.6143ZM71.0688 10.2158C71.3973 9.81843 71.8083 9.50761 72.3047 9.28347L72.1635 8.971C71.6219 9.2156 71.168 9.55769 70.8045 9.99736L71.0688 10.2158ZM72.3047 9.28347C72.7972 9.06102 73.3777 8.9471 74.0505 8.9471V8.60424C73.3393 8.60424 72.7089 8.72469 72.1635 8.971L72.3047 9.28347ZM74.0505 8.9471C74.759 8.9471 75.373 9.0849 75.8972 9.35496L76.0542 9.05017C75.4736 8.75104 74.804 8.60424 74.0505 8.60424V8.9471ZM75.8978 9.35528C76.4284 9.62584 76.8393 10.0058 77.1347 10.4964L77.4284 10.3195C77.0988 9.7721 76.6392 9.34849 76.0536 9.04985L75.8978 9.35528ZM77.1354 10.4975C77.4351 10.9865 77.5932 11.5665 77.604 12.2438L77.9468 12.2384C77.9352 11.5094 77.7642 10.8673 77.4277 10.3183L77.1354 10.4975ZM77.7754 12.0696H75.6911V12.4125H77.7754V12.0696ZM75.8625 12.2352C75.8505 11.889 75.7726 11.5732 75.6255 11.2912L75.3215 11.4498C75.4422 11.6813 75.5094 11.9459 75.5198 12.247L75.8625 12.2352ZM75.6255 11.2912C75.4776 11.0077 75.2671 10.7788 74.9963 10.6065L74.8123 10.8957C75.0326 11.0359 75.2016 11.2199 75.3215 11.4498L75.6255 11.2912ZM74.9963 10.6065C74.718 10.4294 74.386 10.3453 74.0086 10.3453V10.6882C74.3344 10.6882 74.5995 10.7603 74.8123 10.8957L74.9963 10.6065ZM74.0086 10.3453C73.6111 10.3453 73.2652 10.4285 72.9806 10.6056L73.1617 10.8967C73.3793 10.7613 73.6584 10.6882 74.0086 10.6882V10.3453ZM72.9791 10.6065C72.7063 10.7801 72.4935 11.0186 72.3409 11.3177L72.6463 11.4736C72.7727 11.2258 72.9449 11.0347 73.1632 10.8957L72.9791 10.6065ZM72.3403 11.319C72.1977 11.604 72.0981 11.922 72.0399 12.2715L72.3781 12.3278C72.4314 12.0077 72.5216 11.723 72.6469 11.4723L72.3403 11.319ZM72.0395 12.2738C71.9879 12.6123 71.9622 12.967 71.9622 13.3376H72.3051C72.3051 12.9828 72.3296 12.6455 72.3785 12.3255L72.0395 12.2738ZM71.9622 13.3376V13.6055H72.3051V13.3376H71.9622ZM71.9622 13.6055C71.9622 13.9816 71.9879 14.3417 72.0395 14.6856L72.3785 14.6347C72.3297 14.309 72.3051 13.966 72.3051 13.6055H71.9622ZM72.0399 14.6883C72.0981 15.0378 72.1977 15.3558 72.3403 15.6408L72.6469 15.4875C72.5216 15.2368 72.4314 14.9522 72.3781 14.632L72.0399 14.6883ZM72.3422 15.6447C72.4953 15.9325 72.7081 16.1641 72.9791 16.3366L73.1632 16.0473C72.9432 15.9073 72.7708 15.7204 72.6449 15.4837L72.3422 15.6447ZM72.9806 16.3375C73.2659 16.5151 73.6178 16.5978 74.0254 16.5978V16.2549C73.6629 16.2549 73.3786 16.1814 73.1617 16.0464L72.9806 16.3375ZM81.9858 10.5502L81.9154 10.3939L81.9139 10.3946L81.9858 10.5502ZM81.4835 10.9771L81.6269 11.0712L81.6282 11.0692L81.4835 10.9771ZM81.3078 11.5965V11.768L81.4792 11.5965H81.3078ZM79.0896 11.5965H78.9181L79.0896 11.768V11.5965ZM79.3574 10.5335L79.5087 10.6142L79.5092 10.6131L79.3574 10.5335ZM80.1191 9.62946L80.226 9.76355L80.2262 9.76333L80.1191 9.62946ZM81.3161 9.00167L81.2637 8.83847L81.2631 8.83865L81.3161 9.00167ZM84.7229 9.12723L84.6542 9.2843L84.6562 9.28513L84.7229 9.12723ZM85.9953 10.1652L85.8523 10.2599L85.8531 10.2611L85.9953 10.1652ZM86.5477 17.029L86.3787 17.0582L86.3794 17.0615L86.5477 17.029ZM86.8156 17.8577H86.987L86.9689 17.781L86.8156 17.8577ZM86.8156 18V18.1714L86.987 18H86.8156ZM84.5639 18L84.4084 18.0721L84.5639 18.1714V18ZM84.3211 17.1295L84.1518 17.1559L84.1518 17.1563L84.3211 17.1295ZM84.5472 12.4838L84.7186 12.4816L84.5472 12.3124V12.4838ZM84.5639 13.798V13.9694L84.7353 13.7958L84.5639 13.798ZM82.2536 13.9068L82.296 14.0729L82.2993 14.072L82.2536 13.9068ZM81.6091 14.2081L81.7134 14.3442L81.7162 14.342L81.6091 14.2081ZM81.2324 14.6769L81.3877 14.7497L81.3885 14.7478L81.2324 14.6769ZM81.2575 15.8906L81.1081 15.9747L81.1101 15.9781L81.2575 15.8906ZM81.7095 16.3175L81.6277 16.4683L81.6329 16.4709L81.7095 16.3175ZM83.4339 16.2338L83.5152 16.3848L83.5174 16.3835L83.4339 16.2338ZM84.1119 15.6479L83.9719 15.5489L84.1119 15.6479ZM84.3714 14.995L84.514 14.8999L84.2002 14.9857L84.3714 14.995ZM85.0075 15.9492L85.1698 16.0046L85.1502 15.8541L85.0075 15.9492ZM84.656 16.6775L84.5095 16.5883L84.656 16.6775ZM79.1565 14.1914L79.0023 14.1166L79.1565 14.1914ZM79.9517 13.2623L80.0514 13.4018L80.0528 13.4007L79.9517 13.2623ZM81.2575 12.6847L81.2987 12.8511L81.2999 12.8508L81.2575 12.6847ZM84.4089 16.0748V11.8979H84.066V16.0748H84.4089ZM84.4089 11.8979C84.4089 11.5715 84.3525 11.2802 84.2333 11.0291L83.9236 11.1762C84.0164 11.3716 84.066 11.6104 84.066 11.8979H84.4089ZM84.2333 11.0291C84.1119 10.7736 83.9252 10.5743 83.6771 10.4344L83.5087 10.733C83.6959 10.8386 83.8329 10.9853 83.9236 11.1762L84.2333 11.0291ZM83.6771 10.4344C83.4265 10.293 83.1189 10.2281 82.7642 10.2281V10.571C83.0792 10.571 83.324 10.6289 83.5087 10.733L83.6771 10.4344ZM82.7642 10.2281C82.4492 10.2281 82.1649 10.2816 81.9154 10.3939L82.0561 10.7066C82.2531 10.6179 82.4878 10.571 82.7642 10.571V10.2281ZM81.9139 10.3946C81.6695 10.5074 81.4755 10.6705 81.3389 10.8851L81.6282 11.0692C81.726 10.9155 81.8668 10.7939 82.0576 10.7059L81.9139 10.3946ZM81.3402 10.8831C81.2029 11.0923 81.1363 11.3321 81.1363 11.5965H81.4792C81.4792 11.3922 81.5298 11.2191 81.6269 11.0712L81.3402 10.8831ZM81.3078 11.4251H79.0896V11.768H81.3078V11.4251ZM79.261 11.5965C79.261 11.2512 79.3431 10.9245 79.5087 10.6142L79.2062 10.4528C79.0146 10.8121 78.9181 11.1941 78.9181 11.5965H79.261ZM79.5092 10.6131C79.6757 10.2957 79.9135 10.0124 80.226 9.76355L80.0123 9.49538C79.6663 9.77106 79.3963 10.0904 79.2056 10.4538L79.5092 10.6131ZM80.2262 9.76333C80.5429 9.50999 80.923 9.30984 81.3692 9.16469L81.2631 8.83865C80.7829 8.99485 80.365 9.21322 80.012 9.4956L80.2262 9.76333ZM81.3686 9.16488C81.8177 9.02053 82.3241 8.9471 82.8898 8.9471V8.60424C82.2947 8.60424 81.7521 8.68148 81.2637 8.83847L81.3686 9.16488ZM82.8898 8.9471C83.5566 8.9471 84.1436 9.0609 84.6542 9.28429L84.7916 8.97018C84.2308 8.72482 83.5958 8.60424 82.8898 8.60424V8.9471ZM84.6562 9.28513C85.1683 9.5016 85.5652 9.82646 85.8524 10.2599L86.1382 10.0705C85.8115 9.57756 85.3601 9.21045 84.7897 8.96933L84.6562 9.28513ZM85.8531 10.2611C86.1421 10.6894 86.2926 11.2368 86.2926 11.9146H86.6354C86.6354 11.1862 86.4734 10.5673 86.1374 10.0693L85.8531 10.2611ZM86.2926 11.9146V15.8655H86.6354V11.9146H86.2926ZM86.2926 15.8655C86.2926 16.3239 86.3208 16.722 86.3788 17.0581L86.7166 16.9999C86.663 16.6887 86.6354 16.3111 86.6354 15.8655H86.2926ZM86.3794 17.0615C86.4431 17.3915 86.5366 17.6832 86.6622 17.9344L86.9689 17.781C86.8601 17.5635 86.7751 17.3027 86.716 16.9965L86.3794 17.0615ZM86.6441 17.8577V18H86.987V17.8577H86.6441ZM86.8156 17.8286H84.5639V18.1714H86.8156V17.8286ZM84.7194 17.9279C84.6222 17.718 84.5447 17.4444 84.4905 17.1026L84.1518 17.1563C84.2092 17.5177 84.2936 17.8244 84.4084 18.0721L84.7194 17.9279ZM84.4905 17.103C84.436 16.7542 84.4089 16.4115 84.4089 16.0748H84.066C84.066 16.43 84.0947 16.7904 84.1518 17.1559L84.4905 17.103ZM84.3757 12.486L84.3925 13.8002L84.7353 13.7958L84.7186 12.4816L84.3757 12.486ZM84.5639 13.6266H83.166V13.9694H84.5639V13.6266ZM83.166 13.6266C82.8086 13.6266 82.4885 13.664 82.2079 13.7416L82.2993 14.072C82.5433 14.0045 82.8315 13.9694 83.166 13.9694V13.6266ZM82.2112 13.7407C81.9313 13.8122 81.6927 13.9217 81.502 14.0743L81.7162 14.342C81.8603 14.2267 82.0514 14.1354 82.296 14.0729L82.2112 13.7407ZM81.5048 14.0721C81.316 14.2168 81.1722 14.3951 81.0764 14.606L81.3885 14.7478C81.46 14.5904 81.5673 14.4562 81.7134 14.3442L81.5048 14.0721ZM81.0772 14.6041C80.9812 14.8089 80.9354 15.038 80.9354 15.2879H81.2783C81.2783 15.0803 81.3162 14.9021 81.3876 14.7497L81.0772 14.6041ZM80.9354 15.2879C80.9354 15.5379 80.992 15.7682 81.1081 15.9747L81.4069 15.8066C81.3222 15.6559 81.2783 15.4844 81.2783 15.2879H80.9354ZM81.1101 15.9781C81.233 16.1852 81.4073 16.3485 81.6278 16.4682L81.7913 16.1669C81.6212 16.0745 81.4941 15.9532 81.4049 15.8031L81.1101 15.9781ZM81.6329 16.4709C81.8617 16.5853 82.1233 16.6396 82.4127 16.6396V16.2968C82.1663 16.2968 81.9591 16.2507 81.7862 16.1642L81.6329 16.4709ZM82.4127 16.6396C82.8264 16.6396 83.1957 16.5567 83.5151 16.3848L83.3526 16.0829C83.0916 16.2234 82.7802 16.2968 82.4127 16.2968V16.6396ZM83.5174 16.3835C83.8258 16.2115 84.0727 16.0001 84.2518 15.7469L83.9719 15.5489C83.8274 15.7532 83.6223 15.9325 83.3504 16.0841L83.5174 16.3835ZM84.2518 15.7469C84.4259 15.5008 84.5291 15.2525 84.5426 15.0042L84.2002 14.9857C84.1913 15.1504 84.1215 15.3374 83.9719 15.5489L84.2518 15.7469ZM84.2287 15.0901L84.8649 16.0443L85.1502 15.8541L84.514 14.8999L84.2287 15.0901ZM84.8453 15.8938C84.772 16.1084 84.6608 16.3398 84.5095 16.5883L84.8024 16.7666C84.9636 16.5017 85.0868 16.2476 85.1698 16.0046L84.8453 15.8938ZM84.5095 16.5883C84.3626 16.8297 84.1726 17.0571 83.938 17.2705L84.1686 17.5242C84.425 17.2911 84.6368 17.0387 84.8024 16.7666L84.5095 16.5883ZM83.938 17.2705C83.7086 17.479 83.43 17.6532 83.0997 17.7917L83.2323 18.1079C83.594 17.9562 83.9069 17.7621 84.1686 17.5242L83.938 17.2705ZM83.0997 17.7917C82.7788 17.9263 82.4004 17.996 81.9607 17.996V18.3388C82.4361 18.3388 82.8613 18.2635 83.2323 18.1079L83.0997 17.7917ZM81.9607 17.996C81.3981 17.996 80.9006 17.8836 80.4644 17.6629L80.3096 17.9688C80.7997 18.2168 81.3513 18.3388 81.9607 18.3388V17.996ZM80.4644 17.6629C80.0261 17.4411 79.684 17.1398 79.4337 16.7591L79.1472 16.9474C79.4326 17.3814 79.8215 17.7218 80.3096 17.9688L80.4644 17.6629ZM79.4337 16.7591C79.1854 16.3815 79.0601 15.9515 79.0601 15.4637H78.7172C78.7172 16.0139 78.8598 16.5103 79.1472 16.9474L79.4337 16.7591ZM79.0601 15.4637C79.0601 15.0053 79.1453 14.6075 79.3108 14.2662L79.0023 14.1166C78.8106 14.5119 78.7172 14.9624 78.7172 15.4637H79.0601ZM79.3108 14.2662C79.4761 13.9251 79.7218 13.6372 80.0514 13.4018L79.8521 13.1228C79.4785 13.3896 79.1941 13.7211 79.0023 14.1166L79.3108 14.2662ZM80.0528 13.4007C80.3828 13.1598 80.7965 12.9753 81.2987 12.8511L81.2164 12.5183C80.6806 12.6508 80.2238 12.8514 79.8506 13.1238L80.0528 13.4007ZM81.2999 12.8508C81.8077 12.7212 82.3929 12.6552 83.0572 12.6552V12.3124C82.371 12.3124 81.7565 12.3804 81.2151 12.5186L81.2999 12.8508ZM83.0572 12.6552H84.5472V12.3124H83.0572V12.6552ZM90.6242 10.8767H90.796L90.7952 10.8648L90.6242 10.8767ZM90.6242 18V18.1714L90.7956 18H90.6242ZM88.4143 18H88.2429L88.4143 18.1714V18ZM88.4143 8.94308V8.77165L88.2429 8.94308H88.4143ZM90.4902 8.94308L90.6613 8.93124L90.4902 8.77165V8.94308ZM90.2726 13.1451V13.3165L90.444 13.1451H90.2726ZM89.6197 13.1451L89.4483 13.1436L89.6197 13.3165V13.1451ZM90.6158 9.97266L90.4836 9.86347L90.4827 9.86463L90.6158 9.97266ZM95.2866 9.54576L95.1615 9.66301L95.1628 9.66437L95.2866 9.54576ZM95.8725 10.6004L95.7086 10.6509L95.7094 10.6534L95.8725 10.6004ZM96.0818 18V18.1714L96.2532 18H96.0818ZM93.8552 18H93.6838L93.8552 18.1714V18ZM93.671 11.1948L93.517 11.27L93.5184 11.2728L93.671 11.1948ZM93.1521 10.6842L93.0817 10.8405L93.0832 10.8411L93.1521 10.6842ZM91.4277 10.7427L91.5084 10.894L91.5096 10.8934L91.4277 10.7427ZM90.7916 11.3036L90.6525 11.2033L90.651 11.2055L90.7916 11.3036ZM90.4527 10.8767V18H90.7956V10.8767H90.4527ZM90.6242 17.8286H88.4143V18.1714H90.6242V17.8286ZM88.5858 18V8.94308H88.2429V18H88.5858ZM88.4143 9.11451H90.4902V8.77165H88.4143V9.11451ZM90.3192 8.95493L90.4531 10.8885L90.7952 10.8648L90.6613 8.93124L90.3192 8.95493ZM90.2726 12.9737H89.6197V13.3165H90.2726V12.9737ZM89.7911 13.1465C89.7966 12.5026 89.8839 11.9231 90.0507 11.4065L89.7244 11.3011C89.5453 11.8559 89.454 12.4706 89.4483 13.1436L89.7911 13.1465ZM90.0507 11.4065C90.218 10.8882 90.4514 10.4472 90.7489 10.0807L90.4827 9.86463C90.1552 10.2682 89.903 10.748 89.7244 11.3011L90.0507 11.4065ZM90.748 10.0818C91.0507 9.71541 91.4075 9.43559 91.8193 9.24027L91.6723 8.93049C91.2136 9.14812 90.8171 9.45981 90.4836 9.86348L90.748 10.0818ZM91.8193 9.24027C92.2291 9.04585 92.6891 8.9471 93.2023 8.9471V8.60424C92.644 8.60424 92.133 8.71196 91.6723 8.93049L91.8193 9.24027ZM93.2023 8.9471C93.6215 8.9471 93.9954 9.00621 94.326 9.12167L94.4391 8.79798C94.0665 8.6679 93.6536 8.60424 93.2023 8.60424V8.9471ZM94.326 9.12167C94.6519 9.23545 94.9296 9.41562 95.1615 9.66301L95.4116 9.42851C95.1413 9.14018 94.8163 8.92973 94.4391 8.79798L94.326 9.12167ZM95.1628 9.66437C95.3973 9.90903 95.5808 10.2354 95.7086 10.6509L96.0363 10.55C95.8963 10.0949 95.6892 9.7182 95.4103 9.42715L95.1628 9.66437ZM95.7094 10.6534C95.8417 11.0607 95.9103 11.5717 95.9103 12.1908H96.2532C96.2532 11.5488 96.1823 10.9996 96.0355 10.5475L95.7094 10.6534ZM95.9103 12.1908V18H96.2532V12.1908H95.9103ZM96.0818 17.8286H93.8552V18.1714H96.0818V17.8286ZM94.0266 18V12.1741H93.6838V18H94.0266ZM94.0266 12.1741C94.0266 11.7471 93.9636 11.3903 93.8237 11.1167L93.5184 11.2728C93.624 11.4791 93.6838 11.7752 93.6838 12.1741H94.0266ZM93.8251 11.1195C93.6914 10.8458 93.4896 10.6451 93.221 10.5272L93.0832 10.8411C93.2721 10.9241 93.4163 11.0638 93.517 11.27L93.8251 11.1195ZM93.2224 10.5278C92.9708 10.4146 92.669 10.3621 92.3234 10.3621V10.7049C92.6363 10.7049 92.8869 10.7528 93.0817 10.8405L93.2224 10.5278ZM92.3234 10.3621C91.9591 10.3621 91.6316 10.4369 91.3459 10.5921L91.5096 10.8934C91.7373 10.7696 92.0068 10.7049 92.3234 10.7049V10.3621ZM91.3471 10.5915C91.0719 10.7382 90.8402 10.943 90.6525 11.2033L90.9306 11.4038C91.0889 11.1842 91.2813 11.0151 91.5084 10.894L91.3471 10.5915ZM90.651 11.2055C90.4716 11.4626 90.3356 11.7564 90.2417 12.0852L90.5714 12.1793C90.656 11.8831 90.7767 11.6245 90.9322 11.4017L90.651 11.2055ZM90.2417 12.0852C90.1476 12.4146 90.1012 12.7683 90.1012 13.1451H90.444C90.444 12.7965 90.4869 12.4749 90.5714 12.1793L90.2417 12.0852ZM98.4674 16.0748L98.3461 15.9536L98.4674 16.0748ZM100.326 16.0748L100.447 15.9536L100.326 16.0748ZM100.326 17.7573L100.445 17.88L100.447 17.8785L100.326 17.7573ZM98.4674 17.7573L98.3461 17.8785L98.3476 17.88L98.4674 17.7573ZM98.2956 16.9202C98.2956 16.6291 98.3932 16.3914 98.5886 16.196L98.3461 15.9536C98.084 16.2157 97.9527 16.5417 97.9527 16.9202H98.2956ZM98.5886 16.196C98.7787 16.0058 99.0413 15.903 99.3965 15.903V15.5602C98.9705 15.5602 98.6136 15.6861 98.3461 15.9536L98.5886 16.196ZM99.3965 15.903C99.7517 15.903 100.014 16.0058 100.204 16.196L100.447 15.9536C100.179 15.6861 99.8225 15.5602 99.3965 15.5602V15.903ZM100.204 16.196C100.4 16.3914 100.497 16.6291 100.497 16.9202H100.84C100.84 16.5417 100.709 16.2157 100.447 15.9536L100.204 16.196ZM100.497 16.9202C100.497 17.2049 100.4 17.44 100.204 17.636L100.447 17.8785C100.708 17.6169 100.84 17.294 100.84 16.9202H100.497ZM100.206 17.6345C100.016 17.8199 99.7529 17.9206 99.3965 17.9206V18.2635C99.8213 18.2635 100.178 18.1411 100.445 17.88L100.206 17.6345ZM99.3965 17.9206C99.0401 17.9206 98.777 17.8199 98.5871 17.6345L98.3476 17.88C98.6153 18.1411 98.9717 18.2635 99.3965 18.2635V17.9206ZM98.5886 17.636C98.3926 17.44 98.2956 17.2049 98.2956 16.9202H97.9527C97.9527 17.294 98.0846 17.6169 98.3461 17.8785L98.5886 17.636ZM104.636 8.94308L104.786 8.8592L104.636 8.77165V8.94308ZM106.252 11.8225L106.102 11.9064L106.401 11.9074L106.252 11.8225ZM107.893 8.94308V8.77165L107.744 8.85821L107.893 8.94308ZM110.295 8.94308L110.442 9.03128L110.295 8.77165V8.94308ZM107.633 13.3795L107.486 13.2913L107.486 13.4676L107.633 13.3795ZM110.404 18V18.1714L110.551 17.9118L110.404 18ZM108.001 18L107.853 18.0853L108.001 18.1714V18ZM106.269 14.9782L106.417 14.893L106.12 14.8927L106.269 14.9782ZM104.528 18V18.1714L104.676 18.0856L104.528 18ZM102.125 18L101.978 17.912L102.125 18.1714V18ZM104.888 13.3795L105.035 13.4674L105.035 13.2917L104.888 13.3795ZM102.242 8.94308V8.77165L102.095 9.03087L102.242 8.94308ZM104.487 9.02696L106.102 11.9064L106.401 11.7387L104.786 8.8592L104.487 9.02696ZM106.401 11.9074L108.042 9.02795L107.744 8.85821L106.103 11.7377L106.401 11.9074ZM107.893 9.11451H110.295V8.77165H107.893V9.11451ZM110.148 8.85488L107.486 13.2913L107.78 13.4677L110.442 9.03128L110.148 8.85488ZM107.486 13.4676L110.257 18.0882L110.551 17.9118L107.78 13.2913L107.486 13.4676ZM110.404 17.8286H108.001V18.1714H110.404V17.8286ZM108.15 17.9147L106.417 14.893L106.12 15.0635L107.853 18.0853L108.15 17.9147ZM106.12 14.8927L104.379 17.9144L104.676 18.0856L106.417 15.0638L106.12 14.8927ZM104.528 17.8286H102.125V18.1714H104.528V17.8286ZM102.272 18.088L105.035 13.4674L104.74 13.2915L101.978 17.912L102.272 18.088ZM105.035 13.2917L102.39 8.85529L102.095 9.03087L104.74 13.4673L105.035 13.2917ZM102.242 9.11451H104.636V8.77165H102.242V9.11451ZM114.229 16.9955L114.39 17.0567L114.393 17.045L114.229 16.9955ZM116.657 8.94308V8.77165L116.492 8.8936L116.657 8.94308ZM119.025 8.94308L119.187 8.99947L119.025 8.77165V8.94308ZM115.393 19.3728L115.553 19.433L115.554 19.4292L115.393 19.3728ZM115.066 20.101L114.913 20.023L114.912 20.0257L115.066 20.101ZM114.547 20.846L114.422 20.7293L114.42 20.7308L114.547 20.846ZM113.727 21.4319L113.656 21.276L113.654 21.2765L113.727 21.4319ZM111.517 21.5073H111.346L111.474 21.6732L111.517 21.5073ZM111.517 19.8499L111.534 19.6793L111.346 19.8499H111.517ZM111.71 19.8583L111.722 19.6868H111.71V19.8583ZM112.714 19.7494L112.659 19.5872L112.655 19.5886L112.714 19.7494ZM113.225 19.3895L113.092 19.2801L113.089 19.2852L113.225 19.3895ZM113.559 18.7533L113.399 18.6923L113.397 18.6981L113.559 18.7533ZM113.032 8.94308L113.196 8.89271L113.032 8.77165V8.94308ZM115.083 15.6144L115.252 15.5883L115.247 15.564L115.083 15.6144ZM115.443 17.9498L115.473 18.1185L115.612 17.9237L115.443 17.9498ZM113.919 18.226L113.758 18.283L113.95 18.3947L113.919 18.226ZM110.646 8.94308V8.77165L110.485 9.00008L110.646 8.94308ZM114.393 17.045L116.821 8.99256L116.492 8.8936L114.065 16.9461L114.393 17.045ZM116.657 9.11451H119.025V8.77165H116.657V9.11451ZM118.864 8.88669L115.231 19.3164L115.554 19.4292L119.187 8.99947L118.864 8.88669ZM115.232 19.3126C115.151 19.5285 115.045 19.7653 114.913 20.023L115.219 20.179C115.355 19.9122 115.467 19.6635 115.553 19.433L115.232 19.3126ZM114.912 20.0257C114.792 20.2715 114.629 20.5061 114.422 20.7293L114.673 20.9626C114.901 20.7171 115.084 20.4551 115.22 20.1764L114.912 20.0257ZM114.42 20.7308C114.22 20.9517 113.966 21.1339 113.656 21.276L113.798 21.5878C114.146 21.4286 114.439 21.2202 114.674 20.9612L114.42 20.7308ZM113.654 21.2765C113.359 21.414 112.992 21.4865 112.547 21.4865V21.8294C113.028 21.8294 113.447 21.7512 113.799 21.5873L113.654 21.2765ZM112.547 21.4865C112.353 21.4865 112.185 21.473 112.041 21.4473L111.981 21.7848C112.149 21.8149 112.338 21.8294 112.547 21.8294V21.4865ZM112.041 21.4473C111.89 21.4203 111.729 21.385 111.56 21.3413L111.474 21.6732C111.651 21.7188 111.82 21.7561 111.981 21.7848L112.041 21.4473ZM111.688 21.5073V19.8499H111.346V21.5073H111.688ZM111.5 20.0205C111.563 20.0267 111.633 20.0297 111.71 20.0297V19.6868C111.641 19.6868 111.583 19.6842 111.534 19.6793L111.5 20.0205ZM111.697 20.0293C111.778 20.035 111.849 20.0381 111.91 20.0381V19.6952C111.86 19.6952 111.797 19.6927 111.722 19.6873L111.697 20.0293ZM111.91 20.0381C112.246 20.0381 112.536 19.9977 112.773 19.9103L112.655 19.5886C112.468 19.6574 112.222 19.6952 111.91 19.6952V20.0381ZM112.769 19.9116C113.011 19.8289 113.21 19.6897 113.361 19.4938L113.089 19.2852C112.982 19.4241 112.841 19.5249 112.659 19.5872L112.769 19.9116ZM113.357 19.4988C113.507 19.3167 113.628 19.0846 113.722 18.8086L113.397 18.6981C113.313 18.9466 113.21 19.1386 113.093 19.2802L113.357 19.4988ZM113.72 18.8144L114.389 17.0566L114.069 16.9345L113.399 18.6923L113.72 18.8144ZM112.868 8.99345L114.919 15.6648L115.247 15.564L113.196 8.89271L112.868 8.99345ZM114.913 15.6405L115.273 17.9759L115.612 17.9237L115.252 15.5883L114.913 15.6405ZM115.412 17.7811L113.889 18.0573L113.95 18.3947L115.473 18.1185L115.412 17.7811ZM114.081 18.169L110.808 8.88608L110.485 9.00008L113.758 18.283L114.081 18.169ZM110.646 9.11451H113.032V8.77165H110.646V9.11451ZM127.195 16.2589H127.366L127.195 16.0875V16.2589ZM127.195 18V18.1714L127.366 18H127.195ZM120.381 18H120.21L120.381 18.1714V18ZM120.381 16.2589V16.0875L120.21 16.2589H120.381ZM127.036 10.2656L127.173 10.3688L127.207 10.2656H127.036ZM121.21 18V18.1714L121.347 18.1031L121.21 18ZM119.754 18H119.582L119.754 18.1714V18ZM119.754 16.6356L119.617 16.5325L119.582 16.6356H119.754ZM125.546 8.94308V8.77165L125.409 8.83996L125.546 8.94308ZM127.036 8.94308H127.207L127.036 8.77165V8.94308ZM126.224 8.94308H126.395L126.224 8.77165V8.94308ZM126.224 10.6925V10.864L126.395 10.6925H126.224ZM119.871 10.6925H119.699L119.871 10.864V10.6925ZM119.871 8.94308V8.77165L119.699 8.94308H119.871ZM127.024 16.2589V18H127.366V16.2589H127.024ZM127.195 17.8286H120.381V18.1714H127.195V17.8286ZM120.553 18V16.2589H120.21V18H120.553ZM120.381 16.4304H127.195V16.0875H120.381V16.4304ZM126.899 10.1625L121.073 17.8969L121.347 18.1031L127.173 10.3688L126.899 10.1625ZM121.21 17.8286H119.754V18.1714H121.21V17.8286ZM119.925 18V16.6356H119.582V18H119.925ZM119.891 16.7387L125.683 9.0462L125.409 8.83996L119.617 16.5325L119.891 16.7387ZM125.546 9.11451H127.036V8.77165H125.546V9.11451ZM126.865 8.94308V10.2656H127.207V8.94308H126.865ZM126.053 8.94308V10.6925H126.395V8.94308H126.053ZM126.224 10.5211H119.871V10.864H126.224V10.5211ZM120.042 10.6925V8.94308H119.699V10.6925H120.042ZM119.871 9.11451H126.224V8.77165H119.871V9.11451Z" fill="#263238"/>
</svg>
