<svg width="24" height="24" viewBox="0 0 24 24" fill="none" xmlns="http://www.w3.org/2000/svg">
<path d="M13 2V5.03759C16.39 5.52882 19 8.43609 19 11.9749C19 12.8772 18.82 13.7293 18.52 14.5213L21.12 16.0551C21.68 14.812 22 13.4286 22 11.9749C22 6.78195 18.05 2.50125 13 2ZM12 18.9925C8.13 18.9925 5 15.8546 5 11.9749C5 8.43609 7.61 5.52882 11 5.03759V2C5.94 2.50125 2 6.77193 2 11.9749C2 17.5088 6.47 22 11.99 22C15.3 22 18.23 20.386 20.05 17.8997L17.45 16.3659C16.7976 17.187 15.9686 17.8497 15.0249 18.3046C14.0812 18.7594 13.0471 18.9945 12 18.9925Z" fill="black"/>
</svg>
