<svg width="20" height="20" viewBox="0 0 20 20" fill="none" xmlns="http://www.w3.org/2000/svg">
<path d="M11 0V3.03759C14.39 3.52882 17 6.43609 17 9.97494C17 10.8772 16.82 11.7293 16.52 12.5213L19.12 14.0551C19.68 12.812 20 11.4286 20 9.97494C20 4.78195 16.05 0.501253 11 0ZM10 16.9925C6.13 16.9925 3 13.8546 3 9.97494C3 6.43609 5.61 3.52882 9 3.03759V0C3.94 0.501253 0 4.77193 0 9.97494C0 15.5088 4.47 20 9.99 20C13.3 20 16.23 18.386 18.05 15.8997L15.45 14.3659C14.7976 15.187 13.9686 15.8497 13.0249 16.3046C12.0812 16.7594 11.0471 16.9945 10 16.9925Z" fill="#DADEF1"/>
</svg>
