<svg width="32" height="32" viewBox="0 0 32 32" fill="none" xmlns="http://www.w3.org/2000/svg">
<path d="M17 6V9.03759C20.39 9.52882 23 12.4361 23 15.9749C23 16.8772 22.82 17.7293 22.52 18.5213L25.12 20.0551C25.68 18.812 26 17.4286 26 15.9749C26 10.782 22.05 6.50125 17 6ZM16 22.9925C12.13 22.9925 9 19.8546 9 15.9749C9 12.4361 11.61 9.52882 15 9.03759V6C9.94 6.50125 6 10.7719 6 15.9749C6 21.5088 10.47 26 15.99 26C19.3 26 22.23 24.386 24.05 21.8997L21.45 20.3659C20.7976 21.187 19.9686 21.8497 19.0249 22.3046C18.0812 22.7594 17.0471 22.9945 16 22.9925Z" fill="#20294C"/>
</svg>
