<svg width="16" height="16" viewBox="0 0 16 16" fill="none" xmlns="http://www.w3.org/2000/svg">
<g clip-path="url(#clip0_3478_87985)">
<path d="M8.14844 6.54541V9.64362H12.4539C12.2648 10.64 11.6975 11.4837 10.8466 12.0509L13.443 14.0655C14.9557 12.6692 15.8284 10.6182 15.8284 8.18186C15.8284 7.6146 15.7775 7.06909 15.683 6.5455L8.14844 6.54541Z" fill="#1976D2"/>
<path d="M3.66226 9.52271L3.07668 9.97096L1.00391 11.5855C2.32027 14.1964 5.01827 16.0001 8.14554 16.0001C10.3055 16.0001 12.1164 15.2873 13.4401 14.0655L10.8437 12.051C10.131 12.531 9.22186 12.8219 8.14554 12.8219C6.06554 12.8219 4.29831 11.4183 3.66553 9.52732L3.66226 9.52271Z" fill="#34A853"/>
<path d="M1.00656 4.41455C0.461134 5.49088 0.148438 6.70545 0.148438 7.99998C0.148438 9.29451 0.461134 10.5091 1.00656 11.5854C1.00656 11.5926 3.66844 9.51994 3.66844 9.51994C3.50844 9.03994 3.41387 8.53088 3.41387 7.99989C3.41387 7.46891 3.50844 6.95985 3.66844 6.47985L1.00656 4.41455Z" fill="#FBBC05"/>
<path d="M8.1457 3.18547C9.32391 3.18547 10.3712 3.59273 11.2075 4.3782L13.4984 2.08731C12.1093 0.792781 10.3057 0 8.1457 0C5.01844 0 2.32027 1.79637 1.00391 4.41458L3.6657 6.48004C4.2984 4.5891 6.0657 3.18547 8.1457 3.18547Z" fill="#EA4335"/>
</g>
<defs>
<clipPath id="clip0_3478_87985">
<rect width="16" height="16" fill="white"/>
</clipPath>
</defs>
</svg>
