<svg width="16" height="16" viewBox="0 0 16 16" fill="none" xmlns="http://www.w3.org/2000/svg">
<path d="M3.32531 7.60498C3.32532 7.51551 3.34298 7.42694 3.37726 7.34432C3.41154 7.26171 3.46176 7.18671 3.52506 7.1236C3.58837 7.06049 3.66348 7.01052 3.7461 6.97658C3.82873 6.94263 3.91724 6.92537 4.00654 6.9258L5.13601 6.92948C5.31609 6.92948 5.48879 7.00116 5.61613 7.12872C5.74347 7.25629 5.81501 7.42931 5.81501 7.60972V11.8882C5.94216 11.8504 6.10547 11.8101 6.28416 11.768C6.40828 11.7388 6.5189 11.6684 6.59808 11.5683C6.67725 11.4681 6.72033 11.3442 6.7203 11.2164V5.90912C6.7203 5.7287 6.79183 5.55566 6.91916 5.42807C7.04649 5.30048 7.2192 5.22879 7.3993 5.22875H8.53101C8.71109 5.22879 8.8838 5.30048 9.01114 5.42807C9.13847 5.55566 9.21001 5.7287 9.21001 5.90912V10.8348C9.21001 10.8348 9.49336 10.7199 9.76935 10.6032C9.87188 10.5598 9.95937 10.4871 10.0209 10.3941C10.0825 10.3012 10.1153 10.1922 10.1154 10.0807V4.20852C10.1154 4.02814 10.1869 3.85513 10.3142 3.72756C10.4416 3.6 10.6142 3.52832 10.7943 3.52829H11.926C12.1061 3.52829 12.2788 3.59994 12.4061 3.72752C12.5335 3.85509 12.605 4.02811 12.605 4.20852V9.0441C13.5862 8.33172 14.5805 7.47497 15.3695 6.44473C15.484 6.29519 15.5598 6.11958 15.59 5.9336C15.6203 5.74761 15.6041 5.557 15.5429 5.37879C15.1777 4.326 14.5972 3.36118 13.8384 2.54607C13.0795 1.73098 12.1593 1.08355 11.1364 0.645225C10.1135 0.2069 9.0105 -0.012671 7.89804 0.000564687C6.78559 0.0138002 5.68814 0.259552 4.67594 0.722089C3.66373 1.18463 2.75904 1.85377 2.01979 2.68669C1.28053 3.5196 0.722971 4.49797 0.3828 5.55916C0.0426291 6.62035 -0.0726661 7.74099 0.0442916 8.84938C0.161249 9.95778 0.507886 11.0295 1.06202 11.996C1.15855 12.1627 1.30056 12.2984 1.47138 12.387C1.64219 12.4757 1.83472 12.5137 2.02635 12.4965C2.24041 12.4777 2.50693 12.451 2.82382 12.4137C2.96176 12.398 3.08912 12.332 3.18162 12.2283C3.27413 12.1246 3.32532 11.9904 3.32544 11.8513L3.32531 7.60498Z" fill="#607D8B"/>
<path d="M3.30054 14.4672C4.49343 15.3366 5.90316 15.8585 7.37376 15.975C8.84436 16.0915 10.3185 15.7983 11.633 15.1275C12.9475 14.4568 14.0512 13.4348 14.8219 12.1747C15.5926 10.9145 16.0003 9.46535 15.9999 7.98746C15.9999 7.80304 15.9914 7.6206 15.9792 7.43921C13.0576 11.8044 7.66341 13.8451 3.30079 14.4665" fill="#607D8B"/>
</svg>
