<svg width="272" height="53" viewBox="0 0 272 53" fill="none" xmlns="http://www.w3.org/2000/svg">
<path d="M1 35.6486C11.3659 35.6486 11.3659 10.6757 21.7319 10.6757C32.0978 10.6757 32.0978 17.4865 42.4637 17.4865C52.8297 17.4865 52.8297 47 63.1956 47C73.5616 47 73.5616 41.3243 83.9275 41.3243C94.2934 41.3243 94.2934 5 104.659 5C115.025 5 115.025 27.7027 125.391 27.7027C135.757 27.7027 135.757 16.3514 146.123 16.3514C156.489 16.3514 156.489 31.1081 166.855 31.1081C177.221 31.1081 177.221 39.0541 187.587 39.0541C197.953 39.0541 197.953 14.0811 208.319 14.0811C218.685 14.0811 218.685 33.3784 229.051 33.3784C239.417 33.3784 239.417 22.027 249.783 22.027C260.148 22.027 260.148 11.8108 270.514 11.8108V47H63.1956H1V35.6486Z" fill="url(#paint0_linear_12_6515)" fill-opacity="0.12"/>
<path d="M1 35.6486C11.3659 35.6486 11.3659 10.6757 21.7319 10.6757C32.0978 10.6757 32.0978 17.4865 42.4637 17.4865C52.8297 17.4865 52.8297 47 63.1956 47C73.5616 47 73.5616 41.3243 83.9275 41.3243C94.2934 41.3243 94.2934 5 104.659 5C115.025 5 115.025 27.7027 125.391 27.7027C135.757 27.7027 135.757 16.3514 146.123 16.3514C156.489 16.3514 156.489 31.1081 166.855 31.1081C177.221 31.1081 177.221 39.0541 187.587 39.0541C197.953 39.0541 197.953 14.0811 208.319 14.0811C218.685 14.0811 218.685 33.3784 229.051 33.3784C239.417 33.3784 239.417 22.027 249.783 22.027C260.148 22.027 260.148 11.8108 270.514 11.8108" stroke="#263238" stroke-width="2" stroke-linecap="round"/>
<circle cx="65" cy="47" r="5" fill="#FF5252" stroke="white" stroke-width="2"/>
<circle cx="105" cy="6" r="5" fill="#4CAF50" stroke="white" stroke-width="2"/>
<defs>
<linearGradient id="paint0_linear_12_6515" x1="135.757" y1="5" x2="135.757" y2="47" gradientUnits="userSpaceOnUse">
<stop stop-color="#546E7A"/>
<stop offset="1" stop-color="#546E7A" stop-opacity="0"/>
</linearGradient>
</defs>
</svg>
