<svg width="16" height="16" viewBox="0 0 16 16" fill="none" xmlns="http://www.w3.org/2000/svg">
<path d="M0.5 2.16667C0.5 1.72464 0.675595 1.30072 0.988155 0.988155C1.30072 0.675595 1.72464 0.5 2.16667 0.5H13.8333C14.2754 0.5 14.6993 0.675595 15.0118 0.988155C15.3244 1.30072 15.5 1.72464 15.5 2.16667V13.8333C15.5 14.2754 15.3244 14.6993 15.0118 15.0118C14.6993 15.3244 14.2754 15.5 13.8333 15.5H2.16667C1.24167 15.5 0.5 14.75 0.5 13.8333V2.16667ZM3.83333 13H5.5L5.79167 11.3333H9.125L8.83333 13H10.5L10.7917 11.3333H12.4583L12.7583 9.66667H11.0917L11.675 6.33333H13.3417L13.6333 4.66667H11.9667L12.2667 3H10.6L10.3 4.66667H6.96667L7.26667 3H5.6L5.3 4.66667H3.63333L3.34167 6.33333H5.00833L4.425 9.66667H2.75833L2.45833 11.3333H4.125L3.83333 13ZM6.675 6.33333H10.0083L9.425 9.66667H6.09167L6.675 6.33333Z" fill="#455A64"/>
</svg>
