<svg width="20" height="20" viewBox="0 0 20 20" fill="none" xmlns="http://www.w3.org/2000/svg">
<path d="M13.6369 12.723L17.1949 10.6613C17.3834 10.5517 17.5 10.3486 17.5 10.1307V6.00712C17.5 5.78914 17.3834 5.58604 17.1949 5.47652L13.6369 3.41475C13.4483 3.30523 13.2141 3.30629 13.0266 3.41475L9.46864 5.47652C9.28004 5.58604 9.16349 5.78914 9.16349 6.00712V13.3759L6.66826 14.821L4.17302 13.3759V10.4847L6.66826 9.0397L8.31373 9.99349V8.054L6.97341 7.27672C6.88122 7.22355 6.77527 7.19484 6.66826 7.19484C6.56124 7.19484 6.45529 7.22355 6.36311 7.27672L2.80515 9.33849C2.61655 9.44801 2.5 9.65111 2.5 9.86909V13.9926C2.5 14.2106 2.61655 14.4137 2.80515 14.5232L6.36311 16.585C6.55171 16.6935 6.78481 16.6935 6.97341 16.585L10.5314 14.5232C10.72 14.4137 10.8365 14.2106 10.8365 13.9926V6.62278L10.881 6.59726L13.3307 5.17773L15.8259 6.62278V9.51394L13.3307 10.959L11.6873 10.0073V11.9468L13.0255 12.722C13.2141 12.8304 13.4483 12.8304 13.6358 12.722L13.6369 12.723Z" fill="url(#paint0_linear_19_11272)"/>
<defs>
<linearGradient id="paint0_linear_19_11272" x1="19.5" y1="7.16634" x2="6.16683" y2="20.4995" gradientUnits="userSpaceOnUse">
<stop stop-color="#7B3FE4"/>
<stop offset="1" stop-color="#A626C2"/>
</linearGradient>
</defs>
</svg>
