<svg width="12" height="12" viewBox="0 0 12 12" fill="none" xmlns="http://www.w3.org/2000/svg">
<g clip-path="url(#clip0_2_6483)">
<path d="M6 12C9.31371 12 12 9.31371 12 6C12 2.68629 9.31371 0 6 0C2.68629 0 0 2.68629 0 6C0 9.31371 2.68629 12 6 12Z" fill="white"/>
<path fill-rule="evenodd" clip-rule="evenodd" d="M6 12C9.3137 12 12 9.3137 12 6C12 2.6863 9.3137 0 6 0C2.6863 0 0 2.6863 0 6C0 9.3137 2.6863 12 6 12ZM3.74184 7.64808C3.906 7.69975 4.08384 7.7256 4.27536 7.7256C4.71617 7.7256 5.06729 7.62377 5.32872 7.42008C5.59015 7.21337 5.77255 6.90175 5.87592 6.48528C5.90633 6.35455 5.9352 6.22385 5.96256 6.09312C5.99297 5.96239 6.01879 5.83015 6.04008 5.6964C6.07656 5.48969 6.07049 5.3088 6.02184 5.15376C5.97624 4.99872 5.89567 4.86799 5.78016 4.7616C5.66767 4.65521 5.52936 4.57615 5.3652 4.52448C5.20409 4.46976 5.02776 4.4424 4.83624 4.4424C4.39241 4.4424 4.03975 4.54879 3.77832 4.7616C3.51689 4.97441 3.336 5.286 3.23568 5.6964C3.20527 5.83015 3.17489 5.96239 3.14448 6.09312C3.11712 6.22385 3.09127 6.35455 3.06696 6.48528C3.03353 6.69199 3.0396 6.87288 3.0852 7.02792C3.13385 7.18296 3.21439 7.31215 3.32688 7.41552C3.43937 7.51889 3.57768 7.59641 3.74184 7.64808ZM4.76784 6.92304C4.64321 7.02031 4.4988 7.06896 4.33464 7.06896C4.16743 7.06896 4.04736 7.02031 3.9744 6.92304C3.90144 6.82577 3.8832 6.67073 3.91968 6.45792C3.94399 6.32417 3.96833 6.198 3.99264 6.07944C4.02 5.96088 4.05041 5.83776 4.08384 5.71008C4.13551 5.49727 4.22215 5.34223 4.34376 5.24496C4.46839 5.14769 4.6128 5.09904 4.77696 5.09904C4.94112 5.09904 5.06119 5.14769 5.1372 5.24496C5.21321 5.34223 5.23145 5.49727 5.19192 5.71008C5.17063 5.83776 5.14632 5.96088 5.11896 6.07944C5.09465 6.198 5.06575 6.32417 5.03232 6.45792C4.98065 6.67073 4.89247 6.82577 4.76784 6.92304ZM6.1537 7.64808C6.17194 7.66937 6.19625 7.68 6.22666 7.68H6.84682C6.88025 7.68 6.90912 7.66937 6.93346 7.64808C6.96082 7.62679 6.97752 7.59943 6.98362 7.566L7.19338 6.56736H7.80898C8.20114 6.56736 8.51273 6.48377 8.74378 6.31656C8.97785 6.14935 9.13289 5.89097 9.2089 5.54136C9.24538 5.36503 9.24384 5.21153 9.20434 5.0808C9.16481 4.94705 9.0949 4.83607 8.99458 4.74792C8.89426 4.65977 8.76809 4.59439 8.6161 4.55184C8.46713 4.50929 8.29992 4.488 8.1145 4.488H6.90154C6.87113 4.488 6.84226 4.49863 6.8149 4.51992C6.78754 4.54121 6.77081 4.56857 6.76474 4.602L6.13546 7.566C6.12936 7.59943 6.13546 7.62679 6.1537 7.64808ZM7.83634 5.93808H7.31194L7.48978 5.12184H8.03698C8.14642 5.12184 8.22696 5.14008 8.27866 5.17656C8.33338 5.21304 8.3653 5.26169 8.37442 5.32248C8.38354 5.38327 8.38049 5.45321 8.3653 5.53224C8.33489 5.66904 8.26954 5.77087 8.16922 5.83776C8.07192 5.90465 7.96097 5.93808 7.83634 5.93808Z" fill="#FF0420"/>
</g>
<defs>
<clipPath id="clip0_2_6483">
<rect width="12" height="12" fill="white"/>
</clipPath>
</defs>
</svg>
