<svg width="12" height="12" viewBox="0 0 12 12" fill="none" xmlns="http://www.w3.org/2000/svg">
<path d="M8.18214 7.63401L10.3169 6.39695C10.4301 6.33124 10.5 6.20938 10.5 6.07859V3.60447C10.5 3.47368 10.4301 3.35182 10.3169 3.28611L8.18214 2.04905C8.06898 1.98333 7.92848 1.98397 7.81596 2.04905L5.68118 3.28611C5.56802 3.35182 5.49809 3.47368 5.49809 3.60447V8.02574L4.00095 8.89277L2.50381 8.02574V6.29104L4.00095 5.42401L4.98824 5.99629V4.8326L4.18404 4.36623C4.12873 4.33433 4.06516 4.3171 4.00095 4.3171C3.93674 4.3171 3.87317 4.33433 3.81786 4.36623L1.68309 5.60329C1.56993 5.669 1.5 5.79086 1.5 5.92165V8.39577C1.5 8.52656 1.56993 8.64842 1.68309 8.71413L3.81786 9.95119C3.93102 10.0163 4.07088 10.0163 4.18404 9.95119L6.31882 8.71413C6.43198 8.64842 6.50191 8.52656 6.50191 8.39577V3.97386L6.52861 3.95855L7.99841 3.10683L9.49555 3.97386V5.70856L7.99841 6.57559L7.0124 6.00459V7.16828L7.81532 7.63337C7.92848 7.69845 8.06898 7.69845 8.1815 7.63337L8.18214 7.63401Z" fill="url(#paint0_linear_2_6477)"/>
<defs>
<linearGradient id="paint0_linear_2_6477" x1="11.7" y1="4.3" x2="3.7001" y2="12.2999" gradientUnits="userSpaceOnUse">
<stop stop-color="#7B3FE4"/>
<stop offset="1" stop-color="#A626C2"/>
</linearGradient>
</defs>
</svg>
