<svg width="16" height="16" viewBox="0 0 16 16" fill="none" xmlns="http://www.w3.org/2000/svg">
<path d="M12.6673 14.0003H5.33398V4.66699H12.6673M12.6673 3.33366H5.33398C4.98036 3.33366 4.64122 3.47413 4.39118 3.72418C4.14113 3.97423 4.00065 4.31337 4.00065 4.66699V14.0003C4.00065 14.3539 4.14113 14.6931 4.39118 14.9431C4.64122 15.1932 4.98036 15.3337 5.33398 15.3337H12.6673C13.0209 15.3337 13.3601 15.1932 13.6101 14.9431C13.8602 14.6931 14.0007 14.3539 14.0007 14.0003V4.66699C14.0007 4.31337 13.8602 3.97423 13.6101 3.72418C13.3601 3.47413 13.0209 3.33366 12.6673 3.33366ZM10.6673 0.666992H2.66732C2.3137 0.666992 1.97456 0.807468 1.72451 1.05752C1.47446 1.30756 1.33398 1.6467 1.33398 2.00033V11.3337H2.66732V2.00033H10.6673V0.666992Z" fill="#90A4AE"/>
</svg>
