<svg width="16" height="16" viewBox="0 0 16 16" fill="none" xmlns="http://www.w3.org/2000/svg">
<path d="M8.66732 5.99967H7.33398V4.66634H8.66732M8.66732 11.333H7.33398V7.33301H8.66732M8.00065 1.33301C7.12517 1.33301 6.25827 1.50545 5.44943 1.84048C4.64059 2.17551 3.90566 2.66657 3.28661 3.28563C2.03636 4.53587 1.33398 6.23156 1.33398 7.99967C1.33398 9.76779 2.03636 11.4635 3.28661 12.7137C3.90566 13.3328 4.64059 13.8238 5.44943 14.1589C6.25827 14.4939 7.12517 14.6663 8.00065 14.6663C9.76876 14.6663 11.4645 13.964 12.7147 12.7137C13.9649 11.4635 14.6673 9.76779 14.6673 7.99967C14.6673 7.1242 14.4949 6.25729 14.1598 5.44845C13.8248 4.63961 13.3338 3.90469 12.7147 3.28563C12.0956 2.66657 11.3607 2.17551 10.5519 1.84048C9.74304 1.50545 8.87613 1.33301 8.00065 1.33301Z" fill="#2196F3"/>
</svg>
