<svg width="24" height="24" viewBox="0 0 24 24" fill="none" xmlns="http://www.w3.org/2000/svg">
<path d="M0 6C0 2.68629 2.68629 0 6 0H18C21.3137 0 24 2.68629 24 6V18C24 21.3137 21.3137 24 18 24H6C2.68629 24 0 21.3137 0 18V6Z" fill="#836EF9"></path>
<path d="M6.99748 5.28362L6.99748 11.0148L8.71768 12.0008L6.99731 12.987L6.99731 18.7182L11.9972 21.584L16.9971 18.7182L16.9971 12.9866L15.2769 12.0007L16.9973 11.0147L16.9973 5.28308L11.997 2.41732L6.99748 5.28362ZM11.6464 3.42366L11.6464 7.94789L7.69961 10.2105L7.69961 5.68623L11.6464 3.42366ZM12.3482 20.5781L12.3482 16.0535L16.2954 13.7912L16.2954 18.3159L12.3482 20.5781ZM15.9441 13.1879L11.9973 15.4501L8.05048 13.1879L9.41994 12.4031L11.9973 13.8803L14.575 12.4031L15.9441 13.1879ZM11.9973 10.1208L9.41964 11.5982L8.05048 10.8134L11.9973 8.55113L15.9445 10.8134L14.575 11.5982L11.9973 10.1208Z" fill="white"></path>
</svg>
