<svg width="14" height="14" viewBox="0 0 14 14" fill="none" xmlns="http://www.w3.org/2000/svg">
<path d="M7.66634 7.66665H6.33301V3.66665H7.66634M7.66634 10.3333H6.33301V8.99998H7.66634M6.99967 0.333313C6.1242 0.333313 5.25729 0.505751 4.44845 0.840783C3.63961 1.17581 2.90469 1.66688 2.28563 2.28593C1.03539 3.53618 0.333008 5.23187 0.333008 6.99998C0.333008 8.76809 1.03539 10.4638 2.28563 11.714C2.90469 12.3331 3.63961 12.8241 4.44845 13.1592C5.25729 13.4942 6.1242 13.6666 6.99967 13.6666C8.76779 13.6666 10.4635 12.9643 11.7137 11.714C12.964 10.4638 13.6663 8.76809 13.6663 6.99998C13.6663 6.1245 13.4939 5.25759 13.1589 4.44876C12.8238 3.63992 12.3328 2.90499 11.7137 2.28593C11.0947 1.66688 10.3597 1.17581 9.5509 0.840783C8.74206 0.505751 7.87515 0.333313 6.99967 0.333313Z" fill="#FB8C00"/>
</svg>
