<svg width="64" height="64" viewBox="0 0 64 64" fill="none" xmlns="http://www.w3.org/2000/svg">
<g filter="url(#filter0_i_3851_23705)">
<g clip-path="url(#clip0_3851_23705)">
<rect width="64" height="64" rx="8" fill="#D44276"/>
<g filter="url(#filter1_d_3851_23705)">
<path d="M46.018 13V15.9963H43.7725C41.7365 15.9963 40.0299 17.7041 40.0299 19.7416V21.2397C40.0299 23.2772 41.3473 24.9551 43.2934 25.4644L50.9581 27.4419C51.3772 27.5618 51.976 28.3109 51.976 28.7603V30.2584C51.976 30.6779 51.6467 31.0075 51.2275 31.0075H43.7425C43.4825 31.0065 43.2262 30.9449 42.994 30.8277V28.0112H40V31.0075C40 32.0262 40.5988 32.8951 41.3174 33.3446C42.006 33.824 42.8743 34.0037 43.7425 34.0037H45.988V37H48.982V34.0037H51.2275C53.2934 34.0037 54.9701 32.3258 54.9701 30.2584V28.7603C54.9701 26.7228 53.6527 25.0449 51.7066 24.5356L44.0419 22.5581C43.6228 22.4382 43.024 21.6891 43.024 21.2397V19.7416C43.024 19.3221 43.3533 18.9925 43.7725 18.9925H51.2575C51.5868 18.9925 51.8862 19.1124 52.006 19.1723V21.9888H55V18.9925C55 17.9738 54.4012 17.1049 53.6826 16.6554C52.994 16.176 52.1257 15.9963 51.2575 15.9963H49.012V13H46.018Z" fill="#FFABCA"/>
</g>
<path d="M19 39C15.15 39 11.8542 37.6292 9.1125 34.8875C6.37083 32.1458 5 28.85 5 25C5 21.15 6.37083 17.8542 9.1125 15.1125C11.8542 12.3708 15.15 11 19 11C22.85 11 26.1458 12.3708 28.8875 15.1125C31.6292 17.8542 33 21.15 33 25C33 28.85 31.6292 32.1458 28.8875 34.8875C26.1458 37.6292 22.85 39 19 39ZM-9 67V57.2C-9 55.2167 -8.489 53.3943 -7.467 51.733C-6.445 50.0717 -5.08933 48.8023 -3.4 47.925C0.216665 46.1167 3.89166 44.761 7.625 43.858C11.3583 42.955 15.15 42.5023 19 42.5C22.85 42.4977 26.6417 42.9503 30.375 43.858C34.1083 44.7657 37.7833 46.1213 41.4 47.925C43.0917 48.8 44.4485 50.0693 45.4705 51.733C46.4925 53.3967 47.0023 55.219 47 57.2V67H-9Z" fill="#97083C"/>
</g>
<rect x="1.5" y="1.5" width="61" height="61" rx="6.5" stroke="#FF6BA1" stroke-width="3"/>
</g>
<defs>
<filter id="filter0_i_3851_23705" x="0" y="0" width="64" height="68" filterUnits="userSpaceOnUse" color-interpolation-filters="sRGB">
<feFlood flood-opacity="0" result="BackgroundImageFix"/>
<feBlend mode="normal" in="SourceGraphic" in2="BackgroundImageFix" result="shape"/>
<feColorMatrix in="SourceAlpha" type="matrix" values="0 0 0 0 0 0 0 0 0 0 0 0 0 0 0 0 0 0 127 0" result="hardAlpha"/>
<feOffset dy="4"/>
<feGaussianBlur stdDeviation="2"/>
<feComposite in2="hardAlpha" operator="arithmetic" k2="-1" k3="1"/>
<feColorMatrix type="matrix" values="0 0 0 0 0.541667 0 0 0 0 0.236528 0 0 0 0 0.384012 0 0 0 1 0"/>
<feBlend mode="normal" in2="shape" result="effect1_innerShadow_3851_23705"/>
</filter>
<filter id="filter1_d_3851_23705" x="39" y="13" width="17" height="27" filterUnits="userSpaceOnUse" color-interpolation-filters="sRGB">
<feFlood flood-opacity="0" result="BackgroundImageFix"/>
<feColorMatrix in="SourceAlpha" type="matrix" values="0 0 0 0 0 0 0 0 0 0 0 0 0 0 0 0 0 0 127 0" result="hardAlpha"/>
<feOffset dy="2"/>
<feGaussianBlur stdDeviation="0.5"/>
<feComposite in2="hardAlpha" operator="out"/>
<feColorMatrix type="matrix" values="0 0 0 0 0 0 0 0 0 0 0 0 0 0 0 0 0 0 0.4 0"/>
<feBlend mode="normal" in2="BackgroundImageFix" result="effect1_dropShadow_3851_23705"/>
<feBlend mode="normal" in="SourceGraphic" in2="effect1_dropShadow_3851_23705" result="shape"/>
</filter>
<clipPath id="clip0_3851_23705">
<rect width="64" height="64" rx="8" fill="white"/>
</clipPath>
</defs>
</svg>
