<svg width="20" height="20" viewBox="0 0 20 20" fill="none" xmlns="http://www.w3.org/2000/svg">
<rect width="20" height="20" rx="10" fill="white"/>
<path d="M10.6662 3.35333V3.36667V4.7C13.5929 5.06 15.6662 7.72 15.3062 10.6467C14.9995 13.0733 13.0929 15 10.6662 15.2867V16.62C14.3329 16.2533 16.9995 13 16.6329 9.33333C16.3329 6.16667 13.8195 3.66667 10.6662 3.35333ZM9.33288 3.37333C8.03288 3.5 6.79288 4 5.77954 4.84L6.73288 5.82667C7.47954 5.22667 8.37954 4.84 9.33288 4.70667V3.37333ZM4.83954 5.78C3.99954 6.79333 3.49954 8.02667 3.36621 9.33333H4.69954C4.82621 8.38667 5.19954 7.48667 5.79288 6.73333L4.83954 5.78ZM3.37288 10.6667C3.50621 11.9733 4.01954 13.2067 4.84621 14.22L5.79288 13.2667C5.20621 12.5133 4.82621 11.6133 4.70621 10.6667H3.37288ZM6.73288 14.2467L5.77954 15.16C6.78621 16 8.02621 16.5267 9.33288 16.6667V15.3333C8.38621 15.2133 7.48621 14.8333 6.73288 14.2467ZM10.3329 6.66667V10.1667L13.3329 11.9467L12.8329 12.7667L9.33288 10.6667V6.66667H10.3329Z" fill="#FB8C00"/>
<rect width="20" height="20" rx="10" stroke="#FB8C00"/>
</svg>