<svg width="20" height="20" viewBox="0 0 20 20" fill="none" xmlns="http://www.w3.org/2000/svg">
<rect width="20" height="20" rx="10" fill="#6600DD"/>
<path fill-rule="evenodd" clip-rule="evenodd" d="M10.4946 2.6927C10.6167 2.74977 10.7306 2.82897 10.8302 2.93001C10.8449 2.94482 10.859 2.95994 10.8727 2.97535L14.6458 7.12572C15.2014 7.73688 15.3242 8.62673 14.9548 9.36549L11.0482 17.1788C10.9978 17.2819 10.9322 17.3779 10.8525 17.4632C10.7418 17.5818 10.6088 17.6741 10.4637 17.7369C10.3131 17.8023 10.1555 17.8334 9.99997 17.8333C9.84445 17.8334 9.68681 17.8023 9.53625 17.7369C9.39111 17.6741 9.25818 17.5818 9.14744 17.4632C9.06774 17.3779 9.0021 17.2819 8.9518 17.1788L5.04517 9.36549C4.67578 8.62673 4.79853 7.73688 5.35414 7.12572L9.1272 2.97535C9.1409 2.95994 9.15508 2.94482 9.16973 2.93001C9.26935 2.82897 9.3833 2.74977 9.50538 2.6927C9.81655 2.54726 10.1805 2.54563 10.4946 2.6927ZM9.99997 5.48405L7.23431 8.52628L9.99997 14.0576L12.7656 8.52628L9.99997 5.48405Z" fill="white"/>
</svg>
