<svg width="16" height="14" viewBox="0 0 16 14" fill="none" xmlns="http://www.w3.org/2000/svg">
<path d="M12.1667 12.0002H15.5V10.3335H12.1667V8.66683L9.66667 11.1668L12.1667 13.6668V12.0002ZM7.16667 0.333496C5.33333 0.333496 3.83333 1.8335 3.83333 3.66683C3.83333 5.50016 5.33333 7.00016 7.16667 7.00016C9 7.00016 10.5 5.50016 10.5 3.66683C10.5 1.8335 9 0.333496 7.16667 0.333496ZM7.16667 8.66683C3.5 8.66683 0.5 10.1668 0.5 12.0002V13.6668H8.41667C8.16667 13.0002 8 12.3335 8 11.5835C8 10.5835 8.25 9.66683 8.75 8.75016C8.25 8.75016 7.75 8.66683 7.16667 8.66683Z" fill="#455A64"/>
</svg>
