<svg width="20" height="20" viewBox="0 0 20 20" fill="none" xmlns="http://www.w3.org/2000/svg">
<g id="shield-key">
<path id="Vector" d="M10 6.66658C10.221 6.66658 10.433 6.75438 10.5893 6.91066C10.7455 7.06694 10.8333 7.2789 10.8333 7.49992C10.8333 7.72093 10.7455 7.93289 10.5893 8.08917C10.433 8.24545 10.221 8.33325 10 8.33325C9.77899 8.33325 9.56702 8.24545 9.41074 8.08917C9.25446 7.93289 9.16667 7.72093 9.16667 7.49992C9.16667 7.2789 9.25446 7.06694 9.41074 6.91066C9.56702 6.75438 9.77899 6.66658 10 6.66658ZM17.5 9.16658C17.5 13.7916 14.3 18.1166 10 19.1666C5.7 18.1166 2.5 13.7916 2.5 9.16658V4.16658L10 0.833252L17.5 4.16658V9.16658ZM10 4.99992C9.33696 4.99992 8.70107 5.26331 8.23223 5.73215C7.76339 6.20099 7.5 6.83688 7.5 7.49992C7.5 8.59158 8.19167 9.51658 9.16667 9.85825V14.9999H10.8333V13.3333H12.5V11.6666H10.8333V9.85825C11.8083 9.51658 12.5 8.59158 12.5 7.49992C12.5 6.83688 12.2366 6.20099 11.7678 5.73215C11.2989 5.26331 10.663 4.99992 10 4.99992Z" fill="#263238"/>
</g>
</svg>
