<svg width="18" height="9" viewBox="0 0 18 9" fill="none" xmlns="http://www.w3.org/2000/svg">
<path d="M2.5937 9C3.9377 9 4.3697 8.16 4.3697 7.152V6.156H5.6897V7.152C5.6897 8.16 6.1217 9 7.4657 9C8.5817 9 9.3017 8.292 9.3017 7.188C9.3017 6.024 8.6057 5.34 7.2377 5.34H6.5297V4.02H7.2377C8.6057 4.02 9.3017 3.336 9.3017 2.172C9.3017 1.068 8.5817 0.36 7.4657 0.36C6.1217 0.36 5.6897 1.2 5.6897 2.208V3.204H4.3697V2.208C4.3697 1.2 3.9377 0.36 2.5937 0.36C1.4777 0.36 0.757703 1.068 0.757703 2.172C0.757703 3.336 1.4537 4.02 2.8217 4.02H3.5297V5.34H2.8217C1.4537 5.34 0.757703 6.024 0.757703 7.188C0.757703 8.292 1.4777 9 2.5937 9ZM6.5297 2.184C6.5297 1.572 6.8417 1.188 7.4657 1.188C8.0297 1.188 8.4497 1.464 8.4497 2.172C8.4497 2.856 8.0897 3.204 7.2377 3.204H6.5297V2.184ZM2.8217 3.204C1.9697 3.204 1.6097 2.856 1.6097 2.172C1.6097 1.464 2.0297 1.188 2.5937 1.188C3.2177 1.188 3.5297 1.572 3.5297 2.184V3.204H2.8217ZM4.3697 5.34V4.02H5.6897V5.34H4.3697ZM2.5937 8.172C2.0297 8.172 1.6097 7.896 1.6097 7.188C1.6097 6.504 1.9697 6.156 2.8217 6.156H3.5297V7.176C3.5297 7.788 3.2177 8.172 2.5937 8.172ZM6.5297 7.176V6.156H7.2377C8.0897 6.156 8.4497 6.504 8.4497 7.188C8.4497 7.896 8.0297 8.172 7.4657 8.172C6.8417 8.172 6.5297 7.788 6.5297 7.176ZM12.4402 0.46875V9H11.3094V0.46875H12.4402ZM17.5906 0.46875L14.0457 4.44727L12.0535 6.51562L11.866 5.30859L13.366 3.65625L16.2312 0.46875H17.5906ZM16.5008 9L13.3426 4.83984L14.0164 3.94336L17.8484 9H16.5008Z" fill="white"/>
</svg>
