<svg width="14" height="14" viewBox="0 0 14 14" fill="none" xmlns="http://www.w3.org/2000/svg">
<path d="M5.66659 10.3335L2.33325 7.00016L3.27325 6.0535L5.66659 8.44683L10.7266 3.38683L11.6666 4.3335M6.99992 0.333496C6.12444 0.333496 5.25753 0.505935 4.4487 0.840966C3.63986 1.176 2.90493 1.66706 2.28587 2.28612C1.03563 3.53636 0.333252 5.23205 0.333252 7.00016C0.333252 8.76827 1.03563 10.464 2.28587 11.7142C2.90493 12.3333 3.63986 12.8243 4.4487 13.1594C5.25753 13.4944 6.12444 13.6668 6.99992 13.6668C8.76803 13.6668 10.4637 12.9645 11.714 11.7142C12.9642 10.464 13.6666 8.76827 13.6666 7.00016C13.6666 6.12468 13.4941 5.25778 13.1591 4.44894C12.8241 3.6401 12.333 2.90517 11.714 2.28612C11.0949 1.66706 10.36 1.176 9.55114 0.840966C8.7423 0.505935 7.8754 0.333496 6.99992 0.333496Z" fill="#4CAF50"/>
</svg>
