<svg width="20" height="20" viewBox="0 0 20 20" fill="none" xmlns="http://www.w3.org/2000/svg">
<path d="M10.9774 0V0.02003V2.02303C15.3784 2.56385 18.4962 6.55984 17.9549 10.9564C17.4937 14.6019 14.6266 17.4962 10.9774 17.9269V19.9299C16.4912 19.3791 20.5013 14.4917 19.9499 8.98348C19.4987 4.22634 15.7193 0.470706 10.9774 0ZM8.97243 0.030045C7.01754 0.22033 5.15288 0.971458 3.62907 2.23335L5.06266 3.71557C6.18546 2.81422 7.53885 2.23335 8.97243 2.03305V0.030045ZM2.21554 3.64547C0.952381 5.16775 0.200501 7.02053 0 8.98348H2.00501C2.19549 7.56134 2.75689 6.20931 3.64912 5.07762L2.21554 3.64547ZM0.0100251 10.9865C0.210526 12.9494 0.982456 14.8022 2.22556 16.3245L3.64912 14.8923C2.76692 13.7606 2.19549 12.4086 2.01504 10.9865H0.0100251ZM5.06266 16.3645L3.62907 17.7366C5.14286 18.9985 7.00752 19.7897 8.97243 20V17.997C7.54887 17.8167 6.19549 17.2459 5.06266 16.3645ZM10.4762 4.97747V10.2354L14.9875 12.9094L14.2356 14.1412L8.97243 10.9865V4.97747H10.4762Z" fill="#969CB3"/>
</svg>
