<svg width="24" height="24" viewBox="0 0 24 24" fill="none" xmlns="http://www.w3.org/2000/svg">
<path d="M18.5 18V18.5H19H19.7929L18 20.2929L16.2071 18.5H17H17.5V18V14.5H18.5V18ZM4.4 18.1V18.6H4.9H11.5697C11.6192 18.9027 11.679 19.2018 11.7683 19.5H3.5V17C3.5 16.5055 3.73837 16.0417 4.2109 15.602C4.68774 15.1583 5.37249 14.7708 6.17259 14.452C7.77335 13.8141 9.71025 13.5 11 13.5C11.4666 13.5 12.038 13.5476 12.68 13.6452C12.4932 13.9254 12.3384 14.2123 12.1977 14.4883C12.0711 14.4795 11.9398 14.4665 11.7998 14.4525L11.789 14.4514C11.546 14.4271 11.2751 14.4 11 14.4C9.4242 14.4 7.83685 14.7921 6.6428 15.2594C6.04574 15.493 5.52991 15.7521 5.1539 16.0027C4.96745 16.127 4.79901 16.26 4.67121 16.3988C4.56125 16.5183 4.4 16.7281 4.4 17V18.1ZM7.5 8C7.5 6.07614 9.07614 4.5 11 4.5C12.9239 4.5 14.5 6.07614 14.5 8C14.5 9.92386 12.9239 11.5 11 11.5C9.07614 11.5 7.5 9.92386 7.5 8ZM13.5 8C13.5 6.62386 12.3761 5.5 11 5.5C9.62386 5.5 8.5 6.62386 8.5 8C8.5 9.37614 9.62386 10.5 11 10.5C12.3761 10.5 13.5 9.37614 13.5 8Z" fill="#1F1F1F" stroke="#455A64"/>
</svg>
