<svg width="18" height="17" viewBox="0 0 18 17" fill="none" xmlns="http://www.w3.org/2000/svg">
<path d="M15.5 14V14.5H16H16.7929L15 16.2929L13.2071 14.5H14H14.5V14V10.5H15.5V14ZM1.4 14.1V14.6H1.9H8.56975C8.61918 14.9027 8.67904 15.2018 8.7683 15.5H0.5V13C0.5 12.5055 0.73837 12.0417 1.2109 11.602C1.68774 11.1583 2.37249 10.7708 3.17259 10.452C4.77335 9.81408 6.71025 9.5 8 9.5C8.46663 9.5 9.03799 9.54762 9.67998 9.64517C9.49318 9.92535 9.33842 10.2123 9.19767 10.4883C9.0711 10.4795 8.93985 10.4665 8.79975 10.4525L8.789 10.4514C8.54601 10.4271 8.27506 10.4 8 10.4C6.4242 10.4 4.83685 10.7921 3.6428 11.2594C3.04574 11.493 2.52991 11.7521 2.1539 12.0027C1.96745 12.127 1.79901 12.26 1.67121 12.3988C1.56125 12.5183 1.4 12.7281 1.4 13V14.1ZM4.5 4C4.5 2.07614 6.07614 0.5 8 0.5C9.92386 0.5 11.5 2.07614 11.5 4C11.5 5.92386 9.92386 7.5 8 7.5C6.07614 7.5 4.5 5.92386 4.5 4ZM10.5 4C10.5 2.62386 9.37614 1.5 8 1.5C6.62386 1.5 5.5 2.62386 5.5 4C5.5 5.37614 6.62386 6.5 8 6.5C9.37614 6.5 10.5 5.37614 10.5 4Z" fill="#666B80" stroke="#666B80"/>
</svg>
