<svg width="24" height="24" viewBox="0 0 24 24" fill="none" xmlns="http://www.w3.org/2000/svg">
<path d="M22.4591 6C21.6891 6.35 20.8591 6.58 19.9991 6.69C20.8791 6.16 21.5591 5.32 21.8791 4.31C21.0491 4.81 20.1291 5.16 19.1591 5.36C18.3691 4.5 17.2591 4 15.9991 4C13.6491 4 11.7291 5.92 11.7291 8.29C11.7291 8.63 11.7691 8.96 11.8391 9.27C8.27906 9.09 5.10906 7.38 2.99906 4.79C2.62906 5.42 2.41906 6.16 2.41906 6.94C2.41906 8.43 3.16906 9.75 4.32906 10.5C3.61906 10.5 2.95906 10.3 2.37906 10C2.37906 10 2.37906 10 2.37906 10.03C2.37906 12.11 3.85906 13.85 5.81906 14.24C5.45906 14.34 5.07906 14.39 4.68906 14.39C4.41906 14.39 4.14906 14.36 3.88906 14.31C4.42906 16 5.99906 17.26 7.88906 17.29C6.42906 18.45 4.57906 19.13 2.55906 19.13C2.21906 19.13 1.87906 19.11 1.53906 19.07C3.43906 20.29 5.69906 21 8.11906 21C15.9991 21 20.3291 14.46 20.3291 8.79C20.3291 8.6 20.3291 8.42 20.3191 8.23C21.1591 7.63 21.8791 6.87 22.4591 6Z" fill="#90A4AE"/>
</svg>
