<svg width="20" height="20" viewBox="0 0 20 20" fill="none" xmlns="http://www.w3.org/2000/svg">
<path fill-rule="evenodd" clip-rule="evenodd" d="M10 20C15.5228 20 20 15.5228 20 10C20 4.47716 15.5228 0 10 0C4.47716 0 0 4.47716 0 10C0 15.5228 4.47716 20 10 20ZM6.2364 12.7468C6.51 12.8329 6.8064 12.876 7.1256 12.876C7.86028 12.876 8.44548 12.7063 8.8812 12.3668C9.31692 12.0223 9.62092 11.5029 9.7932 10.8088C9.84388 10.5909 9.892 10.3731 9.9376 10.1552C9.98828 9.93732 10.0313 9.71692 10.0668 9.494C10.1276 9.14948 10.1175 8.848 10.0364 8.5896C9.9604 8.3312 9.82612 8.11332 9.6336 7.936C9.44612 7.75868 9.2156 7.62692 8.942 7.5408C8.67348 7.4496 8.3796 7.404 8.0604 7.404C7.32068 7.404 6.73292 7.58132 6.2972 7.936C5.86148 8.29068 5.56 8.81 5.3928 9.494C5.34212 9.71692 5.29148 9.93732 5.2408 10.1552C5.1952 10.3731 5.15212 10.5909 5.1116 10.8088C5.05588 11.1533 5.066 11.4548 5.142 11.7132C5.22308 11.9716 5.35732 12.1869 5.5448 12.3592C5.73228 12.5315 5.9628 12.6607 6.2364 12.7468ZM7.9464 11.5384C7.73868 11.7005 7.498 11.7816 7.2244 11.7816C6.94572 11.7816 6.7456 11.7005 6.624 11.5384C6.5024 11.3763 6.472 11.1179 6.5328 10.7632C6.57332 10.5403 6.61388 10.33 6.6544 10.1324C6.7 9.9348 6.75068 9.7296 6.8064 9.5168C6.89252 9.16212 7.03692 8.90372 7.2396 8.7416C7.44732 8.57948 7.688 8.4984 7.9616 8.4984C8.2352 8.4984 8.43532 8.57948 8.562 8.7416C8.68868 8.90372 8.71908 9.16212 8.6532 9.5168C8.61772 9.7296 8.5772 9.9348 8.5316 10.1324C8.49108 10.33 8.44292 10.5403 8.3872 10.7632C8.30108 11.1179 8.15412 11.3763 7.9464 11.5384ZM10.2562 12.7468C10.2866 12.7823 10.3271 12.8 10.3778 12.8H11.4114C11.4671 12.8 11.5152 12.7823 11.5558 12.7468C11.6014 12.7113 11.6292 12.6657 11.6394 12.61L11.989 10.9456H13.015C13.6686 10.9456 14.1879 10.8063 14.573 10.5276C14.9631 10.2489 15.2215 9.81828 15.3482 9.2356C15.409 8.94172 15.4064 8.68588 15.3406 8.468C15.2747 8.24508 15.1582 8.06012 14.991 7.9132C14.8238 7.76628 14.6135 7.65732 14.3602 7.5864C14.1119 7.51548 13.8332 7.48 13.5242 7.48H11.5026C11.4519 7.48 11.4038 7.49772 11.3582 7.5332C11.3126 7.56868 11.2847 7.61428 11.2746 7.67L10.2258 12.61C10.2156 12.6657 10.2258 12.7113 10.2562 12.7468ZM13.0606 9.8968H12.1866L12.483 8.5364H13.395C13.5774 8.5364 13.7116 8.5668 13.7978 8.6276C13.889 8.6884 13.9422 8.76948 13.9574 8.8708C13.9726 8.97212 13.9675 9.08868 13.9422 9.2204C13.8915 9.4484 13.7826 9.61812 13.6154 9.7296C13.4532 9.84108 13.2683 9.8968 13.0606 9.8968Z" fill="#FF0420"/>
</svg>
