<svg width="29" height="16" viewBox="0 0 29 16" fill="none" xmlns="http://www.w3.org/2000/svg">
<path d="M25.6772 8.8921C26.3976 8.8921 27.014 9.1466 27.5057 9.65584C27.9381 10.1036 28.1836 10.6168 28.23 11.1882C28.2395 11.3048 28.1641 11.4144 28.046 11.4588L17.9761 15.2579C17.9148 15.281 17.8477 15.2837 17.7847 15.2655L9.08922 12.7567C8.95924 12.7192 8.86972 12.6002 8.86972 12.4649V1.32714C8.86972 1.15942 9.00571 1.02344 9.17343 1.02344H11.2577C11.294 1.02344 11.33 1.02997 11.364 1.04265L20.7404 4.54602C21.0671 4.67942 21.3068 4.86134 21.4653 5.09056C21.6238 5.31993 21.7051 5.60245 21.7051 5.94412C21.7051 6.33127 21.5697 6.67908 21.2855 6.96608C20.9987 7.25567 20.6537 7.42885 20.2225 7.42885H16.657C16.6195 7.42885 16.5824 7.42187 16.5474 7.40843L14.7072 6.69693C14.4668 6.60399 14.1973 6.72881 14.1126 6.97223L13.937 7.47744C13.8547 7.71411 13.979 7.97278 14.2151 8.05646L16.4992 8.86598C16.5481 8.88329 16.5996 8.8921 16.6514 8.8921H25.6772ZM1.36034 1.02344H5.81674C5.98446 1.02344 6.12044 1.15942 6.12044 1.32714V14.9938C6.12044 15.1615 5.98446 15.2975 5.81674 15.2975H1.36034C1.19262 15.2975 1.05664 15.1615 1.05664 14.9938V1.32714C1.05664 1.15942 1.19262 1.02344 1.36034 1.02344Z" stroke="#EFDBA6" stroke-opacity="0.6" stroke-width="0.2"/>
</svg>
