<svg width="1920" height="1020" viewBox="0 0 1920 1020" fill="none" xmlns="http://www.w3.org/2000/svg">
<g filter="url(#filter0_f_1220_7142)">
<ellipse cx="1577.29" cy="173.153" rx="342.714" ry="317.153" fill="#AECCE8"/>
</g>
<g filter="url(#filter1_f_1220_7142)">
<ellipse cx="1427.98" cy="1321.21" rx="342.714" ry="317.153" fill="#AECCE8"/>
</g>
<g filter="url(#filter2_f_1220_7142)">
<ellipse cx="342.714" cy="1759.85" rx="342.714" ry="317.153" fill="#CDCDEB"/>
</g>
<g filter="url(#filter3_f_1220_7142)">
<ellipse cx="365.261" cy="628.947" rx="272.067" ry="251.775" fill="#EBC9BA"/>
</g>
<path opacity="0.14" fill-rule="evenodd" clip-rule="evenodd" d="M271.565 -67.957H1558.25V974.383H271.565V-67.957ZM273.576 -66.0957H430.39V79.0873H273.576V-66.0957ZM434.411 -66.0957H591.225V79.0873H434.411V-66.0957ZM752.06 -66.0957H595.246V79.0873H752.06V-66.0957ZM756.081 -66.0957H912.895V79.0873H756.081V-66.0957ZM1073.73 -66.0957H916.916V79.0873H1073.73V-66.0957ZM1077.75 -66.0957H1234.57V79.0873H1077.75V-66.0957ZM1395.4 -66.0957H1238.59V79.0873H1395.4V-66.0957ZM1399.42 -66.0957H1556.24V79.0873H1399.42V-66.0957ZM430.39 82.81H273.576V227.993H430.39V82.81ZM434.411 82.81H591.225V227.993H434.411V82.81ZM752.06 82.81H595.246V227.993H752.06V82.81ZM756.081 82.81H912.895V227.993H756.081V82.81ZM1073.73 82.81H916.916V227.993H1073.73V82.81ZM1077.75 82.81H1234.57V227.993H1077.75V82.81ZM1395.4 82.81H1238.59V227.993H1395.4V82.81ZM1399.42 82.81H1556.24V227.993H1399.42V82.81ZM430.39 231.716H273.576V376.899H430.39V231.716ZM434.411 231.716H591.225V376.899H434.411V231.716ZM752.06 231.716H595.246V376.899H752.06V231.716ZM756.081 231.716H912.895V376.899H756.081V231.716ZM1073.73 231.716H916.916V376.899H1073.73V231.716ZM1077.75 231.716H1234.57V376.899H1077.75V231.716ZM1395.4 231.716H1238.59V376.899H1395.4V231.716ZM1399.42 231.716H1556.24V376.899H1399.42V231.716ZM430.39 380.621H273.576V525.804H430.39V380.621ZM434.411 380.621H591.225V525.804H434.411V380.621ZM752.06 380.621H595.246V525.804H752.06V380.621ZM756.081 380.621H912.895V525.804H756.081V380.621ZM1073.73 380.621H916.916V525.804H1073.73V380.621ZM1077.75 380.621H1234.57V525.804H1077.75V380.621ZM1395.4 380.621H1238.59V525.804H1395.4V380.621ZM1399.42 380.621H1556.24V525.804H1399.42V380.621ZM430.39 529.527H273.576V674.71H430.39V529.527ZM434.411 529.527H591.225V674.71H434.411V529.527ZM752.06 529.527H595.246V674.71H752.06V529.527ZM756.081 529.527H912.895V674.71H756.081V529.527ZM1073.73 529.527H916.916V674.71H1073.73V529.527ZM1077.75 529.527H1234.57V674.71H1077.75V529.527ZM1395.4 529.527H1238.59V674.71H1395.4V529.527ZM1399.42 529.527H1556.24V674.71H1399.42V529.527ZM430.39 678.433H273.576V823.616H430.39V678.433ZM434.411 678.433H591.225V823.616H434.411V678.433ZM752.06 678.433H595.246V823.616H752.06V678.433ZM756.081 678.433H912.895V823.616H756.081V678.433ZM1073.73 678.433H916.916V823.616H1073.73V678.433ZM1077.75 678.433H1234.57V823.616H1077.75V678.433ZM1395.4 678.433H1238.59V823.616H1395.4V678.433ZM1399.42 678.433H1556.24V823.616H1399.42V678.433ZM430.39 827.338H273.576V972.521H430.39V827.338ZM434.411 827.338H591.225V972.521H434.411V827.338ZM752.06 827.338H595.246V972.521H752.06V827.338ZM756.081 827.338H912.895V972.521H756.081V827.338ZM1073.73 827.338H916.916V972.521H1073.73V827.338ZM1077.75 827.338H1234.57V972.521H1077.75V827.338ZM1395.4 827.338H1238.59V972.521H1395.4V827.338ZM1399.42 827.338H1556.24V972.521H1399.42V827.338Z" fill="#C3EDC2"/>
<defs>
<filter id="filter0_f_1220_7142" x="649.672" y="-728.9" width="1855.23" height="1804.1" filterUnits="userSpaceOnUse" color-interpolation-filters="sRGB">
<feFlood flood-opacity="0" result="BackgroundImageFix"/>
<feBlend mode="normal" in="SourceGraphic" in2="BackgroundImageFix" result="shape"/>
<feGaussianBlur stdDeviation="292.45" result="effect1_foregroundBlur_1220_7142"/>
</filter>
<filter id="filter1_f_1220_7142" x="500.362" y="419.159" width="1855.23" height="1804.1" filterUnits="userSpaceOnUse" color-interpolation-filters="sRGB">
<feFlood flood-opacity="0" result="BackgroundImageFix"/>
<feBlend mode="normal" in="SourceGraphic" in2="BackgroundImageFix" result="shape"/>
<feGaussianBlur stdDeviation="292.45" result="effect1_foregroundBlur_1220_7142"/>
</filter>
<filter id="filter2_f_1220_7142" x="-584.9" y="857.795" width="1855.23" height="1804.1" filterUnits="userSpaceOnUse" color-interpolation-filters="sRGB">
<feFlood flood-opacity="0" result="BackgroundImageFix"/>
<feBlend mode="normal" in="SourceGraphic" in2="BackgroundImageFix" result="shape"/>
<feGaussianBlur stdDeviation="292.45" result="effect1_foregroundBlur_1220_7142"/>
</filter>
<filter id="filter3_f_1220_7142" x="-491.706" y="-207.728" width="1713.93" height="1673.35" filterUnits="userSpaceOnUse" color-interpolation-filters="sRGB">
<feFlood flood-opacity="0" result="BackgroundImageFix"/>
<feBlend mode="normal" in="SourceGraphic" in2="BackgroundImageFix" result="shape"/>
<feGaussianBlur stdDeviation="292.45" result="effect1_foregroundBlur_1220_7142"/>
</filter>
</defs>
</svg>
