<svg width="1920" height="3885" viewBox="0 0 1920 3885" fill="none" xmlns="http://www.w3.org/2000/svg">
<g filter="url(#filter0_f_743_3930)">
<circle cx="591" cy="295" r="342" fill="#BAAEE8"/>
</g>
<g filter="url(#filter1_f_743_3930)">
<circle cx="1598" cy="734" r="342" fill="#AECCE8"/>
</g>
<g filter="url(#filter2_f_743_3930)">
<circle cx="404.5" cy="1271.5" r="271.5" fill="#E6D4BF"/>
</g>
<g filter="url(#filter3_f_743_3930)">
<circle cx="1170" cy="2322" r="342" fill="#F3E0BC"/>
</g>
<g filter="url(#filter4_f_743_3930)">
<circle cx="1465" cy="3722" r="342" fill="#AECCE8"/>
</g>
<g filter="url(#filter5_f_743_3930)">
<circle cx="342" cy="4195" r="342" fill="#CDCDEB"/>
</g>
<g filter="url(#filter6_f_743_3930)">
<circle cx="364.5" cy="2975.5" r="271.5" fill="#CBF5E6"/>
</g>
<path opacity="0.14" fill-rule="evenodd" clip-rule="evenodd" d="M318 1967H1602V3091H318V1967ZM320.006 1969.01H476.494V2125.56H320.006V1969.01ZM480.506 1969.01H636.994V2125.56H480.506V1969.01ZM797.494 1969.01H641.006V2125.56H797.494V1969.01ZM801.506 1969.01H957.994V2125.56H801.506V1969.01ZM1118.49 1969.01H962.006V2125.56H1118.49V1969.01ZM1122.51 1969.01H1278.99V2125.56H1122.51V1969.01ZM1439.49 1969.01H1283.01V2125.56H1439.49V1969.01ZM1443.51 1969.01H1599.99V2125.56H1443.51V1969.01ZM476.494 2129.58H320.006V2286.14H476.494V2129.58ZM480.506 2129.58H636.994V2286.14H480.506V2129.58ZM797.494 2129.58H641.006V2286.14H797.494V2129.58ZM801.506 2129.58H957.994V2286.14H801.506V2129.58ZM1118.49 2129.58H962.006V2286.14H1118.49V2129.58ZM1122.51 2129.58H1278.99V2286.14H1122.51V2129.58ZM1439.49 2129.58H1283.01V2286.14H1439.49V2129.58ZM1443.51 2129.58H1599.99V2286.14H1443.51V2129.58ZM476.494 2290.15H320.006V2446.71H476.494V2290.15ZM480.506 2290.15H636.994V2446.71H480.506V2290.15ZM797.494 2290.15H641.006V2446.71H797.494V2290.15ZM801.506 2290.15H957.994V2446.71H801.506V2290.15ZM1118.49 2290.15H962.006V2446.71H1118.49V2290.15ZM1122.51 2290.15H1278.99V2446.71H1122.51V2290.15ZM1439.49 2290.15H1283.01V2446.71H1439.49V2290.15ZM1443.51 2290.15H1599.99V2446.71H1443.51V2290.15ZM476.494 2450.72H320.006V2607.28H476.494V2450.72ZM480.506 2450.72H636.994V2607.28H480.506V2450.72ZM797.494 2450.72H641.006V2607.28H797.494V2450.72ZM801.506 2450.72H957.994V2607.28H801.506V2450.72ZM1118.49 2450.72H962.006V2607.28H1118.49V2450.72ZM1122.51 2450.72H1278.99V2607.28H1122.51V2450.72ZM1439.49 2450.72H1283.01V2607.28H1439.49V2450.72ZM1443.51 2450.72H1599.99V2607.28H1443.51V2450.72ZM476.494 2611.29H320.006V2767.85H476.494V2611.29ZM480.506 2611.29H636.994V2767.85H480.506V2611.29ZM797.494 2611.29H641.006V2767.85H797.494V2611.29ZM801.506 2611.29H957.994V2767.85H801.506V2611.29ZM1118.49 2611.29H962.006V2767.85H1118.49V2611.29ZM1122.51 2611.29H1278.99V2767.85H1122.51V2611.29ZM1439.49 2611.29H1283.01V2767.85H1439.49V2611.29ZM1443.51 2611.29H1599.99V2767.85H1443.51V2611.29ZM476.494 2771.86H320.006V2928.42H476.494V2771.86ZM480.506 2771.86H636.994V2928.42H480.506V2771.86ZM797.494 2771.86H641.006V2928.42H797.494V2771.86ZM801.506 2771.86H957.994V2928.42H801.506V2771.86ZM1118.49 2771.86H962.006V2928.42H1118.49V2771.86ZM1122.51 2771.86H1278.99V2928.42H1122.51V2771.86ZM1439.49 2771.86H1283.01V2928.42H1439.49V2771.86ZM1443.51 2771.86H1599.99V2928.42H1443.51V2771.86ZM476.494 2932.44H320.006V3088.99H476.494V2932.44ZM480.506 2932.44H636.994V3088.99H480.506V2932.44ZM797.494 2932.44H641.006V3088.99H797.494V2932.44ZM801.506 2932.44H957.994V3088.99H801.506V2932.44ZM1118.49 2932.44H962.006V3088.99H1118.49V2932.44ZM1122.51 2932.44H1278.99V3088.99H1122.51V2932.44ZM1439.49 2932.44H1283.01V3088.99H1439.49V2932.44ZM1443.51 2932.44H1599.99V3088.99H1443.51V2932.44Z" fill="#C3EDC2"/>
<path opacity="0.14" fill-rule="evenodd" clip-rule="evenodd" d="M318 843H1602V1967H318V843ZM320.006 845.007H476.494V1001.56H320.006V845.007ZM480.506 845.007H636.994V1001.56H480.506V845.007ZM797.494 845.007H641.006V1001.56H797.494V845.007ZM801.506 845.007H957.994V1001.56H801.506V845.007ZM1118.49 845.007H962.006V1001.56H1118.49V845.007ZM1122.51 845.007H1278.99V1001.56H1122.51V845.007ZM1439.49 845.007H1283.01V1001.56H1439.49V845.007ZM1443.51 845.007H1599.99V1001.56H1443.51V845.007ZM476.494 1005.58H320.006V1162.14H476.494V1005.58ZM480.506 1005.58H636.994V1162.14H480.506V1005.58ZM797.494 1005.58H641.006V1162.14H797.494V1005.58ZM801.506 1005.58H957.994V1162.14H801.506V1005.58ZM1118.49 1005.58H962.006V1162.14H1118.49V1005.58ZM1122.51 1005.58H1278.99V1162.14H1122.51V1005.58ZM1439.49 1005.58H1283.01V1162.14H1439.49V1005.58ZM1443.51 1005.58H1599.99V1162.14H1443.51V1005.58ZM476.494 1166.15H320.006V1322.71H476.494V1166.15ZM480.506 1166.15H636.994V1322.71H480.506V1166.15ZM797.494 1166.15H641.006V1322.71H797.494V1166.15ZM801.506 1166.15H957.994V1322.71H801.506V1166.15ZM1118.49 1166.15H962.006V1322.71H1118.49V1166.15ZM1122.51 1166.15H1278.99V1322.71H1122.51V1166.15ZM1439.49 1166.15H1283.01V1322.71H1439.49V1166.15ZM1443.51 1166.15H1599.99V1322.71H1443.51V1166.15ZM476.494 1326.72H320.006V1483.28H476.494V1326.72ZM480.506 1326.72H636.994V1483.28H480.506V1326.72ZM797.494 1326.72H641.006V1483.28H797.494V1326.72ZM801.506 1326.72H957.994V1483.28H801.506V1326.72ZM1118.49 1326.72H962.006V1483.28H1118.49V1326.72ZM1122.51 1326.72H1278.99V1483.28H1122.51V1326.72ZM1439.49 1326.72H1283.01V1483.28H1439.49V1326.72ZM1443.51 1326.72H1599.99V1483.28H1443.51V1326.72ZM476.494 1487.29H320.006V1643.85H476.494V1487.29ZM480.506 1487.29H636.994V1643.85H480.506V1487.29ZM797.494 1487.29H641.006V1643.85H797.494V1487.29ZM801.506 1487.29H957.994V1643.85H801.506V1487.29ZM1118.49 1487.29H962.006V1643.85H1118.49V1487.29ZM1122.51 1487.29H1278.99V1643.85H1122.51V1487.29ZM1439.49 1487.29H1283.01V1643.85H1439.49V1487.29ZM1443.51 1487.29H1599.99V1643.85H1443.51V1487.29ZM476.494 1647.86H320.006V1804.42H476.494V1647.86ZM480.506 1647.86H636.994V1804.42H480.506V1647.86ZM797.494 1647.86H641.006V1804.42H797.494V1647.86ZM801.506 1647.86H957.994V1804.42H801.506V1647.86ZM1118.49 1647.86H962.006V1804.42H1118.49V1647.86ZM1122.51 1647.86H1278.99V1804.42H1122.51V1647.86ZM1439.49 1647.86H1283.01V1804.42H1439.49V1647.86ZM1443.51 1647.86H1599.99V1804.42H1443.51V1647.86ZM476.494 1808.44H320.006V1964.99H476.494V1808.44ZM480.506 1808.44H636.994V1964.99H480.506V1808.44ZM797.494 1808.44H641.006V1964.99H797.494V1808.44ZM801.506 1808.44H957.994V1964.99H801.506V1808.44ZM1118.49 1808.44H962.006V1964.99H1118.49V1808.44ZM1122.51 1808.44H1278.99V1964.99H1122.51V1808.44ZM1439.49 1808.44H1283.01V1964.99H1439.49V1808.44ZM1443.51 1808.44H1599.99V1964.99H1443.51V1808.44Z" fill="#D9D8D6"/>
<path opacity="0.14" fill-rule="evenodd" clip-rule="evenodd" d="M318 -281H1602V843H318V-281ZM320.006 -278.993H476.494V-122.436H320.006V-278.993ZM480.506 -278.993H636.994V-122.436H480.506V-278.993ZM797.494 -278.993H641.006V-122.436H797.494V-278.993ZM801.506 -278.993H957.994V-122.436H801.506V-278.993ZM1118.49 -278.993H962.006V-122.436H1118.49V-278.993ZM1122.51 -278.993H1278.99V-122.436H1122.51V-278.993ZM1439.49 -278.993H1283.01V-122.436H1439.49V-278.993ZM1443.51 -278.993H1599.99V-122.436H1443.51V-278.993ZM476.494 -118.421H320.006V38.1357H476.494V-118.421ZM480.506 -118.421H636.994V38.1357H480.506V-118.421ZM797.494 -118.421H641.006V38.1357H797.494V-118.421ZM801.506 -118.421H957.994V38.1357H801.506V-118.421ZM1118.49 -118.421H962.006V38.1357H1118.49V-118.421ZM1122.51 -118.421H1278.99V38.1357H1122.51V-118.421ZM1439.49 -118.421H1283.01V38.1357H1439.49V-118.421ZM1443.51 -118.421H1599.99V38.1357H1443.51V-118.421ZM476.494 42.15H320.006V198.707H476.494V42.15ZM480.506 42.15H636.994V198.707H480.506V42.15ZM797.494 42.15H641.006V198.707H797.494V42.15ZM801.506 42.15H957.994V198.707H801.506V42.15ZM1118.49 42.15H962.006V198.707H1118.49V42.15ZM1122.51 42.15H1278.99V198.707H1122.51V42.15ZM1439.49 42.15H1283.01V198.707H1439.49V42.15ZM1443.51 42.15H1599.99V198.707H1443.51V42.15ZM476.494 202.721H320.006V359.279H476.494V202.721ZM480.506 202.721H636.994V359.279H480.506V202.721ZM797.494 202.721H641.006V359.279H797.494V202.721ZM801.506 202.721H957.994V359.279H801.506V202.721ZM1118.49 202.721H962.006V359.279H1118.49V202.721ZM1122.51 202.721H1278.99V359.279H1122.51V202.721ZM1439.49 202.721H1283.01V359.279H1439.49V202.721ZM1443.51 202.721H1599.99V359.279H1443.51V202.721ZM476.494 363.293H320.006V519.85H476.494V363.293ZM480.506 363.293H636.994V519.85H480.506V363.293ZM797.494 363.293H641.006V519.85H797.494V363.293ZM801.506 363.293H957.994V519.85H801.506V363.293ZM1118.49 363.293H962.006V519.85H1118.49V363.293ZM1122.51 363.293H1278.99V519.85H1122.51V363.293ZM1439.49 363.293H1283.01V519.85H1439.49V363.293ZM1443.51 363.293H1599.99V519.85H1443.51V363.293ZM476.494 523.864H320.006V680.421H476.494V523.864ZM480.506 523.864H636.994V680.421H480.506V523.864ZM797.494 523.864H641.006V680.421H797.494V523.864ZM801.506 523.864H957.994V680.421H801.506V523.864ZM1118.49 523.864H962.006V680.421H1118.49V523.864ZM1122.51 523.864H1278.99V680.421H1122.51V523.864ZM1439.49 523.864H1283.01V680.421H1439.49V523.864ZM1443.51 523.864H1599.99V680.421H1443.51V523.864ZM476.494 684.436H320.006V840.993H476.494V684.436ZM480.506 684.436H636.994V840.993H480.506V684.436ZM797.494 684.436H641.006V840.993H797.494V684.436ZM801.506 684.436H957.994V840.993H801.506V684.436ZM1118.49 684.436H962.006V840.993H1118.49V684.436ZM1122.51 684.436H1278.99V840.993H1122.51V684.436ZM1439.49 684.436H1283.01V840.993H1439.49V684.436ZM1443.51 684.436H1599.99V840.993H1443.51V684.436Z" fill="#D9D8D6"/>
<defs>
<filter id="filter0_f_743_3930" x="-335.9" y="-631.9" width="1853.8" height="1853.8" filterUnits="userSpaceOnUse" color-interpolation-filters="sRGB">
<feFlood flood-opacity="0" result="BackgroundImageFix"/>
<feBlend mode="normal" in="SourceGraphic" in2="BackgroundImageFix" result="shape"/>
<feGaussianBlur stdDeviation="292.45" result="effect1_foregroundBlur_743_3930"/>
</filter>
<filter id="filter1_f_743_3930" x="671.1" y="-192.9" width="1853.8" height="1853.8" filterUnits="userSpaceOnUse" color-interpolation-filters="sRGB">
<feFlood flood-opacity="0" result="BackgroundImageFix"/>
<feBlend mode="normal" in="SourceGraphic" in2="BackgroundImageFix" result="shape"/>
<feGaussianBlur stdDeviation="292.45" result="effect1_foregroundBlur_743_3930"/>
</filter>
<filter id="filter2_f_743_3930" x="-451.9" y="415.1" width="1712.8" height="1712.8" filterUnits="userSpaceOnUse" color-interpolation-filters="sRGB">
<feFlood flood-opacity="0" result="BackgroundImageFix"/>
<feBlend mode="normal" in="SourceGraphic" in2="BackgroundImageFix" result="shape"/>
<feGaussianBlur stdDeviation="292.45" result="effect1_foregroundBlur_743_3930"/>
</filter>
<filter id="filter3_f_743_3930" x="243.1" y="1395.1" width="1853.8" height="1853.8" filterUnits="userSpaceOnUse" color-interpolation-filters="sRGB">
<feFlood flood-opacity="0" result="BackgroundImageFix"/>
<feBlend mode="normal" in="SourceGraphic" in2="BackgroundImageFix" result="shape"/>
<feGaussianBlur stdDeviation="292.45" result="effect1_foregroundBlur_743_3930"/>
</filter>
<filter id="filter4_f_743_3930" x="538.1" y="2795.1" width="1853.8" height="1853.8" filterUnits="userSpaceOnUse" color-interpolation-filters="sRGB">
<feFlood flood-opacity="0" result="BackgroundImageFix"/>
<feBlend mode="normal" in="SourceGraphic" in2="BackgroundImageFix" result="shape"/>
<feGaussianBlur stdDeviation="292.45" result="effect1_foregroundBlur_743_3930"/>
</filter>
<filter id="filter5_f_743_3930" x="-584.9" y="3268.1" width="1853.8" height="1853.8" filterUnits="userSpaceOnUse" color-interpolation-filters="sRGB">
<feFlood flood-opacity="0" result="BackgroundImageFix"/>
<feBlend mode="normal" in="SourceGraphic" in2="BackgroundImageFix" result="shape"/>
<feGaussianBlur stdDeviation="292.45" result="effect1_foregroundBlur_743_3930"/>
</filter>
<filter id="filter6_f_743_3930" x="-491.9" y="2119.1" width="1712.8" height="1712.8" filterUnits="userSpaceOnUse" color-interpolation-filters="sRGB">
<feFlood flood-opacity="0" result="BackgroundImageFix"/>
<feBlend mode="normal" in="SourceGraphic" in2="BackgroundImageFix" result="shape"/>
<feGaussianBlur stdDeviation="292.45" result="effect1_foregroundBlur_743_3930"/>
</filter>
</defs>
</svg>
