<svg width="40" height="40" viewBox="0 0 40 40" fill="none" xmlns="http://www.w3.org/2000/svg">
<g style="mix-blend-mode:luminosity">
<path d="M19.2845 21.3578C19.5468 21.2266 19.678 21.161 19.8156 21.1352C19.9375 21.1123 20.0625 21.1123 20.1844 21.1352C20.322 21.161 20.4532 21.2266 20.7155 21.3578L31.1378 26.5689C32.059 27.0295 32.5197 27.2598 32.6675 27.5715C32.7961 27.8427 32.7961 28.1573 32.6675 28.4285C32.5197 28.7402 32.059 28.9705 31.1378 29.4311L20.7155 34.6422C20.4532 34.7734 20.322 34.839 20.1844 34.8648C20.0625 34.8877 19.9375 34.8877 19.8156 34.8648C19.678 34.839 19.5468 34.7734 19.2845 34.6422L8.86217 29.4311C7.94095 28.9705 7.48035 28.7402 7.33254 28.4285C7.20391 28.1573 7.20391 27.8427 7.33254 27.5715C7.48035 27.2598 7.94095 27.0295 8.86217 26.5689L19.2845 21.3578Z" fill="url(#paint0_linear_643_3042)"/>
<path d="M19.3292 21.4472C19.5967 21.3134 19.7134 21.2561 19.834 21.2335C19.9437 21.2129 20.0563 21.2129 20.166 21.2335C20.2866 21.2561 20.4033 21.3134 20.6708 21.4472L31.0931 26.6584C31.5555 26.8896 31.896 27.0599 32.14 27.2111C32.3853 27.363 32.5161 27.4858 32.5771 27.6143C32.6929 27.8584 32.6929 28.1416 32.5771 28.3857C32.5161 28.5142 32.3853 28.637 32.14 28.7889C31.896 28.9401 31.5555 29.1104 31.0931 29.3416L20.6708 34.5528C20.4033 34.6866 20.2866 34.7439 20.166 34.7665C20.0563 34.7871 19.9437 34.7871 19.834 34.7665C19.7134 34.7439 19.5967 34.6866 19.3292 34.5528L8.90689 29.3416C8.4445 29.1104 8.10396 28.9401 7.85999 28.7889C7.61472 28.637 7.48385 28.5142 7.42289 28.3857C7.30713 28.1416 7.30713 27.8584 7.42289 27.6143C7.48385 27.4858 7.61472 27.363 7.85999 27.2111C8.10396 27.0599 8.4445 26.8896 8.90689 26.6584L19.3292 21.4472Z" stroke="url(#paint1_linear_643_3042)" stroke-opacity="0.4" stroke-width="0.2"/>
<g filter="url(#filter0_b_643_3042)">
<path d="M19.2845 13.3578C19.5468 13.2266 19.678 13.161 19.8156 13.1352C19.9375 13.1123 20.0625 13.1123 20.1844 13.1352C20.322 13.161 20.4532 13.2266 20.7155 13.3578L31.1378 18.5689C32.059 19.0295 32.5197 19.2598 32.6675 19.5715C32.7961 19.8427 32.7961 20.1573 32.6675 20.4285C32.5197 20.7402 32.059 20.9705 31.1378 21.4311L20.7155 26.6422C20.4532 26.7734 20.322 26.839 20.1844 26.8648C20.0625 26.8877 19.9375 26.8877 19.8156 26.8648C19.678 26.839 19.5468 26.7734 19.2845 26.6422L8.86217 21.4311C7.94095 20.9705 7.48035 20.7402 7.33254 20.4285C7.20391 20.1573 7.20391 19.8427 7.33254 19.5715C7.48035 19.2598 7.94095 19.0295 8.86217 18.5689L19.2845 13.3578Z" fill="url(#paint2_linear_643_3042)" fill-opacity="0.4"/>
<path d="M19.3292 13.4472C19.5967 13.3134 19.7134 13.2561 19.834 13.2335C19.9437 13.2129 20.0563 13.2129 20.166 13.2335C20.2866 13.2561 20.4033 13.3134 20.6708 13.4472L31.0931 18.6584C31.5555 18.8896 31.896 19.0599 32.14 19.2111C32.3853 19.363 32.5161 19.4858 32.5771 19.6143C32.6929 19.8584 32.6929 20.1416 32.5771 20.3857C32.5161 20.5142 32.3853 20.637 32.14 20.7889C31.896 20.9401 31.5555 21.1104 31.0931 21.3416L20.6708 26.5528C20.4033 26.6866 20.2866 26.7439 20.166 26.7665C20.0563 26.7871 19.9437 26.7871 19.834 26.7665C19.7134 26.7439 19.5967 26.6866 19.3292 26.5528L8.90689 21.3416C8.4445 21.1104 8.10396 20.9401 7.85999 20.7889C7.61472 20.637 7.48385 20.5142 7.42289 20.3857C7.30713 20.1416 7.30713 19.8584 7.42289 19.6143C7.48385 19.4858 7.61472 19.363 7.85999 19.2111C8.10396 19.0599 8.4445 18.8896 8.90689 18.6584L19.3292 13.4472Z" stroke="url(#paint3_linear_643_3042)" stroke-opacity="0.4" stroke-width="0.2"/>
</g>
<g filter="url(#filter1_b_643_3042)">
<path d="M19.2845 5.35777C19.5468 5.22659 19.678 5.161 19.8156 5.13518C19.9375 5.11232 20.0625 5.11232 20.1844 5.13518C20.322 5.161 20.4532 5.22659 20.7155 5.35777L31.1378 10.5689C32.059 11.0295 32.5197 11.2598 32.6675 11.5715C32.7961 11.8427 32.7961 12.1573 32.6675 12.4285C32.5197 12.7402 32.059 12.9705 31.1378 13.4311L20.7155 18.6422C20.4532 18.7734 20.322 18.839 20.1844 18.8648C20.0625 18.8877 19.9375 18.8877 19.8156 18.8648C19.678 18.839 19.5468 18.7734 19.2845 18.6422L8.86217 13.4311C7.94095 12.9705 7.48035 12.7402 7.33254 12.4285C7.20391 12.1573 7.20391 11.8427 7.33254 11.5715C7.48035 11.2598 7.94095 11.0295 8.86217 10.5689L19.2845 5.35777Z" fill="url(#paint4_linear_643_3042)" fill-opacity="0.4"/>
<path d="M19.3292 5.44721C19.5967 5.31344 19.7134 5.25609 19.834 5.23347C19.9437 5.21289 20.0563 5.21289 20.166 5.23347C20.2866 5.25609 20.4033 5.31344 20.6708 5.44721L31.0931 10.6584C31.5555 10.8896 31.896 11.0599 32.14 11.2111C32.3853 11.363 32.5161 11.4858 32.5771 11.6143C32.6929 11.8584 32.6929 12.1416 32.5771 12.3857C32.5161 12.5142 32.3853 12.637 32.14 12.7889C31.896 12.9401 31.5555 13.1104 31.0931 13.3416L20.6708 18.5528C20.4033 18.6866 20.2866 18.7439 20.166 18.7665C20.0563 18.7871 19.9437 18.7871 19.834 18.7665C19.7134 18.7439 19.5967 18.6866 19.3292 18.5528L8.90689 13.3416C8.4445 13.1104 8.10396 12.9401 7.85999 12.7889C7.61472 12.637 7.48385 12.5142 7.42289 12.3857C7.30713 12.1416 7.30713 11.8584 7.42289 11.6143C7.48385 11.4858 7.61472 11.363 7.85999 11.2111C8.10396 11.0599 8.4445 10.8896 8.90689 10.6584L19.3292 5.44721Z" stroke="url(#paint5_linear_643_3042)" stroke-opacity="0.4" stroke-width="0.2"/>
</g>
</g>
<defs>
<filter id="filter0_b_643_3042" x="6.73633" y="12.6172" width="26.5273" height="14.7656" filterUnits="userSpaceOnUse" color-interpolation-filters="sRGB">
<feFlood flood-opacity="0" result="BackgroundImageFix"/>
<feGaussianBlur in="BackgroundImageFix" stdDeviation="0.25"/>
<feComposite in2="SourceAlpha" operator="in" result="effect1_backgroundBlur_643_3042"/>
<feBlend mode="normal" in="SourceGraphic" in2="effect1_backgroundBlur_643_3042" result="shape"/>
</filter>
<filter id="filter1_b_643_3042" x="6.73633" y="4.61719" width="26.5273" height="14.7656" filterUnits="userSpaceOnUse" color-interpolation-filters="sRGB">
<feFlood flood-opacity="0" result="BackgroundImageFix"/>
<feGaussianBlur in="BackgroundImageFix" stdDeviation="0.25"/>
<feComposite in2="SourceAlpha" operator="in" result="effect1_backgroundBlur_643_3042"/>
<feBlend mode="normal" in="SourceGraphic" in2="effect1_backgroundBlur_643_3042" result="shape"/>
</filter>
<linearGradient id="paint0_linear_643_3042" x1="20" y1="21" x2="20" y2="35" gradientUnits="userSpaceOnUse">
<stop offset="0.474" stop-color="#E88218"/>
<stop offset="0.804" stop-color="#F0C24B"/>
</linearGradient>
<linearGradient id="paint1_linear_643_3042" x1="20" y1="21" x2="20" y2="35" gradientUnits="userSpaceOnUse">
<stop offset="0.4" stop-color="#C9AB0E"/>
<stop offset="1" stop-color="white"/>
</linearGradient>
<linearGradient id="paint2_linear_643_3042" x1="20" y1="13" x2="20" y2="27" gradientUnits="userSpaceOnUse">
<stop offset="0.474" stop-color="#E88218"/>
<stop offset="0.804" stop-color="#F0C24B"/>
</linearGradient>
<linearGradient id="paint3_linear_643_3042" x1="20" y1="13" x2="20" y2="27" gradientUnits="userSpaceOnUse">
<stop offset="0.4" stop-color="#C9AB0E"/>
<stop offset="1" stop-color="white"/>
</linearGradient>
<linearGradient id="paint4_linear_643_3042" x1="20" y1="5" x2="20" y2="19" gradientUnits="userSpaceOnUse">
<stop offset="0.474" stop-color="#E88218"/>
<stop offset="0.804" stop-color="#F0C24B"/>
</linearGradient>
<linearGradient id="paint5_linear_643_3042" x1="20" y1="5" x2="20" y2="19" gradientUnits="userSpaceOnUse">
<stop offset="0.4" stop-color="#C9AB0E"/>
<stop offset="1" stop-color="white"/>
</linearGradient>
</defs>
</svg>
