<svg width="40" height="40" viewBox="0 0 40 40" fill="none" xmlns="http://www.w3.org/2000/svg">
<path d="M19.2845 19.3578C19.5468 19.2266 19.678 19.161 19.8156 19.1352C19.9375 19.1123 20.0625 19.1123 20.1844 19.1352C20.322 19.161 20.4532 19.2266 20.7155 19.3578L31.1378 24.5689C32.059 25.0295 32.5197 25.2598 32.6675 25.5715C32.7961 25.8427 32.7961 26.1573 32.6675 26.4285C32.5197 26.7402 32.059 26.9705 31.1378 27.4311L20.7155 32.6422C20.4532 32.7734 20.322 32.839 20.1844 32.8648C20.0625 32.8877 19.9375 32.8877 19.8156 32.8648C19.678 32.839 19.5468 32.7734 19.2845 32.6422L8.86217 27.4311C7.94095 26.9705 7.48035 26.7402 7.33254 26.4285C7.20391 26.1573 7.20391 25.8427 7.33254 25.5715C7.48035 25.2598 7.94095 25.0295 8.86217 24.5689L19.2845 19.3578Z" fill="url(#paint0_linear_643_3038)"/>
<path d="M19.3292 19.4472C19.5967 19.3134 19.7134 19.2561 19.834 19.2335C19.9437 19.2129 20.0563 19.2129 20.166 19.2335C20.2866 19.2561 20.4033 19.3134 20.6708 19.4472L31.0931 24.6584C31.5555 24.8896 31.896 25.0599 32.14 25.2111C32.3853 25.363 32.5161 25.4858 32.5771 25.6143C32.6929 25.8584 32.6929 26.1416 32.5771 26.3857C32.5161 26.5142 32.3853 26.637 32.14 26.7889C31.896 26.9401 31.5555 27.1104 31.0931 27.3416L20.6708 32.5528C20.4033 32.6866 20.2866 32.7439 20.166 32.7665C20.0563 32.7871 19.9437 32.7871 19.834 32.7665C19.7134 32.7439 19.5967 32.6866 19.3292 32.5528L8.90689 27.3416C8.4445 27.1104 8.10396 26.9401 7.85999 26.7889C7.61472 26.637 7.48385 26.5142 7.42289 26.3857C7.30713 26.1416 7.30713 25.8584 7.42289 25.6143C7.48385 25.4858 7.61472 25.363 7.85999 25.2111C8.10396 25.0599 8.4445 24.8896 8.90689 24.6584L19.3292 19.4472Z" stroke="url(#paint1_linear_643_3038)" stroke-opacity="0.4" stroke-width="0.2"/>
<g filter="url(#filter0_b_643_3038)">
<path d="M19.2845 13.3578C19.5468 13.2266 19.678 13.161 19.8156 13.1352C19.9375 13.1123 20.0625 13.1123 20.1844 13.1352C20.322 13.161 20.4532 13.2266 20.7155 13.3578L31.1378 18.5689C32.059 19.0295 32.5197 19.2598 32.6675 19.5715C32.7961 19.8427 32.7961 20.1573 32.6675 20.4285C32.5197 20.7402 32.059 20.9705 31.1378 21.4311L20.7155 26.6422C20.4532 26.7734 20.322 26.839 20.1844 26.8648C20.0625 26.8877 19.9375 26.8877 19.8156 26.8648C19.678 26.839 19.5468 26.7734 19.2845 26.6422L8.86217 21.4311C7.94095 20.9705 7.48035 20.7402 7.33254 20.4285C7.20391 20.1573 7.20391 19.8427 7.33254 19.5715C7.48035 19.2598 7.94095 19.0295 8.86217 18.5689L19.2845 13.3578Z" fill="url(#paint2_linear_643_3038)" fill-opacity="0.4"/>
<path d="M19.3292 13.4472C19.5967 13.3134 19.7134 13.2561 19.834 13.2335C19.9437 13.2129 20.0563 13.2129 20.166 13.2335C20.2866 13.2561 20.4033 13.3134 20.6708 13.4472L31.0931 18.6584C31.5555 18.8896 31.896 19.0599 32.14 19.2111C32.3853 19.363 32.5161 19.4858 32.5771 19.6143C32.6929 19.8584 32.6929 20.1416 32.5771 20.3857C32.5161 20.5142 32.3853 20.637 32.14 20.7889C31.896 20.9401 31.5555 21.1104 31.0931 21.3416L20.6708 26.5528C20.4033 26.6866 20.2866 26.7439 20.166 26.7665C20.0563 26.7871 19.9437 26.7871 19.834 26.7665C19.7134 26.7439 19.5967 26.6866 19.3292 26.5528L8.90689 21.3416C8.4445 21.1104 8.10396 20.9401 7.85999 20.7889C7.61472 20.637 7.48385 20.5142 7.42289 20.3857C7.30713 20.1416 7.30713 19.8584 7.42289 19.6143C7.48385 19.4858 7.61472 19.363 7.85999 19.2111C8.10396 19.0599 8.4445 18.8896 8.90689 18.6584L19.3292 13.4472Z" stroke="url(#paint3_linear_643_3038)" stroke-opacity="0.4" stroke-width="0.2"/>
</g>
<g filter="url(#filter1_b_643_3038)">
<path d="M19.2845 7.35777C19.5468 7.22659 19.678 7.161 19.8156 7.13518C19.9375 7.11232 20.0625 7.11232 20.1844 7.13518C20.322 7.161 20.4532 7.22659 20.7155 7.35777L31.1378 12.5689C32.059 13.0295 32.5197 13.2598 32.6675 13.5715C32.7961 13.8427 32.7961 14.1573 32.6675 14.4285C32.5197 14.7402 32.059 14.9705 31.1378 15.4311L20.7155 20.6422C20.4532 20.7734 20.322 20.839 20.1844 20.8648C20.0625 20.8877 19.9375 20.8877 19.8156 20.8648C19.678 20.839 19.5468 20.7734 19.2845 20.6422L8.86217 15.4311C7.94095 14.9705 7.48035 14.7402 7.33254 14.4285C7.20391 14.1573 7.20391 13.8427 7.33254 13.5715C7.48035 13.2598 7.94095 13.0295 8.86217 12.5689L19.2845 7.35777Z" fill="url(#paint4_linear_643_3038)" fill-opacity="0.4"/>
<path d="M19.3292 7.44721C19.5967 7.31344 19.7134 7.25609 19.834 7.23347C19.9437 7.21289 20.0563 7.21289 20.166 7.23347C20.2866 7.25609 20.4033 7.31344 20.6708 7.44721L31.0931 12.6584C31.5555 12.8896 31.896 13.0599 32.14 13.2111C32.3853 13.363 32.5161 13.4858 32.5771 13.6143C32.6929 13.8584 32.6929 14.1416 32.5771 14.3857C32.5161 14.5142 32.3853 14.637 32.14 14.7889C31.896 14.9401 31.5555 15.1104 31.0931 15.3416L20.6708 20.5528C20.4033 20.6866 20.2866 20.7439 20.166 20.7665C20.0563 20.7871 19.9437 20.7871 19.834 20.7665C19.7134 20.7439 19.5967 20.6866 19.3292 20.5528L8.90689 15.3416C8.4445 15.1104 8.10396 14.9401 7.85999 14.7889C7.61472 14.637 7.48385 14.5142 7.42289 14.3857C7.30713 14.1416 7.30713 13.8584 7.42289 13.6143C7.48385 13.4858 7.61472 13.363 7.85999 13.2111C8.10396 13.0599 8.4445 12.8896 8.90689 12.6584L19.3292 7.44721Z" stroke="url(#paint5_linear_643_3038)" stroke-opacity="0.4" stroke-width="0.2"/>
</g>
<defs>
<filter id="filter0_b_643_3038" x="6.73633" y="12.6172" width="26.5273" height="14.7656" filterUnits="userSpaceOnUse" color-interpolation-filters="sRGB">
<feFlood flood-opacity="0" result="BackgroundImageFix"/>
<feGaussianBlur in="BackgroundImageFix" stdDeviation="0.25"/>
<feComposite in2="SourceAlpha" operator="in" result="effect1_backgroundBlur_643_3038"/>
<feBlend mode="normal" in="SourceGraphic" in2="effect1_backgroundBlur_643_3038" result="shape"/>
</filter>
<filter id="filter1_b_643_3038" x="6.73633" y="6.61719" width="26.5273" height="14.7656" filterUnits="userSpaceOnUse" color-interpolation-filters="sRGB">
<feFlood flood-opacity="0" result="BackgroundImageFix"/>
<feGaussianBlur in="BackgroundImageFix" stdDeviation="0.25"/>
<feComposite in2="SourceAlpha" operator="in" result="effect1_backgroundBlur_643_3038"/>
<feBlend mode="normal" in="SourceGraphic" in2="effect1_backgroundBlur_643_3038" result="shape"/>
</filter>
<linearGradient id="paint0_linear_643_3038" x1="20" y1="19" x2="20" y2="33" gradientUnits="userSpaceOnUse">
<stop offset="0.474" stop-color="#E88218"/>
<stop offset="0.804" stop-color="#F0C24B"/>
</linearGradient>
<linearGradient id="paint1_linear_643_3038" x1="20" y1="19" x2="20" y2="33" gradientUnits="userSpaceOnUse">
<stop offset="0.4" stop-color="#C9AB0E"/>
<stop offset="1" stop-color="white"/>
</linearGradient>
<linearGradient id="paint2_linear_643_3038" x1="20" y1="13" x2="20" y2="27" gradientUnits="userSpaceOnUse">
<stop offset="0.474" stop-color="#E88218"/>
<stop offset="0.804" stop-color="#F0C24B"/>
</linearGradient>
<linearGradient id="paint3_linear_643_3038" x1="20" y1="13" x2="20" y2="27" gradientUnits="userSpaceOnUse">
<stop offset="0.4" stop-color="#C9AB0E"/>
<stop offset="1" stop-color="white"/>
</linearGradient>
<linearGradient id="paint4_linear_643_3038" x1="20" y1="7" x2="20" y2="21" gradientUnits="userSpaceOnUse">
<stop offset="0.474" stop-color="#E88218"/>
<stop offset="0.804" stop-color="#F0C24B"/>
</linearGradient>
<linearGradient id="paint5_linear_643_3038" x1="20" y1="7" x2="20" y2="21" gradientUnits="userSpaceOnUse">
<stop offset="0.4" stop-color="#C9AB0E"/>
<stop offset="1" stop-color="white"/>
</linearGradient>
</defs>
</svg>
