<svg width="40" height="40" viewBox="0 0 40 40" fill="none" xmlns="http://www.w3.org/2000/svg">
<g style="mix-blend-mode:luminosity">
<mask id="path-1-inside-1_671_2973" fill="white">
<path d="M14.9091 33C-nan -nan -nan -nan -nan -nanC-nan -nan -nan -nan 14.9091 33C14.9091 33 12 33 12 30V9C-nan -nan -nan -nan -nan -nanC-nan -nan -nan -nan 12 9C12 9 12 6 14.9091 6H25.0909C-nan -nan -nan -nan -nan -nanC-nan -nan -nan -nan 25.0909 6C25.0909 6 28 6 28 9V30C28 35.3333 28 38 28 30C28 38.9561 28 24.0293 28 30C28 30 28 33 25.0909 33H14.9091Z"/>
</mask>
<path d="M14.9091 33C-nan -nan -nan -nan -nan -nanC-nan -nan -nan -nan 14.9091 33C14.9091 33 12 33 12 30V9C-nan -nan -nan -nan -nan -nanC-nan -nan -nan -nan 12 9C12 9 12 6 14.9091 6H25.0909C-nan -nan -nan -nan -nan -nanC-nan -nan -nan -nan 25.0909 6C25.0909 6 28 6 28 9V30C28 35.3333 28 38 28 30C28 38.9561 28 24.0293 28 30C28 30 28 33 25.0909 33H14.9091Z" fill="url(#paint0_linear_671_2973)" fill-opacity="0.4"/>
<path d="M28 30H28.2H28ZM14.9091 33C14.9091 32.8 14.9092 32.8 14.9093 32.8C14.9093 32.8 14.9093 32.8 14.9094 32.8C14.9094 32.8 14.9094 32.8 14.9094 32.8C14.9093 32.8 14.909 32.8 14.9086 32.8C14.9078 32.8 14.9063 32.8 14.9041 32.7999C14.8997 32.7999 14.8927 32.7997 14.8833 32.7994C14.8644 32.7987 14.8358 32.7974 14.7988 32.7947C14.7247 32.7892 14.6176 32.7782 14.4884 32.756C14.2292 32.7115 13.8866 32.6227 13.5462 32.4472C13.2068 32.2722 12.8725 32.0125 12.6225 31.6258C12.3731 31.2401 12.2 30.7162 12.2 30H11.8C11.8 30.7838 11.9905 31.3849 12.2866 31.843C12.5821 32.3 12.9751 32.6028 13.3629 32.8028C13.7498 33.0023 14.1344 33.101 14.4207 33.1502C14.5643 33.1749 14.6844 33.1873 14.7694 33.1936C14.8119 33.1967 14.8458 33.1983 14.8695 33.1992C14.8814 33.1996 14.8908 33.1998 14.8974 33.1999C14.9007 33.1999 14.9034 33.2 14.9053 33.2C14.9063 33.2 14.9071 33.2 14.9077 33.2C14.9081 33.2 14.9083 33.2 14.9086 33.2C14.9087 33.2 14.9088 33.2 14.9089 33.2C14.909 33.2 14.9091 33.2 14.9091 33ZM12.2 30V9H11.8V30H12.2ZM12 9C12.2 9 12.2 9.00008 12.2 9.00016C12.2 9.00016 12.2 9.00023 12.2 9.00024C12.2 9.00028 12.2 9.00027 12.2 9.00022C12.2 9.00011 12.2 8.99983 12.2 8.99936C12.2 8.99844 12.2 8.99682 12.2001 8.99452C12.2001 8.98992 12.2003 8.98261 12.2006 8.97277C12.2012 8.95308 12.2025 8.92332 12.2052 8.88491C12.2105 8.80804 12.2213 8.69696 12.2429 8.56316C12.2863 8.29459 12.3727 7.93967 12.5436 7.58725C12.7142 7.23549 12.9665 6.8907 13.3406 6.63356C13.713 6.37749 14.2181 6.2 14.9091 6.2V5.8C14.1455 5.8 13.5597 5.99751 13.114 6.30394C12.6698 6.6093 12.3768 7.01451 12.1837 7.41275C11.9909 7.81033 11.8955 8.20541 11.848 8.49934C11.8242 8.64679 11.8122 8.77009 11.8062 8.85727C11.8031 8.9009 11.8016 8.93559 11.8008 8.95985C11.8004 8.97198 11.8002 8.98151 11.8001 8.98827C11.8001 8.99164 11.8 8.99432 11.8 8.99629C11.8 8.99727 11.8 8.99807 11.8 8.99869C11.8 8.999 11.8 8.99926 11.8 8.99948C11.8 8.99959 11.8 8.99972 11.8 8.99978C11.8 8.99989 11.8 9 12 9ZM14.9091 6.2H25.0909V5.8H14.9091V6.2ZM25.0909 6C25.0909 6.2 25.0908 6.2 25.0907 6.2C25.0907 6.2 25.0907 6.2 25.0906 6.2C25.0906 6.2 25.0906 6.2 25.0906 6.2C25.0907 6.2 25.091 6.2 25.0914 6.2C25.0922 6.20001 25.0937 6.20003 25.0959 6.20006C25.1003 6.20014 25.1073 6.20029 25.1167 6.20061C25.1356 6.20126 25.1642 6.20259 25.2012 6.20532C25.2753 6.21077 25.3824 6.22179 25.5116 6.24398C25.7708 6.28853 26.1134 6.37727 26.4538 6.55276C26.7932 6.72779 27.1275 6.98751 27.3775 7.3742C27.6269 7.75995 27.8 8.28376 27.8 9H28.2C28.2 8.21624 28.0095 7.61505 27.7134 7.15705C27.4179 6.69999 27.0249 6.39721 26.6371 6.19724C26.2502 5.99773 25.8656 5.89897 25.5793 5.84977C25.4357 5.82509 25.3156 5.81266 25.2306 5.8064C25.1881 5.80327 25.1542 5.80167 25.1305 5.80085C25.1186 5.80044 25.1092 5.80023 25.1026 5.80012C25.0993 5.80006 25.0966 5.80003 25.0947 5.80002C25.0937 5.80001 25.0929 5.80001 25.0923 5.8C25.0919 5.8 25.0917 5.8 25.0914 5.8C25.0913 5.8 25.0912 5.8 25.0911 5.8C25.091 5.8 25.0909 5.8 25.0909 6ZM27.8 9V30H28.2V9H27.8ZM27.8 30C27.8 29.9902 27.8002 30.7038 27.4564 31.4127C27.2858 31.7645 27.0334 32.1093 26.6594 32.3664C26.287 32.6225 25.7819 32.8 25.0909 32.8V33.2C25.8545 33.2 26.4403 33.0025 26.886 32.6961C27.3302 32.3907 27.6232 31.9855 27.8163 31.5873C28.1998 30.7962 28.2 30.0098 28.2 30H27.8ZM25.0909 32.8H14.9091V33.2H25.0909V32.8ZM27.8 30C27.8 30.0104 27.8 30.0208 27.8 30.0312C27.8 30.0416 27.8 30.052 27.8 30.0624C27.8 30.0728 27.8 30.0831 27.8 30.0935C27.8 30.1038 27.8 30.1142 27.8 30.1245C27.8 30.1348 27.8 30.1452 27.8 30.1555C27.8 30.1658 27.8 30.1761 27.8 30.1864C27.8 30.1967 27.8 30.207 27.8 30.2172C27.8 30.2275 27.8 30.2378 27.8 30.248C27.8 30.2583 27.8 30.2685 27.8 30.2787C27.8 30.289 27.8 30.2992 27.8 30.3094C27.8 30.3196 27.8 30.3298 27.8 30.34C27.8 30.3502 27.8 30.3603 27.8 30.3705C27.8 30.3807 27.8 30.3908 27.8 30.401C27.8 30.4111 27.8 30.4212 27.8 30.4314C27.8 30.4415 27.8 30.4516 27.8 30.4617C27.8 30.4718 27.8 30.4819 27.8 30.4919C27.8 30.502 27.8 30.5121 27.8 30.5221C27.8 30.5322 27.8 30.5422 27.8 30.5523C27.8 30.5623 27.8 30.5723 27.8 30.5823C27.8 30.5923 27.8 30.6023 27.8 30.6123C27.8 30.6223 27.8 30.6323 27.8 30.6422C27.8 30.6522 27.8 30.6622 27.8 30.6721C27.8 30.682 27.8 30.692 27.8 30.7019C27.8 30.7118 27.8 30.7217 27.8 30.7316C27.8 30.7415 27.8 30.7514 27.8 30.7612C27.8 30.7711 27.8 30.781 27.8 30.7908C27.8 30.8007 27.8 30.8105 27.8 30.8203C27.8 30.8302 27.8 30.84 27.8 30.8498C27.8 30.8596 27.8 30.8694 27.8 30.8791C27.8 30.8889 27.8 30.8987 27.8 30.9084C27.8 30.9182 27.8 30.9279 27.8 30.9376C27.8 30.9474 27.8 30.9571 27.8 30.9668C27.8 30.9765 27.8 30.9862 27.8 30.9959C27.8 31.0056 27.8 31.0152 27.8 31.0249C27.8 31.0345 27.8 31.0442 27.8 31.0538C27.8 31.0634 27.8 31.0731 27.8 31.0827C27.8 31.0923 27.8 31.1019 27.8 31.1115C27.8 31.121 27.8 31.1306 27.8 31.1402C27.8 31.1497 27.8 31.1593 27.8 31.1688C27.8 31.1783 27.8 31.1878 27.8 31.1974C27.8 31.2069 27.8 31.2164 27.8 31.2258C27.8 31.2353 27.8 31.2448 27.8 31.2543C27.8 31.2637 27.8 31.2732 27.8 31.2826C27.8 31.292 27.8 31.3014 27.8 31.3108C27.8 31.3202 27.8 31.3296 27.8 31.339C27.8 31.3484 27.8 31.3578 27.8 31.3671C27.8 31.3765 27.8 31.3858 27.8 31.3951C27.8 31.4045 27.8 31.4138 27.8 31.4231C27.8 31.4324 27.8 31.4417 27.8 31.451C27.8 31.4602 27.8 31.4695 27.8 31.4788C27.8 31.488 27.8 31.4972 27.8 31.5065C27.8 31.5157 27.8 31.5249 27.8 31.5341C27.8 31.5433 27.8 31.5525 27.8 31.5617C27.8 31.5708 27.8 31.58 27.8 31.5891C27.8 31.5983 27.8 31.6074 27.8 31.6165C27.8 31.6256 27.8 31.6347 27.8 31.6438C27.8 31.6529 27.8 31.662 27.8 31.6711C27.8 31.6801 27.8 31.6892 27.8 31.6982C27.8 31.7072 27.8 31.7163 27.8 31.7253C27.8 31.7343 27.8 31.7433 27.8 31.7523C27.8 31.7612 27.8 31.7702 27.8 31.7792C27.8 31.7881 27.8 31.7971 27.8 31.806C27.8 31.8149 27.8 31.8238 27.8 31.8327C27.8 31.8416 27.8 31.8505 27.8 31.8594C27.8 31.8682 27.8 31.8771 27.8 31.8859C27.8 31.8948 27.8 31.9036 27.8 31.9124C27.8 31.9212 27.8 31.93 27.8 31.9388C27.8 31.9476 27.8 31.9564 27.8 31.9651C27.8 31.9739 27.8 31.9826 27.8 31.9914C27.8 32.0001 27.8 32.0088 27.8 32.0175C27.8 32.0262 27.8 32.0349 27.8 32.0436C27.8 32.0522 27.8 32.0609 27.8 32.0695C27.8 32.0782 27.8 32.0868 27.8 32.0954C27.8 32.104 27.8 32.1126 27.8 32.1212C27.8 32.1298 27.8 32.1384 27.8 32.1469C27.8 32.1555 27.8 32.164 27.8 32.1726C27.8 32.1811 27.8 32.1896 27.8 32.1981C27.8 32.2066 27.8 32.2151 27.8 32.2235C27.8 32.232 27.8 32.2405 27.8 32.2489C27.8 32.2573 27.8 32.2658 27.8 32.2742C27.8 32.2826 27.8 32.291 27.8 32.2993C27.8 32.3077 27.8 32.3161 27.8 32.3244C27.8 32.3328 27.8 32.3411 27.8 32.3494C27.8 32.3577 27.8 32.3661 27.8 32.3743C27.8 32.3826 27.8 32.3909 27.8 32.3992C27.8 32.4074 27.8 32.4157 27.8 32.4239C27.8 32.4321 27.8 32.4403 27.8 32.4485C27.8 32.4567 27.8 32.4649 27.8 32.4731C27.8 32.4812 27.8 32.4894 27.8 32.4975C27.8 32.5056 27.8 32.5138 27.8 32.5219C27.8 32.53 27.8 32.538 27.8 32.5461C27.8 32.5542 27.8 32.5622 27.8 32.5703C27.8 32.5783 27.8 32.5864 27.8 32.5944C27.8 32.6024 27.8 32.6104 27.8 32.6183C27.8 32.6263 27.8 32.6343 27.8 32.6422C27.8 32.6502 27.8 32.6581 27.8 32.666C27.8 32.6739 27.8 32.6818 27.8 32.6897C27.8 32.6976 27.8 32.7055 27.8 32.7133C27.8 32.7212 27.8 32.729 27.8 32.7368C27.8 32.7446 27.8 32.7524 27.8 32.7602C27.8 32.768 27.8 32.7758 27.8 32.7835C27.8 32.7913 27.8 32.799 27.8 32.8067C27.8 32.8145 27.8 32.8222 27.8 32.8299C27.8 32.8375 27.8 32.8452 27.8 32.8529C27.8 32.8605 27.8 32.8682 27.8 32.8758C27.8 32.8834 27.8 32.891 27.8 32.8986C27.8 32.9062 27.8 32.9138 27.8 32.9213C27.8 32.9289 27.8 32.9364 27.8 32.944C27.8 32.9515 27.8 32.959 27.8 32.9665C27.8 32.974 27.8 32.9814 27.8 32.9889C27.8 32.9964 27.8 33.0038 27.8 33.0112C27.8 33.0187 27.8 33.0261 27.8 33.0334C27.8 33.0408 27.8 33.0482 27.8 33.0556C27.8 33.0629 27.8 33.0703 27.8 33.0776C27.8 33.0849 27.8 33.0922 27.8 33.0995C27.8 33.1068 27.8 33.1141 27.8 33.1213C27.8 33.1286 27.8 33.1358 27.8 33.143C27.8 33.1503 27.8 33.1575 27.8 33.1646C27.8 33.1718 27.8 33.179 27.8 33.1861C27.8 33.1933 27.8 33.2004 27.8 33.2076C27.8 33.2147 27.8 33.2218 27.8 33.2288C27.8 33.2359 27.8 33.243 27.8 33.25C27.8 33.2571 27.8 33.2641 27.8 33.2711C27.8 33.2781 27.8 33.2851 27.8 33.2921C27.8 33.2991 27.8 33.3061 27.8 33.313C27.8 33.3199 27.8 33.3269 27.8 33.3338C27.8 33.3407 27.8 33.3476 27.8 33.3544C27.8 33.3613 27.8 33.3682 27.8 33.375C27.8 33.3818 27.8 33.3887 27.8 33.3955C27.8 33.4023 27.8 33.409 27.8 33.4158C27.8 33.4226 27.8 33.4293 27.8 33.436C27.8 33.4428 27.8 33.4495 27.8 33.4562C27.8 33.4629 27.8 33.4695 27.8 33.4762C27.8 33.4829 27.8 33.4895 27.8 33.4961C27.8 33.5027 27.8 33.5093 27.8 33.5159C27.8 33.5225 27.8 33.5291 27.8 33.5356C27.8 33.5422 27.8 33.5487 27.8 33.5552C27.8 33.5617 27.8 33.5682 27.8 33.5747C27.8 33.5812 27.8 33.5876 27.8 33.594C27.8 33.6005 27.8 33.6069 27.8 33.6133C27.8 33.6197 27.8 33.6261 27.8 33.6324C27.8 33.6388 27.8 33.6452 27.8 33.6515C27.8 33.6578 27.8 33.6641 27.8 33.6704C27.8 33.6767 27.8 33.683 27.8 33.6892C27.8 33.6955 27.8 33.7017 27.8 33.7079C27.8 33.7141 27.8 33.7203 27.8 33.7265C27.8 33.7327 27.8 33.7388 27.8 33.745C27.8 33.7511 27.8 33.7572 27.8 33.7633C27.8 33.7694 27.8 33.7755 27.8 33.7816C27.8 33.7876 27.8 33.7937 27.8 33.7997C27.8 33.8057 27.8 33.8117 27.8 33.8177C27.8 33.8237 27.8 33.8297 27.8 33.8356C27.8 33.8415 27.8 33.8475 27.8 33.8534C27.8 33.8593 27.8 33.8652 27.8 33.8711C27.8 33.8769 27.8 33.8828 27.8 33.8886C27.8 33.8944 27.8 33.9002 27.8 33.906C27.8 33.9118 27.8 33.9176 27.8 33.9234C27.8 33.9291 27.8 33.9348 27.8 33.9406C27.8 33.9463 27.8 33.952 27.8 33.9576C27.8 33.9633 27.8 33.969 27.8 33.9746C27.8 33.9802 27.8 33.9859 27.8 33.9915C27.8 33.9971 27.8 34.0026 27.8 34.0082C27.8 34.0137 27.8 34.0193 27.8 34.0248C27.8 34.0303 27.8 34.0358 27.8 34.0413C27.8 34.0468 27.8 34.0522 27.8 34.0577C27.8 34.0631 27.8 34.0685 27.8 34.0739C27.8 34.0793 27.8 34.0847 27.8 34.09C27.8 34.0954 27.8 34.1007 27.8 34.106C27.8 34.1114 27.8 34.1167 27.8 34.1219C27.8 34.1272 27.8 34.1325 27.8 34.1377C27.8 34.1429 27.8 34.1482 27.8 34.1533C27.8 34.1585 27.8 34.1637 27.8 34.1689C27.8 34.174 27.8 34.1792 27.8 34.1843C27.8 34.1894 27.8 34.1945 27.8 34.1996C27.8 34.2046 27.8 34.2097 27.8 34.2147C27.8 34.2197 27.8 34.2247 27.8 34.2297C27.8 34.2347 27.8 34.2397 27.8 34.2446C27.8 34.2496 27.8 34.2545 27.8 34.2594C27.8 34.2643 27.8 34.2692 27.8 34.2741C27.8 34.2789 27.8 34.2838 27.8 34.2886C27.8 34.2934 27.8 34.2982 27.8 34.303C27.8 34.3078 27.8 34.3126 27.8 34.3173C27.8 34.322 27.8 34.3268 27.8 34.3315C27.8 34.3362 27.8 34.3408 27.8 34.3455C27.8 34.3501 27.8 34.3548 27.8 34.3594C27.8 34.364 27.8 34.3686 27.8 34.3732C27.8 34.3777 27.8 34.3823 27.8 34.3868C27.8 34.3913 27.8 34.3958 27.8 34.4003C27.8 34.4048 27.8 34.4093 27.8 34.4137C27.8 34.4182 27.8 34.4226 27.8 34.427C27.8 34.4314 27.8 34.4358 27.8 34.4401C27.8 34.4445 27.8 34.4488 27.8 34.4531C27.8 34.4574 27.8 34.4617 27.8 34.466C27.8 34.4703 27.8 34.4745 27.8 34.4787C27.8 34.483 27.8 34.4872 27.8 34.4914C27.8 34.4955 27.8 34.4997 27.8 34.5038C27.8 34.508 27.8 34.5121 27.8 34.5162C27.8 34.5203 27.8 34.5244 27.8 34.5284C27.8 34.5325 27.8 34.5365 27.8 34.5405C27.8 34.5445 27.8 34.5485 27.8 34.5525C27.8 34.5564 27.8 34.5604 27.8 34.5643C27.8 34.5682 27.8 34.5721 27.8 34.576C27.8 34.5798 27.8 34.5837 27.8 34.5875C27.8 34.5914 27.8 34.5952 27.8 34.599C27.8 34.6027 27.8 34.6065 27.8 34.6102C27.8 34.614 27.8 34.6177 27.8 34.6214C27.8 34.6251 27.8 34.6288 27.8 34.6324C27.8 34.6361 27.8 34.6397 27.8 34.6433C27.8 34.6469 27.8 34.6505 27.8 34.6541C27.8 34.6576 27.8 34.6612 27.8 34.6647C27.8 34.6682 27.8 34.6717 27.8 34.6752C27.8 34.6786 27.8 34.6821 27.8 34.6855C27.8 34.6889 27.8 34.6923 27.8 34.6957C27.8 34.6991 27.8 34.7024 27.8 34.7058C27.8 34.7091 27.8 34.7124 27.8 34.7157C27.8 34.719 27.8 34.7223 27.8 34.7255C27.8 34.7287 27.8 34.732 27.8 34.7351C27.8 34.7383 27.8 34.7415 27.8 34.7447C27.8 34.7478 27.8 34.7509 27.8 34.754C27.8 34.7571 27.8 34.7602 27.8 34.7633C27.8 34.7663 27.8 34.7694 27.8 34.7724C27.8 34.7754 27.8 34.7784 27.8 34.7813C27.8 34.7843 27.8 34.7872 27.8 34.7902C27.8 34.7931 27.8 34.796 27.8 34.7988C27.8 34.8017 27.8 34.8045 27.8 34.8074C27.8 34.8102 27.8 34.813 27.8 34.8158C27.8 34.8185 27.8 34.8213 27.8 34.824C27.8 34.8267 27.8 34.8294 27.8 34.8321C27.8 34.8348 27.8 34.8375 27.8 34.8401C27.8 34.8427 27.8 34.8453 27.8 34.8479C27.8 34.8505 27.8 34.8531 27.8 34.8556C27.8 34.8581 27.8 34.8606 27.8 34.8631C27.8 34.8656 27.8 34.8681 27.8 34.8705C27.8 34.873 27.8 34.8754 27.8 34.8778C27.8 34.8802 27.8 34.8825 27.8 34.8849C27.8 34.8872 27.8 34.8895 27.8 34.8918C27.8 34.8941 27.8 34.8964 27.8 34.8986C27.8 34.9009 27.8 34.9031 27.8 34.9053C27.8 34.9075 27.8 34.9097 27.8 34.9118C27.8 34.914 27.8 34.9161 27.8 34.9182C27.8 34.9203 27.8 34.9224 27.8 34.9244C27.8 34.9265 27.8 34.9285 27.8 34.9305C27.8 34.9325 27.8 34.9345 27.8 34.9365C27.8 34.9384 27.8 34.9403 27.8 34.9422C27.8 34.9441 27.8 34.946 27.8 34.9479C27.8 34.9497 27.8 34.9516 27.8 34.9534C27.8 34.9552 27.8 34.957 27.8 34.9587C27.8 34.9605 27.8 34.9622 27.8 34.9639C27.8 34.9656 27.8 34.9673 27.8 34.9689C27.8 34.9706 27.8 34.9722 27.8 34.9738C27.8 34.9754 27.8 34.977 27.8 34.9786C27.8 34.9801 27.8 34.9817 27.8 34.9832C27.8 34.9847 27.8 34.9861 27.8 34.9876C27.8 34.989 27.8 34.9905 27.8 34.9919C27.8 34.9933 27.8 34.9947 27.8 34.996C27.8 34.9974 27.8 34.9987 27.8 35C27.8 35.0013 27.8 35.0026 27.8 35.0038C27.8 35.0051 27.8 35.0063 27.8 35.0075C27.8 35.0087 27.8 35.0099 27.8 35.011C27.8 35.0122 27.8 35.0133 27.8 35.0144C27.8 35.0155 27.8 35.0166 27.8 35.0176C27.8 35.0187 27.8 35.0197 27.8 35.0207C27.8 35.0217 27.8 35.0226 27.8 35.0236C27.8 35.0245 27.8 35.0254 27.8 35.0263C27.8 35.0272 27.8 35.0281 27.8 35.0289C27.8 35.0298 27.8 35.0306 27.8 35.0314C27.8 35.0322 27.8 35.0329 27.8 35.0337C27.8 35.0344 27.8 35.0351 27.8 35.0358C27.8 35.0365 27.8 35.0371 27.8 35.0378C27.8 35.0384 27.8 35.039 27.8 35.0396C27.8 35.0401 27.8 35.0407 27.8 35.0412C27.8 35.0418 27.8 35.0423 27.8 35.0427C27.8 35.0432 27.8 35.0436 27.8 35.0441C27.8 35.0445 27.8 35.0449 27.8 35.0452C27.8 35.0456 27.8 35.046 27.8 35.0463C27.8 35.0466 27.8 35.0469 27.8 35.0471C27.8 35.0474 27.8 35.0476 27.8 35.0478C27.8 35.048 27.8 35.0482 27.8 35.0484C27.8 35.0485 27.8 35.0487 27.8 35.0488C27.8 35.0489 27.8 35.0489 27.8 35.049C27.8 35.049 28 35.049 28.2 35.049C28.2 35.049 28.2 35.049 28.2 35.0489C28.2 35.0489 28.2 35.0488 28.2 35.0487C28.2 35.0486 28.2 35.0484 28.2 35.0483C28.2 35.0481 28.2 35.0479 28.2 35.0477C28.2 35.0474 28.2 35.0472 28.2 35.0469C28.2 35.0466 28.2 35.0463 28.2 35.046C28.2 35.0457 28.2 35.0453 28.2 35.0449C28.2 35.0445 28.2 35.0441 28.2 35.0437C28.2 35.0432 28.2 35.0428 28.2 35.0423C28.2 35.0418 28.2 35.0413 28.2 35.0407C28.2 35.0402 28.2 35.0396 28.2 35.039C28.2 35.0384 28.2 35.0377 28.2 35.0371C28.2 35.0364 28.2 35.0357 28.2 35.035C28.2 35.0343 28.2 35.0335 28.2 35.0328C28.2 35.032 28.2 35.0312 28.2 35.0304C28.2 35.0295 28.2 35.0287 28.2 35.0278C28.2 35.0269 28.2 35.026 28.2 35.0251C28.2 35.0241 28.2 35.0232 28.2 35.0222C28.2 35.0212 28.2 35.0201 28.2 35.0191C28.2 35.018 28.2 35.017 28.2 35.0159C28.2 35.0147 28.2 35.0136 28.2 35.0124C28.2 35.0113 28.2 35.0101 28.2 35.0089C28.2 35.0077 28.2 35.0064 28.2 35.0051C28.2 35.0039 28.2 35.0025 28.2 35.0012C28.2 34.9999 28.2 34.9985 28.2 34.9971C28.2 34.9957 28.2 34.9943 28.2 34.9929C28.2 34.9914 28.2 34.9899 28.2 34.9884C28.2 34.9869 28.2 34.9854 28.2 34.9838C28.2 34.9823 28.2 34.9807 28.2 34.9791C28.2 34.9775 28.2 34.9758 28.2 34.9741C28.2 34.9725 28.2 34.9708 28.2 34.969C28.2 34.9673 28.2 34.9655 28.2 34.9637C28.2 34.9619 28.2 34.9601 28.2 34.9583C28.2 34.9564 28.2 34.9546 28.2 34.9526C28.2 34.9507 28.2 34.9488 28.2 34.9468C28.2 34.9449 28.2 34.9429 28.2 34.9409C28.2 34.9388 28.2 34.9368 28.2 34.9347C28.2 34.9326 28.2 34.9305 28.2 34.9284C28.2 34.9262 28.2 34.9241 28.2 34.9219C28.2 34.9197 28.2 34.9175 28.2 34.9152C28.2 34.9129 28.2 34.9107 28.2 34.9083C28.2 34.906 28.2 34.9037 28.2 34.9013C28.2 34.8989 28.2 34.8965 28.2 34.8941C28.2 34.8917 28.2 34.8892 28.2 34.8867C28.2 34.8842 28.2 34.8817 28.2 34.8792C28.2 34.8766 28.2 34.874 28.2 34.8714C28.2 34.8688 28.2 34.8662 28.2 34.8635C28.2 34.8608 28.2 34.8581 28.2 34.8554C28.2 34.8527 28.2 34.8499 28.2 34.8471C28.2 34.8443 28.2 34.8415 28.2 34.8387C28.2 34.8358 28.2 34.8329 28.2 34.83C28.2 34.8271 28.2 34.8242 28.2 34.8212C28.2 34.8183 28.2 34.8153 28.2 34.8122C28.2 34.8092 28.2 34.8061 28.2 34.8031C28.2 34.8 28.2 34.7969 28.2 34.7937C28.2 34.7906 28.2 34.7874 28.2 34.7842C28.2 34.781 28.2 34.7777 28.2 34.7744C28.2 34.7712 28.2 34.7679 28.2 34.7645C28.2 34.7612 28.2 34.7579 28.2 34.7545C28.2 34.7511 28.2 34.7477 28.2 34.7442C28.2 34.7408 28.2 34.7373 28.2 34.7338C28.2 34.7302 28.2 34.7267 28.2 34.7231C28.2 34.7196 28.2 34.7159 28.2 34.7123C28.2 34.7087 28.2 34.705 28.2 34.7013C28.2 34.6976 28.2 34.6939 28.2 34.6901C28.2 34.6864 28.2 34.6826 28.2 34.6788C28.2 34.6749 28.2 34.6711 28.2 34.6672C28.2 34.6633 28.2 34.6594 28.2 34.6555C28.2 34.6515 28.2 34.6476 28.2 34.6435C28.2 34.6395 28.2 34.6355 28.2 34.6314C28.2 34.6274 28.2 34.6233 28.2 34.6191C28.2 34.615 28.2 34.6108 28.2 34.6067C28.2 34.6025 28.2 34.5982 28.2 34.594C28.2 34.5897 28.2 34.5854 28.2 34.5811C28.2 34.5768 28.2 34.5725 28.2 34.5681C28.2 34.5637 28.2 34.5593 28.2 34.5548C28.2 34.5504 28.2 34.5459 28.2 34.5414C28.2 34.5369 28.2 34.5324 28.2 34.5278C28.2 34.5232 28.2 34.5186 28.2 34.514C28.2 34.5094 28.2 34.5047 28.2 34.5C28.2 34.4953 28.2 34.4906 28.2 34.4858C28.2 34.4811 28.2 34.4763 28.2 34.4715C28.2 34.4666 28.2 34.4618 28.2 34.4569C28.2 34.452 28.2 34.4471 28.2 34.4421C28.2 34.4372 28.2 34.4322 28.2 34.4272C28.2 34.4222 28.2 34.4171 28.2 34.4121C28.2 34.407 28.2 34.4019 28.2 34.3967C28.2 34.3916 28.2 34.3864 28.2 34.3812C28.2 34.376 28.2 34.3708 28.2 34.3655C28.2 34.3602 28.2 34.3549 28.2 34.3496C28.2 34.3442 28.2 34.3389 28.2 34.3335C28.2 34.3281 28.2 34.3226 28.2 34.3172C28.2 34.3117 28.2 34.3062 28.2 34.3007C28.2 34.2952 28.2 34.2896 28.2 34.284C28.2 34.2784 28.2 34.2728 28.2 34.2671C28.2 34.2615 28.2 34.2558 28.2 34.25C28.2 34.2443 28.2 34.2386 28.2 34.2328C28.2 34.227 28.2 34.2212 28.2 34.2153C28.2 34.2094 28.2 34.2036 28.2 34.1976C28.2 34.1917 28.2 34.1858 28.2 34.1798C28.2 34.1738 28.2 34.1678 28.2 34.1617C28.2 34.1557 28.2 34.1496 28.2 34.1435C28.2 34.1373 28.2 34.1312 28.2 34.125C28.2 34.1188 28.2 34.1126 28.2 34.1063C28.2 34.1001 28.2 34.0938 28.2 34.0875C28.2 34.0812 28.2 34.0748 28.2 34.0684C28.2 34.0621 28.2 34.0556 28.2 34.0492C28.2 34.0427 28.2 34.0363 28.2 34.0297C28.2 34.0232 28.2 34.0167 28.2 34.0101C28.2 34.0035 28.2 33.9969 28.2 33.9902C28.2 33.9836 28.2 33.9769 28.2 33.9702C28.2 33.9635 28.2 33.9567 28.2 33.9499C28.2 33.9431 28.2 33.9363 28.2 33.9295C28.2 33.9226 28.2 33.9157 28.2 33.9088C28.2 33.9019 28.2 33.8949 28.2 33.888C28.2 33.881 28.2 33.874 28.2 33.8669C28.2 33.8598 28.2 33.8528 28.2 33.8456C28.2 33.8385 28.2 33.8314 28.2 33.8242C28.2 33.817 28.2 33.8097 28.2 33.8025C28.2 33.7952 28.2 33.7879 28.2 33.7806C28.2 33.7733 28.2 33.7659 28.2 33.7585C28.2 33.7511 28.2 33.7437 28.2 33.7362C28.2 33.7288 28.2 33.7213 28.2 33.7138C28.2 33.7062 28.2 33.6987 28.2 33.6911C28.2 33.6835 28.2 33.6758 28.2 33.6682C28.2 33.6605 28.2 33.6528 28.2 33.6451C28.2 33.6373 28.2 33.6295 28.2 33.6217C28.2 33.6139 28.2 33.6061 28.2 33.5982C28.2 33.5903 28.2 33.5824 28.2 33.5745C28.2 33.5665 28.2 33.5586 28.2 33.5505C28.2 33.5425 28.2 33.5345 28.2 33.5264C28.2 33.5183 28.2 33.5102 28.2 33.502C28.2 33.4939 28.2 33.4857 28.2 33.4775C28.2 33.4693 28.2 33.461 28.2 33.4527C28.2 33.4444 28.2 33.4361 28.2 33.4277C28.2 33.4194 28.2 33.411 28.2 33.4025C28.2 33.3941 28.2 33.3856 28.2 33.3771C28.2 33.3686 28.2 33.3601 28.2 33.3515C28.2 33.343 28.2 33.3344 28.2 33.3257C28.2 33.3171 28.2 33.3084 28.2 33.2997C28.2 33.291 28.2 33.2822 28.2 33.2734C28.2 33.2646 28.2 33.2558 28.2 33.247C28.2 33.2381 28.2 33.2292 28.2 33.2203C28.2 33.2114 28.2 33.2024 28.2 33.1934C28.2 33.1844 28.2 33.1754 28.2 33.1663C28.2 33.1573 28.2 33.1482 28.2 33.139C28.2 33.1299 28.2 33.1207 28.2 33.1115C28.2 33.1023 28.2 33.093 28.2 33.0838C28.2 33.0745 28.2 33.0652 28.2 33.0558C28.2 33.0465 28.2 33.0371 28.2 33.0276C28.2 33.0182 28.2 33.0088 28.2 32.9993C28.2 32.9898 28.2 32.9802 28.2 32.9707C28.2 32.9611 28.2 32.9515 28.2 32.9419C28.2 32.9322 28.2 32.9225 28.2 32.9128C28.2 32.9031 28.2 32.8934 28.2 32.8836C28.2 32.8738 28.2 32.864 28.2 32.8541C28.2 32.8443 28.2 32.8344 28.2 32.8244C28.2 32.8145 28.2 32.8046 28.2 32.7945C28.2 32.7845 28.2 32.7745 28.2 32.7644C28.2 32.7544 28.2 32.7442 28.2 32.7341C28.2 32.724 28.2 32.7138 28.2 32.7036C28.2 32.6933 28.2 32.6831 28.2 32.6728C28.2 32.6625 28.2 32.6522 28.2 32.6418C28.2 32.6314 28.2 32.621 28.2 32.6106C28.2 32.6001 28.2 32.5897 28.2 32.5791C28.2 32.5686 28.2 32.5581 28.2 32.5475C28.2 32.5369 28.2 32.5263 28.2 32.5156C28.2 32.505 28.2 32.4943 28.2 32.4835C28.2 32.4728 28.2 32.462 28.2 32.4512C28.2 32.4404 28.2 32.4296 28.2 32.4187C28.2 32.4078 28.2 32.3969 28.2 32.3859C28.2 32.375 28.2 32.364 28.2 32.3529C28.2 32.3419 28.2 32.3308 28.2 32.3197C28.2 32.3086 28.2 32.2975 28.2 32.2863C28.2 32.2751 28.2 32.2639 28.2 32.2527C28.2 32.2414 28.2 32.2301 28.2 32.2188C28.2 32.2074 28.2 32.1961 28.2 32.1847C28.2 32.1733 28.2 32.1618 28.2 32.1504C28.2 32.1389 28.2 32.1274 28.2 32.1158C28.2 32.1042 28.2 32.0927 28.2 32.081C28.2 32.0694 28.2 32.0577 28.2 32.046C28.2 32.0343 28.2 32.0226 28.2 32.0108C28.2 31.999 28.2 31.9872 28.2 31.9753C28.2 31.9635 28.2 31.9516 28.2 31.9397C28.2 31.9277 28.2 31.9158 28.2 31.9038C28.2 31.8917 28.2 31.8797 28.2 31.8676C28.2 31.8555 28.2 31.8434 28.2 31.8312C28.2 31.8191 28.2 31.8069 28.2 31.7947C28.2 31.7824 28.2 31.7701 28.2 31.7578C28.2 31.7455 28.2 31.7332 28.2 31.7208C28.2 31.7084 28.2 31.696 28.2 31.6835C28.2 31.671 28.2 31.6585 28.2 31.646C28.2 31.6334 28.2 31.6209 28.2 31.6083C28.2 31.5956 28.2 31.583 28.2 31.5703C28.2 31.5576 28.2 31.5448 28.2 31.5321C28.2 31.5193 28.2 31.5065 28.2 31.4936C28.2 31.4808 28.2 31.4679 28.2 31.455C28.2 31.4421 28.2 31.4291 28.2 31.4161C28.2 31.4031 28.2 31.39 28.2 31.377C28.2 31.3639 28.2 31.3507 28.2 31.3376C28.2 31.3244 28.2 31.3112 28.2 31.298C28.2 31.2848 28.2 31.2715 28.2 31.2582C28.2 31.2449 28.2 31.2315 28.2 31.2181C28.2 31.2047 28.2 31.1913 28.2 31.1778C28.2 31.1643 28.2 31.1508 28.2 31.1373C28.2 31.1237 28.2 31.1101 28.2 31.0965C28.2 31.0829 28.2 31.0692 28.2 31.0555C28.2 31.0418 28.2 31.0281 28.2 31.0143C28.2 31.0005 28.2 30.9867 28.2 30.9728C28.2 30.9589 28.2 30.945 28.2 30.9311C28.2 30.9172 28.2 30.9032 28.2 30.8891C28.2 30.8751 28.2 30.8611 28.2 30.847C28.2 30.8329 28.2 30.8187 28.2 30.8045C28.2 30.7904 28.2 30.7761 28.2 30.7619C28.2 30.7476 28.2 30.7333 28.2 30.719C28.2 30.7047 28.2 30.6903 28.2 30.6759C28.2 30.6614 28.2 30.647 28.2 30.6325C28.2 30.618 28.2 30.6035 28.2 30.5889C28.2 30.5743 28.2 30.5597 28.2 30.545C28.2 30.5304 28.2 30.5157 28.2 30.5009C28.2 30.4862 28.2 30.4714 28.2 30.4566C28.2 30.4418 28.2 30.4269 28.2 30.412C28.2 30.3971 28.2 30.3822 28.2 30.3672C28.2 30.3522 28.2 30.3372 28.2 30.3222C28.2 30.3071 28.2 30.292 28.2 30.2769C28.2 30.2617 28.2 30.2465 28.2 30.2313C28.2 30.2161 28.2 30.2009 28.2 30.1856C28.2 30.1702 28.2 30.1549 28.2 30.1395C28.2 30.1241 28.2 30.1087 28.2 30.0933C28.2 30.0778 28.2 30.0623 28.2 30.0468C28.2 30.0312 28.2 30.0156 28.2 30H27.8C27.8 30.0156 27.8 30.0312 27.8 30.0468C27.8 30.0623 27.8 30.0778 27.8 30.0933C27.8 30.1087 27.8 30.1241 27.8 30.1395C27.8 30.1549 27.8 30.1702 27.8 30.1856C27.8 30.2009 27.8 30.2161 27.8 30.2313C27.8 30.2465 27.8 30.2617 27.8 30.2769C27.8 30.292 27.8 30.3071 27.8 30.3222C27.8 30.3372 27.8 30.3522 27.8 30.3672C27.8 30.3822 27.8 30.3971 27.8 30.412C27.8 30.4269 27.8 30.4418 27.8 30.4566C27.8 30.4714 27.8 30.4862 27.8 30.5009C27.8 30.5157 27.8 30.5304 27.8 30.545C27.8 30.5597 27.8 30.5743 27.8 30.5889C27.8 30.6035 27.8 30.618 27.8 30.6325C27.8 30.647 27.8 30.6614 27.8 30.6759C27.8 30.6903 27.8 30.7047 27.8 30.719C27.8 30.7333 27.8 30.7476 27.8 30.7619C27.8 30.7761 27.8 30.7904 27.8 30.8045C27.8 30.8187 27.8 30.8329 27.8 30.847C27.8 30.8611 27.8 30.8751 27.8 30.8891C27.8 30.9032 27.8 30.9172 27.8 30.9311C27.8 30.945 27.8 30.9589 27.8 30.9728C27.8 30.9867 27.8 31.0005 27.8 31.0143C27.8 31.0281 27.8 31.0418 27.8 31.0555C27.8 31.0692 27.8 31.0829 27.8 31.0965C27.8 31.1101 27.8 31.1237 27.8 31.1373C27.8 31.1508 27.8 31.1643 27.8 31.1778C27.8 31.1913 27.8 31.2047 27.8 31.2181C27.8 31.2315 27.8 31.2449 27.8 31.2582C27.8 31.2715 27.8 31.2848 27.8 31.298C27.8 31.3112 27.8 31.3244 27.8 31.3376C27.8 31.3507 27.8 31.3639 27.8 31.377C27.8 31.39 27.8 31.4031 27.8 31.4161C27.8 31.4291 27.8 31.4421 27.8 31.455C27.8 31.4679 27.8 31.4808 27.8 31.4936C27.8 31.5065 27.8 31.5193 27.8 31.5321C27.8 31.5448 27.8 31.5576 27.8 31.5703C27.8 31.583 27.8 31.5956 27.8 31.6083C27.8 31.6209 27.8 31.6334 27.8 31.646C27.8 31.6585 27.8 31.671 27.8 31.6835C27.8 31.696 27.8 31.7084 27.8 31.7208C27.8 31.7332 27.8 31.7455 27.8 31.7578C27.8 31.7701 27.8 31.7824 27.8 31.7947C27.8 31.8069 27.8 31.8191 27.8 31.8312C27.8 31.8434 27.8 31.8555 27.8 31.8676C27.8 31.8797 27.8 31.8917 27.8 31.9038C27.8 31.9158 27.8 31.9277 27.8 31.9397C27.8 31.9516 27.8 31.9635 27.8 31.9753C27.8 31.9872 27.8 31.999 27.8 32.0108C27.8 32.0226 27.8 32.0343 27.8 32.046C27.8 32.0577 27.8 32.0694 27.8 32.081C27.8 32.0927 27.8 32.1042 27.8 32.1158C27.8 32.1274 27.8 32.1389 27.8 32.1504C27.8 32.1618 27.8 32.1733 27.8 32.1847C27.8 32.1961 27.8 32.2074 27.8 32.2188C27.8 32.2301 27.8 32.2414 27.8 32.2527C27.8 32.2639 27.8 32.2751 27.8 32.2863C27.8 32.2975 27.8 32.3086 27.8 32.3197C27.8 32.3308 27.8 32.3419 27.8 32.3529C27.8 32.364 27.8 32.375 27.8 32.3859C27.8 32.3969 27.8 32.4078 27.8 32.4187C27.8 32.4296 27.8 32.4404 27.8 32.4512C27.8 32.462 27.8 32.4728 27.8 32.4835C27.8 32.4943 27.8 32.505 27.8 32.5156C27.8 32.5263 27.8 32.5369 27.8 32.5475C27.8 32.5581 27.8 32.5686 27.8 32.5791C27.8 32.5897 27.8 32.6001 27.8 32.6106C27.8 32.621 27.8 32.6314 27.8 32.6418C27.8 32.6522 27.8 32.6625 27.8 32.6728C27.8 32.6831 27.8 32.6933 27.8 32.7036C27.8 32.7138 27.8 32.724 27.8 32.7341C27.8 32.7442 27.8 32.7544 27.8 32.7644C27.8 32.7745 27.8 32.7845 27.8 32.7945C27.8 32.8046 27.8 32.8145 27.8 32.8244C27.8 32.8344 27.8 32.8443 27.8 32.8541C27.8 32.864 27.8 32.8738 27.8 32.8836C27.8 32.8934 27.8 32.9031 27.8 32.9128C27.8 32.9225 27.8 32.9322 27.8 32.9419C27.8 32.9515 27.8 32.9611 27.8 32.9707C27.8 32.9802 27.8 32.9898 27.8 32.9993C27.8 33.0088 27.8 33.0182 27.8 33.0276C27.8 33.0371 27.8 33.0465 27.8 33.0558C27.8 33.0652 27.8 33.0745 27.8 33.0838C27.8 33.093 27.8 33.1023 27.8 33.1115C27.8 33.1207 27.8 33.1299 27.8 33.139C27.8 33.1482 27.8 33.1573 27.8 33.1663C27.8 33.1754 27.8 33.1844 27.8 33.1934C27.8 33.2024 27.8 33.2114 27.8 33.2203C27.8 33.2292 27.8 33.2381 27.8 33.247C27.8 33.2558 27.8 33.2646 27.8 33.2734C27.8 33.2822 27.8 33.291 27.8 33.2997C27.8 33.3084 27.8 33.3171 27.8 33.3257C27.8 33.3344 27.8 33.343 27.8 33.3515C27.8 33.3601 27.8 33.3686 27.8 33.3771C27.8 33.3856 27.8 33.3941 27.8 33.4025C27.8 33.411 27.8 33.4194 27.8 33.4277C27.8 33.4361 27.8 33.4444 27.8 33.4527C27.8 33.461 27.8 33.4693 27.8 33.4775C27.8 33.4857 27.8 33.4939 27.8 33.502C27.8 33.5102 27.8 33.5183 27.8 33.5264C27.8 33.5345 27.8 33.5425 27.8 33.5505C27.8 33.5586 27.8 33.5665 27.8 33.5745C27.8 33.5824 27.8 33.5903 27.8 33.5982C27.8 33.6061 27.8 33.6139 27.8 33.6217C27.8 33.6295 27.8 33.6373 27.8 33.6451C27.8 33.6528 27.8 33.6605 27.8 33.6682C27.8 33.6758 27.8 33.6835 27.8 33.6911C27.8 33.6987 27.8 33.7062 27.8 33.7138C27.8 33.7213 27.8 33.7288 27.8 33.7362C27.8 33.7437 27.8 33.7511 27.8 33.7585C27.8 33.7659 27.8 33.7733 27.8 33.7806C27.8 33.7879 27.8 33.7952 27.8 33.8025C27.8 33.8097 27.8 33.817 27.8 33.8242C27.8 33.8314 27.8 33.8385 27.8 33.8456C27.8 33.8528 27.8 33.8598 27.8 33.8669C27.8 33.874 27.8 33.881 27.8 33.888C27.8 33.8949 27.8 33.9019 27.8 33.9088C27.8 33.9157 27.8 33.9226 27.8 33.9295C27.8 33.9363 27.8 33.9431 27.8 33.9499C27.8 33.9567 27.8 33.9635 27.8 33.9702C27.8 33.9769 27.8 33.9836 27.8 33.9902C27.8 33.9969 27.8 34.0035 27.8 34.0101C27.8 34.0167 27.8 34.0232 27.8 34.0297C27.8 34.0363 27.8 34.0427 27.8 34.0492C27.8 34.0556 27.8 34.0621 27.8 34.0684C27.8 34.0748 27.8 34.0812 27.8 34.0875C27.8 34.0938 27.8 34.1001 27.8 34.1063C27.8 34.1126 27.8 34.1188 27.8 34.125C27.8 34.1312 27.8 34.1373 27.8 34.1435C27.8 34.1496 27.8 34.1557 27.8 34.1617C27.8 34.1678 27.8 34.1738 27.8 34.1798C27.8 34.1858 27.8 34.1917 27.8 34.1976C27.8 34.2036 27.8 34.2094 27.8 34.2153C27.8 34.2212 27.8 34.227 27.8 34.2328C27.8 34.2386 27.8 34.2443 27.8 34.25C27.8 34.2558 27.8 34.2615 27.8 34.2671C27.8 34.2728 27.8 34.2784 27.8 34.284C27.8 34.2896 27.8 34.2952 27.8 34.3007C27.8 34.3062 27.8 34.3117 27.8 34.3172C27.8 34.3226 27.8 34.3281 27.8 34.3335C27.8 34.3389 27.8 34.3442 27.8 34.3496C27.8 34.3549 27.8 34.3602 27.8 34.3655C27.8 34.3708 27.8 34.376 27.8 34.3812C27.8 34.3864 27.8 34.3916 27.8 34.3967C27.8 34.4019 27.8 34.407 27.8 34.4121C27.8 34.4171 27.8 34.4222 27.8 34.4272C27.8 34.4322 27.8 34.4372 27.8 34.4421C27.8 34.4471 27.8 34.452 27.8 34.4569C27.8 34.4618 27.8 34.4666 27.8 34.4715C27.8 34.4763 27.8 34.4811 27.8 34.4858C27.8 34.4906 27.8 34.4953 27.8 34.5C27.8 34.5047 27.8 34.5094 27.8 34.514C27.8 34.5186 27.8 34.5232 27.8 34.5278C27.8 34.5324 27.8 34.5369 27.8 34.5414C27.8 34.5459 27.8 34.5504 27.8 34.5548C27.8 34.5593 27.8 34.5637 27.8 34.5681C27.8 34.5725 27.8 34.5768 27.8 34.5811C27.8 34.5854 27.8 34.5897 27.8 34.594C27.8 34.5982 27.8 34.6025 27.8 34.6067C27.8 34.6108 27.8 34.615 27.8 34.6191C27.8 34.6233 27.8 34.6274 27.8 34.6314C27.8 34.6355 27.8 34.6395 27.8 34.6435C27.8 34.6476 27.8 34.6515 27.8 34.6555C27.8 34.6594 27.8 34.6633 27.8 34.6672C27.8 34.6711 27.8 34.6749 27.8 34.6788C27.8 34.6826 27.8 34.6864 27.8 34.6901C27.8 34.6939 27.8 34.6976 27.8 34.7013C27.8 34.705 27.8 34.7087 27.8 34.7123C27.8 34.7159 27.8 34.7196 27.8 34.7231C27.8 34.7267 27.8 34.7302 27.8 34.7338C27.8 34.7373 27.8 34.7408 27.8 34.7442C27.8 34.7477 27.8 34.7511 27.8 34.7545C27.8 34.7579 27.8 34.7612 27.8 34.7645C27.8 34.7679 27.8 34.7712 27.8 34.7744C27.8 34.7777 27.8 34.781 27.8 34.7842C27.8 34.7874 27.8 34.7906 27.8 34.7937C27.8 34.7969 27.8 34.8 27.8 34.8031C27.8 34.8061 27.8 34.8092 27.8 34.8122C27.8 34.8153 27.8 34.8183 27.8 34.8212C27.8 34.8242 27.8 34.8271 27.8 34.83C27.8 34.8329 27.8 34.8358 27.8 34.8387C27.8 34.8415 27.8 34.8443 27.8 34.8471C27.8 34.8499 27.8 34.8527 27.8 34.8554C27.8 34.8581 27.8 34.8608 27.8 34.8635C27.8 34.8662 27.8 34.8688 27.8 34.8714C27.8 34.874 27.8 34.8766 27.8 34.8792C27.8 34.8817 27.8 34.8842 27.8 34.8867C27.8 34.8892 27.8 34.8917 27.8 34.8941C27.8 34.8965 27.8 34.8989 27.8 34.9013C27.8 34.9037 27.8 34.906 27.8 34.9083C27.8 34.9107 27.8 34.9129 27.8 34.9152C27.8 34.9175 27.8 34.9197 27.8 34.9219C27.8 34.9241 27.8 34.9262 27.8 34.9284C27.8 34.9305 27.8 34.9326 27.8 34.9347C27.8 34.9368 27.8 34.9388 27.8 34.9409C27.8 34.9429 27.8 34.9449 27.8 34.9468C27.8 34.9488 27.8 34.9507 27.8 34.9526C27.8 34.9546 27.8 34.9564 27.8 34.9583C27.8 34.9601 27.8 34.9619 27.8 34.9637C27.8 34.9655 27.8 34.9673 27.8 34.969C27.8 34.9708 27.8 34.9725 27.8 34.9741C27.8 34.9758 27.8 34.9775 27.8 34.9791C27.8 34.9807 27.8 34.9823 27.8 34.9838C27.8 34.9854 27.8 34.9869 27.8 34.9884C27.8 34.9899 27.8 34.9914 27.8 34.9929C27.8 34.9943 27.8 34.9957 27.8 34.9971C27.8 34.9985 27.8 34.9999 27.8 35.0012C27.8 35.0025 27.8 35.0039 27.8 35.0051C27.8 35.0064 27.8 35.0077 27.8 35.0089C27.8 35.0101 27.8 35.0113 27.8 35.0124C27.8 35.0136 27.8 35.0147 27.8 35.0159C27.8 35.017 27.8 35.018 27.8 35.0191C27.8 35.0201 27.8 35.0212 27.8 35.0222C27.8 35.0232 27.8 35.0241 27.8 35.0251C27.8 35.026 27.8 35.0269 27.8 35.0278C27.8 35.0287 27.8 35.0295 27.8 35.0304C27.8 35.0312 27.8 35.032 27.8 35.0328C27.8 35.0335 27.8 35.0343 27.8 35.035C27.8 35.0357 27.8 35.0364 27.8 35.0371C27.8 35.0377 27.8 35.0384 27.8 35.039C27.8 35.0396 27.8 35.0402 27.8 35.0407C27.8 35.0413 27.8 35.0418 27.8 35.0423C27.8 35.0428 27.8 35.0432 27.8 35.0437C27.8 35.0441 27.8 35.0445 27.8 35.0449C27.8 35.0453 27.8 35.0457 27.8 35.046C27.8 35.0463 27.8 35.0466 27.8 35.0469C27.8 35.0472 27.8 35.0474 27.8 35.0477C27.8 35.0479 27.8 35.0481 27.8 35.0483C27.8 35.0484 27.8 35.0486 27.8 35.0487C27.8 35.0488 27.8 35.0489 27.8 35.0489C27.8 35.049 27.8 35.049 27.8 35.049C28 35.049 28.2 35.049 28.2 35.049C28.2 35.0489 28.2 35.0489 28.2 35.0488C28.2 35.0487 28.2 35.0485 28.2 35.0484C28.2 35.0482 28.2 35.048 28.2 35.0478C28.2 35.0476 28.2 35.0474 28.2 35.0471C28.2 35.0469 28.2 35.0466 28.2 35.0463C28.2 35.046 28.2 35.0456 28.2 35.0452C28.2 35.0449 28.2 35.0445 28.2 35.0441C28.2 35.0436 28.2 35.0432 28.2 35.0427C28.2 35.0423 28.2 35.0418 28.2 35.0412C28.2 35.0407 28.2 35.0401 28.2 35.0396C28.2 35.039 28.2 35.0384 28.2 35.0378C28.2 35.0371 28.2 35.0365 28.2 35.0358C28.2 35.0351 28.2 35.0344 28.2 35.0337C28.2 35.0329 28.2 35.0322 28.2 35.0314C28.2 35.0306 28.2 35.0298 28.2 35.0289C28.2 35.0281 28.2 35.0272 28.2 35.0263C28.2 35.0254 28.2 35.0245 28.2 35.0236C28.2 35.0226 28.2 35.0217 28.2 35.0207C28.2 35.0197 28.2 35.0187 28.2 35.0176C28.2 35.0166 28.2 35.0155 28.2 35.0144C28.2 35.0133 28.2 35.0122 28.2 35.011C28.2 35.0099 28.2 35.0087 28.2 35.0075C28.2 35.0063 28.2 35.0051 28.2 35.0038C28.2 35.0026 28.2 35.0013 28.2 35C28.2 34.9987 28.2 34.9974 28.2 34.996C28.2 34.9947 28.2 34.9933 28.2 34.9919C28.2 34.9905 28.2 34.989 28.2 34.9876C28.2 34.9861 28.2 34.9847 28.2 34.9832C28.2 34.9817 28.2 34.9801 28.2 34.9786C28.2 34.977 28.2 34.9754 28.2 34.9738C28.2 34.9722 28.2 34.9706 28.2 34.9689C28.2 34.9673 28.2 34.9656 28.2 34.9639C28.2 34.9622 28.2 34.9605 28.2 34.9587C28.2 34.957 28.2 34.9552 28.2 34.9534C28.2 34.9516 28.2 34.9497 28.2 34.9479C28.2 34.946 28.2 34.9441 28.2 34.9422C28.2 34.9403 28.2 34.9384 28.2 34.9365C28.2 34.9345 28.2 34.9325 28.2 34.9305C28.2 34.9285 28.2 34.9265 28.2 34.9244C28.2 34.9224 28.2 34.9203 28.2 34.9182C28.2 34.9161 28.2 34.914 28.2 34.9118C28.2 34.9097 28.2 34.9075 28.2 34.9053C28.2 34.9031 28.2 34.9009 28.2 34.8986C28.2 34.8964 28.2 34.8941 28.2 34.8918C28.2 34.8895 28.2 34.8872 28.2 34.8849C28.2 34.8825 28.2 34.8802 28.2 34.8778C28.2 34.8754 28.2 34.873 28.2 34.8705C28.2 34.8681 28.2 34.8656 28.2 34.8631C28.2 34.8606 28.2 34.8581 28.2 34.8556C28.2 34.8531 28.2 34.8505 28.2 34.8479C28.2 34.8453 28.2 34.8427 28.2 34.8401C28.2 34.8375 28.2 34.8348 28.2 34.8321C28.2 34.8294 28.2 34.8267 28.2 34.824C28.2 34.8213 28.2 34.8185 28.2 34.8158C28.2 34.813 28.2 34.8102 28.2 34.8074C28.2 34.8045 28.2 34.8017 28.2 34.7988C28.2 34.796 28.2 34.7931 28.2 34.7902C28.2 34.7872 28.2 34.7843 28.2 34.7813C28.2 34.7784 28.2 34.7754 28.2 34.7724C28.2 34.7694 28.2 34.7663 28.2 34.7633C28.2 34.7602 28.2 34.7571 28.2 34.754C28.2 34.7509 28.2 34.7478 28.2 34.7447C28.2 34.7415 28.2 34.7383 28.2 34.7351C28.2 34.732 28.2 34.7287 28.2 34.7255C28.2 34.7223 28.2 34.719 28.2 34.7157C28.2 34.7124 28.2 34.7091 28.2 34.7058C28.2 34.7024 28.2 34.6991 28.2 34.6957C28.2 34.6923 28.2 34.6889 28.2 34.6855C28.2 34.6821 28.2 34.6786 28.2 34.6752C28.2 34.6717 28.2 34.6682 28.2 34.6647C28.2 34.6612 28.2 34.6576 28.2 34.6541C28.2 34.6505 28.2 34.6469 28.2 34.6433C28.2 34.6397 28.2 34.6361 28.2 34.6324C28.2 34.6288 28.2 34.6251 28.2 34.6214C28.2 34.6177 28.2 34.614 28.2 34.6102C28.2 34.6065 28.2 34.6027 28.2 34.599C28.2 34.5952 28.2 34.5914 28.2 34.5875C28.2 34.5837 28.2 34.5798 28.2 34.576C28.2 34.5721 28.2 34.5682 28.2 34.5643C28.2 34.5604 28.2 34.5564 28.2 34.5525C28.2 34.5485 28.2 34.5445 28.2 34.5405C28.2 34.5365 28.2 34.5325 28.2 34.5284C28.2 34.5244 28.2 34.5203 28.2 34.5162C28.2 34.5121 28.2 34.508 28.2 34.5038C28.2 34.4997 28.2 34.4955 28.2 34.4914C28.2 34.4872 28.2 34.483 28.2 34.4787C28.2 34.4745 28.2 34.4703 28.2 34.466C28.2 34.4617 28.2 34.4574 28.2 34.4531C28.2 34.4488 28.2 34.4445 28.2 34.4401C28.2 34.4358 28.2 34.4314 28.2 34.427C28.2 34.4226 28.2 34.4182 28.2 34.4137C28.2 34.4093 28.2 34.4048 28.2 34.4003C28.2 34.3958 28.2 34.3913 28.2 34.3868C28.2 34.3823 28.2 34.3777 28.2 34.3732C28.2 34.3686 28.2 34.364 28.2 34.3594C28.2 34.3548 28.2 34.3501 28.2 34.3455C28.2 34.3408 28.2 34.3362 28.2 34.3315C28.2 34.3268 28.2 34.322 28.2 34.3173C28.2 34.3126 28.2 34.3078 28.2 34.303C28.2 34.2982 28.2 34.2934 28.2 34.2886C28.2 34.2838 28.2 34.2789 28.2 34.2741C28.2 34.2692 28.2 34.2643 28.2 34.2594C28.2 34.2545 28.2 34.2496 28.2 34.2446C28.2 34.2397 28.2 34.2347 28.2 34.2297C28.2 34.2247 28.2 34.2197 28.2 34.2147C28.2 34.2097 28.2 34.2046 28.2 34.1996C28.2 34.1945 28.2 34.1894 28.2 34.1843C28.2 34.1792 28.2 34.174 28.2 34.1689C28.2 34.1637 28.2 34.1585 28.2 34.1533C28.2 34.1482 28.2 34.1429 28.2 34.1377C28.2 34.1325 28.2 34.1272 28.2 34.1219C28.2 34.1167 28.2 34.1114 28.2 34.106C28.2 34.1007 28.2 34.0954 28.2 34.09C28.2 34.0847 28.2 34.0793 28.2 34.0739C28.2 34.0685 28.2 34.0631 28.2 34.0577C28.2 34.0522 28.2 34.0468 28.2 34.0413C28.2 34.0358 28.2 34.0303 28.2 34.0248C28.2 34.0193 28.2 34.0137 28.2 34.0082C28.2 34.0026 28.2 33.9971 28.2 33.9915C28.2 33.9859 28.2 33.9802 28.2 33.9746C28.2 33.969 28.2 33.9633 28.2 33.9576C28.2 33.952 28.2 33.9463 28.2 33.9406C28.2 33.9348 28.2 33.9291 28.2 33.9234C28.2 33.9176 28.2 33.9118 28.2 33.906C28.2 33.9002 28.2 33.8944 28.2 33.8886C28.2 33.8828 28.2 33.8769 28.2 33.8711C28.2 33.8652 28.2 33.8593 28.2 33.8534C28.2 33.8475 28.2 33.8415 28.2 33.8356C28.2 33.8297 28.2 33.8237 28.2 33.8177C28.2 33.8117 28.2 33.8057 28.2 33.7997C28.2 33.7937 28.2 33.7876 28.2 33.7816C28.2 33.7755 28.2 33.7694 28.2 33.7633C28.2 33.7572 28.2 33.7511 28.2 33.745C28.2 33.7388 28.2 33.7327 28.2 33.7265C28.2 33.7203 28.2 33.7141 28.2 33.7079C28.2 33.7017 28.2 33.6955 28.2 33.6892C28.2 33.683 28.2 33.6767 28.2 33.6704C28.2 33.6641 28.2 33.6578 28.2 33.6515C28.2 33.6452 28.2 33.6388 28.2 33.6324C28.2 33.6261 28.2 33.6197 28.2 33.6133C28.2 33.6069 28.2 33.6005 28.2 33.594C28.2 33.5876 28.2 33.5812 28.2 33.5747C28.2 33.5682 28.2 33.5617 28.2 33.5552C28.2 33.5487 28.2 33.5422 28.2 33.5356C28.2 33.5291 28.2 33.5225 28.2 33.5159C28.2 33.5093 28.2 33.5027 28.2 33.4961C28.2 33.4895 28.2 33.4829 28.2 33.4762C28.2 33.4695 28.2 33.4629 28.2 33.4562C28.2 33.4495 28.2 33.4428 28.2 33.436C28.2 33.4293 28.2 33.4226 28.2 33.4158C28.2 33.409 28.2 33.4023 28.2 33.3955C28.2 33.3887 28.2 33.3818 28.2 33.375C28.2 33.3682 28.2 33.3613 28.2 33.3544C28.2 33.3476 28.2 33.3407 28.2 33.3338C28.2 33.3269 28.2 33.3199 28.2 33.313C28.2 33.3061 28.2 33.2991 28.2 33.2921C28.2 33.2851 28.2 33.2781 28.2 33.2711C28.2 33.2641 28.2 33.2571 28.2 33.25C28.2 33.243 28.2 33.2359 28.2 33.2288C28.2 33.2218 28.2 33.2147 28.2 33.2076C28.2 33.2004 28.2 33.1933 28.2 33.1861C28.2 33.179 28.2 33.1718 28.2 33.1646C28.2 33.1575 28.2 33.1503 28.2 33.143C28.2 33.1358 28.2 33.1286 28.2 33.1213C28.2 33.1141 28.2 33.1068 28.2 33.0995C28.2 33.0922 28.2 33.0849 28.2 33.0776C28.2 33.0703 28.2 33.0629 28.2 33.0556C28.2 33.0482 28.2 33.0408 28.2 33.0334C28.2 33.0261 28.2 33.0187 28.2 33.0112C28.2 33.0038 28.2 32.9964 28.2 32.9889C28.2 32.9814 28.2 32.974 28.2 32.9665C28.2 32.959 28.2 32.9515 28.2 32.944C28.2 32.9364 28.2 32.9289 28.2 32.9213C28.2 32.9138 28.2 32.9062 28.2 32.8986C28.2 32.891 28.2 32.8834 28.2 32.8758C28.2 32.8682 28.2 32.8605 28.2 32.8529C28.2 32.8452 28.2 32.8375 28.2 32.8299C28.2 32.8222 28.2 32.8145 28.2 32.8067C28.2 32.799 28.2 32.7913 28.2 32.7835C28.2 32.7758 28.2 32.768 28.2 32.7602C28.2 32.7524 28.2 32.7446 28.2 32.7368C28.2 32.729 28.2 32.7212 28.2 32.7133C28.2 32.7055 28.2 32.6976 28.2 32.6897C28.2 32.6818 28.2 32.6739 28.2 32.666C28.2 32.6581 28.2 32.6502 28.2 32.6422C28.2 32.6343 28.2 32.6263 28.2 32.6183C28.2 32.6104 28.2 32.6024 28.2 32.5944C28.2 32.5864 28.2 32.5783 28.2 32.5703C28.2 32.5622 28.2 32.5542 28.2 32.5461C28.2 32.538 28.2 32.53 28.2 32.5219C28.2 32.5138 28.2 32.5056 28.2 32.4975C28.2 32.4894 28.2 32.4812 28.2 32.4731C28.2 32.4649 28.2 32.4567 28.2 32.4485C28.2 32.4403 28.2 32.4321 28.2 32.4239C28.2 32.4157 28.2 32.4074 28.2 32.3992C28.2 32.3909 28.2 32.3826 28.2 32.3743C28.2 32.3661 28.2 32.3577 28.2 32.3494C28.2 32.3411 28.2 32.3328 28.2 32.3244C28.2 32.3161 28.2 32.3077 28.2 32.2993C28.2 32.291 28.2 32.2826 28.2 32.2742C28.2 32.2658 28.2 32.2573 28.2 32.2489C28.2 32.2405 28.2 32.232 28.2 32.2235C28.2 32.2151 28.2 32.2066 28.2 32.1981C28.2 32.1896 28.2 32.1811 28.2 32.1726C28.2 32.164 28.2 32.1555 28.2 32.1469C28.2 32.1384 28.2 32.1298 28.2 32.1212C28.2 32.1126 28.2 32.104 28.2 32.0954C28.2 32.0868 28.2 32.0782 28.2 32.0695C28.2 32.0609 28.2 32.0522 28.2 32.0436C28.2 32.0349 28.2 32.0262 28.2 32.0175C28.2 32.0088 28.2 32.0001 28.2 31.9914C28.2 31.9826 28.2 31.9739 28.2 31.9651C28.2 31.9564 28.2 31.9476 28.2 31.9388C28.2 31.93 28.2 31.9212 28.2 31.9124C28.2 31.9036 28.2 31.8948 28.2 31.8859C28.2 31.8771 28.2 31.8682 28.2 31.8594C28.2 31.8505 28.2 31.8416 28.2 31.8327C28.2 31.8238 28.2 31.8149 28.2 31.806C28.2 31.7971 28.2 31.7881 28.2 31.7792C28.2 31.7702 28.2 31.7612 28.2 31.7523C28.2 31.7433 28.2 31.7343 28.2 31.7253C28.2 31.7163 28.2 31.7072 28.2 31.6982C28.2 31.6892 28.2 31.6801 28.2 31.6711C28.2 31.662 28.2 31.6529 28.2 31.6438C28.2 31.6347 28.2 31.6256 28.2 31.6165C28.2 31.6074 28.2 31.5983 28.2 31.5891C28.2 31.58 28.2 31.5708 28.2 31.5617C28.2 31.5525 28.2 31.5433 28.2 31.5341C28.2 31.5249 28.2 31.5157 28.2 31.5065C28.2 31.4972 28.2 31.488 28.2 31.4788C28.2 31.4695 28.2 31.4602 28.2 31.451C28.2 31.4417 28.2 31.4324 28.2 31.4231C28.2 31.4138 28.2 31.4045 28.2 31.3951C28.2 31.3858 28.2 31.3765 28.2 31.3671C28.2 31.3578 28.2 31.3484 28.2 31.339C28.2 31.3296 28.2 31.3202 28.2 31.3108C28.2 31.3014 28.2 31.292 28.2 31.2826C28.2 31.2732 28.2 31.2637 28.2 31.2543C28.2 31.2448 28.2 31.2353 28.2 31.2258C28.2 31.2164 28.2 31.2069 28.2 31.1974C28.2 31.1878 28.2 31.1783 28.2 31.1688C28.2 31.1593 28.2 31.1497 28.2 31.1402C28.2 31.1306 28.2 31.121 28.2 31.1115C28.2 31.1019 28.2 31.0923 28.2 31.0827C28.2 31.0731 28.2 31.0634 28.2 31.0538C28.2 31.0442 28.2 31.0345 28.2 31.0249C28.2 31.0152 28.2 31.0056 28.2 30.9959C28.2 30.9862 28.2 30.9765 28.2 30.9668C28.2 30.9571 28.2 30.9474 28.2 30.9376C28.2 30.9279 28.2 30.9182 28.2 30.9084C28.2 30.8987 28.2 30.8889 28.2 30.8791C28.2 30.8694 28.2 30.8596 28.2 30.8498C28.2 30.84 28.2 30.8302 28.2 30.8203C28.2 30.8105 28.2 30.8007 28.2 30.7908C28.2 30.781 28.2 30.7711 28.2 30.7612C28.2 30.7514 28.2 30.7415 28.2 30.7316C28.2 30.7217 28.2 30.7118 28.2 30.7019C28.2 30.692 28.2 30.682 28.2 30.6721C28.2 30.6622 28.2 30.6522 28.2 30.6422C28.2 30.6323 28.2 30.6223 28.2 30.6123C28.2 30.6023 28.2 30.5923 28.2 30.5823C28.2 30.5723 28.2 30.5623 28.2 30.5523C28.2 30.5422 28.2 30.5322 28.2 30.5221C28.2 30.5121 28.2 30.502 28.2 30.4919C28.2 30.4819 28.2 30.4718 28.2 30.4617C28.2 30.4516 28.2 30.4415 28.2 30.4314C28.2 30.4212 28.2 30.4111 28.2 30.401C28.2 30.3908 28.2 30.3807 28.2 30.3705C28.2 30.3603 28.2 30.3502 28.2 30.34C28.2 30.3298 28.2 30.3196 28.2 30.3094C28.2 30.2992 28.2 30.289 28.2 30.2787C28.2 30.2685 28.2 30.2583 28.2 30.248C28.2 30.2378 28.2 30.2275 28.2 30.2172C28.2 30.207 28.2 30.1967 28.2 30.1864C28.2 30.1761 28.2 30.1658 28.2 30.1555C28.2 30.1452 28.2 30.1348 28.2 30.1245C28.2 30.1142 28.2 30.1038 28.2 30.0935C28.2 30.0831 28.2 30.0728 28.2 30.0624C28.2 30.052 28.2 30.0416 28.2 30.0312C28.2 30.0208 28.2 30.0104 28.2 30H27.8ZM28.2 30C28.2 29.9883 28.2 29.9768 28.2 29.9653C28.2 29.9538 28.2 29.9423 28.2 29.931C28.2 29.9196 28.2 29.9084 28.2 29.8972C28.2 29.886 28.2 29.8749 28.2 29.8639C28.2 29.8528 28.2 29.8419 28.2 29.831C28.2 29.8201 28.2 29.8093 28.2 29.7986C28.2 29.7879 28.2 29.7773 28.2 29.7667C28.2 29.7561 28.2 29.7457 28.2 29.7353C28.2 29.652 28.2 29.5737 28.2 29.5001C28.2 29.4909 28.2 29.4818 28.2 29.4727C28.2 29.4637 28.2 29.4547 28.2 29.4458C28.2 29.4369 28.2 29.4281 28.2 29.4193C28.2 29.4106 28.2 29.4019 28.2 29.3933C28.2 29.3847 28.2 29.3762 28.2 29.3677C28.2 29.3592 28.2 29.3509 28.2 29.3425C28.2 29.3342 28.2 29.326 28.2 29.3178C28.2 29.3096 28.2 29.3015 28.2 29.2935C28.2 29.2855 28.2 29.2775 28.2 29.2696C28.2 29.2618 28.2 29.2539 28.2 29.2462C28.2 29.2385 28.2 29.2308 28.2 29.2232C28.2 29.2156 28.2 29.2081 28.2 29.2006C28.2 29.1931 28.2 29.1858 28.2 29.1784C28.2 29.1711 28.2 29.1639 28.2 29.1567C28.2 29.1495 28.2 29.1424 28.2 29.1354C28.2 29.1283 28.2 29.1214 28.2 29.1145C28.2 29.1076 28.2 29.1007 28.2 29.094C28.2 29.0872 28.2 29.0805 28.2 29.0739C28.2 29.0672 28.2 29.0607 28.2 29.0542C28.2 29.0477 28.2 29.0413 28.2 29.0349C28.2 29.0095 28.2 28.9852 28.2 28.9619C28.2 28.9503 28.2 28.9389 28.2 28.9278C28.2 28.9222 28.2 28.9168 28.2 28.9113C28.2 28.9059 28.2 28.9005 28.2 28.8953C28.2 28.89 28.2 28.8847 28.2 28.8796C28.2 28.8744 28.2 28.8693 28.2 28.8643C28.2 28.8592 28.2 28.8543 28.2 28.8494C28.2 28.8445 28.2 28.8396 28.2 28.8349C28.2 28.8301 28.2 28.8254 28.2 28.8207C28.2 28.8161 28.2 28.8115 28.2 28.8069C28.2 28.8024 28.2 28.798 28.2 28.7936C28.2 28.7892 28.2 28.7848 28.2 28.7806C28.2 28.7763 28.2 28.7721 28.2 28.7679C28.2 28.7638 28.2 28.7597 28.2 28.7557C28.2 28.7516 28.2 28.7477 28.2 28.7438C28.2 28.7399 28.2 28.736 28.2 28.7323C28.2 28.7285 28.2 28.7248 28.2 28.7211C28.2 28.7174 28.2 28.7138 28.2 28.7103C28.2 28.7068 28.2 28.7033 28.2 28.6999C28.2 28.6965 28.2 28.6931 28.2 28.6898C28.2 28.6865 28.2 28.6833 28.2 28.6801C28.2 28.6769 28.2 28.6738 28.2 28.6707C28.2 28.6677 28.2 28.6647 28.2 28.6617C28.2 28.6588 28.2 28.6559 28.2 28.6531C28.2 28.6503 28.2 28.6475 28.2 28.6448C28.2 28.6421 28.2 28.6394 28.2 28.6368C28.2 28.6343 28.2 28.6317 28.2 28.6292C28.2 28.6268 28.2 28.6243 28.2 28.622C28.2 28.6196 28.2 28.6173 28.2 28.6151C28.2 28.6128 28.2 28.6106 28.2 28.6085C28.2 28.6064 28.2 28.6043 28.2 28.6022C28.2 28.6002 28.2 28.5983 28.2 28.5963C28.2 28.5944 28.2 28.5926 28.2 28.5908C28.2 28.589 28.2 28.5872 28.2 28.5855C28.2 28.5839 28.2 28.5822 28.2 28.5806C28.2 28.5791 28.2 28.5775 28.2 28.5761C28.2 28.5702 28.2 28.5652 28.2 28.561C28.2 28.5599 28.2 28.559 28.2 28.558C28.2 28.5571 28.2 28.5562 28.2 28.5554C28.2 28.5537 28.2 28.5523 28.2 28.551C28.2 28.5493 28.2 28.5461 28.2 28.546C28.2 28.5455 28.2 28.5454 28.2 28.5453C28 28.7453 27.8 28.5453 27.8 28.5454C27.8 28.5455 27.8 28.5456 27.8 28.5458C27.8 28.546 27.8 28.5462 27.8 28.5465C27.8 28.5468 27.8 28.5471 27.8 28.5475C27.8 28.5482 27.8 28.5492 27.8 28.5503C27.8 28.5509 27.8 28.5515 27.8 28.5522C27.8 28.5528 27.8 28.5536 27.8 28.5543C27.8 28.5551 27.8 28.5559 27.8 28.5567C27.8 28.5576 27.8 28.5585 27.8 28.5594C27.8 28.5604 27.8 28.5614 27.8 28.5624C27.8 28.5634 27.8 28.5645 27.8 28.5657C27.8 28.5668 27.8 28.568 27.8 28.5692C27.8 28.5704 27.8 28.5717 27.8 28.573C27.8 28.5743 27.8 28.5756 27.8 28.577C27.8 28.5784 27.8 28.5799 27.8 28.5814C27.8 28.5829 27.8 28.5844 27.8 28.586C27.8 28.5876 27.8 28.5892 27.8 28.5908C27.8 28.5925 27.8 28.5942 27.8 28.596C27.8 28.5977 27.8 28.5995 27.8 28.6014C27.8 28.6032 27.8 28.6051 27.8 28.607C27.8 28.6089 27.8 28.6109 27.8 28.6129C27.8 28.6149 27.8 28.617 27.8 28.6191C27.8 28.6212 27.8 28.6233 27.8 28.6255C27.8 28.6277 27.8 28.6299 27.8 28.6321C27.8 28.6344 27.8 28.6367 27.8 28.639C27.8 28.6484 27.8 28.6585 27.8 28.6691C27.8 28.6718 27.8 28.6745 27.8 28.6772C27.8 28.68 27.8 28.6828 27.8 28.6856C27.8 28.6884 27.8 28.6913 27.8 28.6942C27.8 28.6971 27.8 28.7 27.8 28.703C27.8 28.709 27.8 28.7151 27.8 28.7213C27.8 28.7245 27.8 28.7276 27.8 28.7308C27.8 28.734 27.8 28.7373 27.8 28.7406C27.8 28.7438 27.8 28.7472 27.8 28.7505C27.8 28.7539 27.8 28.7572 27.8 28.7607C27.8 28.7675 27.8 28.7745 27.8 28.7817C27.8 28.7852 27.8 28.7888 27.8 28.7925C27.8 28.7961 27.8 28.7998 27.8 28.8035C27.8 28.8072 27.8 28.811 27.8 28.8148C27.8 28.8185 27.8 28.8224 27.8 28.8262C27.8 28.8301 27.8 28.8339 27.8 28.8379C27.8 28.8418 27.8 28.8457 27.8 28.8497C27.8 28.8537 27.8 28.8577 27.8 28.8618C27.8 28.8658 27.8 28.8699 27.8 28.874C27.8 28.8782 27.8 28.8823 27.8 28.8865C27.8 28.8907 27.8 28.8949 27.8 28.8992C27.8 28.9034 27.8 28.9077 27.8 28.912C27.8 28.9163 27.8 28.9207 27.8 28.925C27.8 28.9294 27.8 28.9338 27.8 28.9383C27.8 28.9427 27.8 28.9472 27.8 28.9517C27.8 28.9562 27.8 28.9607 27.8 28.9653C27.8 28.9699 27.8 28.9745 27.8 28.9791C27.8 28.9883 27.8 28.9977 27.8 29.0072C27.8 29.012 27.8 29.0167 27.8 29.0215C27.8 29.0263 27.8 29.0312 27.8 29.036C27.8 29.075 27.8 29.1157 27.8 29.1582C27.8 29.1635 27.8 29.1688 27.8 29.1742C27.8 29.1795 27.8 29.1849 27.8 29.1903C27.8 29.1957 27.8 29.2012 27.8 29.2066C27.8 29.2121 27.8 29.2176 27.8 29.2231C27.8 29.2452 27.8 29.2676 27.8 29.2904C27.8 29.2961 27.8 29.3019 27.8 29.3076C27.8 29.3134 27.8 29.3192 27.8 29.325C27.8 29.3308 27.8 29.3366 27.8 29.3424C27.8 29.3483 27.8 29.3541 27.8 29.36C27.8 29.3659 27.8 29.3718 27.8 29.3778C27.8 29.3837 27.8 29.3897 27.8 29.3956C27.8 29.4016 27.8 29.4076 27.8 29.4136C27.8 29.4197 27.8 29.4257 27.8 29.4318C27.8 29.5288 27.8 29.6312 27.8 29.7376C27.8 29.7443 27.8 29.7509 27.8 29.7576C27.8 29.7643 27.8 29.771 27.8 29.7777C27.8 29.7911 27.8 29.8046 27.8 29.8182C27.8 29.8249 27.8 29.8317 27.8 29.8385C27.8 29.8453 27.8 29.8521 27.8 29.8589C27.8 29.8658 27.8 29.8726 27.8 29.8795C27.8 29.8863 27.8 29.8932 27.8 29.9001C27.8 29.9069 27.8 29.9138 27.8 29.9207C27.8 29.9277 27.8 29.9346 27.8 29.9415C27.8 29.9484 27.8 29.9554 27.8 29.9623C27.8 29.9693 27.8 29.9763 27.8 29.9832C27.8 29.9902 27.8 29.9972 27.8 30.0042C27.8 30.0112 27.8 30.0182 27.8 30.0252C27.8 30.0393 27.8 30.0534 27.8 30.0675C27.8 30.0746 27.8 30.0817 27.8 30.0887C27.8 30.0958 27.8 30.1029 27.8 30.11C27.8 30.1171 27.8 30.1243 27.8 30.1314C27.8 30.1385 27.8 30.1456 27.8 30.1528C27.8 30.1599 27.8 30.1671 27.8 30.1742C27.8 30.1814 27.8 30.1886 27.8 30.1957C27.8 30.2029 27.8 30.2101 27.8 30.2173C27.8 30.2245 27.8 30.2317 27.8 30.2389C27.8 30.2461 27.8 30.2533 27.8 30.2606C27.8 30.2678 27.8 30.275 27.8 30.2823C27.8 30.2895 27.8 30.2967 27.8 30.304C27.8 30.3113 27.8 30.3185 27.8 30.3258C27.8 30.333 27.8 30.3403 27.8 30.3476C27.8 30.3549 27.8 30.3622 27.8 30.3694C27.8 30.3767 27.8 30.384 27.8 30.3913C27.8 30.3986 27.8 30.4059 27.8 30.4133C27.8 30.4206 27.8 30.4279 27.8 30.4352C27.8 30.4425 27.8 30.4499 27.8 30.4572C27.8 30.4645 27.8 30.4718 27.8 30.4792C27.8 30.4865 27.8 30.4939 27.8 30.5012C27.8 30.5086 27.8 30.5159 27.8 30.5233C27.8 30.5306 27.8 30.538 27.8 30.5453C27.8 30.5527 27.8 30.56 27.8 30.5674C27.8 30.5748 27.8 30.5821 27.8 30.5895C27.8 30.619 27.8 30.6485 27.8 30.678C27.8 30.6854 27.8 30.6928 27.8 30.7002C27.8 30.7076 27.8 30.715 27.8 30.7223C27.8 30.7297 27.8 30.7371 27.8 30.7445C27.8 30.7519 27.8 30.7593 27.8 30.7667C27.8 30.774 27.8 30.7814 27.8 30.7888C27.8 30.7962 27.8 30.8036 27.8 30.811C27.8 30.8257 27.8 30.8405 27.8 30.8552C27.8 30.8626 27.8 30.87 27.8 30.8774C27.8 30.8847 27.8 30.8921 27.8 30.8995C27.8 30.9068 27.8 30.9142 27.8 30.9216C27.8 30.9289 27.8 30.9363 27.8 30.9437C27.8 30.951 27.8 30.9584 27.8 30.9657C27.8 30.9731 27.8 30.9804 27.8 30.9878C27.8 30.9951 27.8 31.0025 27.8 31.0098C27.8 31.0171 27.8 31.0245 27.8 31.0318C27.8 31.0391 27.8 31.0464 27.8 31.0538C27.8 31.0611 27.8 31.0684 27.8 31.0757C27.8 31.083 27.8 31.0903 27.8 31.0976C27.8 31.1049 27.8 31.1122 27.8 31.1195C27.8 31.1341 27.8 31.1486 27.8 31.1632C27.8 31.1704 27.8 31.1777 27.8 31.1849C27.8 31.1922 27.8 31.1994 27.8 31.2067C27.8 31.2139 27.8 31.2211 27.8 31.2284C27.8 31.2356 27.8 31.2428 27.8 31.25C27.8 31.2644 27.8 31.2788 27.8 31.2932C27.8 31.3003 27.8 31.3075 27.8 31.3147C27.8 31.3218 27.8 31.329 27.8 31.3361C27.8 31.3433 27.8 31.3504 27.8 31.3575C27.8 31.3646 27.8 31.3718 27.8 31.3789C27.8 31.386 27.8 31.3931 27.8 31.4001C27.8 31.4072 27.8 31.4143 27.8 31.4214C27.8 31.4284 27.8 31.4355 27.8 31.4425C27.8 31.4496 27.8 31.4566 27.8 31.4636C27.8 31.4706 27.8 31.4776 27.8 31.4846C27.8 31.4916 27.8 31.4986 27.8 31.5056C27.8 31.5196 27.8 31.5335 27.8 31.5473C27.8 31.5542 27.8 31.5612 27.8 31.5681C27.8 31.575 27.8 31.5818 27.8 31.5887C27.8 31.5956 27.8 31.6025 27.8 31.6093C27.8 31.6162 27.8 31.623 27.8 31.6298C27.8 31.6844 27.8 31.7381 27.8 31.7908C27.8 31.7974 27.8 31.8039 27.8 31.8105C27.8 31.817 27.8 31.8236 27.8 31.8301C27.8 31.8366 27.8 31.8431 27.8 31.8496C27.8 31.856 27.8 31.8625 27.8 31.869C27.8 31.8754 27.8 31.8818 27.8 31.8882C27.8 31.8946 27.8 31.901 27.8 31.9074C27.8 31.9138 27.8 31.9201 27.8 31.9265C27.8 31.9328 27.8 31.9391 27.8 31.9454C27.8 31.9517 27.8 31.958 27.8 31.9643C27.8 31.9705 27.8 31.9768 27.8 31.983C27.8 31.9892 27.8 31.9954 27.8 32.0016C27.8 32.0078 27.8 32.0139 27.8 32.0201C27.8 32.0447 27.8 32.0689 27.8 32.0928C27.8 32.0988 27.8 32.1047 27.8 32.1106C27.8 32.1166 27.8 32.1225 27.8 32.1284C27.8 32.1342 27.8 32.1401 27.8 32.146C27.8 32.1518 27.8 32.1576 27.8 32.1634C27.8 32.1692 27.8 32.175 27.8 32.1807C27.8 32.1865 27.8 32.1922 27.8 32.1979C27.8 32.2036 27.8 32.2093 27.8 32.2149C27.8 32.2206 27.8 32.2262 27.8 32.2318C27.8 32.2766 27.8 32.3199 27.8 32.3615C27.8 32.3667 27.8 32.3718 27.8 32.377C27.8 32.3821 27.8 32.3872 27.8 32.3923C27.8 32.3974 27.8 32.4024 27.8 32.4075C27.8 32.4125 27.8 32.4175 27.8 32.4225C27.8 32.4274 27.8 32.4324 27.8 32.4373C27.8 32.4422 27.8 32.4471 27.8 32.4519C27.8 32.4568 27.8 32.4616 27.8 32.4664C27.8 32.4712 27.8 32.476 27.8 32.4807C27.8 32.4855 27.8 32.4902 27.8 32.4949C27.8 32.4995 27.8 32.5042 27.8 32.5088C27.8 32.5134 27.8 32.518 27.8 32.5226C27.8 32.5271 27.8 32.5317 27.8 32.5361C27.8 32.5406 27.8 32.5451 27.8 32.5495C27.8 32.554 27.8 32.5584 27.8 32.5627C27.8 32.5671 27.8 32.5715 27.8 32.5758C27.8 32.5801 27.8 32.5843 27.8 32.5886C27.8 32.5971 27.8 32.6054 27.8 32.6136C27.8 32.6178 27.8 32.6218 27.8 32.6259C27.8 32.6299 27.8 32.6339 27.8 32.6379C27.8 32.6419 27.8 32.6458 27.8 32.6497C27.8 32.6537 27.8 32.6575 27.8 32.6614C27.8 32.6652 27.8 32.669 27.8 32.6728C27.8 32.6766 27.8 32.6803 27.8 32.684C27.8 32.6877 27.8 32.6914 27.8 32.695C27.8 32.6986 27.8 32.7022 27.8 32.7058C27.8 32.7094 27.8 32.7129 27.8 32.7164C27.8 32.7199 27.8 32.7233 27.8 32.7267C27.8 32.7302 27.8 32.7335 27.8 32.7369C27.8 32.7402 27.8 32.7435 27.8 32.7468C27.8 32.7501 27.8 32.7533 27.8 32.7565C27.8 32.7597 27.8 32.7628 27.8 32.766C27.8 32.8658 27.8 32.927 27.8 32.9387C27.8 32.9391 27.8 32.9394 27.8 32.9397C27.8 32.9399 27.8 32.9401 27.8 32.9403C27.8 32.9405 27.8 32.9406 27.8 32.9407C27.8 32.9407 28 33.1408 28.2 32.9407C28.2 32.9405 28.2 32.9399 28.2 32.938C28.2 32.9376 28.2 32.9371 28.2 32.9365C28.2 32.936 28.2 32.9354 28.2 32.9348C28.2 32.9341 28.2 32.9335 28.2 32.9327C28.2 32.932 28.2 32.9312 28.2 32.9303C28.2 32.9295 28.2 32.9286 28.2 32.9276C28.2 32.9267 28.2 32.9257 28.2 32.9246C28.2 32.9236 28.2 32.9225 28.2 32.9213C28.2 32.9201 28.2 32.9189 28.2 32.9177C28.2 32.9164 28.2 32.9151 28.2 32.9137C28.2 32.9123 28.2 32.9109 28.2 32.9094C28.2 32.9079 28.2 32.9064 28.2 32.9048C28.2 32.9032 28.2 32.9015 28.2 32.8998C28.2 32.8981 28.2 32.8964 28.2 32.8945C28.2 32.8927 28.2 32.8909 28.2 32.8889C28.2 32.887 28.2 32.885 28.2 32.883C28.2 32.8809 28.2 32.8788 28.2 32.8767C28.2 32.8724 28.2 32.8679 28.2 32.8631C28.2 32.8607 28.2 32.8583 28.2 32.8558C28.2 32.8533 28.2 32.8508 28.2 32.8482C28.2 32.8455 28.2 32.8429 28.2 32.8402C28.2 32.8374 28.2 32.8347 28.2 32.8318C28.2 32.829 28.2 32.8261 28.2 32.8231C28.2 32.8202 28.2 32.8171 28.2 32.8141C28.2 32.7157 28.2 32.5568 28.2 32.3265C28.2 31.8658 28.2 31.1195 28.2 30H27.8C27.8 31.1195 27.8 31.8658 27.8 32.3265C27.8 32.5568 27.8 32.7157 27.8 32.8141C27.8 32.8171 27.8 32.8202 27.8 32.8231C27.8 32.8261 27.8 32.829 27.8 32.8318C27.8 32.8347 27.8 32.8374 27.8 32.8402C27.8 32.8429 27.8 32.8455 27.8 32.8482C27.8 32.8508 27.8 32.8533 27.8 32.8558C27.8 32.8583 27.8 32.8607 27.8 32.8631C27.8 32.8679 27.8 32.8724 27.8 32.8767C27.8 32.8788 27.8 32.8809 27.8 32.883C27.8 32.885 27.8 32.887 27.8 32.8889C27.8 32.8909 27.8 32.8927 27.8 32.8945C27.8 32.8964 27.8 32.8981 27.8 32.8998C27.8 32.9015 27.8 32.9032 27.8 32.9048C27.8 32.9064 27.8 32.9079 27.8 32.9094C27.8 32.9109 27.8 32.9123 27.8 32.9137C27.8 32.9151 27.8 32.9164 27.8 32.9177C27.8 32.9189 27.8 32.9201 27.8 32.9213C27.8 32.9225 27.8 32.9236 27.8 32.9246C27.8 32.9257 27.8 32.9267 27.8 32.9276C27.8 32.9286 27.8 32.9295 27.8 32.9303C27.8 32.9312 27.8 32.932 27.8 32.9327C27.8 32.9335 27.8 32.9341 27.8 32.9348C27.8 32.9354 27.8 32.936 27.8 32.9365C27.8 32.9371 27.8 32.9376 27.8 32.938C27.8 32.9399 27.8 32.9405 27.8 32.9407C28 32.7408 28.2 32.9407 28.2 32.9407C28.2 32.9406 28.2 32.9405 28.2 32.9403C28.2 32.9401 28.2 32.9399 28.2 32.9397C28.2 32.9394 28.2 32.9391 28.2 32.9387C28.2 32.9154 28.2 32.6938 28.2 32.3615C28.2 32.3563 28.2 32.351 28.2 32.3458C28.2 32.3406 28.2 32.3353 28.2 32.33C28.2 32.3247 28.2 32.3194 28.2 32.314C28.2 32.3086 28.2 32.3033 28.2 32.2979C28.2 32.2925 28.2 32.287 28.2 32.2816C28.2 32.2761 28.2 32.2706 28.2 32.2651C28.2 32.2541 28.2 32.243 28.2 32.2318C28.2 32.2262 28.2 32.2206 28.2 32.2149C28.2 32.2093 28.2 32.2036 28.2 32.1979C28.2 32.1922 28.2 32.1865 28.2 32.1807C28.2 32.175 28.2 32.1692 28.2 32.1634C28.2 32.1576 28.2 32.1518 28.2 32.146C28.2 32.1401 28.2 32.1342 28.2 32.1284C28.2 32.1225 28.2 32.1166 28.2 32.1106C28.2 32.1047 28.2 32.0988 28.2 32.0928C28.2 32.0689 28.2 32.0447 28.2 32.0201C28.2 32.0139 28.2 32.0078 28.2 32.0016C28.2 31.9954 28.2 31.9892 28.2 31.983C28.2 31.9768 28.2 31.9705 28.2 31.9643C28.2 31.958 28.2 31.9517 28.2 31.9454C28.2 31.9391 28.2 31.9328 28.2 31.9265C28.2 31.9201 28.2 31.9138 28.2 31.9074C28.2 31.901 28.2 31.8946 28.2 31.8882C28.2 31.8818 28.2 31.8754 28.2 31.869C28.2 31.8625 28.2 31.856 28.2 31.8496C28.2 31.8431 28.2 31.8366 28.2 31.8301C28.2 31.8236 28.2 31.817 28.2 31.8105C28.2 31.8039 28.2 31.7974 28.2 31.7908C28.2 31.7842 28.2 31.7776 28.2 31.771C28.2 31.7644 28.2 31.7577 28.2 31.7511C28.2 31.7444 28.2 31.7378 28.2 31.7311C28.2 31.7244 28.2 31.7177 28.2 31.711C28.2 31.7043 28.2 31.6976 28.2 31.6909C28.2 31.6841 28.2 31.6774 28.2 31.6706C28.2 31.6638 28.2 31.657 28.2 31.6503C28.2 31.6435 28.2 31.6366 28.2 31.6298C28.2 31.623 28.2 31.6162 28.2 31.6093C28.2 31.6025 28.2 31.5956 28.2 31.5887C28.2 31.5818 28.2 31.575 28.2 31.5681C28.2 31.5612 28.2 31.5542 28.2 31.5473C28.2 31.5404 28.2 31.5334 28.2 31.5265C28.2 31.5195 28.2 31.5126 28.2 31.5056C28.2 31.4986 28.2 31.4916 28.2 31.4846C28.2 31.4776 28.2 31.4706 28.2 31.4636C28.2 31.4566 28.2 31.4496 28.2 31.4425C28.2 31.4355 28.2 31.4284 28.2 31.4214C28.2 31.4143 28.2 31.4072 28.2 31.4001C28.2 31.3931 28.2 31.386 28.2 31.3789C28.2 31.3718 28.2 31.3646 28.2 31.3575C28.2 31.3504 28.2 31.3433 28.2 31.3361C28.2 31.329 28.2 31.3218 28.2 31.3147C28.2 31.3075 28.2 31.3003 28.2 31.2932C28.2 31.2645 28.2 31.2356 28.2 31.2067C28.2 31.1994 28.2 31.1922 28.2 31.1849C28.2 31.1777 28.2 31.1704 28.2 31.1632C28.2 31.1559 28.2 31.1486 28.2 31.1414C28.2 31.1341 28.2 31.1268 28.2 31.1195C28.2 30.653 28.2 30.1633 28.2 29.7376C28.2 29.6312 28.2 29.5288 28.2 29.4318C28.2 29.4257 28.2 29.4197 28.2 29.4136C28.2 29.4076 28.2 29.4016 28.2 29.3956C28.2 29.3897 28.2 29.3837 28.2 29.3778C28.2 29.3718 28.2 29.3659 28.2 29.36C28.2 29.3541 28.2 29.3483 28.2 29.3424C28.2 29.3366 28.2 29.3308 28.2 29.325C28.2 29.3192 28.2 29.3134 28.2 29.3076C28.2 29.3019 28.2 29.2961 28.2 29.2904C28.2 29.2847 28.2 29.279 28.2 29.2734C28.2 29.2677 28.2 29.2621 28.2 29.2565C28.2 29.2453 28.2 29.2341 28.2 29.2231C28.2 29.2176 28.2 29.2121 28.2 29.2066C28.2 29.2012 28.2 29.1957 28.2 29.1903C28.2 29.1849 28.2 29.1795 28.2 29.1742C28.2 29.1688 28.2 29.1635 28.2 29.1582C28.2 29.1157 28.2 29.075 28.2 29.036C28.2 29.0312 28.2 29.0263 28.2 29.0215C28.2 29.0167 28.2 29.012 28.2 29.0072C28.2 28.9977 28.2 28.9883 28.2 28.9791C28.2 28.9745 28.2 28.9699 28.2 28.9653C28.2 28.9607 28.2 28.9562 28.2 28.9517C28.2 28.9472 28.2 28.9427 28.2 28.9383C28.2 28.9338 28.2 28.9294 28.2 28.925C28.2 28.9207 28.2 28.9163 28.2 28.912C28.2 28.9077 28.2 28.9034 28.2 28.8992C28.2 28.8949 28.2 28.8907 28.2 28.8865C28.2 28.8823 28.2 28.8782 28.2 28.874C28.2 28.8699 28.2 28.8658 28.2 28.8618C28.2 28.8577 28.2 28.8537 28.2 28.8497C28.2 28.8417 28.2 28.8339 28.2 28.8262C28.2 28.8224 28.2 28.8185 28.2 28.8148C28.2 28.811 28.2 28.8072 28.2 28.8035C28.2 28.7998 28.2 28.7961 28.2 28.7925C28.2 28.7888 28.2 28.7852 28.2 28.7817C28.2 28.7745 28.2 28.7675 28.2 28.7607C28.2 28.7572 28.2 28.7539 28.2 28.7505C28.2 28.7472 28.2 28.7438 28.2 28.7406C28.2 28.7373 28.2 28.734 28.2 28.7308C28.2 28.7276 28.2 28.7245 28.2 28.7213C28.2 28.7151 28.2 28.709 28.2 28.703C28.2 28.7 28.2 28.6971 28.2 28.6942C28.2 28.6913 28.2 28.6884 28.2 28.6856C28.2 28.6828 28.2 28.68 28.2 28.6772C28.2 28.6745 28.2 28.6718 28.2 28.6691C28.2 28.6585 28.2 28.6484 28.2 28.639C28.2 28.6367 28.2 28.6344 28.2 28.6321C28.2 28.6299 28.2 28.6277 28.2 28.6255C28.2 28.6233 28.2 28.6212 28.2 28.6191C28.2 28.617 28.2 28.6149 28.2 28.6129C28.2 28.6109 28.2 28.6089 28.2 28.607C28.2 28.6051 28.2 28.6032 28.2 28.6014C28.2 28.5995 28.2 28.5977 28.2 28.596C28.2 28.5942 28.2 28.5925 28.2 28.5909C28.2 28.5892 28.2 28.5876 28.2 28.586C28.2 28.5844 28.2 28.5829 28.2 28.5814C28.2 28.5799 28.2 28.5784 28.2 28.577C28.2 28.5756 28.2 28.5743 28.2 28.573C28.2 28.5717 28.2 28.5704 28.2 28.5692C28.2 28.568 28.2 28.5668 28.2 28.5657C28.2 28.5645 28.2 28.5634 28.2 28.5624C28.2 28.5614 28.2 28.5604 28.2 28.5594C28.2 28.5585 28.2 28.5576 28.2 28.5567C28.2 28.5559 28.2 28.5551 28.2 28.5543C28.2 28.5536 28.2 28.5528 28.2 28.5522C28.2 28.5515 28.2 28.5509 28.2 28.5503C28.2 28.5492 28.2 28.5482 28.2 28.5475C28.2 28.5471 28.2 28.5468 28.2 28.5465C28.2 28.5462 28.2 28.546 28.2 28.5458C28.2 28.5456 28.2 28.5455 28.2 28.5454C28.2 28.5453 28 28.3453 27.8 28.5453C27.8 28.5454 27.8 28.5455 27.8 28.546C27.8 28.5461 27.8 28.5493 27.8 28.551C27.8 28.5523 27.8 28.5537 27.8 28.5554C27.8 28.5562 27.8 28.5571 27.8 28.558C27.8 28.559 27.8 28.5599 27.8 28.561C27.8 28.5652 27.8 28.5702 27.8 28.5761C27.8 28.5775 27.8 28.5791 27.8 28.5806C27.8 28.5822 27.8 28.5839 27.8 28.5855C27.8 28.5872 27.8 28.589 27.8 28.5908C27.8 28.5926 27.8 28.5944 27.8 28.5963C27.8 28.5983 27.8 28.6002 27.8 28.6022C27.8 28.6043 27.8 28.6064 27.8 28.6085C27.8 28.6106 27.8 28.6128 27.8 28.6151C27.8 28.6173 27.8 28.6196 27.8 28.622C27.8 28.6243 27.8 28.6268 27.8 28.6292C27.8 28.6317 27.8 28.6343 27.8 28.6368C27.8 28.6394 27.8 28.6421 27.8 28.6448C27.8 28.6475 27.8 28.6503 27.8 28.6531C27.8 28.6559 27.8 28.6588 27.8 28.6617C27.8 28.6647 27.8 28.6677 27.8 28.6707C27.8 28.6738 27.8 28.6769 27.8 28.6801C27.8 28.6833 27.8 28.6865 27.8 28.6898C27.8 28.6931 27.8 28.6965 27.8 28.6999C27.8 28.7033 27.8 28.7068 27.8 28.7103C27.8 28.7138 27.8 28.7174 27.8 28.7211C27.8 28.7248 27.8 28.7285 27.8 28.7323C27.8 28.736 27.8 28.7399 27.8 28.7438C27.8 28.7477 27.8 28.7516 27.8 28.7557C27.8 28.7597 27.8 28.7638 27.8 28.7679C27.8 28.7721 27.8 28.7763 27.8 28.7806C27.8 28.7848 27.8 28.7892 27.8 28.7936C27.8 28.798 27.8 28.8024 27.8 28.8069C27.8 28.8115 27.8 28.8161 27.8 28.8207C27.8 28.8254 27.8 28.8301 27.8 28.8349C27.8 28.8396 27.8 28.8445 27.8 28.8494C27.8 28.8543 27.8 28.8592 27.8 28.8643C27.8 28.8693 27.8 28.8744 27.8 28.8796C27.8 28.8847 27.8 28.89 27.8 28.8953C27.8 28.9005 27.8 28.9059 27.8 28.9113C27.8 28.9168 27.8 28.9222 27.8 28.9278C27.8 28.9389 27.8 28.9503 27.8 28.9619C27.8 28.9852 27.8 29.0095 27.8 29.0349C27.8 29.0413 27.8 29.0477 27.8 29.0542C27.8 29.0607 27.8 29.0672 27.8 29.0739C27.8 29.0805 27.8 29.0872 27.8 29.094C27.8 29.1007 27.8 29.1076 27.8 29.1145C27.8 29.1214 27.8 29.1283 27.8 29.1354C27.8 29.1424 27.8 29.1495 27.8 29.1567C27.8 29.1639 27.8 29.1711 27.8 29.1784C27.8 29.1858 27.8 29.1931 27.8 29.2006C27.8 29.2081 27.8 29.2156 27.8 29.2232C27.8 29.2308 27.8 29.2385 27.8 29.2462C27.8 29.2539 27.8 29.2618 27.8 29.2696C27.8 29.2775 27.8 29.2855 27.8 29.2935C27.8 29.3015 27.8 29.3096 27.8 29.3178C27.8 29.326 27.8 29.3342 27.8 29.3425C27.8 29.3509 27.8 29.3592 27.8 29.3677C27.8 29.3762 27.8 29.3847 27.8 29.3933C27.8 29.4019 27.8 29.4106 27.8 29.4193C27.8 29.4281 27.8 29.4369 27.8 29.4458C27.8 29.4636 27.8 29.4817 27.8 29.5001C27.8 29.5737 27.8 29.652 27.8 29.7353C27.8 29.7457 27.8 29.7561 27.8 29.7667C27.8 29.7773 27.8 29.7879 27.8 29.7986C27.8 29.8093 27.8 29.8201 27.8 29.831C27.8 29.8419 27.8 29.8528 27.8 29.8639C27.8 29.8749 27.8 29.886 27.8 29.8972C27.8 29.9084 27.8 29.9196 27.8 29.931C27.8 29.9423 27.8 29.9538 27.8 29.9653C27.8 29.9768 27.8 29.9883 27.8 30H28.2ZM27.8 30H28.2H27.8Z" fill="url(#paint1_linear_671_2973)" mask="url(#path-1-inside-1_671_2973)"/>
<g filter="url(#filter0_b_671_2973)">
<path d="M13 9.6C13 9.03995 13 8.75992 13.109 8.54601C13.2049 8.35785 13.3578 8.20487 13.546 8.10899C13.7599 8 14.0399 8 14.6 8H25.4C25.9601 8 26.2401 8 26.454 8.10899C26.6422 8.20487 26.7951 8.35785 26.891 8.54601C27 8.75992 27 9.03995 27 9.6V29.4C27 29.9601 27 30.2401 26.891 30.454C26.7951 30.6422 26.6422 30.7951 26.454 30.891C26.2401 31 25.9601 31 25.4 31H14.6C14.0399 31 13.7599 31 13.546 30.891C13.3578 30.7951 13.2049 30.6422 13.109 30.454C13 30.2401 13 29.9601 13 29.4V9.6Z" fill="url(#paint2_linear_671_2973)" fill-opacity="0.6"/>
<path d="M14.6 8.1H25.4C25.6817 8.1 25.8869 8.10008 26.0487 8.11329C26.2092 8.12641 26.3181 8.15198 26.4086 8.19809C26.5779 8.28438 26.7156 8.42206 26.8019 8.59141C26.848 8.68192 26.8736 8.79078 26.8867 8.95135C26.8999 9.11308 26.9 9.31832 26.9 9.6V29.4C26.9 29.6817 26.8999 29.8869 26.8867 30.0487C26.8736 30.2092 26.848 30.3181 26.8019 30.4086C26.7156 30.5779 26.5779 30.7156 26.4086 30.8019C26.3181 30.848 26.2092 30.8736 26.0487 30.8867C25.8869 30.8999 25.6817 30.9 25.4 30.9H14.6C14.3183 30.9 14.1131 30.8999 13.9513 30.8867C13.7908 30.8736 13.6819 30.848 13.5914 30.8019C13.4221 30.7156 13.2844 30.5779 13.1981 30.4086C13.152 30.3181 13.1264 30.2092 13.1133 30.0487C13.1001 29.8869 13.1 29.6817 13.1 29.4V9.6C13.1 9.31832 13.1001 9.11308 13.1133 8.95135C13.1264 8.79078 13.152 8.68192 13.1981 8.59141C13.2844 8.42206 13.4221 8.28438 13.5914 8.19809C13.6819 8.15198 13.7908 8.12641 13.9513 8.11329C14.1131 8.10008 14.3183 8.1 14.6 8.1Z" stroke="url(#paint3_linear_671_2973)" stroke-width="0.2"/>
</g>
</g>
<defs>
<filter id="filter0_b_671_2973" x="-28" y="-33" width="96" height="105" filterUnits="userSpaceOnUse" color-interpolation-filters="sRGB">
<feFlood flood-opacity="0" result="BackgroundImageFix"/>
<feGaussianBlur in="BackgroundImageFix" stdDeviation="20.5"/>
<feComposite in2="SourceAlpha" operator="in" result="effect1_backgroundBlur_671_2973"/>
<feBlend mode="normal" in="SourceGraphic" in2="effect1_backgroundBlur_671_2973" result="shape"/>
</filter>
<linearGradient id="paint0_linear_671_2973" x1="20" y1="6" x2="20" y2="33" gradientUnits="userSpaceOnUse">
<stop offset="0.130367" stop-color="#BCBCBC"/>
<stop offset="0.804" stop-color="#E8E8E8"/>
</linearGradient>
<linearGradient id="paint1_linear_671_2973" x1="20" y1="6" x2="20" y2="33" gradientUnits="userSpaceOnUse">
<stop stop-color="#E3E3E3"/>
<stop offset="1" stop-color="#D3D3D3"/>
</linearGradient>
<linearGradient id="paint2_linear_671_2973" x1="20" y1="8" x2="20" y2="31" gradientUnits="userSpaceOnUse">
<stop offset="0.312213" stop-color="#585858"/>
<stop offset="1" stop-color="#E1E1E1"/>
</linearGradient>
<linearGradient id="paint3_linear_671_2973" x1="20" y1="8" x2="20" y2="31" gradientUnits="userSpaceOnUse">
<stop offset="0.0629738" stop-color="white"/>
<stop offset="0.710389" stop-color="#D2D2D2"/>
</linearGradient>
</defs>
</svg>
