<svg width="1048" height="346" viewBox="0 0 1048 346" fill="none" xmlns="http://www.w3.org/2000/svg">
<g filter="url(#filter0_d_1378_9093)">
<g clip-path="url(#clip0_1378_9093)">
<rect x="12" y="12" width="1024" height="322" rx="16" fill="url(#paint0_linear_1378_9093)"/>
<g opacity="0.12" clip-path="url(#clip1_1378_9093)">
<path d="M-146.201 -532V22.7373C-146.201 107.667 -128.401 190.198 -93.3008 268.133C-59.5008 343.27 -11.0008 410.914 50.6992 469.065C112.299 527.217 183.999 572.878 263.799 604.752C346.399 637.824 433.899 654.61 523.999 654.61C614.099 654.61 701.599 637.824 784.199 604.752C863.999 572.878 935.699 527.217 997.299 469.065C1059 410.914 1107.5 343.27 1141.3 268.133C1176.4 190.198 1194.2 107.667 1194.2 22.7373V-532H1199.8V22.7373C1199.8 373.245 895.699 659.906 523.999 659.906C152.299 659.906 -151.801 373.245 -151.801 22.7373V-532H-146.201Z" fill="url(#paint1_linear_1378_9093)"/>
<path d="M-121.002 -532V18.2411C-121.002 99.9729 -103.802 179.307 -70.1016 254.244C-37.5016 326.584 9.09845 391.63 68.4984 447.583C127.898 503.536 196.898 547.5 273.598 578.274C353.098 610.147 437.298 626.234 523.998 626.234C610.698 626.234 694.898 610.147 774.398 578.274C851.098 547.5 920.098 503.536 979.498 447.583C1038.9 391.63 1085.5 326.584 1118.1 254.244C1151.8 179.307 1169 99.9729 1169 18.2411V-532H1174.6V18.2411C1174.6 355.56 881.798 631.53 523.998 631.53C166.198 631.53 -126.602 355.56 -126.602 18.2411V-532H-121.002Z" fill="url(#paint2_linear_1378_9093)"/>
<path d="M-95.7008 -532V13.6449C-95.7008 92.1794 -79.3008 168.416 -46.8008 240.456C-15.5008 309.998 29.2992 372.446 86.2992 426.201C143.399 479.956 209.699 522.221 283.399 551.796C359.799 582.37 440.699 597.858 523.999 597.858C607.299 597.858 688.199 582.37 764.599 551.796C838.299 522.221 904.599 479.956 961.699 426.201C1018.7 372.446 1063.5 309.998 1094.8 240.456C1127.3 168.416 1143.7 92.1794 1143.7 13.6449V-532H1149.3V13.6449C1149.3 337.874 867.899 603.153 523.999 603.153C180.099 603.153 -101.301 337.874 -101.301 13.6449V-532L-95.7008 -532Z" fill="url(#paint3_linear_1378_9093)"/>
<path d="M-70.4 -532V9.04877C-70.4 84.3859 -54.7 157.525 -23.5 226.667C6.5 293.312 49.5 353.262 104.2 404.819C158.9 456.376 222.5 496.942 293.2 525.218C366.5 554.594 444.1 569.481 524 569.481C603.9 569.481 681.5 554.594 754.8 525.218C825.5 496.942 889.1 456.376 943.8 404.819C998.5 353.262 1041.5 293.312 1071.5 226.667C1102.7 157.525 1118.4 84.3859 1118.4 9.04877V-532H1124V9.04877C1124 320.189 854 574.777 524 574.777C194 574.777 -76 320.189 -76 9.04877V-532H-70.4Z" fill="url(#paint4_linear_1378_9093)"/>
<path d="M-45.2008 -532V4.45258C-45.2008 76.5924 -30.1008 146.734 -0.300781 212.779C28.4992 276.626 69.5992 334.078 121.999 383.436C174.399 432.795 235.299 471.663 302.999 498.74C373.199 526.817 447.499 541.105 523.999 541.105C600.499 541.105 674.799 526.817 744.999 498.74C812.699 471.663 873.599 432.795 925.999 383.436C978.399 334.078 1019.5 276.626 1048.3 212.779C1078.1 146.734 1093.2 76.5924 1093.2 4.45258V-532H1098.8V4.45258C1098.8 302.504 840.099 546.301 523.999 546.301C207.899 546.301 -50.8008 302.504 -50.8008 4.45258V-532L-45.2008 -532Z" fill="url(#paint5_linear_1378_9093)"/>
<path d="M-19.9 -532V-0.143616C-19.9 68.7989 -5.5 135.843 23 198.99C50.5 260.039 89.8 314.894 139.8 362.054C189.9 409.215 248.1 446.284 312.8 472.262C379.8 499.04 450.9 512.729 524 512.729C597.1 512.729 668.2 499.04 735.2 472.262C799.9 446.284 858.1 409.215 908.2 362.054C958.2 314.894 997.5 260.039 1025 198.99C1053.5 135.843 1067.9 68.7989 1067.9 -0.143616V-532H1073.5V-0.143616C1073.5 284.819 826.2 517.924 524 517.924C221.8 517.924 -25.5 284.819 -25.5 -0.143616V-532H-19.9Z" fill="url(#paint6_linear_1378_9093)"/>
<path d="M5.29919 -532V-4.63989C5.29919 61.0054 19.0992 124.952 46.1992 185.202C72.4992 243.353 109.999 295.61 157.699 340.672C205.399 385.635 260.899 421.005 322.599 445.685C386.499 471.363 454.299 484.252 523.999 484.252C593.699 484.252 661.499 471.363 725.399 445.685C787.099 421.005 842.599 385.635 890.299 340.672C937.999 295.61 975.499 243.353 1001.8 185.202C1028.9 124.952 1042.7 61.0054 1042.7 -4.63989V-532H1048.3V-4.63989C1048.3 267.133 812.299 489.548 523.999 489.548C235.699 489.548 -0.300781 267.133 -0.300781 -4.63989V-532H5.29919Z" fill="url(#paint7_linear_1378_9093)"/>
<path d="M30.6 -532V-9.23602C30.6 53.2119 43.7 114.061 69.5 171.313C94.4 226.667 130.1 276.426 175.5 319.29C220.9 362.054 273.7 395.726 332.4 419.207C393.2 443.586 457.7 455.876 524 455.876C590.3 455.876 654.8 443.586 715.6 419.207C774.3 395.726 827.1 362.054 872.5 319.29C917.9 276.426 953.6 226.667 978.5 171.313C1004.3 114.061 1017.4 53.2119 1017.4 -9.23602V-532H1023V-9.23602C1023 249.448 798.5 461.172 524 461.172C249.5 461.172 25 249.448 25 -9.23602V-532H30.6Z" fill="url(#paint8_linear_1378_9093)"/>
<path d="M55.7992 -532V-13.8322C55.7992 45.5183 68.2992 103.17 92.7992 157.525C116.399 210.081 150.299 257.242 193.399 297.908C236.399 338.474 286.499 370.347 342.199 392.729C399.899 415.81 461.099 427.5 523.999 427.5C586.899 427.5 648.099 415.81 705.799 392.729C761.499 370.347 811.599 338.474 854.599 297.908C897.699 257.242 931.599 210.081 955.199 157.525C979.699 103.17 992.199 45.5183 992.199 -13.8322V-532H997.799V-13.8322C997.799 231.763 784.599 432.795 523.999 432.795C263.399 432.795 50.1992 231.763 50.1992 -13.8322V-532H55.7992Z" fill="url(#paint9_linear_1378_9093)"/>
<path d="M81.1 -532V-18.4283C81.1 37.7249 92.8 92.2793 116 143.736C138.4 193.395 170.4 238.058 211.2 276.426C252 314.894 299.3 345.069 352 366.151C406.6 388.033 464.5 399.123 524 399.123C583.5 399.123 641.4 388.033 696 366.151C748.7 345.069 796 314.894 836.8 276.426C877.6 238.058 909.6 193.395 932 143.736C955.2 92.2793 966.9 37.7249 966.9 -18.4283V-532H972.5V-18.4283C972.5 214.178 770.7 404.419 524 404.419C277.3 404.419 75.5 214.178 75.5 -18.4283V-532H81.1Z" fill="url(#paint10_linear_1378_9093)"/>
<path d="M106.299 -532V-23.0245C106.299 81.6882 149.899 180.506 228.999 255.044C308.199 329.681 412.899 370.747 523.999 370.747C635.099 370.747 739.799 329.681 818.999 255.044C898.099 180.506 941.699 81.6882 941.699 -23.0245V-532H947.199V-23.0245C947.199 196.492 756.799 376.043 523.999 376.043C291.199 376.043 100.799 196.492 100.799 -23.0245V-532H106.299Z" fill="url(#paint11_linear_1378_9093)"/>
<path d="M131.6 -532V-27.6207C131.6 70.7972 172.5 163.62 246.9 233.661C321.2 303.803 419.6 342.371 524 342.371C628.4 342.371 726.8 303.803 801.1 233.661C875.5 163.62 916.4 70.7972 916.4 -27.6207V-532H922V-27.6207C922 178.807 742.9 347.666 524 347.666C305.1 347.666 126 178.807 126 -27.6207V-532H131.6Z" fill="url(#paint12_linear_1378_9093)"/>
<path d="M156.899 -532V-32.1169C156.899 59.9064 195.199 146.734 264.699 212.279C334.299 277.825 426.299 313.995 523.999 313.995C621.699 313.995 713.699 277.825 783.299 212.279C852.799 146.734 891.099 59.9064 891.099 -32.1169V-532H896.699V-32.1169C896.699 161.122 728.999 319.29 523.999 319.29C318.999 319.29 151.299 161.122 151.299 -32.1169V-532H156.899Z" fill="url(#paint13_linear_1378_9093)"/>
<path d="M182.1 -532V-36.7131C182.1 49.0154 217.8 129.848 282.5 190.897C347.3 251.946 433.1 285.618 524 285.618C614.9 285.618 700.7 251.946 765.5 190.897C830.2 129.848 865.9 49.0154 865.9 -36.7131V-532H871.5V-36.7131C871.5 143.437 715.1 290.814 524 290.814C332.9 290.814 176.5 143.437 176.5 -36.7131V-532H182.1Z" fill="url(#paint14_linear_1378_9093)"/>
<path d="M207.399 -532V-41.3092C207.399 38.1245 240.399 112.962 300.399 169.515C360.399 226.068 439.799 257.242 523.999 257.242C608.199 257.242 687.599 226.068 747.599 169.515C807.599 112.962 840.599 38.1245 840.599 -41.3092V-532H846.199V-41.3092C846.199 125.751 701.199 262.437 523.999 262.437C346.799 262.437 201.799 125.751 201.799 -41.3092V-532H207.399Z" fill="url(#paint15_linear_1378_9093)"/>
<path d="M232.6 -532V-45.9054C232.6 27.1337 263 96.0762 318.2 148.133C373.4 200.189 446.5 228.766 524 228.766C601.5 228.766 674.6 200.189 729.8 148.133C785 96.0762 815.4 27.1337 815.4 -45.9054V-532H821V-45.9054C821 108.066 687.3 234.061 524 234.061C360.7 234.061 227 108.066 227 -45.9054V-532H232.6Z" fill="url(#paint16_linear_1378_9093)"/>
<path d="M257.899 -532V-50.5016C257.899 16.2427 285.599 79.1902 336.099 126.751C386.499 174.211 453.199 200.389 523.999 200.389C594.799 200.389 661.499 174.211 711.899 126.751C762.399 79.1902 790.099 16.2427 790.099 -50.5016V-532H795.699V-50.5016C795.699 90.3809 673.399 205.685 523.999 205.685C374.599 205.685 252.299 90.3809 252.299 -50.5016V-532H257.899Z" fill="url(#paint17_linear_1378_9093)"/>
<path d="M283.1 -532V-54.9978C283.1 5.35187 308.3 62.3044 353.9 105.368C399.5 148.333 459.9 172.013 524 172.013C588.1 172.013 648.5 148.333 694.1 105.368C739.7 62.3044 764.9 5.35187 764.9 -54.9978V-532H770.5V-54.9978C770.5 72.6957 659.5 177.308 524 177.308C388.5 177.308 277.5 72.6957 277.5 -54.9978V-532H283.1Z" fill="url(#paint18_linear_1378_9093)"/>
<path d="M308.401 -532V-59.594C308.401 -5.53906 330.901 45.4185 371.701 83.8864C412.601 122.454 466.701 143.637 524.001 143.637C581.301 143.637 635.401 122.454 676.301 83.8864C717.101 45.4185 739.601 -5.53906 739.601 -59.594V-532H745.201V-59.594C745.201 55.1104 645.701 148.932 524.001 148.932C402.301 148.932 302.801 55.1104 302.801 -59.594V-532H308.401Z" fill="url(#paint19_linear_1378_9093)"/>
<path d="M333.698 -532V-64.1901C333.698 -16.4299 353.498 28.5326 389.598 62.5042C425.598 96.5758 473.398 115.26 523.998 115.26C574.598 115.26 622.398 96.5758 658.398 62.5042C694.498 28.5326 714.298 -16.4299 714.298 -64.1901V-532H719.898V-64.1901C719.898 37.4252 631.798 120.556 523.998 120.556C416.198 120.556 328.098 37.4252 328.098 -64.1901V-532H333.698Z" fill="url(#paint20_linear_1378_9093)"/>
<path d="M358.901 -532V-68.7863C358.901 17.0421 433.001 86.8839 524.001 86.8839C615.001 86.8839 689.101 17.0421 689.101 -68.7863V-532H694.701V-68.7863C694.701 19.7398 617.901 92.1794 524.001 92.1794C430.101 92.1794 353.301 19.7398 353.301 -68.7863V-532H358.901Z" fill="url(#paint21_linear_1378_9093)"/>
<path d="M384.198 -532V-73.3825C384.198 -0.643188 446.898 58.5075 523.998 58.5075C601.098 58.5075 663.798 -0.643188 663.798 -73.3825V-532H669.398V-73.3825C669.398 2.05457 603.998 63.7032 523.998 63.7032C443.998 63.7032 378.598 2.05457 378.598 -73.3825V-532H384.198Z" fill="url(#paint22_linear_1378_9093)"/>
<path d="M409.401 -532V-77.9786C409.401 -18.3284 460.801 30.1312 524.001 30.1312C587.201 30.1312 638.601 -18.3284 638.601 -77.9786V-532H644.201V-77.9786C644.201 -15.6306 590.101 35.3268 524.001 35.3268C457.901 35.3268 403.801 -15.6306 403.801 -77.9786V-532L409.401 -532Z" fill="url(#paint23_linear_1378_9093)"/>
</g>
</g>
</g>
<defs>
<filter id="filter0_d_1378_9093" x="0" y="0" width="1048" height="346" filterUnits="userSpaceOnUse" color-interpolation-filters="sRGB">
<feFlood flood-opacity="0" result="BackgroundImageFix"/>
<feColorMatrix in="SourceAlpha" type="matrix" values="0 0 0 0 0 0 0 0 0 0 0 0 0 0 0 0 0 0 127 0" result="hardAlpha"/>
<feOffset/>
<feGaussianBlur stdDeviation="6"/>
<feComposite in2="hardAlpha" operator="out"/>
<feColorMatrix type="matrix" values="0 0 0 0 0 0 0 0 0 0 0 0 0 0 0 0 0 0 0.24 0"/>
<feBlend mode="normal" in2="BackgroundImageFix" result="effect1_dropShadow_1378_9093"/>
<feBlend mode="normal" in="SourceGraphic" in2="effect1_dropShadow_1378_9093" result="shape"/>
</filter>
<linearGradient id="paint0_linear_1378_9093" x1="12" y1="12" x2="1035.42" y2="335.821" gradientUnits="userSpaceOnUse">
<stop stop-color="#103CAE"/>
<stop offset="0.531228" stop-color="#2A454B"/>
<stop offset="1" stop-color="#356D9A"/>
</linearGradient>
<linearGradient id="paint1_linear_1378_9093" x1="523.999" y1="659.906" x2="523.999" y2="8.25984e-06" gradientUnits="userSpaceOnUse">
<stop stop-color="#228420" stop-opacity="0"/>
<stop offset="0.49835" stop-color="#DDEDFF" stop-opacity="0.575701"/>
<stop offset="0.8505" stop-color="#282DA2"/>
<stop offset="1" stop-color="#155314" stop-opacity="0"/>
</linearGradient>
<linearGradient id="paint2_linear_1378_9093" x1="523.998" y1="631.53" x2="523.998" y2="-12.6656" gradientUnits="userSpaceOnUse">
<stop stop-color="#228420" stop-opacity="0"/>
<stop offset="0.49835" stop-color="#DDEDFF" stop-opacity="0.575701"/>
<stop offset="0.8505" stop-color="#282DA2"/>
<stop offset="1" stop-color="#155314" stop-opacity="0"/>
</linearGradient>
<linearGradient id="paint3_linear_1378_9093" x1="523.999" y1="603.153" x2="523.999" y2="-25.3312" gradientUnits="userSpaceOnUse">
<stop stop-color="#228420" stop-opacity="0"/>
<stop offset="0.49835" stop-color="#DDEDFF" stop-opacity="0.575701"/>
<stop offset="0.8505" stop-color="#282DA2"/>
<stop offset="1" stop-color="#155314" stop-opacity="0"/>
</linearGradient>
<linearGradient id="paint4_linear_1378_9093" x1="524" y1="574.777" x2="524" y2="-37.9968" gradientUnits="userSpaceOnUse">
<stop stop-color="#228420" stop-opacity="0"/>
<stop offset="0.49835" stop-color="#DDEDFF" stop-opacity="0.575701"/>
<stop offset="0.8505" stop-color="#282DA2"/>
<stop offset="1" stop-color="#155314" stop-opacity="0"/>
</linearGradient>
<linearGradient id="paint5_linear_1378_9093" x1="523.999" y1="546.301" x2="523.999" y2="-50.7071" gradientUnits="userSpaceOnUse">
<stop stop-color="#228420" stop-opacity="0"/>
<stop offset="0.49835" stop-color="#DDEDFF" stop-opacity="0.575701"/>
<stop offset="0.8505" stop-color="#282DA2"/>
<stop offset="1" stop-color="#155314" stop-opacity="0"/>
</linearGradient>
<linearGradient id="paint6_linear_1378_9093" x1="524" y1="517.924" x2="524" y2="-63.3726" gradientUnits="userSpaceOnUse">
<stop stop-color="#228420" stop-opacity="0"/>
<stop offset="0.49835" stop-color="#DDEDFF" stop-opacity="0.575701"/>
<stop offset="0.8505" stop-color="#282DA2"/>
<stop offset="1" stop-color="#155314" stop-opacity="0"/>
</linearGradient>
<linearGradient id="paint7_linear_1378_9093" x1="523.999" y1="489.548" x2="523.999" y2="-76.0382" gradientUnits="userSpaceOnUse">
<stop stop-color="#228420" stop-opacity="0"/>
<stop offset="0.49835" stop-color="#DDEDFF" stop-opacity="0.575701"/>
<stop offset="0.8505" stop-color="#282DA2"/>
<stop offset="1" stop-color="#155314" stop-opacity="0"/>
</linearGradient>
<linearGradient id="paint8_linear_1378_9093" x1="524" y1="461.172" x2="524" y2="-88.7038" gradientUnits="userSpaceOnUse">
<stop stop-color="#228420" stop-opacity="0"/>
<stop offset="0.49835" stop-color="#DDEDFF" stop-opacity="0.575701"/>
<stop offset="0.8505" stop-color="#282DA2"/>
<stop offset="1" stop-color="#155314" stop-opacity="0"/>
</linearGradient>
<linearGradient id="paint9_linear_1378_9093" x1="523.999" y1="432.795" x2="523.999" y2="-101.369" gradientUnits="userSpaceOnUse">
<stop stop-color="#228420" stop-opacity="0"/>
<stop offset="0.49835" stop-color="#DDEDFF" stop-opacity="0.575701"/>
<stop offset="0.8505" stop-color="#282DA2"/>
<stop offset="1" stop-color="#155314" stop-opacity="0"/>
</linearGradient>
<linearGradient id="paint10_linear_1378_9093" x1="524" y1="404.419" x2="524" y2="-114.035" gradientUnits="userSpaceOnUse">
<stop stop-color="#228420" stop-opacity="0"/>
<stop offset="0.49835" stop-color="#DDEDFF" stop-opacity="0.575701"/>
<stop offset="0.8505" stop-color="#282DA2"/>
<stop offset="1" stop-color="#155314" stop-opacity="0"/>
</linearGradient>
<linearGradient id="paint11_linear_1378_9093" x1="523.999" y1="376.043" x2="523.999" y2="-126.701" gradientUnits="userSpaceOnUse">
<stop stop-color="#228420" stop-opacity="0"/>
<stop offset="0.49835" stop-color="#DDEDFF" stop-opacity="0.575701"/>
<stop offset="0.8505" stop-color="#282DA2"/>
<stop offset="1" stop-color="#155314" stop-opacity="0"/>
</linearGradient>
<linearGradient id="paint12_linear_1378_9093" x1="524" y1="347.666" x2="524" y2="-139.366" gradientUnits="userSpaceOnUse">
<stop stop-color="#228420" stop-opacity="0"/>
<stop offset="0.49835" stop-color="#DDEDFF" stop-opacity="0.575701"/>
<stop offset="0.8505" stop-color="#282DA2"/>
<stop offset="1" stop-color="#155314" stop-opacity="0"/>
</linearGradient>
<linearGradient id="paint13_linear_1378_9093" x1="523.999" y1="319.29" x2="523.999" y2="-152.032" gradientUnits="userSpaceOnUse">
<stop stop-color="#228420" stop-opacity="0"/>
<stop offset="0.49835" stop-color="#DDEDFF" stop-opacity="0.575701"/>
<stop offset="0.8505" stop-color="#282DA2"/>
<stop offset="1" stop-color="#155314" stop-opacity="0"/>
</linearGradient>
<linearGradient id="paint14_linear_1378_9093" x1="524" y1="290.814" x2="524" y2="-164.742" gradientUnits="userSpaceOnUse">
<stop stop-color="#228420" stop-opacity="0"/>
<stop offset="0.49835" stop-color="#DDEDFF" stop-opacity="0.575701"/>
<stop offset="0.8505" stop-color="#282DA2"/>
<stop offset="1" stop-color="#155314" stop-opacity="0"/>
</linearGradient>
<linearGradient id="paint15_linear_1378_9093" x1="523.999" y1="262.437" x2="523.999" y2="-177.408" gradientUnits="userSpaceOnUse">
<stop stop-color="#228420" stop-opacity="0"/>
<stop offset="0.49835" stop-color="#DDEDFF" stop-opacity="0.575701"/>
<stop offset="0.8505" stop-color="#282DA2"/>
<stop offset="1" stop-color="#155314" stop-opacity="0"/>
</linearGradient>
<linearGradient id="paint16_linear_1378_9093" x1="524" y1="234.061" x2="524" y2="-190.073" gradientUnits="userSpaceOnUse">
<stop stop-color="#228420" stop-opacity="0"/>
<stop offset="0.49835" stop-color="#DDEDFF" stop-opacity="0.575701"/>
<stop offset="0.8505" stop-color="#282DA2"/>
<stop offset="1" stop-color="#155314" stop-opacity="0"/>
</linearGradient>
<linearGradient id="paint17_linear_1378_9093" x1="523.999" y1="205.685" x2="523.999" y2="-202.739" gradientUnits="userSpaceOnUse">
<stop stop-color="#228420" stop-opacity="0"/>
<stop offset="0.49835" stop-color="#DDEDFF" stop-opacity="0.575701"/>
<stop offset="0.8505" stop-color="#282DA2"/>
<stop offset="1" stop-color="#155314" stop-opacity="0"/>
</linearGradient>
<linearGradient id="paint18_linear_1378_9093" x1="524" y1="177.308" x2="524" y2="-215.404" gradientUnits="userSpaceOnUse">
<stop stop-color="#228420" stop-opacity="0"/>
<stop offset="0.49835" stop-color="#DDEDFF" stop-opacity="0.575701"/>
<stop offset="0.8505" stop-color="#282DA2"/>
<stop offset="1" stop-color="#155314" stop-opacity="0"/>
</linearGradient>
<linearGradient id="paint19_linear_1378_9093" x1="524.001" y1="148.932" x2="524.001" y2="-228.07" gradientUnits="userSpaceOnUse">
<stop stop-color="#228420" stop-opacity="0"/>
<stop offset="0.49835" stop-color="#DDEDFF" stop-opacity="0.575701"/>
<stop offset="0.8505" stop-color="#282DA2"/>
<stop offset="1" stop-color="#155314" stop-opacity="0"/>
</linearGradient>
<linearGradient id="paint20_linear_1378_9093" x1="523.998" y1="120.556" x2="523.998" y2="-240.736" gradientUnits="userSpaceOnUse">
<stop stop-color="#228420" stop-opacity="0"/>
<stop offset="0.49835" stop-color="#DDEDFF" stop-opacity="0.575701"/>
<stop offset="0.8505" stop-color="#282DA2"/>
<stop offset="1" stop-color="#155314" stop-opacity="0"/>
</linearGradient>
<linearGradient id="paint21_linear_1378_9093" x1="524.001" y1="92.1794" x2="524.001" y2="-253.401" gradientUnits="userSpaceOnUse">
<stop stop-color="#228420" stop-opacity="0"/>
<stop offset="0.49835" stop-color="#DDEDFF" stop-opacity="0.575701"/>
<stop offset="0.8505" stop-color="#282DA2"/>
<stop offset="1" stop-color="#155314" stop-opacity="0"/>
</linearGradient>
<linearGradient id="paint22_linear_1378_9093" x1="523.998" y1="63.7032" x2="523.998" y2="-266.111" gradientUnits="userSpaceOnUse">
<stop stop-color="#228420" stop-opacity="0"/>
<stop offset="0.49835" stop-color="#DDEDFF" stop-opacity="0.575701"/>
<stop offset="0.8505" stop-color="#282DA2"/>
<stop offset="1" stop-color="#155314" stop-opacity="0"/>
</linearGradient>
<linearGradient id="paint23_linear_1378_9093" x1="524.001" y1="35.3268" x2="524.001" y2="-278.777" gradientUnits="userSpaceOnUse">
<stop stop-color="#228420" stop-opacity="0"/>
<stop offset="0.49835" stop-color="#DDEDFF" stop-opacity="0.575701"/>
<stop offset="0.8505" stop-color="#282DA2"/>
<stop offset="1" stop-color="#155314" stop-opacity="0"/>
</linearGradient>
<clipPath id="clip0_1378_9093">
<rect x="12" y="12" width="1024" height="322" rx="16" fill="white"/>
</clipPath>
<clipPath id="clip1_1378_9093">
<rect width="1700" height="2398" fill="white" transform="translate(-326 -532)"/>
</clipPath>
</defs>
</svg>
