<svg width="32" height="32" viewBox="0 0 32 32" fill="none" xmlns="http://www.w3.org/2000/svg">
<g clip-path="url(#clip0_1993_8862)">
<path d="M16 0.398438C7.16 0.398438 0 7.56244 0 16.3984C0 23.4691 4.584 29.4651 10.94 31.5784C11.74 31.7291 12.0333 31.2344 12.0333 30.8091C12.0333 30.4291 12.02 29.4224 12.0133 28.0891C7.56267 29.0544 6.624 25.9424 6.624 25.9424C5.896 24.0958 4.844 23.6024 4.844 23.6024C3.39467 22.6104 4.956 22.6304 4.956 22.6304C6.56267 22.7424 7.40667 24.2784 7.40667 24.2784C8.83333 26.7251 11.152 26.0184 12.0667 25.6091C12.2107 24.5744 12.6227 23.8691 13.08 23.4691C9.52667 23.0691 5.792 21.6931 5.792 15.5624C5.792 13.8158 6.412 12.3891 7.43867 11.2691C7.25867 10.8651 6.71867 9.23844 7.57867 7.03444C7.57867 7.03444 8.91867 6.6051 11.9787 8.67444C13.2587 8.31844 14.6187 8.14244 15.9787 8.13444C17.3387 8.14244 18.6987 8.31844 19.9787 8.67444C23.0187 6.6051 24.3587 7.03444 24.3587 7.03444C25.2187 9.23844 24.6787 10.8651 24.5187 11.2691C25.5387 12.3891 26.1587 13.8158 26.1587 15.5624C26.1587 21.7091 22.4187 23.0624 18.8587 23.4558C19.4187 23.9358 19.9387 24.9171 19.9387 26.4158C19.9387 28.5571 19.9187 30.2771 19.9187 30.7971C19.9187 31.2171 20.1987 31.7171 21.0187 31.5571C27.42 29.4584 32 23.4584 32 16.3984C32 7.56244 24.836 0.398438 16 0.398438Z" fill="white"/>
</g>
<defs>
<clipPath id="clip0_1993_8862">
<rect width="32" height="32" fill="white"/>
</clipPath>
</defs>
</svg>
