<svg width="1024" height="322" viewBox="0 0 1024 322" fill="none" xmlns="http://www.w3.org/2000/svg">
<g clip-path="url(#clip0_1378_9093)">
<rect width="1024" height="322" rx="16" fill="url(#paint0_linear_1378_9093)"/>
<g opacity="0.12" clip-path="url(#clip1_1378_9093)">
<path d="M-158.201 -544V10.7373C-158.201 95.6665 -140.401 178.198 -105.301 256.133C-71.5008 331.27 -23.0008 398.914 38.6992 457.065C100.299 515.217 171.999 560.878 251.799 592.752C334.399 625.824 421.899 642.61 511.999 642.61C602.099 642.61 689.599 625.824 772.199 592.752C851.999 560.878 923.699 515.217 985.299 457.065C1047 398.914 1095.5 331.27 1129.3 256.133C1164.4 178.198 1182.2 95.6665 1182.2 10.7373V-544H1187.8V10.7373C1187.8 361.245 883.699 647.906 511.999 647.906C140.299 647.906 -163.801 361.245 -163.801 10.7373V-544H-158.201Z" fill="url(#paint1_linear_1378_9093)"/>
<path d="M-133.002 -544V6.24109C-133.002 87.9729 -115.802 167.307 -82.1016 242.244C-49.5016 314.584 -2.90155 379.63 56.4984 435.583C115.898 491.536 184.898 535.5 261.598 566.274C341.098 598.147 425.298 614.234 511.998 614.234C598.698 614.234 682.898 598.147 762.398 566.274C839.098 535.5 908.098 491.536 967.498 435.583C1026.9 379.63 1073.5 314.584 1106.1 242.244C1139.8 167.307 1157 87.9729 1157 6.24109V-544H1162.6V6.24109C1162.6 343.56 869.798 619.53 511.998 619.53C154.198 619.53 -138.602 343.56 -138.602 6.24109V-544H-133.002Z" fill="url(#paint2_linear_1378_9093)"/>
<path d="M-107.701 -544V1.6449C-107.701 80.1794 -91.3008 156.416 -58.8008 228.456C-27.5008 297.998 17.2992 360.446 74.2992 414.201C131.399 467.956 197.699 510.221 271.399 539.796C347.799 570.37 428.699 585.858 511.999 585.858C595.299 585.858 676.199 570.37 752.599 539.796C826.299 510.221 892.599 467.956 949.699 414.201C1006.7 360.446 1051.5 297.998 1082.8 228.456C1115.3 156.416 1131.7 80.1794 1131.7 1.6449V-544H1137.3V1.6449C1137.3 325.874 855.899 591.153 511.999 591.153C168.099 591.153 -113.301 325.874 -113.301 1.6449V-544L-107.701 -544Z" fill="url(#paint3_linear_1378_9093)"/>
<path d="M-82.4 -544V-2.95123C-82.4 72.3859 -66.7 145.525 -35.5 214.667C-5.5 281.312 37.5 341.262 92.2 392.819C146.9 444.376 210.5 484.942 281.2 513.218C354.5 542.594 432.1 557.481 512 557.481C591.9 557.481 669.5 542.594 742.8 513.218C813.5 484.942 877.1 444.376 931.8 392.819C986.5 341.262 1029.5 281.312 1059.5 214.667C1090.7 145.525 1106.4 72.3859 1106.4 -2.95123V-544H1112V-2.95123C1112 308.189 842 562.777 512 562.777C182 562.777 -88 308.189 -88 -2.95123V-544H-82.4Z" fill="url(#paint4_linear_1378_9093)"/>
<path d="M-57.2008 -544V-7.54742C-57.2008 64.5924 -42.1008 134.734 -12.3008 200.779C16.4992 264.626 57.5992 322.078 109.999 371.436C162.399 420.795 223.299 459.663 290.999 486.74C361.199 514.817 435.499 529.105 511.999 529.105C588.499 529.105 662.799 514.817 732.999 486.74C800.699 459.663 861.599 420.795 913.999 371.436C966.399 322.078 1007.5 264.626 1036.3 200.779C1066.1 134.734 1081.2 64.5924 1081.2 -7.54742V-544H1086.8V-7.54742C1086.8 290.504 828.099 534.301 511.999 534.301C195.899 534.301 -62.8008 290.504 -62.8008 -7.54742V-544L-57.2008 -544Z" fill="url(#paint5_linear_1378_9093)"/>
<path d="M-31.9 -544V-12.1436C-31.9 56.7989 -17.5 123.843 11 186.99C38.5 248.039 77.8 302.894 127.8 350.054C177.9 397.215 236.1 434.284 300.8 460.262C367.8 487.04 438.9 500.729 512 500.729C585.1 500.729 656.2 487.04 723.2 460.262C787.9 434.284 846.1 397.215 896.2 350.054C946.2 302.894 985.5 248.039 1013 186.99C1041.5 123.843 1055.9 56.7989 1055.9 -12.1436V-544H1061.5V-12.1436C1061.5 272.819 814.2 505.924 512 505.924C209.8 505.924 -37.5 272.819 -37.5 -12.1436V-544H-31.9Z" fill="url(#paint6_linear_1378_9093)"/>
<path d="M-6.70081 -544V-16.6399C-6.70081 49.0054 7.09922 112.952 34.1992 173.202C60.4992 231.353 97.9992 283.61 145.699 328.672C193.399 373.635 248.899 409.005 310.599 433.685C374.499 459.363 442.299 472.252 511.999 472.252C581.699 472.252 649.499 459.363 713.399 433.685C775.099 409.005 830.599 373.635 878.299 328.672C925.999 283.61 963.499 231.353 989.799 173.202C1016.9 112.952 1030.7 49.0054 1030.7 -16.6399V-544H1036.3V-16.6399C1036.3 255.133 800.299 477.548 511.999 477.548C223.699 477.548 -12.3008 255.133 -12.3008 -16.6399V-544H-6.70081Z" fill="url(#paint7_linear_1378_9093)"/>
<path d="M18.6 -544V-21.236C18.6 41.2119 31.7 102.061 57.5 159.313C82.4 214.667 118.1 264.426 163.5 307.29C208.9 350.054 261.7 383.726 320.4 407.207C381.2 431.586 445.7 443.876 512 443.876C578.3 443.876 642.8 431.586 703.6 407.207C762.3 383.726 815.1 350.054 860.5 307.29C905.9 264.426 941.6 214.667 966.5 159.313C992.3 102.061 1005.4 41.2119 1005.4 -21.236V-544H1011V-21.236C1011 237.448 786.5 449.172 512 449.172C237.5 449.172 13 237.448 13 -21.236V-544H18.6Z" fill="url(#paint8_linear_1378_9093)"/>
<path d="M43.7992 -544V-25.8322C43.7992 33.5183 56.2992 91.1702 80.7992 145.525C104.399 198.081 138.299 245.242 181.399 285.908C224.399 326.474 274.499 358.347 330.199 380.729C387.899 403.81 449.099 415.5 511.999 415.5C574.899 415.5 636.099 403.81 693.799 380.729C749.499 358.347 799.599 326.474 842.599 285.908C885.699 245.242 919.599 198.081 943.199 145.525C967.699 91.1702 980.199 33.5183 980.199 -25.8322V-544H985.799V-25.8322C985.799 219.763 772.599 420.795 511.999 420.795C251.399 420.795 38.1992 219.763 38.1992 -25.8322V-544H43.7992Z" fill="url(#paint9_linear_1378_9093)"/>
<path d="M69.1 -544V-30.4283C69.1 25.7249 80.8 80.2793 104 131.736C126.4 181.395 158.4 226.058 199.2 264.426C240 302.894 287.3 333.069 340 354.151C394.6 376.033 452.5 387.123 512 387.123C571.5 387.123 629.4 376.033 684 354.151C736.7 333.069 784 302.894 824.8 264.426C865.6 226.058 897.6 181.395 920 131.736C943.2 80.2793 954.9 25.7249 954.9 -30.4283V-544H960.5V-30.4283C960.5 202.178 758.7 392.419 512 392.419C265.3 392.419 63.5 202.178 63.5 -30.4283V-544H69.1Z" fill="url(#paint10_linear_1378_9093)"/>
<path d="M94.2988 -544V-35.0245C94.2988 69.6882 137.899 168.506 216.999 243.044C296.199 317.681 400.899 358.747 511.999 358.747C623.099 358.747 727.799 317.681 806.999 243.044C886.099 168.506 929.699 69.6882 929.699 -35.0245V-544H935.199V-35.0245C935.199 184.492 744.799 364.043 511.999 364.043C279.199 364.043 88.7988 184.492 88.7988 -35.0245V-544H94.2988Z" fill="url(#paint11_linear_1378_9093)"/>
<path d="M119.6 -544V-39.6207C119.6 58.7972 160.5 151.62 234.9 221.661C309.2 291.803 407.6 330.371 512 330.371C616.4 330.371 714.8 291.803 789.1 221.661C863.5 151.62 904.4 58.7972 904.4 -39.6207V-544H910V-39.6207C910 166.807 730.9 335.666 512 335.666C293.1 335.666 114 166.807 114 -39.6207V-544H119.6Z" fill="url(#paint12_linear_1378_9093)"/>
<path d="M144.899 -544V-44.1169C144.899 47.9064 183.199 134.734 252.699 200.279C322.299 265.825 414.299 301.995 511.999 301.995C609.699 301.995 701.699 265.825 771.299 200.279C840.799 134.734 879.099 47.9064 879.099 -44.1169V-544H884.699V-44.1169C884.699 149.122 716.999 307.29 511.999 307.29C306.999 307.29 139.299 149.122 139.299 -44.1169V-544H144.899Z" fill="url(#paint13_linear_1378_9093)"/>
<path d="M170.1 -544V-48.7131C170.1 37.0154 205.8 117.848 270.5 178.897C335.3 239.946 421.1 273.618 512 273.618C602.9 273.618 688.7 239.946 753.5 178.897C818.2 117.848 853.9 37.0154 853.9 -48.7131V-544H859.5V-48.7131C859.5 131.437 703.1 278.814 512 278.814C320.9 278.814 164.5 131.437 164.5 -48.7131V-544H170.1Z" fill="url(#paint14_linear_1378_9093)"/>
<path d="M195.399 -544V-53.3092C195.399 26.1245 228.399 100.962 288.399 157.515C348.399 214.068 427.799 245.242 511.999 245.242C596.199 245.242 675.599 214.068 735.599 157.515C795.599 100.962 828.599 26.1245 828.599 -53.3092V-544H834.199V-53.3092C834.199 113.751 689.199 250.437 511.999 250.437C334.799 250.437 189.799 113.751 189.799 -53.3092V-544H195.399Z" fill="url(#paint15_linear_1378_9093)"/>
<path d="M220.6 -544V-57.9054C220.6 15.1337 251 84.0762 306.2 136.133C361.4 188.189 434.5 216.766 512 216.766C589.5 216.766 662.6 188.189 717.8 136.133C773 84.0762 803.4 15.1337 803.4 -57.9054V-544H809V-57.9054C809 96.0662 675.3 222.061 512 222.061C348.7 222.061 215 96.0662 215 -57.9054V-544H220.6Z" fill="url(#paint16_linear_1378_9093)"/>
<path d="M245.899 -544V-62.5016C245.899 4.24274 273.599 67.1902 324.099 114.751C374.499 162.211 441.199 188.389 511.999 188.389C582.799 188.389 649.499 162.211 699.899 114.751C750.399 67.1902 778.099 4.24274 778.099 -62.5016V-544H783.699V-62.5016C783.699 78.3809 661.399 193.685 511.999 193.685C362.599 193.685 240.299 78.3809 240.299 -62.5016V-544H245.899Z" fill="url(#paint17_linear_1378_9093)"/>
<path d="M271.1 -544V-66.9978C271.1 -6.64813 296.3 50.3044 341.9 93.3685C387.5 136.333 447.9 160.013 512 160.013C576.1 160.013 636.5 136.333 682.1 93.3685C727.7 50.3044 752.9 -6.64813 752.9 -66.9978V-544H758.5V-66.9978C758.5 60.6957 647.5 165.308 512 165.308C376.5 165.308 265.5 60.6957 265.5 -66.9978V-544H271.1Z" fill="url(#paint18_linear_1378_9093)"/>
<path d="M296.401 -544V-71.594C296.401 -17.5391 318.901 33.4185 359.701 71.8864C400.601 110.454 454.701 131.637 512.001 131.637C569.301 131.637 623.401 110.454 664.301 71.8864C705.101 33.4185 727.601 -17.5391 727.601 -71.594V-544H733.201V-71.594C733.201 43.1104 633.701 136.932 512.001 136.932C390.301 136.932 290.801 43.1104 290.801 -71.594V-544H296.401Z" fill="url(#paint19_linear_1378_9093)"/>
<path d="M321.698 -544V-76.1901C321.698 -28.4299 341.498 16.5326 377.598 50.5042C413.598 84.5758 461.398 103.26 511.998 103.26C562.598 103.26 610.398 84.5758 646.398 50.5042C682.498 16.5326 702.298 -28.4299 702.298 -76.1901V-544H707.898V-76.1901C707.898 25.4252 619.798 108.556 511.998 108.556C404.198 108.556 316.098 25.4252 316.098 -76.1901V-544H321.698Z" fill="url(#paint20_linear_1378_9093)"/>
<path d="M346.901 -544V-80.7863C346.901 5.04205 421.001 74.8839 512.001 74.8839C603.001 74.8839 677.101 5.04205 677.101 -80.7863V-544H682.701V-80.7863C682.701 7.73981 605.901 80.1794 512.001 80.1794C418.101 80.1794 341.301 7.73981 341.301 -80.7863V-544H346.901Z" fill="url(#paint21_linear_1378_9093)"/>
<path d="M372.198 -544V-85.3825C372.198 -12.6432 434.898 46.5075 511.998 46.5075C589.098 46.5075 651.798 -12.6432 651.798 -85.3825V-544H657.398V-85.3825C657.398 -9.94543 591.998 51.7032 511.998 51.7032C431.998 51.7032 366.598 -9.94543 366.598 -85.3825V-544H372.198Z" fill="url(#paint22_linear_1378_9093)"/>
<path d="M397.401 -544V-89.9786C397.401 -30.3284 448.801 18.1312 512.001 18.1312C575.201 18.1312 626.601 -30.3284 626.601 -89.9786V-544H632.201V-89.9786C632.201 -27.6306 578.101 23.3268 512.001 23.3268C445.901 23.3268 391.801 -27.6306 391.801 -89.9786V-544L397.401 -544Z" fill="url(#paint23_linear_1378_9093)"/>
</g>
<g opacity="0.8">
<path d="M456.787 262.416C456.787 261.328 457.038 260.352 457.539 259.488C458.051 258.624 458.739 257.952 459.603 257.472C460.478 256.981 461.433 256.736 462.467 256.736C463.651 256.736 464.702 257.029 465.619 257.616C466.547 258.192 467.219 259.013 467.635 260.08H465.443C465.155 259.493 464.755 259.056 464.243 258.768C463.731 258.48 463.139 258.336 462.467 258.336C461.731 258.336 461.075 258.501 460.499 258.832C459.923 259.163 459.47 259.637 459.139 260.256C458.819 260.875 458.659 261.595 458.659 262.416C458.659 263.237 458.819 263.957 459.139 264.576C459.47 265.195 459.923 265.675 460.499 266.016C461.075 266.347 461.731 266.512 462.467 266.512C463.139 266.512 463.731 266.368 464.243 266.08C464.755 265.792 465.155 265.355 465.443 264.768H467.635C467.219 265.835 466.547 266.656 465.619 267.232C464.702 267.808 463.651 268.096 462.467 268.096C461.422 268.096 460.467 267.856 459.603 267.376C458.739 266.885 458.051 266.208 457.539 265.344C457.038 264.48 456.787 263.504 456.787 262.416ZM473.594 268.144C472.762 268.144 472.01 267.957 471.338 267.584C470.666 267.2 470.138 266.667 469.754 265.984C469.37 265.291 469.178 264.491 469.178 263.584C469.178 262.688 469.376 261.893 469.77 261.2C470.165 260.507 470.704 259.973 471.386 259.6C472.069 259.227 472.832 259.04 473.674 259.04C474.517 259.04 475.28 259.227 475.962 259.6C476.645 259.973 477.184 260.507 477.578 261.2C477.973 261.893 478.17 262.688 478.17 263.584C478.17 264.48 477.968 265.275 477.562 265.968C477.157 266.661 476.602 267.2 475.898 267.584C475.205 267.957 474.437 268.144 473.594 268.144ZM473.594 266.56C474.064 266.56 474.501 266.448 474.906 266.224C475.322 266 475.658 265.664 475.914 265.216C476.17 264.768 476.298 264.224 476.298 263.584C476.298 262.944 476.176 262.405 475.93 261.968C475.685 261.52 475.36 261.184 474.954 260.96C474.549 260.736 474.112 260.624 473.642 260.624C473.173 260.624 472.736 260.736 472.33 260.96C471.936 261.184 471.621 261.52 471.386 261.968C471.152 262.405 471.034 262.944 471.034 263.584C471.034 264.533 471.274 265.269 471.754 265.792C472.245 266.304 472.858 266.56 473.594 266.56ZM484.421 259.04C485.115 259.04 485.733 259.184 486.277 259.472C486.832 259.76 487.264 260.187 487.573 260.752C487.883 261.317 488.037 262 488.037 262.8V268H486.229V263.072C486.229 262.283 486.032 261.68 485.637 261.264C485.243 260.837 484.704 260.624 484.021 260.624C483.339 260.624 482.795 260.837 482.389 261.264C481.995 261.68 481.797 262.283 481.797 263.072V268H479.973V259.184H481.797V260.192C482.096 259.829 482.475 259.547 482.933 259.344C483.403 259.141 483.899 259.04 484.421 259.04ZM492.492 260.672V265.552C492.492 265.883 492.567 266.123 492.716 266.272C492.876 266.411 493.143 266.48 493.516 266.48H494.636V268H493.196C492.375 268 491.745 267.808 491.308 267.424C490.871 267.04 490.652 266.416 490.652 265.552V260.672H489.612V259.184H490.652V256.992H492.492V259.184H494.636V260.672H492.492ZM495.709 263.552C495.709 262.667 495.891 261.883 496.253 261.2C496.627 260.517 497.128 259.989 497.757 259.616C498.397 259.232 499.101 259.04 499.869 259.04C500.563 259.04 501.165 259.179 501.677 259.456C502.2 259.723 502.616 260.059 502.925 260.464V259.184H504.765V268H502.925V266.688C502.616 267.104 502.195 267.451 501.661 267.728C501.128 268.005 500.52 268.144 499.837 268.144C499.08 268.144 498.387 267.952 497.757 267.568C497.128 267.173 496.627 266.629 496.253 265.936C495.891 265.232 495.709 264.437 495.709 263.552ZM502.925 263.584C502.925 262.976 502.797 262.448 502.541 262C502.296 261.552 501.971 261.211 501.565 260.976C501.16 260.741 500.723 260.624 500.253 260.624C499.784 260.624 499.347 260.741 498.941 260.976C498.536 261.2 498.205 261.536 497.949 261.984C497.704 262.421 497.581 262.944 497.581 263.552C497.581 264.16 497.704 264.693 497.949 265.152C498.205 265.611 498.536 265.963 498.941 266.208C499.357 266.443 499.795 266.56 500.253 266.56C500.723 266.56 501.16 266.443 501.565 266.208C501.971 265.973 502.296 265.632 502.541 265.184C502.797 264.725 502.925 264.192 502.925 263.584ZM506.553 263.584C506.553 262.677 506.734 261.883 507.097 261.2C507.47 260.507 507.982 259.973 508.633 259.6C509.284 259.227 510.03 259.04 510.873 259.04C511.94 259.04 512.82 259.296 513.513 259.808C514.217 260.309 514.692 261.029 514.937 261.968H512.969C512.809 261.531 512.553 261.189 512.201 260.944C511.849 260.699 511.406 260.576 510.873 260.576C510.126 260.576 509.529 260.843 509.081 261.376C508.644 261.899 508.425 262.635 508.425 263.584C508.425 264.533 508.644 265.275 509.081 265.808C509.529 266.341 510.126 266.608 510.873 266.608C511.929 266.608 512.628 266.144 512.969 265.216H514.937C514.681 266.112 514.201 266.827 513.497 267.36C512.793 267.883 511.918 268.144 510.873 268.144C510.03 268.144 509.284 267.957 508.633 267.584C507.982 267.2 507.47 266.667 507.097 265.984C506.734 265.291 506.553 264.491 506.553 263.584ZM518.883 260.672V265.552C518.883 265.883 518.957 266.123 519.107 266.272C519.267 266.411 519.533 266.48 519.907 266.48H521.027V268H519.587C518.765 268 518.136 267.808 517.699 267.424C517.261 267.04 517.043 266.416 517.043 265.552V260.672H516.003V259.184H517.043V256.992H518.883V259.184H521.027V260.672H518.883ZM530.528 268.112C529.781 268.112 529.109 267.984 528.512 267.728C527.915 267.461 527.445 267.088 527.104 266.608C526.763 266.128 526.592 265.568 526.592 264.928H528.544C528.587 265.408 528.773 265.803 529.104 266.112C529.445 266.421 529.92 266.576 530.528 266.576C531.157 266.576 531.648 266.427 532 266.128C532.352 265.819 532.528 265.424 532.528 264.944C532.528 264.571 532.416 264.267 532.192 264.032C531.979 263.797 531.707 263.616 531.376 263.488C531.056 263.36 530.608 263.221 530.032 263.072C529.307 262.88 528.715 262.688 528.256 262.496C527.808 262.293 527.424 261.984 527.104 261.568C526.784 261.152 526.624 260.597 526.624 259.904C526.624 259.264 526.784 258.704 527.104 258.224C527.424 257.744 527.872 257.376 528.448 257.12C529.024 256.864 529.691 256.736 530.448 256.736C531.525 256.736 532.405 257.008 533.088 257.552C533.781 258.085 534.165 258.821 534.24 259.76H532.224C532.192 259.355 532 259.008 531.648 258.72C531.296 258.432 530.832 258.288 530.256 258.288C529.733 258.288 529.307 258.421 528.976 258.688C528.645 258.955 528.48 259.339 528.48 259.84C528.48 260.181 528.581 260.464 528.784 260.688C528.997 260.901 529.264 261.072 529.584 261.2C529.904 261.328 530.341 261.467 530.896 261.616C531.632 261.819 532.229 262.021 532.688 262.224C533.157 262.427 533.552 262.741 533.872 263.168C534.203 263.584 534.368 264.144 534.368 264.848C534.368 265.413 534.213 265.947 533.904 266.448C533.605 266.949 533.163 267.355 532.576 267.664C532 267.963 531.317 268.112 530.528 268.112ZM535.912 263.552C535.912 262.667 536.094 261.883 536.456 261.2C536.83 260.517 537.331 259.989 537.96 259.616C538.6 259.232 539.304 259.04 540.072 259.04C540.766 259.04 541.368 259.179 541.88 259.456C542.403 259.723 542.819 260.059 543.128 260.464V259.184H544.968V268H543.128V266.688C542.819 267.104 542.398 267.451 541.864 267.728C541.331 268.005 540.723 268.144 540.04 268.144C539.283 268.144 538.59 267.952 537.96 267.568C537.331 267.173 536.83 266.629 536.456 265.936C536.094 265.232 535.912 264.437 535.912 263.552ZM543.128 263.584C543.128 262.976 543 262.448 542.744 262C542.499 261.552 542.174 261.211 541.768 260.976C541.363 260.741 540.926 260.624 540.456 260.624C539.987 260.624 539.55 260.741 539.144 260.976C538.739 261.2 538.408 261.536 538.152 261.984C537.907 262.421 537.784 262.944 537.784 263.552C537.784 264.16 537.907 264.693 538.152 265.152C538.408 265.611 538.739 265.963 539.144 266.208C539.56 266.443 539.998 266.56 540.456 266.56C540.926 266.56 541.363 266.443 541.768 266.208C542.174 265.973 542.499 265.632 542.744 265.184C543 264.725 543.128 264.192 543.128 263.584ZM549.188 256.16V268H547.364V256.16H549.188ZM559.663 263.376C559.663 263.707 559.641 264.005 559.599 264.272H552.863C552.916 264.976 553.177 265.541 553.647 265.968C554.116 266.395 554.692 266.608 555.375 266.608C556.356 266.608 557.049 266.197 557.455 265.376H559.423C559.156 266.187 558.671 266.853 557.967 267.376C557.273 267.888 556.409 268.144 555.375 268.144C554.532 268.144 553.775 267.957 553.103 267.584C552.441 267.2 551.919 266.667 551.535 265.984C551.161 265.291 550.975 264.491 550.975 263.584C550.975 262.677 551.156 261.883 551.519 261.2C551.892 260.507 552.409 259.973 553.071 259.6C553.743 259.227 554.511 259.04 555.375 259.04C556.207 259.04 556.948 259.221 557.599 259.584C558.249 259.947 558.756 260.459 559.119 261.12C559.481 261.771 559.663 262.523 559.663 263.376ZM557.759 262.8C557.748 262.128 557.508 261.589 557.039 261.184C556.569 260.779 555.988 260.576 555.295 260.576C554.665 260.576 554.127 260.779 553.679 261.184C553.231 261.579 552.964 262.117 552.879 262.8H557.759ZM564.658 268.144C563.964 268.144 563.34 268.021 562.786 267.776C562.242 267.52 561.81 267.179 561.49 266.752C561.17 266.315 560.999 265.829 560.978 265.296H562.866C562.898 265.669 563.074 265.984 563.394 266.24C563.724 266.485 564.135 266.608 564.626 266.608C565.138 266.608 565.532 266.512 565.81 266.32C566.098 266.117 566.242 265.861 566.242 265.552C566.242 265.221 566.082 264.976 565.762 264.816C565.452 264.656 564.956 264.48 564.274 264.288C563.612 264.107 563.074 263.931 562.658 263.76C562.242 263.589 561.879 263.328 561.57 262.976C561.271 262.624 561.122 262.16 561.122 261.584C561.122 261.115 561.26 260.688 561.538 260.304C561.815 259.909 562.21 259.6 562.722 259.376C563.244 259.152 563.842 259.04 564.514 259.04C565.516 259.04 566.322 259.296 566.93 259.808C567.548 260.309 567.879 260.997 567.922 261.872H566.098C566.066 261.477 565.906 261.163 565.618 260.928C565.33 260.693 564.94 260.576 564.45 260.576C563.97 260.576 563.602 260.667 563.346 260.848C563.09 261.029 562.962 261.269 562.962 261.568C562.962 261.803 563.047 262 563.218 262.16C563.388 262.32 563.596 262.448 563.842 262.544C564.087 262.629 564.45 262.741 564.93 262.88C565.57 263.051 566.092 263.227 566.498 263.408C566.914 263.579 567.271 263.835 567.57 264.176C567.868 264.517 568.023 264.971 568.034 265.536C568.034 266.037 567.895 266.485 567.618 266.88C567.34 267.275 566.946 267.584 566.434 267.808C565.932 268.032 565.34 268.144 564.658 268.144Z" fill="#2A454B"/>
</g>
<path d="M294.113 104L297 106.887L299.887 104L297 101.113L294.113 104ZM729.887 104L727 101.113L724.113 104L727 106.887L729.887 104ZM297 104.5H727V103.5H297V104.5Z" fill="white" fill-opacity="0.2"/>
</g>
<defs>
<linearGradient id="paint0_linear_1378_9093" x1="0" y1="0" x2="1023.42" y2="323.821" gradientUnits="userSpaceOnUse">
<stop stop-color="#103CAE"/>
<stop offset="0.531228" stop-color="#2A454B"/>
<stop offset="1" stop-color="#356D9A"/>
</linearGradient>
<linearGradient id="paint1_linear_1378_9093" x1="511.999" y1="647.906" x2="511.999" y2="-12" gradientUnits="userSpaceOnUse">
<stop stop-color="#228420" stop-opacity="0"/>
<stop offset="0.49835" stop-color="#DDEDFF" stop-opacity="0.575701"/>
<stop offset="0.8505" stop-color="#282DA2"/>
<stop offset="1" stop-color="#155314" stop-opacity="0"/>
</linearGradient>
<linearGradient id="paint2_linear_1378_9093" x1="511.998" y1="619.53" x2="511.998" y2="-24.6656" gradientUnits="userSpaceOnUse">
<stop stop-color="#228420" stop-opacity="0"/>
<stop offset="0.49835" stop-color="#DDEDFF" stop-opacity="0.575701"/>
<stop offset="0.8505" stop-color="#282DA2"/>
<stop offset="1" stop-color="#155314" stop-opacity="0"/>
</linearGradient>
<linearGradient id="paint3_linear_1378_9093" x1="511.999" y1="591.153" x2="511.999" y2="-37.3312" gradientUnits="userSpaceOnUse">
<stop stop-color="#228420" stop-opacity="0"/>
<stop offset="0.49835" stop-color="#DDEDFF" stop-opacity="0.575701"/>
<stop offset="0.8505" stop-color="#282DA2"/>
<stop offset="1" stop-color="#155314" stop-opacity="0"/>
</linearGradient>
<linearGradient id="paint4_linear_1378_9093" x1="512" y1="562.777" x2="512" y2="-49.9968" gradientUnits="userSpaceOnUse">
<stop stop-color="#228420" stop-opacity="0"/>
<stop offset="0.49835" stop-color="#DDEDFF" stop-opacity="0.575701"/>
<stop offset="0.8505" stop-color="#282DA2"/>
<stop offset="1" stop-color="#155314" stop-opacity="0"/>
</linearGradient>
<linearGradient id="paint5_linear_1378_9093" x1="511.999" y1="534.301" x2="511.999" y2="-62.7071" gradientUnits="userSpaceOnUse">
<stop stop-color="#228420" stop-opacity="0"/>
<stop offset="0.49835" stop-color="#DDEDFF" stop-opacity="0.575701"/>
<stop offset="0.8505" stop-color="#282DA2"/>
<stop offset="1" stop-color="#155314" stop-opacity="0"/>
</linearGradient>
<linearGradient id="paint6_linear_1378_9093" x1="512" y1="505.924" x2="512" y2="-75.3726" gradientUnits="userSpaceOnUse">
<stop stop-color="#228420" stop-opacity="0"/>
<stop offset="0.49835" stop-color="#DDEDFF" stop-opacity="0.575701"/>
<stop offset="0.8505" stop-color="#282DA2"/>
<stop offset="1" stop-color="#155314" stop-opacity="0"/>
</linearGradient>
<linearGradient id="paint7_linear_1378_9093" x1="511.999" y1="477.548" x2="511.999" y2="-88.0382" gradientUnits="userSpaceOnUse">
<stop stop-color="#228420" stop-opacity="0"/>
<stop offset="0.49835" stop-color="#DDEDFF" stop-opacity="0.575701"/>
<stop offset="0.8505" stop-color="#282DA2"/>
<stop offset="1" stop-color="#155314" stop-opacity="0"/>
</linearGradient>
<linearGradient id="paint8_linear_1378_9093" x1="512" y1="449.172" x2="512" y2="-100.704" gradientUnits="userSpaceOnUse">
<stop stop-color="#228420" stop-opacity="0"/>
<stop offset="0.49835" stop-color="#DDEDFF" stop-opacity="0.575701"/>
<stop offset="0.8505" stop-color="#282DA2"/>
<stop offset="1" stop-color="#155314" stop-opacity="0"/>
</linearGradient>
<linearGradient id="paint9_linear_1378_9093" x1="511.999" y1="420.795" x2="511.999" y2="-113.369" gradientUnits="userSpaceOnUse">
<stop stop-color="#228420" stop-opacity="0"/>
<stop offset="0.49835" stop-color="#DDEDFF" stop-opacity="0.575701"/>
<stop offset="0.8505" stop-color="#282DA2"/>
<stop offset="1" stop-color="#155314" stop-opacity="0"/>
</linearGradient>
<linearGradient id="paint10_linear_1378_9093" x1="512" y1="392.419" x2="512" y2="-126.035" gradientUnits="userSpaceOnUse">
<stop stop-color="#228420" stop-opacity="0"/>
<stop offset="0.49835" stop-color="#DDEDFF" stop-opacity="0.575701"/>
<stop offset="0.8505" stop-color="#282DA2"/>
<stop offset="1" stop-color="#155314" stop-opacity="0"/>
</linearGradient>
<linearGradient id="paint11_linear_1378_9093" x1="511.999" y1="364.043" x2="511.999" y2="-138.701" gradientUnits="userSpaceOnUse">
<stop stop-color="#228420" stop-opacity="0"/>
<stop offset="0.49835" stop-color="#DDEDFF" stop-opacity="0.575701"/>
<stop offset="0.8505" stop-color="#282DA2"/>
<stop offset="1" stop-color="#155314" stop-opacity="0"/>
</linearGradient>
<linearGradient id="paint12_linear_1378_9093" x1="512" y1="335.666" x2="512" y2="-151.366" gradientUnits="userSpaceOnUse">
<stop stop-color="#228420" stop-opacity="0"/>
<stop offset="0.49835" stop-color="#DDEDFF" stop-opacity="0.575701"/>
<stop offset="0.8505" stop-color="#282DA2"/>
<stop offset="1" stop-color="#155314" stop-opacity="0"/>
</linearGradient>
<linearGradient id="paint13_linear_1378_9093" x1="511.999" y1="307.29" x2="511.999" y2="-164.032" gradientUnits="userSpaceOnUse">
<stop stop-color="#228420" stop-opacity="0"/>
<stop offset="0.49835" stop-color="#DDEDFF" stop-opacity="0.575701"/>
<stop offset="0.8505" stop-color="#282DA2"/>
<stop offset="1" stop-color="#155314" stop-opacity="0"/>
</linearGradient>
<linearGradient id="paint14_linear_1378_9093" x1="512" y1="278.814" x2="512" y2="-176.742" gradientUnits="userSpaceOnUse">
<stop stop-color="#228420" stop-opacity="0"/>
<stop offset="0.49835" stop-color="#DDEDFF" stop-opacity="0.575701"/>
<stop offset="0.8505" stop-color="#282DA2"/>
<stop offset="1" stop-color="#155314" stop-opacity="0"/>
</linearGradient>
<linearGradient id="paint15_linear_1378_9093" x1="511.999" y1="250.437" x2="511.999" y2="-189.408" gradientUnits="userSpaceOnUse">
<stop stop-color="#228420" stop-opacity="0"/>
<stop offset="0.49835" stop-color="#DDEDFF" stop-opacity="0.575701"/>
<stop offset="0.8505" stop-color="#282DA2"/>
<stop offset="1" stop-color="#155314" stop-opacity="0"/>
</linearGradient>
<linearGradient id="paint16_linear_1378_9093" x1="512" y1="222.061" x2="512" y2="-202.073" gradientUnits="userSpaceOnUse">
<stop stop-color="#228420" stop-opacity="0"/>
<stop offset="0.49835" stop-color="#DDEDFF" stop-opacity="0.575701"/>
<stop offset="0.8505" stop-color="#282DA2"/>
<stop offset="1" stop-color="#155314" stop-opacity="0"/>
</linearGradient>
<linearGradient id="paint17_linear_1378_9093" x1="511.999" y1="193.685" x2="511.999" y2="-214.739" gradientUnits="userSpaceOnUse">
<stop stop-color="#228420" stop-opacity="0"/>
<stop offset="0.49835" stop-color="#DDEDFF" stop-opacity="0.575701"/>
<stop offset="0.8505" stop-color="#282DA2"/>
<stop offset="1" stop-color="#155314" stop-opacity="0"/>
</linearGradient>
<linearGradient id="paint18_linear_1378_9093" x1="512" y1="165.308" x2="512" y2="-227.404" gradientUnits="userSpaceOnUse">
<stop stop-color="#228420" stop-opacity="0"/>
<stop offset="0.49835" stop-color="#DDEDFF" stop-opacity="0.575701"/>
<stop offset="0.8505" stop-color="#282DA2"/>
<stop offset="1" stop-color="#155314" stop-opacity="0"/>
</linearGradient>
<linearGradient id="paint19_linear_1378_9093" x1="512.001" y1="136.932" x2="512.001" y2="-240.07" gradientUnits="userSpaceOnUse">
<stop stop-color="#228420" stop-opacity="0"/>
<stop offset="0.49835" stop-color="#DDEDFF" stop-opacity="0.575701"/>
<stop offset="0.8505" stop-color="#282DA2"/>
<stop offset="1" stop-color="#155314" stop-opacity="0"/>
</linearGradient>
<linearGradient id="paint20_linear_1378_9093" x1="511.998" y1="108.556" x2="511.998" y2="-252.736" gradientUnits="userSpaceOnUse">
<stop stop-color="#228420" stop-opacity="0"/>
<stop offset="0.49835" stop-color="#DDEDFF" stop-opacity="0.575701"/>
<stop offset="0.8505" stop-color="#282DA2"/>
<stop offset="1" stop-color="#155314" stop-opacity="0"/>
</linearGradient>
<linearGradient id="paint21_linear_1378_9093" x1="512.001" y1="80.1794" x2="512.001" y2="-265.401" gradientUnits="userSpaceOnUse">
<stop stop-color="#228420" stop-opacity="0"/>
<stop offset="0.49835" stop-color="#DDEDFF" stop-opacity="0.575701"/>
<stop offset="0.8505" stop-color="#282DA2"/>
<stop offset="1" stop-color="#155314" stop-opacity="0"/>
</linearGradient>
<linearGradient id="paint22_linear_1378_9093" x1="511.998" y1="51.7032" x2="511.998" y2="-278.111" gradientUnits="userSpaceOnUse">
<stop stop-color="#228420" stop-opacity="0"/>
<stop offset="0.49835" stop-color="#DDEDFF" stop-opacity="0.575701"/>
<stop offset="0.8505" stop-color="#282DA2"/>
<stop offset="1" stop-color="#155314" stop-opacity="0"/>
</linearGradient>
<linearGradient id="paint23_linear_1378_9093" x1="512.001" y1="23.3268" x2="512.001" y2="-290.777" gradientUnits="userSpaceOnUse">
<stop stop-color="#228420" stop-opacity="0"/>
<stop offset="0.49835" stop-color="#DDEDFF" stop-opacity="0.575701"/>
<stop offset="0.8505" stop-color="#282DA2"/>
<stop offset="1" stop-color="#155314" stop-opacity="0"/>
</linearGradient>
<clipPath id="clip0_1378_9093">
<rect width="1024" height="322" rx="16" fill="white"/>
</clipPath>
<clipPath id="clip1_1378_9093">
<rect width="1700" height="2398" fill="white" transform="translate(-338 -544)"/>
</clipPath>
</defs>
</svg>
