<svg width="194" height="36" viewBox="0 0 194 36" fill="none" xmlns="http://www.w3.org/2000/svg">
<path d="M50.6306 0.699219L35.0747 9.35493V26.3235L50.6306 34.9793L66.1865 26.3235V9.35493M50.6306 5.6484L59.0752 10.3405L50.6306 15.0326L42.2082 10.3405M15.0742 7.12673V11.4117H30.6301V7.12673M39.5192 13.7899L48.4083 18.7391V28.7874L39.5192 23.8597M61.742 13.7899V23.8597L52.8529 28.7874V18.7391M19.5188 15.6967V19.9817H30.6301V15.6967M23.9633 24.2667V28.5517H30.6301V24.2667" fill="#FF9800"/>
<mask id="path-2-inside-1_743_3942" fill="white">
<path d="M84.8396 12.9956H88.0259V27.849C88.0259 28.7837 87.8591 29.571 87.5256 30.211C87.192 30.8594 86.7005 31.3478 86.0509 31.676C85.4013 32.0129 84.6069 32.1814 83.6677 32.1814C83.3868 32.1814 83.0971 32.1603 82.7987 32.1181C82.4915 32.0844 82.2018 32.0341 81.9297 31.9667L81.9429 29.5921C82.1272 29.6258 82.3247 29.6511 82.5354 29.6679C82.7373 29.693 82.9304 29.7058 83.1147 29.7058C83.4921 29.7058 83.8082 29.6427 84.0627 29.5163C84.3173 29.3901 84.5104 29.1921 84.642 28.9227C84.7737 28.6532 84.8396 28.2954 84.8396 27.849V12.9956ZM84.563 9.40853C84.563 8.9454 84.7254 8.56228 85.0502 8.25915C85.375 7.94759 85.8183 7.79182 86.3801 7.79182C86.9506 7.79182 87.3939 7.94759 87.7099 8.25915C88.0347 8.56228 88.1971 8.9454 88.1971 9.40853C88.1971 9.86322 88.0347 10.2421 87.7099 10.5453C87.3939 10.8484 86.9506 11 86.3801 11C85.8183 11 85.375 10.8484 85.0502 10.5453C84.7254 10.2421 84.563 9.86322 84.563 9.40853ZM94.8463 12.9956V26.6618H91.66V12.9956H94.8463ZM91.4493 9.40853C91.4493 8.9454 91.6073 8.56228 91.9233 8.25915C92.2481 7.94759 92.6958 7.79182 93.2663 7.79182C93.8281 7.79182 94.2714 7.94759 94.5962 8.25915C94.921 8.56228 95.0833 8.9454 95.0833 9.40853C95.0833 9.86322 94.921 10.2421 94.5962 10.5453C94.2714 10.8484 93.8281 11 93.2663 11C92.6958 11 92.2481 10.8484 91.9233 10.5453C91.6073 10.2421 91.4493 9.86322 91.4493 9.40853ZM102.615 26.6618H99.4416V11.682C99.4416 10.6632 99.6391 9.80848 100.034 9.11803C100.438 8.41913 101.013 7.89286 101.759 7.53921C102.505 7.17713 103.387 6.99609 104.405 6.99609C104.721 6.99609 105.033 7.01714 105.34 7.05925C105.647 7.09293 105.946 7.14766 106.236 7.22344L106.157 9.57271C105.981 9.53062 105.788 9.50115 105.577 9.48431C105.375 9.46746 105.156 9.45905 104.919 9.45905C104.436 9.45905 104.019 9.54745 103.668 9.72429C103.326 9.89269 103.062 10.1411 102.878 10.4695C102.703 10.7979 102.615 11.202 102.615 11.682V26.6618ZM105.551 12.9956V15.2186H97.2559V12.9956H105.551ZM112.147 26.6618H108.974V11.682C108.974 10.6632 109.172 9.80848 109.567 9.11803C109.971 8.41913 110.546 7.89286 111.292 7.53921C112.038 7.17713 112.92 6.99609 113.938 6.99609C114.254 6.99609 114.566 7.01714 114.873 7.05925C115.18 7.09293 115.479 7.14766 115.768 7.22344L115.689 9.57271C115.514 9.53062 115.321 9.50115 115.11 9.48431C114.908 9.46746 114.689 9.45905 114.452 9.45905C113.969 9.45905 113.552 9.54745 113.201 9.72429C112.859 9.89269 112.595 10.1411 112.411 10.4695C112.235 10.7979 112.147 11.202 112.147 11.682V26.6618ZM115.084 12.9956V15.2186H106.789V12.9956H115.084ZM121.522 25.1715L125.393 12.9956H128.79L123.076 28.7459C122.944 29.0826 122.773 29.4489 122.563 29.8447C122.352 30.2404 122.075 30.6151 121.733 30.9688C121.399 31.3309 120.983 31.6214 120.482 31.8403C119.982 32.0676 119.376 32.1814 118.665 32.1814C118.384 32.1814 118.112 32.1561 117.849 32.1056C117.594 32.0635 117.353 32.0172 117.125 31.9667L117.111 29.6427C117.199 29.6511 117.305 29.6595 117.428 29.6679C117.559 29.6764 117.664 29.6805 117.743 29.6805C118.27 29.6805 118.709 29.6174 119.06 29.491C119.411 29.3732 119.697 29.1794 119.916 28.91C120.144 28.6405 120.337 28.2785 120.495 27.8239L121.522 25.1715ZM119.337 12.9956L122.72 23.2263L123.287 26.4345L121.088 26.9775L115.913 12.9956H119.337ZM138.6 22.9611C138.6 22.6579 138.521 22.3843 138.363 22.1401C138.205 21.8875 137.902 21.6601 137.454 21.458C137.015 21.2559 136.366 21.0707 135.505 20.9023C134.751 20.7423 134.057 20.5528 133.425 20.3339C132.802 20.1066 132.266 19.8329 131.819 19.5129C131.371 19.193 131.024 18.814 130.779 18.3762C130.533 17.9383 130.41 17.4331 130.41 16.8605C130.41 16.3048 130.537 15.7785 130.792 15.2817C131.046 14.7849 131.411 14.3471 131.885 13.9681C132.359 13.5892 132.934 13.2903 133.609 13.0714C134.294 12.8524 135.058 12.743 135.901 12.743C137.094 12.743 138.117 12.9366 138.968 13.324C139.829 13.7029 140.487 14.2208 140.943 14.8775C141.4 15.5259 141.628 16.2585 141.628 17.0752H138.455C138.455 16.7132 138.358 16.3764 138.165 16.0648C137.981 15.7448 137.7 15.488 137.323 15.2943C136.945 15.0923 136.471 14.9912 135.901 14.9912C135.356 14.9912 134.904 15.0754 134.544 15.2438C134.193 15.4038 133.93 15.6143 133.754 15.8753C133.588 16.1364 133.504 16.4227 133.504 16.7342C133.504 16.9616 133.548 17.1679 133.636 17.3531C133.732 17.5299 133.89 17.6941 134.11 17.8457C134.329 17.9889 134.628 18.1236 135.005 18.2499C135.391 18.3762 135.874 18.4983 136.454 18.6162C137.542 18.8351 138.477 19.1172 139.258 19.4624C140.048 19.7992 140.654 20.2371 141.075 20.776C141.496 21.3065 141.707 21.9801 141.707 22.7969C141.707 23.4031 141.571 23.9589 141.299 24.4641C141.036 24.9608 140.649 25.3945 140.14 25.7651C139.631 26.1272 139.021 26.4092 138.31 26.6112C137.608 26.8133 136.818 26.9144 135.94 26.9144C134.65 26.9144 133.557 26.6955 132.662 26.2577C131.766 25.8113 131.086 25.243 130.62 24.5525C130.164 23.8536 129.936 23.1295 129.936 22.3801H133.004C133.039 22.9442 133.201 23.3947 133.491 23.7315C133.789 24.0599 134.158 24.2999 134.597 24.4515C135.045 24.5946 135.505 24.6662 135.979 24.6662C136.55 24.6662 137.028 24.5946 137.415 24.4515C137.801 24.2999 138.095 24.0978 138.297 23.8452C138.499 23.5842 138.6 23.2895 138.6 22.9611ZM150.305 24.4894C150.823 24.4894 151.288 24.3925 151.701 24.1989C152.122 23.9968 152.46 23.7189 152.715 23.3652C152.978 23.0116 153.123 22.6032 153.149 22.1401H156.138C156.12 23.0242 155.848 23.8284 155.321 24.5525C154.795 25.2767 154.097 25.8534 153.228 26.2828C152.359 26.7039 151.398 26.9144 150.345 26.9144C149.256 26.9144 148.308 26.7376 147.5 26.3839C146.693 26.0218 146.021 25.525 145.486 24.8936C144.951 24.262 144.547 23.5337 144.275 22.7085C144.011 21.8833 143.88 20.9991 143.88 20.056V19.614C143.88 18.6709 144.275 16.9616 144.275 16.9616C144.275 16.9616 144.951 15.3954 145.486 14.7639C146.021 14.1323 146.693 13.6397 147.5 13.2861C148.308 12.924 149.252 12.743 150.331 12.743C151.472 12.743 152.473 12.9619 153.333 13.3998C154.194 13.8292 154.87 14.4313 155.361 15.2059C155.861 15.9722 156.12 16.8647 156.138 17.8836H153.149C153.123 17.3784 152.991 16.9237 152.754 16.5195C152.526 16.1069 152.201 15.7785 151.78 15.5343C151.367 15.2901 150.871 15.168 150.292 15.168C149.651 15.168 149.12 15.2943 148.699 15.5469C148.277 15.7911 147.948 16.128 147.711 16.5574C147.474 16.9784 147.303 17.4542 147.198 17.9846C147.101 18.5067 147.053 19.0498 147.053 19.614V20.056C147.053 20.6202 147.101 21.1675 147.198 21.698C147.294 22.2285 147.461 22.7042 147.698 23.1253C147.944 23.5379 148.277 23.8705 148.699 24.1231C149.12 24.3673 149.655 24.4894 150.305 24.4894ZM166.606 23.921V17.4036C166.606 16.9153 166.513 16.4942 166.329 16.1406C166.145 15.7869 165.864 15.5133 165.486 15.3196C165.118 15.1259 164.652 15.0291 164.091 15.0291C163.573 15.0291 163.125 15.1133 162.748 15.2817C162.37 15.4501 162.076 15.6775 161.865 15.9638C161.655 16.2501 161.549 16.5742 161.549 16.9363H158.389C158.389 16.3974 158.525 15.8753 158.798 15.3701C159.07 14.8649 159.465 14.4144 159.982 14.0187C160.501 13.6229 161.119 13.3113 161.839 13.084C162.559 12.8567 163.367 12.743 164.262 12.743C165.333 12.743 166.281 12.9156 167.106 13.2608C167.94 13.6061 168.594 14.1281 169.068 14.827C169.551 15.5175 169.792 16.3848 169.792 17.4289V23.5042C169.792 24.1273 169.836 24.6872 169.924 25.184C170.02 25.6724 170.156 26.0976 170.332 26.4598V26.6618H167.079C166.93 26.3334 166.812 25.9165 166.724 25.4113C166.645 24.8977 166.606 24.4009 166.606 23.921ZM167.066 18.3509L167.093 20.2329H164.815C164.227 20.2329 163.709 20.2876 163.261 20.3971C162.814 20.4981 162.44 20.6497 162.142 20.8518C161.844 21.0539 161.62 21.2981 161.471 21.5843C161.321 21.8706 161.247 22.1948 161.247 22.5569C161.247 22.919 161.334 23.2516 161.51 23.5547C161.685 23.8494 161.94 24.081 162.274 24.2494C162.616 24.4178 163.028 24.502 163.511 24.502C164.161 24.502 164.727 24.3757 165.21 24.1231C165.701 23.862 166.088 23.5463 166.369 23.1758C166.649 22.7969 166.799 22.439 166.816 22.1022L167.843 23.4537C167.738 23.7989 167.558 24.1694 167.303 24.5651C167.049 24.9608 166.715 25.3398 166.303 25.702C165.899 26.0555 165.412 26.3461 164.841 26.5734C164.279 26.8007 163.63 26.9144 162.892 26.9144C161.962 26.9144 161.132 26.7376 160.404 26.3839C159.675 26.0218 159.105 25.5377 158.692 24.9314C158.28 24.3167 158.073 23.6221 158.073 22.8474C158.073 22.1232 158.214 21.4833 158.495 20.9276C158.784 20.3634 159.206 19.8918 159.759 19.5129C160.321 19.134 161.005 18.8477 161.813 18.6541C162.62 18.452 163.542 18.3509 164.578 18.3509H167.066ZM176.257 15.9132V26.6618H173.084V12.9956H176.072L176.257 15.9132ZM175.691 19.3235L174.663 19.3108C174.672 18.3425 174.813 17.4542 175.085 16.6458C175.366 15.8374 175.752 15.1428 176.244 14.5618C176.744 13.9808 177.341 13.5345 178.034 13.2229C178.728 12.903 179.5 12.743 180.352 12.743C181.036 12.743 181.655 12.8356 182.208 13.0208C182.77 13.1977 183.248 13.4882 183.643 13.8924C184.047 14.2965 184.354 14.8228 184.565 15.4712C184.776 16.1111 184.881 16.8984 184.881 17.8331V26.6618H181.695V17.8204C181.695 17.1637 181.594 16.6458 181.392 16.2669C181.199 15.8796 180.913 15.6059 180.536 15.4459C180.167 15.2775 179.707 15.1933 179.154 15.1933C178.609 15.1933 178.122 15.3028 177.692 15.5217C177.262 15.7406 176.898 16.0395 176.599 16.4185C176.309 16.7974 176.086 17.2352 175.928 17.732C175.77 18.2288 175.691 18.7593 175.691 19.3235Z"/>
</mask>
<path d="M84.8396 12.9956H88.0259V27.849C88.0259 28.7837 87.8591 29.571 87.5256 30.211C87.192 30.8594 86.7005 31.3478 86.0509 31.676C85.4013 32.0129 84.6069 32.1814 83.6677 32.1814C83.3868 32.1814 83.0971 32.1603 82.7987 32.1181C82.4915 32.0844 82.2018 32.0341 81.9297 31.9667L81.9429 29.5921C82.1272 29.6258 82.3247 29.6511 82.5354 29.6679C82.7373 29.693 82.9304 29.7058 83.1147 29.7058C83.4921 29.7058 83.8082 29.6427 84.0627 29.5163C84.3173 29.3901 84.5104 29.1921 84.642 28.9227C84.7737 28.6532 84.8396 28.2954 84.8396 27.849V12.9956ZM84.563 9.40853C84.563 8.9454 84.7254 8.56228 85.0502 8.25915C85.375 7.94759 85.8183 7.79182 86.3801 7.79182C86.9506 7.79182 87.3939 7.94759 87.7099 8.25915C88.0347 8.56228 88.1971 8.9454 88.1971 9.40853C88.1971 9.86322 88.0347 10.2421 87.7099 10.5453C87.3939 10.8484 86.9506 11 86.3801 11C85.8183 11 85.375 10.8484 85.0502 10.5453C84.7254 10.2421 84.563 9.86322 84.563 9.40853ZM94.8463 12.9956V26.6618H91.66V12.9956H94.8463ZM91.4493 9.40853C91.4493 8.9454 91.6073 8.56228 91.9233 8.25915C92.2481 7.94759 92.6958 7.79182 93.2663 7.79182C93.8281 7.79182 94.2714 7.94759 94.5962 8.25915C94.921 8.56228 95.0833 8.9454 95.0833 9.40853C95.0833 9.86322 94.921 10.2421 94.5962 10.5453C94.2714 10.8484 93.8281 11 93.2663 11C92.6958 11 92.2481 10.8484 91.9233 10.5453C91.6073 10.2421 91.4493 9.86322 91.4493 9.40853ZM102.615 26.6618H99.4416V11.682C99.4416 10.6632 99.6391 9.80848 100.034 9.11803C100.438 8.41913 101.013 7.89286 101.759 7.53921C102.505 7.17713 103.387 6.99609 104.405 6.99609C104.721 6.99609 105.033 7.01714 105.34 7.05925C105.647 7.09293 105.946 7.14766 106.236 7.22344L106.157 9.57271C105.981 9.53062 105.788 9.50115 105.577 9.48431C105.375 9.46746 105.156 9.45905 104.919 9.45905C104.436 9.45905 104.019 9.54745 103.668 9.72429C103.326 9.89269 103.062 10.1411 102.878 10.4695C102.703 10.7979 102.615 11.202 102.615 11.682V26.6618ZM105.551 12.9956V15.2186H97.2559V12.9956H105.551ZM112.147 26.6618H108.974V11.682C108.974 10.6632 109.172 9.80848 109.567 9.11803C109.971 8.41913 110.546 7.89286 111.292 7.53921C112.038 7.17713 112.92 6.99609 113.938 6.99609C114.254 6.99609 114.566 7.01714 114.873 7.05925C115.18 7.09293 115.479 7.14766 115.768 7.22344L115.689 9.57271C115.514 9.53062 115.321 9.50115 115.11 9.48431C114.908 9.46746 114.689 9.45905 114.452 9.45905C113.969 9.45905 113.552 9.54745 113.201 9.72429C112.859 9.89269 112.595 10.1411 112.411 10.4695C112.235 10.7979 112.147 11.202 112.147 11.682V26.6618ZM115.084 12.9956V15.2186H106.789V12.9956H115.084ZM121.522 25.1715L125.393 12.9956H128.79L123.076 28.7459C122.944 29.0826 122.773 29.4489 122.563 29.8447C122.352 30.2404 122.075 30.6151 121.733 30.9688C121.399 31.3309 120.983 31.6214 120.482 31.8403C119.982 32.0676 119.376 32.1814 118.665 32.1814C118.384 32.1814 118.112 32.1561 117.849 32.1056C117.594 32.0635 117.353 32.0172 117.125 31.9667L117.111 29.6427C117.199 29.6511 117.305 29.6595 117.428 29.6679C117.559 29.6764 117.664 29.6805 117.743 29.6805C118.27 29.6805 118.709 29.6174 119.06 29.491C119.411 29.3732 119.697 29.1794 119.916 28.91C120.144 28.6405 120.337 28.2785 120.495 27.8239L121.522 25.1715ZM119.337 12.9956L122.72 23.2263L123.287 26.4345L121.088 26.9775L115.913 12.9956H119.337ZM138.6 22.9611C138.6 22.6579 138.521 22.3843 138.363 22.1401C138.205 21.8875 137.902 21.6601 137.454 21.458C137.015 21.2559 136.366 21.0707 135.505 20.9023C134.751 20.7423 134.057 20.5528 133.425 20.3339C132.802 20.1066 132.266 19.8329 131.819 19.5129C131.371 19.193 131.024 18.814 130.779 18.3762C130.533 17.9383 130.41 17.4331 130.41 16.8605C130.41 16.3048 130.537 15.7785 130.792 15.2817C131.046 14.7849 131.411 14.3471 131.885 13.9681C132.359 13.5892 132.934 13.2903 133.609 13.0714C134.294 12.8524 135.058 12.743 135.901 12.743C137.094 12.743 138.117 12.9366 138.968 13.324C139.829 13.7029 140.487 14.2208 140.943 14.8775C141.4 15.5259 141.628 16.2585 141.628 17.0752H138.455C138.455 16.7132 138.358 16.3764 138.165 16.0648C137.981 15.7448 137.7 15.488 137.323 15.2943C136.945 15.0923 136.471 14.9912 135.901 14.9912C135.356 14.9912 134.904 15.0754 134.544 15.2438C134.193 15.4038 133.93 15.6143 133.754 15.8753C133.588 16.1364 133.504 16.4227 133.504 16.7342C133.504 16.9616 133.548 17.1679 133.636 17.3531C133.732 17.5299 133.89 17.6941 134.11 17.8457C134.329 17.9889 134.628 18.1236 135.005 18.2499C135.391 18.3762 135.874 18.4983 136.454 18.6162C137.542 18.8351 138.477 19.1172 139.258 19.4624C140.048 19.7992 140.654 20.2371 141.075 20.776C141.496 21.3065 141.707 21.9801 141.707 22.7969C141.707 23.4031 141.571 23.9589 141.299 24.4641C141.036 24.9608 140.649 25.3945 140.14 25.7651C139.631 26.1272 139.021 26.4092 138.31 26.6112C137.608 26.8133 136.818 26.9144 135.94 26.9144C134.65 26.9144 133.557 26.6955 132.662 26.2577C131.766 25.8113 131.086 25.243 130.62 24.5525C130.164 23.8536 129.936 23.1295 129.936 22.3801H133.004C133.039 22.9442 133.201 23.3947 133.491 23.7315C133.789 24.0599 134.158 24.2999 134.597 24.4515C135.045 24.5946 135.505 24.6662 135.979 24.6662C136.55 24.6662 137.028 24.5946 137.415 24.4515C137.801 24.2999 138.095 24.0978 138.297 23.8452C138.499 23.5842 138.6 23.2895 138.6 22.9611ZM150.305 24.4894C150.823 24.4894 151.288 24.3925 151.701 24.1989C152.122 23.9968 152.46 23.7189 152.715 23.3652C152.978 23.0116 153.123 22.6032 153.149 22.1401H156.138C156.12 23.0242 155.848 23.8284 155.321 24.5525C154.795 25.2767 154.097 25.8534 153.228 26.2828C152.359 26.7039 151.398 26.9144 150.345 26.9144C149.256 26.9144 148.308 26.7376 147.5 26.3839C146.693 26.0218 146.021 25.525 145.486 24.8936C144.951 24.262 144.547 23.5337 144.275 22.7085C144.011 21.8833 143.88 20.9991 143.88 20.056V19.614C143.88 18.6709 144.275 16.9616 144.275 16.9616C144.275 16.9616 144.951 15.3954 145.486 14.7639C146.021 14.1323 146.693 13.6397 147.5 13.2861C148.308 12.924 149.252 12.743 150.331 12.743C151.472 12.743 152.473 12.9619 153.333 13.3998C154.194 13.8292 154.87 14.4313 155.361 15.2059C155.861 15.9722 156.12 16.8647 156.138 17.8836H153.149C153.123 17.3784 152.991 16.9237 152.754 16.5195C152.526 16.1069 152.201 15.7785 151.78 15.5343C151.367 15.2901 150.871 15.168 150.292 15.168C149.651 15.168 149.12 15.2943 148.699 15.5469C148.277 15.7911 147.948 16.128 147.711 16.5574C147.474 16.9784 147.303 17.4542 147.198 17.9846C147.101 18.5067 147.053 19.0498 147.053 19.614V20.056C147.053 20.6202 147.101 21.1675 147.198 21.698C147.294 22.2285 147.461 22.7042 147.698 23.1253C147.944 23.5379 148.277 23.8705 148.699 24.1231C149.12 24.3673 149.655 24.4894 150.305 24.4894ZM166.606 23.921V17.4036C166.606 16.9153 166.513 16.4942 166.329 16.1406C166.145 15.7869 165.864 15.5133 165.486 15.3196C165.118 15.1259 164.652 15.0291 164.091 15.0291C163.573 15.0291 163.125 15.1133 162.748 15.2817C162.37 15.4501 162.076 15.6775 161.865 15.9638C161.655 16.2501 161.549 16.5742 161.549 16.9363H158.389C158.389 16.3974 158.525 15.8753 158.798 15.3701C159.07 14.8649 159.465 14.4144 159.982 14.0187C160.501 13.6229 161.119 13.3113 161.839 13.084C162.559 12.8567 163.367 12.743 164.262 12.743C165.333 12.743 166.281 12.9156 167.106 13.2608C167.94 13.6061 168.594 14.1281 169.068 14.827C169.551 15.5175 169.792 16.3848 169.792 17.4289V23.5042C169.792 24.1273 169.836 24.6872 169.924 25.184C170.02 25.6724 170.156 26.0976 170.332 26.4598V26.6618H167.079C166.93 26.3334 166.812 25.9165 166.724 25.4113C166.645 24.8977 166.606 24.4009 166.606 23.921ZM167.066 18.3509L167.093 20.2329H164.815C164.227 20.2329 163.709 20.2876 163.261 20.3971C162.814 20.4981 162.44 20.6497 162.142 20.8518C161.844 21.0539 161.62 21.2981 161.471 21.5843C161.321 21.8706 161.247 22.1948 161.247 22.5569C161.247 22.919 161.334 23.2516 161.51 23.5547C161.685 23.8494 161.94 24.081 162.274 24.2494C162.616 24.4178 163.028 24.502 163.511 24.502C164.161 24.502 164.727 24.3757 165.21 24.1231C165.701 23.862 166.088 23.5463 166.369 23.1758C166.649 22.7969 166.799 22.439 166.816 22.1022L167.843 23.4537C167.738 23.7989 167.558 24.1694 167.303 24.5651C167.049 24.9608 166.715 25.3398 166.303 25.702C165.899 26.0555 165.412 26.3461 164.841 26.5734C164.279 26.8007 163.63 26.9144 162.892 26.9144C161.962 26.9144 161.132 26.7376 160.404 26.3839C159.675 26.0218 159.105 25.5377 158.692 24.9314C158.28 24.3167 158.073 23.6221 158.073 22.8474C158.073 22.1232 158.214 21.4833 158.495 20.9276C158.784 20.3634 159.206 19.8918 159.759 19.5129C160.321 19.134 161.005 18.8477 161.813 18.6541C162.62 18.452 163.542 18.3509 164.578 18.3509H167.066ZM176.257 15.9132V26.6618H173.084V12.9956H176.072L176.257 15.9132ZM175.691 19.3235L174.663 19.3108C174.672 18.3425 174.813 17.4542 175.085 16.6458C175.366 15.8374 175.752 15.1428 176.244 14.5618C176.744 13.9808 177.341 13.5345 178.034 13.2229C178.728 12.903 179.5 12.743 180.352 12.743C181.036 12.743 181.655 12.8356 182.208 13.0208C182.77 13.1977 183.248 13.4882 183.643 13.8924C184.047 14.2965 184.354 14.8228 184.565 15.4712C184.776 16.1111 184.881 16.8984 184.881 17.8331V26.6618H181.695V17.8204C181.695 17.1637 181.594 16.6458 181.392 16.2669C181.199 15.8796 180.913 15.6059 180.536 15.4459C180.167 15.2775 179.707 15.1933 179.154 15.1933C178.609 15.1933 178.122 15.3028 177.692 15.5217C177.262 15.7406 176.898 16.0395 176.599 16.4185C176.309 16.7974 176.086 17.2352 175.928 17.732C175.77 18.2288 175.691 18.7593 175.691 19.3235Z" fill="black"/>
<path d="M84.8396 12.9956H88.0259V27.849C88.0259 28.7837 87.8591 29.571 87.5256 30.211C87.192 30.8594 86.7005 31.3478 86.0509 31.676C85.4013 32.0129 84.6069 32.1814 83.6677 32.1814C83.3868 32.1814 83.0971 32.1603 82.7987 32.1181C82.4915 32.0844 82.2018 32.0341 81.9297 31.9667L81.9429 29.5921C82.1272 29.6258 82.3247 29.6511 82.5354 29.6679C82.7373 29.693 82.9304 29.7058 83.1147 29.7058C83.4921 29.7058 83.8082 29.6427 84.0627 29.5163C84.3173 29.3901 84.5104 29.1921 84.642 28.9227C84.7737 28.6532 84.8396 28.2954 84.8396 27.849V12.9956ZM84.563 9.40853C84.563 8.9454 84.7254 8.56228 85.0502 8.25915C85.375 7.94759 85.8183 7.79182 86.3801 7.79182C86.9506 7.79182 87.3939 7.94759 87.7099 8.25915C88.0347 8.56228 88.1971 8.9454 88.1971 9.40853C88.1971 9.86322 88.0347 10.2421 87.7099 10.5453C87.3939 10.8484 86.9506 11 86.3801 11C85.8183 11 85.375 10.8484 85.0502 10.5453C84.7254 10.2421 84.563 9.86322 84.563 9.40853ZM94.8463 12.9956V26.6618H91.66V12.9956H94.8463ZM91.4493 9.40853C91.4493 8.9454 91.6073 8.56228 91.9233 8.25915C92.2481 7.94759 92.6958 7.79182 93.2663 7.79182C93.8281 7.79182 94.2714 7.94759 94.5962 8.25915C94.921 8.56228 95.0833 8.9454 95.0833 9.40853C95.0833 9.86322 94.921 10.2421 94.5962 10.5453C94.2714 10.8484 93.8281 11 93.2663 11C92.6958 11 92.2481 10.8484 91.9233 10.5453C91.6073 10.2421 91.4493 9.86322 91.4493 9.40853ZM102.615 26.6618H99.4416V11.682C99.4416 10.6632 99.6391 9.80848 100.034 9.11803C100.438 8.41913 101.013 7.89286 101.759 7.53921C102.505 7.17713 103.387 6.99609 104.405 6.99609C104.721 6.99609 105.033 7.01714 105.34 7.05925C105.647 7.09293 105.946 7.14766 106.236 7.22344L106.157 9.57271C105.981 9.53062 105.788 9.50115 105.577 9.48431C105.375 9.46746 105.156 9.45905 104.919 9.45905C104.436 9.45905 104.019 9.54745 103.668 9.72429C103.326 9.89269 103.062 10.1411 102.878 10.4695C102.703 10.7979 102.615 11.202 102.615 11.682V26.6618ZM105.551 12.9956V15.2186H97.2559V12.9956H105.551ZM112.147 26.6618H108.974V11.682C108.974 10.6632 109.172 9.80848 109.567 9.11803C109.971 8.41913 110.546 7.89286 111.292 7.53921C112.038 7.17713 112.92 6.99609 113.938 6.99609C114.254 6.99609 114.566 7.01714 114.873 7.05925C115.18 7.09293 115.479 7.14766 115.768 7.22344L115.689 9.57271C115.514 9.53062 115.321 9.50115 115.11 9.48431C114.908 9.46746 114.689 9.45905 114.452 9.45905C113.969 9.45905 113.552 9.54745 113.201 9.72429C112.859 9.89269 112.595 10.1411 112.411 10.4695C112.235 10.7979 112.147 11.202 112.147 11.682V26.6618ZM115.084 12.9956V15.2186H106.789V12.9956H115.084ZM121.522 25.1715L125.393 12.9956H128.79L123.076 28.7459C122.944 29.0826 122.773 29.4489 122.563 29.8447C122.352 30.2404 122.075 30.6151 121.733 30.9688C121.399 31.3309 120.983 31.6214 120.482 31.8403C119.982 32.0676 119.376 32.1814 118.665 32.1814C118.384 32.1814 118.112 32.1561 117.849 32.1056C117.594 32.0635 117.353 32.0172 117.125 31.9667L117.111 29.6427C117.199 29.6511 117.305 29.6595 117.428 29.6679C117.559 29.6764 117.664 29.6805 117.743 29.6805C118.27 29.6805 118.709 29.6174 119.06 29.491C119.411 29.3732 119.697 29.1794 119.916 28.91C120.144 28.6405 120.337 28.2785 120.495 27.8239L121.522 25.1715ZM119.337 12.9956L122.72 23.2263L123.287 26.4345L121.088 26.9775L115.913 12.9956H119.337ZM138.6 22.9611C138.6 22.6579 138.521 22.3843 138.363 22.1401C138.205 21.8875 137.902 21.6601 137.454 21.458C137.015 21.2559 136.366 21.0707 135.505 20.9023C134.751 20.7423 134.057 20.5528 133.425 20.3339C132.802 20.1066 132.266 19.8329 131.819 19.5129C131.371 19.193 131.024 18.814 130.779 18.3762C130.533 17.9383 130.41 17.4331 130.41 16.8605C130.41 16.3048 130.537 15.7785 130.792 15.2817C131.046 14.7849 131.411 14.3471 131.885 13.9681C132.359 13.5892 132.934 13.2903 133.609 13.0714C134.294 12.8524 135.058 12.743 135.901 12.743C137.094 12.743 138.117 12.9366 138.968 13.324C139.829 13.7029 140.487 14.2208 140.943 14.8775C141.4 15.5259 141.628 16.2585 141.628 17.0752H138.455C138.455 16.7132 138.358 16.3764 138.165 16.0648C137.981 15.7448 137.7 15.488 137.323 15.2943C136.945 15.0923 136.471 14.9912 135.901 14.9912C135.356 14.9912 134.904 15.0754 134.544 15.2438C134.193 15.4038 133.93 15.6143 133.754 15.8753C133.588 16.1364 133.504 16.4227 133.504 16.7342C133.504 16.9616 133.548 17.1679 133.636 17.3531C133.732 17.5299 133.89 17.6941 134.11 17.8457C134.329 17.9889 134.628 18.1236 135.005 18.2499C135.391 18.3762 135.874 18.4983 136.454 18.6162C137.542 18.8351 138.477 19.1172 139.258 19.4624C140.048 19.7992 140.654 20.2371 141.075 20.776C141.496 21.3065 141.707 21.9801 141.707 22.7969C141.707 23.4031 141.571 23.9589 141.299 24.4641C141.036 24.9608 140.649 25.3945 140.14 25.7651C139.631 26.1272 139.021 26.4092 138.31 26.6112C137.608 26.8133 136.818 26.9144 135.94 26.9144C134.65 26.9144 133.557 26.6955 132.662 26.2577C131.766 25.8113 131.086 25.243 130.62 24.5525C130.164 23.8536 129.936 23.1295 129.936 22.3801H133.004C133.039 22.9442 133.201 23.3947 133.491 23.7315C133.789 24.0599 134.158 24.2999 134.597 24.4515C135.045 24.5946 135.505 24.6662 135.979 24.6662C136.55 24.6662 137.028 24.5946 137.415 24.4515C137.801 24.2999 138.095 24.0978 138.297 23.8452C138.499 23.5842 138.6 23.2895 138.6 22.9611ZM150.305 24.4894C150.823 24.4894 151.288 24.3925 151.701 24.1989C152.122 23.9968 152.46 23.7189 152.715 23.3652C152.978 23.0116 153.123 22.6032 153.149 22.1401H156.138C156.12 23.0242 155.848 23.8284 155.321 24.5525C154.795 25.2767 154.097 25.8534 153.228 26.2828C152.359 26.7039 151.398 26.9144 150.345 26.9144C149.256 26.9144 148.308 26.7376 147.5 26.3839C146.693 26.0218 146.021 25.525 145.486 24.8936C144.951 24.262 144.547 23.5337 144.275 22.7085C144.011 21.8833 143.88 20.9991 143.88 20.056V19.614C143.88 18.6709 144.275 16.9616 144.275 16.9616C144.275 16.9616 144.951 15.3954 145.486 14.7639C146.021 14.1323 146.693 13.6397 147.5 13.2861C148.308 12.924 149.252 12.743 150.331 12.743C151.472 12.743 152.473 12.9619 153.333 13.3998C154.194 13.8292 154.87 14.4313 155.361 15.2059C155.861 15.9722 156.12 16.8647 156.138 17.8836H153.149C153.123 17.3784 152.991 16.9237 152.754 16.5195C152.526 16.1069 152.201 15.7785 151.78 15.5343C151.367 15.2901 150.871 15.168 150.292 15.168C149.651 15.168 149.12 15.2943 148.699 15.5469C148.277 15.7911 147.948 16.128 147.711 16.5574C147.474 16.9784 147.303 17.4542 147.198 17.9846C147.101 18.5067 147.053 19.0498 147.053 19.614V20.056C147.053 20.6202 147.101 21.1675 147.198 21.698C147.294 22.2285 147.461 22.7042 147.698 23.1253C147.944 23.5379 148.277 23.8705 148.699 24.1231C149.12 24.3673 149.655 24.4894 150.305 24.4894ZM166.606 23.921V17.4036C166.606 16.9153 166.513 16.4942 166.329 16.1406C166.145 15.7869 165.864 15.5133 165.486 15.3196C165.118 15.1259 164.652 15.0291 164.091 15.0291C163.573 15.0291 163.125 15.1133 162.748 15.2817C162.37 15.4501 162.076 15.6775 161.865 15.9638C161.655 16.2501 161.549 16.5742 161.549 16.9363H158.389C158.389 16.3974 158.525 15.8753 158.798 15.3701C159.07 14.8649 159.465 14.4144 159.982 14.0187C160.501 13.6229 161.119 13.3113 161.839 13.084C162.559 12.8567 163.367 12.743 164.262 12.743C165.333 12.743 166.281 12.9156 167.106 13.2608C167.94 13.6061 168.594 14.1281 169.068 14.827C169.551 15.5175 169.792 16.3848 169.792 17.4289V23.5042C169.792 24.1273 169.836 24.6872 169.924 25.184C170.02 25.6724 170.156 26.0976 170.332 26.4598V26.6618H167.079C166.93 26.3334 166.812 25.9165 166.724 25.4113C166.645 24.8977 166.606 24.4009 166.606 23.921ZM167.066 18.3509L167.093 20.2329H164.815C164.227 20.2329 163.709 20.2876 163.261 20.3971C162.814 20.4981 162.44 20.6497 162.142 20.8518C161.844 21.0539 161.62 21.2981 161.471 21.5843C161.321 21.8706 161.247 22.1948 161.247 22.5569C161.247 22.919 161.334 23.2516 161.51 23.5547C161.685 23.8494 161.94 24.081 162.274 24.2494C162.616 24.4178 163.028 24.502 163.511 24.502C164.161 24.502 164.727 24.3757 165.21 24.1231C165.701 23.862 166.088 23.5463 166.369 23.1758C166.649 22.7969 166.799 22.439 166.816 22.1022L167.843 23.4537C167.738 23.7989 167.558 24.1694 167.303 24.5651C167.049 24.9608 166.715 25.3398 166.303 25.702C165.899 26.0555 165.412 26.3461 164.841 26.5734C164.279 26.8007 163.63 26.9144 162.892 26.9144C161.962 26.9144 161.132 26.7376 160.404 26.3839C159.675 26.0218 159.105 25.5377 158.692 24.9314C158.28 24.3167 158.073 23.6221 158.073 22.8474C158.073 22.1232 158.214 21.4833 158.495 20.9276C158.784 20.3634 159.206 19.8918 159.759 19.5129C160.321 19.134 161.005 18.8477 161.813 18.6541C162.62 18.452 163.542 18.3509 164.578 18.3509H167.066ZM176.257 15.9132V26.6618H173.084V12.9956H176.072L176.257 15.9132ZM175.691 19.3235L174.663 19.3108C174.672 18.3425 174.813 17.4542 175.085 16.6458C175.366 15.8374 175.752 15.1428 176.244 14.5618C176.744 13.9808 177.341 13.5345 178.034 13.2229C178.728 12.903 179.5 12.743 180.352 12.743C181.036 12.743 181.655 12.8356 182.208 13.0208C182.77 13.1977 183.248 13.4882 183.643 13.8924C184.047 14.2965 184.354 14.8228 184.565 15.4712C184.776 16.1111 184.881 16.8984 184.881 17.8331V26.6618H181.695V17.8204C181.695 17.1637 181.594 16.6458 181.392 16.2669C181.199 15.8796 180.913 15.6059 180.536 15.4459C180.167 15.2775 179.707 15.1933 179.154 15.1933C178.609 15.1933 178.122 15.3028 177.692 15.5217C177.262 15.7406 176.898 16.0395 176.599 16.4185C176.309 16.7974 176.086 17.2352 175.928 17.732C175.77 18.2288 175.691 18.7593 175.691 19.3235Z" stroke="black" stroke-width="2" mask="url(#path-2-inside-1_743_3942)"/>
<path d="M84.8396 12.9956H88.0259V27.849C88.0259 28.7837 87.8591 29.571 87.5256 30.211C87.192 30.8594 86.7005 31.3478 86.0509 31.676C85.4013 32.0129 84.6069 32.1814 83.6677 32.1814C83.3868 32.1814 83.0971 32.1603 82.7987 32.1181C82.4915 32.0844 82.2018 32.0341 81.9297 31.9667L81.9429 29.5921C82.1272 29.6258 82.3247 29.6511 82.5354 29.6679C82.7373 29.693 82.9304 29.7058 83.1147 29.7058C83.4921 29.7058 83.8082 29.6427 84.0627 29.5163C84.3173 29.3901 84.5104 29.1921 84.642 28.9227C84.7737 28.6532 84.8396 28.2954 84.8396 27.849V12.9956ZM84.563 9.40853C84.563 8.9454 84.7254 8.56228 85.0502 8.25915C85.375 7.94759 85.8183 7.79182 86.3801 7.79182C86.9506 7.79182 87.3939 7.94759 87.7099 8.25915C88.0347 8.56228 88.1971 8.9454 88.1971 9.40853C88.1971 9.86322 88.0347 10.2421 87.7099 10.5453C87.3939 10.8484 86.9506 11 86.3801 11C85.8183 11 85.375 10.8484 85.0502 10.5453C84.7254 10.2421 84.563 9.86322 84.563 9.40853ZM94.8463 12.9956V26.6618H91.66V12.9956H94.8463ZM91.4493 9.40853C91.4493 8.9454 91.6073 8.56228 91.9233 8.25915C92.2481 7.94759 92.6958 7.79182 93.2663 7.79182C93.8281 7.79182 94.2714 7.94759 94.5962 8.25915C94.921 8.56228 95.0833 8.9454 95.0833 9.40853C95.0833 9.86322 94.921 10.2421 94.5962 10.5453C94.2714 10.8484 93.8281 11 93.2663 11C92.6958 11 92.2481 10.8484 91.9233 10.5453C91.6073 10.2421 91.4493 9.86322 91.4493 9.40853ZM102.615 26.6618H99.4416V11.682C99.4416 10.6632 99.6391 9.80848 100.034 9.11803C100.438 8.41913 101.013 7.89286 101.759 7.53921C102.505 7.17713 103.387 6.99609 104.405 6.99609C104.721 6.99609 105.033 7.01714 105.34 7.05925C105.647 7.09293 105.946 7.14766 106.236 7.22344L106.157 9.57271C105.981 9.53062 105.788 9.50115 105.577 9.48431C105.375 9.46746 105.156 9.45905 104.919 9.45905C104.436 9.45905 104.019 9.54745 103.668 9.72429C103.326 9.89269 103.062 10.1411 102.878 10.4695C102.703 10.7979 102.615 11.202 102.615 11.682V26.6618ZM105.551 12.9956V15.2186H97.2559V12.9956H105.551ZM112.147 26.6618H108.974V11.682C108.974 10.6632 109.172 9.80848 109.567 9.11803C109.971 8.41913 110.546 7.89286 111.292 7.53921C112.038 7.17713 112.92 6.99609 113.938 6.99609C114.254 6.99609 114.566 7.01714 114.873 7.05925C115.18 7.09293 115.479 7.14766 115.768 7.22344L115.689 9.57271C115.514 9.53062 115.321 9.50115 115.11 9.48431C114.908 9.46746 114.689 9.45905 114.452 9.45905C113.969 9.45905 113.552 9.54745 113.201 9.72429C112.859 9.89269 112.595 10.1411 112.411 10.4695C112.235 10.7979 112.147 11.202 112.147 11.682V26.6618ZM115.084 12.9956V15.2186H106.789V12.9956H115.084ZM121.522 25.1715L125.393 12.9956H128.79L123.076 28.7459C122.944 29.0826 122.773 29.4489 122.563 29.8447C122.352 30.2404 122.075 30.6151 121.733 30.9688C121.399 31.3309 120.983 31.6214 120.482 31.8403C119.982 32.0676 119.376 32.1814 118.665 32.1814C118.384 32.1814 118.112 32.1561 117.849 32.1056C117.594 32.0635 117.353 32.0172 117.125 31.9667L117.111 29.6427C117.199 29.6511 117.305 29.6595 117.428 29.6679C117.559 29.6764 117.664 29.6805 117.743 29.6805C118.27 29.6805 118.709 29.6174 119.06 29.491C119.411 29.3732 119.697 29.1794 119.916 28.91C120.144 28.6405 120.337 28.2785 120.495 27.8239L121.522 25.1715ZM119.337 12.9956L122.72 23.2263L123.287 26.4345L121.088 26.9775L115.913 12.9956H119.337ZM138.6 22.9611C138.6 22.6579 138.521 22.3843 138.363 22.1401C138.205 21.8875 137.902 21.6601 137.454 21.458C137.015 21.2559 136.366 21.0707 135.505 20.9023C134.751 20.7423 134.057 20.5528 133.425 20.3339C132.802 20.1066 132.266 19.8329 131.819 19.5129C131.371 19.193 131.024 18.814 130.779 18.3762C130.533 17.9383 130.41 17.4331 130.41 16.8605C130.41 16.3048 130.537 15.7785 130.792 15.2817C131.046 14.7849 131.411 14.3471 131.885 13.9681C132.359 13.5892 132.934 13.2903 133.609 13.0714C134.294 12.8524 135.058 12.743 135.901 12.743C137.094 12.743 138.117 12.9366 138.968 13.324C139.829 13.7029 140.487 14.2208 140.943 14.8775C141.4 15.5259 141.628 16.2585 141.628 17.0752H138.455C138.455 16.7132 138.358 16.3764 138.165 16.0648C137.981 15.7448 137.7 15.488 137.323 15.2943C136.945 15.0923 136.471 14.9912 135.901 14.9912C135.356 14.9912 134.904 15.0754 134.544 15.2438C134.193 15.4038 133.93 15.6143 133.754 15.8753C133.588 16.1364 133.504 16.4227 133.504 16.7342C133.504 16.9616 133.548 17.1679 133.636 17.3531C133.732 17.5299 133.89 17.6941 134.11 17.8457C134.329 17.9889 134.628 18.1236 135.005 18.2499C135.391 18.3762 135.874 18.4983 136.454 18.6162C137.542 18.8351 138.477 19.1172 139.258 19.4624C140.048 19.7992 140.654 20.2371 141.075 20.776C141.496 21.3065 141.707 21.9801 141.707 22.7969C141.707 23.4031 141.571 23.9589 141.299 24.4641C141.036 24.9608 140.649 25.3945 140.14 25.7651C139.631 26.1272 139.021 26.4092 138.31 26.6112C137.608 26.8133 136.818 26.9144 135.94 26.9144C134.65 26.9144 133.557 26.6955 132.662 26.2577C131.766 25.8113 131.086 25.243 130.62 24.5525C130.164 23.8536 129.936 23.1295 129.936 22.3801H133.004C133.039 22.9442 133.201 23.3947 133.491 23.7315C133.789 24.0599 134.158 24.2999 134.597 24.4515C135.045 24.5946 135.505 24.6662 135.979 24.6662C136.55 24.6662 137.028 24.5946 137.415 24.4515C137.801 24.2999 138.095 24.0978 138.297 23.8452C138.499 23.5842 138.6 23.2895 138.6 22.9611ZM150.305 24.4894C150.823 24.4894 151.288 24.3925 151.701 24.1989C152.122 23.9968 152.46 23.7189 152.715 23.3652C152.978 23.0116 153.123 22.6032 153.149 22.1401H156.138C156.12 23.0242 155.848 23.8284 155.321 24.5525C154.795 25.2767 154.097 25.8534 153.228 26.2828C152.359 26.7039 151.398 26.9144 150.345 26.9144C149.256 26.9144 148.308 26.7376 147.5 26.3839C146.693 26.0218 146.021 25.525 145.486 24.8936C144.951 24.262 144.547 23.5337 144.275 22.7085C144.011 21.8833 143.88 20.9991 143.88 20.056V19.614C143.88 18.6709 144.275 16.9616 144.275 16.9616C144.275 16.9616 144.951 15.3954 145.486 14.7639C146.021 14.1323 146.693 13.6397 147.5 13.2861C148.308 12.924 149.252 12.743 150.331 12.743C151.472 12.743 152.473 12.9619 153.333 13.3998C154.194 13.8292 154.87 14.4313 155.361 15.2059C155.861 15.9722 156.12 16.8647 156.138 17.8836H153.149C153.123 17.3784 152.991 16.9237 152.754 16.5195C152.526 16.1069 152.201 15.7785 151.78 15.5343C151.367 15.2901 150.871 15.168 150.292 15.168C149.651 15.168 149.12 15.2943 148.699 15.5469C148.277 15.7911 147.948 16.128 147.711 16.5574C147.474 16.9784 147.303 17.4542 147.198 17.9846C147.101 18.5067 147.053 19.0498 147.053 19.614V20.056C147.053 20.6202 147.101 21.1675 147.198 21.698C147.294 22.2285 147.461 22.7042 147.698 23.1253C147.944 23.5379 148.277 23.8705 148.699 24.1231C149.12 24.3673 149.655 24.4894 150.305 24.4894ZM166.606 23.921V17.4036C166.606 16.9153 166.513 16.4942 166.329 16.1406C166.145 15.7869 165.864 15.5133 165.486 15.3196C165.118 15.1259 164.652 15.0291 164.091 15.0291C163.573 15.0291 163.125 15.1133 162.748 15.2817C162.37 15.4501 162.076 15.6775 161.865 15.9638C161.655 16.2501 161.549 16.5742 161.549 16.9363H158.389C158.389 16.3974 158.525 15.8753 158.798 15.3701C159.07 14.8649 159.465 14.4144 159.982 14.0187C160.501 13.6229 161.119 13.3113 161.839 13.084C162.559 12.8567 163.367 12.743 164.262 12.743C165.333 12.743 166.281 12.9156 167.106 13.2608C167.94 13.6061 168.594 14.1281 169.068 14.827C169.551 15.5175 169.792 16.3848 169.792 17.4289V23.5042C169.792 24.1273 169.836 24.6872 169.924 25.184C170.02 25.6724 170.156 26.0976 170.332 26.4598V26.6618H167.079C166.93 26.3334 166.812 25.9165 166.724 25.4113C166.645 24.8977 166.606 24.4009 166.606 23.921ZM167.066 18.3509L167.093 20.2329H164.815C164.227 20.2329 163.709 20.2876 163.261 20.3971C162.814 20.4981 162.44 20.6497 162.142 20.8518C161.844 21.0539 161.62 21.2981 161.471 21.5843C161.321 21.8706 161.247 22.1948 161.247 22.5569C161.247 22.919 161.334 23.2516 161.51 23.5547C161.685 23.8494 161.94 24.081 162.274 24.2494C162.616 24.4178 163.028 24.502 163.511 24.502C164.161 24.502 164.727 24.3757 165.21 24.1231C165.701 23.862 166.088 23.5463 166.369 23.1758C166.649 22.7969 166.799 22.439 166.816 22.1022L167.843 23.4537C167.738 23.7989 167.558 24.1694 167.303 24.5651C167.049 24.9608 166.715 25.3398 166.303 25.702C165.899 26.0555 165.412 26.3461 164.841 26.5734C164.279 26.8007 163.63 26.9144 162.892 26.9144C161.962 26.9144 161.132 26.7376 160.404 26.3839C159.675 26.0218 159.105 25.5377 158.692 24.9314C158.28 24.3167 158.073 23.6221 158.073 22.8474C158.073 22.1232 158.214 21.4833 158.495 20.9276C158.784 20.3634 159.206 19.8918 159.759 19.5129C160.321 19.134 161.005 18.8477 161.813 18.6541C162.62 18.452 163.542 18.3509 164.578 18.3509H167.066ZM176.257 15.9132V26.6618H173.084V12.9956H176.072L176.257 15.9132ZM175.691 19.3235L174.663 19.3108C174.672 18.3425 174.813 17.4542 175.085 16.6458C175.366 15.8374 175.752 15.1428 176.244 14.5618C176.744 13.9808 177.341 13.5345 178.034 13.2229C178.728 12.903 179.5 12.743 180.352 12.743C181.036 12.743 181.655 12.8356 182.208 13.0208C182.77 13.1977 183.248 13.4882 183.643 13.8924C184.047 14.2965 184.354 14.8228 184.565 15.4712C184.776 16.1111 184.881 16.8984 184.881 17.8331V26.6618H181.695V17.8204C181.695 17.1637 181.594 16.6458 181.392 16.2669C181.199 15.8796 180.913 15.6059 180.536 15.4459C180.167 15.2775 179.707 15.1933 179.154 15.1933C178.609 15.1933 178.122 15.3028 177.692 15.5217C177.262 15.7406 176.898 16.0395 176.599 16.4185C176.309 16.7974 176.086 17.2352 175.928 17.732C175.77 18.2288 175.691 18.7593 175.691 19.3235Z" stroke="black" stroke-opacity="0.2" stroke-width="2" mask="url(#path-2-inside-1_743_3942)"/>
<path d="M84.8396 12.9956H88.0259V27.849C88.0259 28.7837 87.8591 29.571 87.5256 30.211C87.192 30.8594 86.7005 31.3478 86.0509 31.676C85.4013 32.0129 84.6069 32.1814 83.6677 32.1814C83.3868 32.1814 83.0971 32.1603 82.7987 32.1181C82.4915 32.0844 82.2018 32.0341 81.9297 31.9667L81.9429 29.5921C82.1272 29.6258 82.3247 29.6511 82.5354 29.6679C82.7373 29.693 82.9304 29.7058 83.1147 29.7058C83.4921 29.7058 83.8082 29.6427 84.0627 29.5163C84.3173 29.3901 84.5104 29.1921 84.642 28.9227C84.7737 28.6532 84.8396 28.2954 84.8396 27.849V12.9956ZM84.563 9.40853C84.563 8.9454 84.7254 8.56228 85.0502 8.25915C85.375 7.94759 85.8183 7.79182 86.3801 7.79182C86.9506 7.79182 87.3939 7.94759 87.7099 8.25915C88.0347 8.56228 88.1971 8.9454 88.1971 9.40853C88.1971 9.86322 88.0347 10.2421 87.7099 10.5453C87.3939 10.8484 86.9506 11 86.3801 11C85.8183 11 85.375 10.8484 85.0502 10.5453C84.7254 10.2421 84.563 9.86322 84.563 9.40853ZM94.8463 12.9956V26.6618H91.66V12.9956H94.8463ZM91.4493 9.40853C91.4493 8.9454 91.6073 8.56228 91.9233 8.25915C92.2481 7.94759 92.6958 7.79182 93.2663 7.79182C93.8281 7.79182 94.2714 7.94759 94.5962 8.25915C94.921 8.56228 95.0833 8.9454 95.0833 9.40853C95.0833 9.86322 94.921 10.2421 94.5962 10.5453C94.2714 10.8484 93.8281 11 93.2663 11C92.6958 11 92.2481 10.8484 91.9233 10.5453C91.6073 10.2421 91.4493 9.86322 91.4493 9.40853ZM102.615 26.6618H99.4416V11.682C99.4416 10.6632 99.6391 9.80848 100.034 9.11803C100.438 8.41913 101.013 7.89286 101.759 7.53921C102.505 7.17713 103.387 6.99609 104.405 6.99609C104.721 6.99609 105.033 7.01714 105.34 7.05925C105.647 7.09293 105.946 7.14766 106.236 7.22344L106.157 9.57271C105.981 9.53062 105.788 9.50115 105.577 9.48431C105.375 9.46746 105.156 9.45905 104.919 9.45905C104.436 9.45905 104.019 9.54745 103.668 9.72429C103.326 9.89269 103.062 10.1411 102.878 10.4695C102.703 10.7979 102.615 11.202 102.615 11.682V26.6618ZM105.551 12.9956V15.2186H97.2559V12.9956H105.551ZM112.147 26.6618H108.974V11.682C108.974 10.6632 109.172 9.80848 109.567 9.11803C109.971 8.41913 110.546 7.89286 111.292 7.53921C112.038 7.17713 112.92 6.99609 113.938 6.99609C114.254 6.99609 114.566 7.01714 114.873 7.05925C115.18 7.09293 115.479 7.14766 115.768 7.22344L115.689 9.57271C115.514 9.53062 115.321 9.50115 115.11 9.48431C114.908 9.46746 114.689 9.45905 114.452 9.45905C113.969 9.45905 113.552 9.54745 113.201 9.72429C112.859 9.89269 112.595 10.1411 112.411 10.4695C112.235 10.7979 112.147 11.202 112.147 11.682V26.6618ZM115.084 12.9956V15.2186H106.789V12.9956H115.084ZM121.522 25.1715L125.393 12.9956H128.79L123.076 28.7459C122.944 29.0826 122.773 29.4489 122.563 29.8447C122.352 30.2404 122.075 30.6151 121.733 30.9688C121.399 31.3309 120.983 31.6214 120.482 31.8403C119.982 32.0676 119.376 32.1814 118.665 32.1814C118.384 32.1814 118.112 32.1561 117.849 32.1056C117.594 32.0635 117.353 32.0172 117.125 31.9667L117.111 29.6427C117.199 29.6511 117.305 29.6595 117.428 29.6679C117.559 29.6764 117.664 29.6805 117.743 29.6805C118.27 29.6805 118.709 29.6174 119.06 29.491C119.411 29.3732 119.697 29.1794 119.916 28.91C120.144 28.6405 120.337 28.2785 120.495 27.8239L121.522 25.1715ZM119.337 12.9956L122.72 23.2263L123.287 26.4345L121.088 26.9775L115.913 12.9956H119.337ZM138.6 22.9611C138.6 22.6579 138.521 22.3843 138.363 22.1401C138.205 21.8875 137.902 21.6601 137.454 21.458C137.015 21.2559 136.366 21.0707 135.505 20.9023C134.751 20.7423 134.057 20.5528 133.425 20.3339C132.802 20.1066 132.266 19.8329 131.819 19.5129C131.371 19.193 131.024 18.814 130.779 18.3762C130.533 17.9383 130.41 17.4331 130.41 16.8605C130.41 16.3048 130.537 15.7785 130.792 15.2817C131.046 14.7849 131.411 14.3471 131.885 13.9681C132.359 13.5892 132.934 13.2903 133.609 13.0714C134.294 12.8524 135.058 12.743 135.901 12.743C137.094 12.743 138.117 12.9366 138.968 13.324C139.829 13.7029 140.487 14.2208 140.943 14.8775C141.4 15.5259 141.628 16.2585 141.628 17.0752H138.455C138.455 16.7132 138.358 16.3764 138.165 16.0648C137.981 15.7448 137.7 15.488 137.323 15.2943C136.945 15.0923 136.471 14.9912 135.901 14.9912C135.356 14.9912 134.904 15.0754 134.544 15.2438C134.193 15.4038 133.93 15.6143 133.754 15.8753C133.588 16.1364 133.504 16.4227 133.504 16.7342C133.504 16.9616 133.548 17.1679 133.636 17.3531C133.732 17.5299 133.89 17.6941 134.11 17.8457C134.329 17.9889 134.628 18.1236 135.005 18.2499C135.391 18.3762 135.874 18.4983 136.454 18.6162C137.542 18.8351 138.477 19.1172 139.258 19.4624C140.048 19.7992 140.654 20.2371 141.075 20.776C141.496 21.3065 141.707 21.9801 141.707 22.7969C141.707 23.4031 141.571 23.9589 141.299 24.4641C141.036 24.9608 140.649 25.3945 140.14 25.7651C139.631 26.1272 139.021 26.4092 138.31 26.6112C137.608 26.8133 136.818 26.9144 135.94 26.9144C134.65 26.9144 133.557 26.6955 132.662 26.2577C131.766 25.8113 131.086 25.243 130.62 24.5525C130.164 23.8536 129.936 23.1295 129.936 22.3801H133.004C133.039 22.9442 133.201 23.3947 133.491 23.7315C133.789 24.0599 134.158 24.2999 134.597 24.4515C135.045 24.5946 135.505 24.6662 135.979 24.6662C136.55 24.6662 137.028 24.5946 137.415 24.4515C137.801 24.2999 138.095 24.0978 138.297 23.8452C138.499 23.5842 138.6 23.2895 138.6 22.9611ZM150.305 24.4894C150.823 24.4894 151.288 24.3925 151.701 24.1989C152.122 23.9968 152.46 23.7189 152.715 23.3652C152.978 23.0116 153.123 22.6032 153.149 22.1401H156.138C156.12 23.0242 155.848 23.8284 155.321 24.5525C154.795 25.2767 154.097 25.8534 153.228 26.2828C152.359 26.7039 151.398 26.9144 150.345 26.9144C149.256 26.9144 148.308 26.7376 147.5 26.3839C146.693 26.0218 146.021 25.525 145.486 24.8936C144.951 24.262 144.547 23.5337 144.275 22.7085C144.011 21.8833 143.88 20.9991 143.88 20.056V19.614C143.88 18.6709 144.275 16.9616 144.275 16.9616C144.275 16.9616 144.951 15.3954 145.486 14.7639C146.021 14.1323 146.693 13.6397 147.5 13.2861C148.308 12.924 149.252 12.743 150.331 12.743C151.472 12.743 152.473 12.9619 153.333 13.3998C154.194 13.8292 154.87 14.4313 155.361 15.2059C155.861 15.9722 156.12 16.8647 156.138 17.8836H153.149C153.123 17.3784 152.991 16.9237 152.754 16.5195C152.526 16.1069 152.201 15.7785 151.78 15.5343C151.367 15.2901 150.871 15.168 150.292 15.168C149.651 15.168 149.12 15.2943 148.699 15.5469C148.277 15.7911 147.948 16.128 147.711 16.5574C147.474 16.9784 147.303 17.4542 147.198 17.9846C147.101 18.5067 147.053 19.0498 147.053 19.614V20.056C147.053 20.6202 147.101 21.1675 147.198 21.698C147.294 22.2285 147.461 22.7042 147.698 23.1253C147.944 23.5379 148.277 23.8705 148.699 24.1231C149.12 24.3673 149.655 24.4894 150.305 24.4894ZM166.606 23.921V17.4036C166.606 16.9153 166.513 16.4942 166.329 16.1406C166.145 15.7869 165.864 15.5133 165.486 15.3196C165.118 15.1259 164.652 15.0291 164.091 15.0291C163.573 15.0291 163.125 15.1133 162.748 15.2817C162.37 15.4501 162.076 15.6775 161.865 15.9638C161.655 16.2501 161.549 16.5742 161.549 16.9363H158.389C158.389 16.3974 158.525 15.8753 158.798 15.3701C159.07 14.8649 159.465 14.4144 159.982 14.0187C160.501 13.6229 161.119 13.3113 161.839 13.084C162.559 12.8567 163.367 12.743 164.262 12.743C165.333 12.743 166.281 12.9156 167.106 13.2608C167.94 13.6061 168.594 14.1281 169.068 14.827C169.551 15.5175 169.792 16.3848 169.792 17.4289V23.5042C169.792 24.1273 169.836 24.6872 169.924 25.184C170.02 25.6724 170.156 26.0976 170.332 26.4598V26.6618H167.079C166.93 26.3334 166.812 25.9165 166.724 25.4113C166.645 24.8977 166.606 24.4009 166.606 23.921ZM167.066 18.3509L167.093 20.2329H164.815C164.227 20.2329 163.709 20.2876 163.261 20.3971C162.814 20.4981 162.44 20.6497 162.142 20.8518C161.844 21.0539 161.62 21.2981 161.471 21.5843C161.321 21.8706 161.247 22.1948 161.247 22.5569C161.247 22.919 161.334 23.2516 161.51 23.5547C161.685 23.8494 161.94 24.081 162.274 24.2494C162.616 24.4178 163.028 24.502 163.511 24.502C164.161 24.502 164.727 24.3757 165.21 24.1231C165.701 23.862 166.088 23.5463 166.369 23.1758C166.649 22.7969 166.799 22.439 166.816 22.1022L167.843 23.4537C167.738 23.7989 167.558 24.1694 167.303 24.5651C167.049 24.9608 166.715 25.3398 166.303 25.702C165.899 26.0555 165.412 26.3461 164.841 26.5734C164.279 26.8007 163.63 26.9144 162.892 26.9144C161.962 26.9144 161.132 26.7376 160.404 26.3839C159.675 26.0218 159.105 25.5377 158.692 24.9314C158.28 24.3167 158.073 23.6221 158.073 22.8474C158.073 22.1232 158.214 21.4833 158.495 20.9276C158.784 20.3634 159.206 19.8918 159.759 19.5129C160.321 19.134 161.005 18.8477 161.813 18.6541C162.62 18.452 163.542 18.3509 164.578 18.3509H167.066ZM176.257 15.9132V26.6618H173.084V12.9956H176.072L176.257 15.9132ZM175.691 19.3235L174.663 19.3108C174.672 18.3425 174.813 17.4542 175.085 16.6458C175.366 15.8374 175.752 15.1428 176.244 14.5618C176.744 13.9808 177.341 13.5345 178.034 13.2229C178.728 12.903 179.5 12.743 180.352 12.743C181.036 12.743 181.655 12.8356 182.208 13.0208C182.77 13.1977 183.248 13.4882 183.643 13.8924C184.047 14.2965 184.354 14.8228 184.565 15.4712C184.776 16.1111 184.881 16.8984 184.881 17.8331V26.6618H181.695V17.8204C181.695 17.1637 181.594 16.6458 181.392 16.2669C181.199 15.8796 180.913 15.6059 180.536 15.4459C180.167 15.2775 179.707 15.1933 179.154 15.1933C178.609 15.1933 178.122 15.3028 177.692 15.5217C177.262 15.7406 176.898 16.0395 176.599 16.4185C176.309 16.7974 176.086 17.2352 175.928 17.732C175.77 18.2288 175.691 18.7593 175.691 19.3235Z" stroke="black" stroke-opacity="0.2" stroke-width="2" mask="url(#path-2-inside-1_743_3942)"/>
</svg>
