<svg width="1568" height="291" viewBox="0 0 1568 291" fill="none" xmlns="http://www.w3.org/2000/svg">
<path d="M409.219 5.65234L283.489 75.6193V212.782L409.219 282.749L534.95 212.782V75.6193M409.219 45.6582L477.473 83.5859L409.219 121.513L341.145 83.5859M121.836 57.608V92.2451H247.566V57.608M319.412 111.469L391.258 151.475V232.699L319.412 192.866M499.027 111.469V192.866L427.181 232.699V151.475M157.759 126.882V161.519H247.566V126.882M193.682 196.156V230.794H247.566V196.156" fill="#FF9800"/>
<path d="M685.714 105.047H711.468V225.112C711.468 232.668 710.12 239.031 707.424 244.204C704.728 249.446 700.755 253.394 695.505 256.047C690.255 258.77 683.834 260.132 676.243 260.132C673.973 260.132 671.631 259.961 669.219 259.621C666.736 259.348 664.395 258.941 662.195 258.396L662.302 239.202C663.792 239.474 665.388 239.679 667.091 239.815C668.722 240.018 670.283 240.121 671.773 240.121C674.824 240.121 677.378 239.611 679.435 238.589C681.493 237.569 683.054 235.969 684.118 233.791C685.182 231.613 685.714 228.72 685.714 225.112V105.047ZM683.479 76.0513C683.479 72.3077 684.792 69.2108 687.417 66.7604C690.042 64.2421 693.625 62.9829 698.165 62.9829C702.777 62.9829 706.36 64.2421 708.914 66.7604C711.539 69.2108 712.851 72.3077 712.851 76.0513C712.851 79.7267 711.539 82.7896 708.914 85.2399C706.36 87.6903 702.777 88.9154 698.165 88.9154C693.625 88.9154 690.042 87.6903 687.417 85.2399C684.792 82.7896 683.479 79.7267 683.479 76.0513ZM766.594 105.047V215.515H740.84V105.047H766.594ZM739.137 76.0513C739.137 72.3077 740.414 69.2108 742.968 66.7604C745.593 64.2421 749.212 62.9829 753.823 62.9829C758.364 62.9829 761.947 64.2421 764.572 66.7604C767.197 69.2108 768.509 72.3077 768.509 76.0513C768.509 79.7267 767.197 82.7896 764.572 85.2399C761.947 87.6903 758.364 88.9154 753.823 88.9154C749.212 88.9154 745.593 87.6903 742.968 85.2399C740.414 82.7896 739.137 79.7267 739.137 76.0513ZM829.382 215.515H803.735V94.4286C803.735 86.1929 805.331 79.2843 808.523 73.7031C811.787 68.0537 816.433 63.7996 822.465 60.9409C828.495 58.0142 835.625 56.5508 843.854 56.5508C846.409 56.5508 848.928 56.7209 851.411 57.0613C853.893 57.3335 856.306 57.7759 858.647 58.3885L858.01 77.3785C856.59 77.0382 855.029 76.8 853.327 76.6639C851.694 76.5277 849.921 76.4597 848.005 76.4597C844.103 76.4597 840.733 77.1743 837.895 78.6037C835.128 79.9649 833 81.9729 831.51 84.6273C830.092 87.2819 829.382 90.5489 829.382 94.4286V215.515ZM853.114 105.047V123.016H786.069V105.047H853.114ZM906.43 215.515H880.782V94.4286C880.782 86.1929 882.379 79.2843 885.572 73.7031C888.835 68.0537 893.483 63.7996 899.513 60.9409C905.543 58.0142 912.673 56.5508 920.904 56.5508C923.458 56.5508 925.976 56.7209 928.459 57.0613C930.943 57.3335 933.355 57.7759 935.696 58.3885L935.058 77.3785C933.639 77.0382 932.077 76.8 930.375 76.6639C928.743 76.5277 926.97 76.4597 925.053 76.4597C921.152 76.4597 917.781 77.1743 914.943 78.6037C912.177 79.9649 910.049 81.9729 908.558 84.6273C907.14 87.2819 906.43 90.5489 906.43 94.4286V215.515ZM930.162 105.047V123.016H863.117V105.047H930.162ZM982.201 203.468L1013.49 105.047H1040.95L994.759 232.362C993.695 235.083 992.311 238.044 990.609 241.244C988.907 244.442 986.671 247.471 983.904 250.33C981.209 253.257 977.839 255.605 973.794 257.374C969.75 259.212 964.854 260.132 959.108 260.132C956.838 260.132 954.639 259.928 952.51 259.519C950.453 259.179 948.501 258.805 946.657 258.396L946.551 239.611C947.26 239.679 948.112 239.747 949.106 239.815C950.169 239.883 951.021 239.916 951.658 239.916C955.915 239.916 959.463 239.406 962.302 238.385C965.138 237.432 967.445 235.866 969.218 233.688C971.063 231.51 972.623 228.584 973.901 224.909L982.201 203.468ZM964.536 105.047L991.885 187.745L996.462 213.678L978.689 218.067L936.867 105.047H964.536ZM1120.23 185.601C1120.23 183.151 1119.59 180.939 1118.31 178.965C1117.04 176.923 1114.59 175.085 1110.97 173.452C1107.42 171.818 1102.17 170.32 1095.22 168.959C1089.12 167.666 1083.51 166.135 1078.41 164.365C1073.37 162.527 1069.04 160.315 1065.42 157.729C1061.8 155.142 1059 152.079 1057.02 148.54C1055.03 145 1054.04 140.917 1054.04 136.288C1054.04 131.796 1055.06 127.542 1057.12 123.526C1059.18 119.51 1062.12 115.971 1065.95 112.908C1069.79 109.845 1074.43 107.429 1079.9 105.659C1085.43 103.89 1091.6 103.005 1098.41 103.005C1108.06 103.005 1116.33 104.57 1123.21 107.701C1130.16 110.764 1135.48 114.95 1139.17 120.259C1142.86 125.5 1144.71 131.422 1144.71 138.024H1119.06C1119.06 135.097 1118.28 132.375 1116.72 129.856C1115.23 127.27 1112.96 125.194 1109.91 123.628C1106.86 121.995 1103.02 121.178 1098.41 121.178C1094.01 121.178 1090.36 121.859 1087.45 123.22C1084.61 124.513 1082.48 126.215 1081.07 128.325C1079.72 130.435 1079.04 132.749 1079.04 135.267C1079.04 137.105 1079.4 138.773 1080.11 140.27C1080.89 141.699 1082.17 143.027 1083.94 144.252C1085.71 145.409 1088.12 146.498 1091.18 147.519C1094.3 148.54 1098.2 149.527 1102.88 150.48C1111.68 152.249 1119.24 154.53 1125.55 157.32C1131.94 160.043 1136.83 163.582 1140.24 167.938C1143.64 172.226 1145.34 177.671 1145.34 184.274C1145.34 189.174 1144.24 193.667 1142.05 197.75C1139.92 201.766 1136.79 205.271 1132.68 208.267C1128.57 211.194 1123.63 213.473 1117.89 215.107C1112.21 216.74 1105.83 217.557 1098.73 217.557C1088.3 217.557 1079.47 215.788 1072.23 212.249C1065 208.64 1059.5 204.047 1055.74 198.465C1052.05 192.816 1050.2 186.962 1050.2 180.905H1075C1075.28 185.465 1076.6 189.106 1078.94 191.829C1081.35 194.483 1084.33 196.423 1087.88 197.648C1091.49 198.806 1095.22 199.384 1099.05 199.384C1103.66 199.384 1107.53 198.806 1110.65 197.648C1113.77 196.423 1116.15 194.79 1117.78 192.748C1119.41 190.638 1120.23 188.255 1120.23 185.601ZM1214.84 197.955C1219.02 197.955 1222.78 197.172 1226.12 195.607C1229.52 193.973 1232.25 191.727 1234.31 188.868C1236.44 186.009 1237.61 182.708 1237.82 178.965H1261.98C1261.84 186.111 1259.64 192.612 1255.38 198.465C1251.13 204.319 1245.49 208.981 1238.46 212.452C1231.44 215.856 1223.67 217.557 1215.16 217.557C1206.36 217.557 1198.7 216.128 1192.17 213.269C1185.64 210.342 1180.21 206.326 1175.89 201.222C1171.56 196.117 1168.3 190.229 1166.1 183.559C1163.97 176.889 1162.9 169.742 1162.9 162.119V158.545C1162.9 150.922 1163.97 143.775 1166.1 137.105C1168.3 130.367 1171.56 124.445 1175.89 119.34C1180.21 114.235 1185.64 110.254 1192.17 107.395C1198.7 104.468 1206.32 103.005 1215.05 103.005C1224.27 103.005 1232.36 104.775 1239.31 108.314C1246.27 111.785 1251.73 116.652 1255.7 122.914C1259.75 129.107 1261.84 136.322 1261.98 144.558H1237.82C1237.61 140.474 1236.55 136.799 1234.63 133.532C1232.79 130.197 1230.16 127.542 1226.76 125.568C1223.42 123.594 1219.41 122.607 1214.73 122.607C1209.55 122.607 1205.26 123.628 1201.85 125.67C1198.45 127.644 1195.79 130.367 1193.87 133.838C1191.96 137.241 1190.57 141.087 1189.72 145.375C1188.94 149.595 1188.55 153.985 1188.55 158.545V162.119C1188.55 166.679 1188.94 171.103 1189.72 175.391C1190.5 179.679 1191.85 183.525 1193.77 186.928C1195.75 190.263 1198.45 192.952 1201.85 194.994C1205.26 196.968 1209.59 197.955 1214.84 197.955ZM1346.59 193.36V140.678C1346.59 136.731 1345.84 133.327 1344.35 130.469C1342.86 127.61 1340.59 125.398 1337.54 123.832C1334.56 122.267 1330.8 121.484 1326.26 121.484C1322.07 121.484 1318.45 122.165 1315.4 123.526C1312.35 124.887 1309.98 126.725 1308.27 129.039C1306.57 131.354 1305.72 133.974 1305.72 136.901H1280.18C1280.18 132.545 1281.28 128.325 1283.48 124.241C1285.68 120.157 1288.87 116.516 1293.06 113.316C1297.24 110.117 1302.24 107.599 1308.06 105.761C1313.88 103.924 1320.41 103.005 1327.64 103.005C1336.3 103.005 1343.96 104.4 1350.63 107.191C1357.37 109.981 1362.65 114.201 1366.49 119.851C1370.39 125.432 1372.34 132.443 1372.34 140.883V189.991C1372.34 195.028 1372.69 199.554 1373.4 203.57C1374.18 207.517 1375.28 210.955 1376.7 213.882V215.515H1350.42C1349.21 212.86 1348.25 209.491 1347.54 205.407C1346.9 201.256 1346.59 197.24 1346.59 193.36ZM1350.31 148.336L1350.52 163.548H1332.11C1327.36 163.548 1323.17 163.99 1319.55 164.875C1315.94 165.692 1312.92 166.917 1310.51 168.551C1308.1 170.184 1306.29 172.158 1305.08 174.472C1303.88 176.787 1303.27 179.407 1303.27 182.334C1303.27 185.261 1303.98 187.949 1305.4 190.4C1306.82 192.782 1308.88 194.654 1311.57 196.015C1314.34 197.376 1317.67 198.057 1321.58 198.057C1326.83 198.057 1331.4 197.036 1335.3 194.994C1339.28 192.884 1342.4 190.331 1344.67 187.337C1346.94 184.274 1348.15 181.381 1348.29 178.658L1356.59 189.583C1355.74 192.373 1354.28 195.368 1352.23 198.567C1350.17 201.766 1347.47 204.829 1344.14 207.756C1340.87 210.614 1336.94 212.963 1332.32 214.801C1327.78 216.638 1322.53 217.557 1316.57 217.557C1309.05 217.557 1302.35 216.128 1296.46 213.269C1290.57 210.342 1285.96 206.429 1282.63 201.528C1279.29 196.559 1277.62 190.944 1277.62 184.682C1277.62 178.829 1278.76 173.656 1281.03 169.163C1283.37 164.603 1286.78 160.791 1291.25 157.729C1295.79 154.666 1301.32 152.352 1307.85 150.786C1314.37 149.152 1321.82 148.336 1330.2 148.336H1350.31ZM1424.59 128.631V215.515H1398.94V105.047H1423.1L1424.59 128.631ZM1420.02 156.197L1411.71 156.095C1411.78 148.268 1412.92 141.087 1415.12 134.553C1417.39 128.018 1420.51 122.403 1424.49 117.707C1428.53 113.01 1433.35 109.403 1438.96 106.884C1444.56 104.298 1450.81 103.005 1457.69 103.005C1463.22 103.005 1468.22 103.753 1472.69 105.251C1477.23 106.68 1481.1 109.029 1484.29 112.296C1487.56 115.563 1490.04 119.817 1491.74 125.058C1493.45 130.231 1494.3 136.595 1494.3 144.15V215.515H1468.54V144.048C1468.54 138.739 1467.73 134.553 1466.09 131.49C1464.53 128.359 1462.23 126.147 1459.18 124.853C1456.2 123.492 1452.47 122.812 1448 122.812C1443.61 122.812 1439.67 123.696 1436.19 125.466C1432.71 127.236 1429.77 129.652 1427.36 132.715C1425.02 135.778 1423.21 139.317 1421.93 143.333C1420.65 147.349 1420.02 151.637 1420.02 156.197Z" fill="#F1F1F1"/>
</svg>
