<svg width="2964" height="5754" viewBox="0 0 2964 5754" fill="none" xmlns="http://www.w3.org/2000/svg">
<rect width="2560" height="5338" transform="translate(0 351)" fill="white"/>
<g filter="url(#filter0_f_1695_8424)">
<circle cx="1310" cy="927" r="342" fill="#BAAEE8"/>
</g>
<g filter="url(#filter1_f_1695_8424)">
<circle cx="2037" cy="1366" r="342" fill="#AECCE8"/>
</g>
<g filter="url(#filter2_f_1695_8424)">
<circle cx="1163.5" cy="1903.5" r="271.5" fill="#E6D4BF"/>
</g>
<g filter="url(#filter3_f_1695_8424)">
<circle cx="1729" cy="2954" r="342" fill="#F3E0BC"/>
</g>
<g filter="url(#filter4_f_1695_8424)">
<circle cx="1944" cy="4354" r="342" fill="#AECCE8"/>
</g>
<g filter="url(#filter5_f_1695_8424)">
<circle cx="1101" cy="4827" r="342" fill="#CDCDEB"/>
</g>
<g filter="url(#filter6_f_1695_8424)">
<circle cx="1123.5" cy="3607.5" r="271.5" fill="#CBF5E6"/>
</g>
<path opacity="0.14" fill-rule="evenodd" clip-rule="evenodd" d="M837 2599H2121V3723H837V2599ZM839.006 2601.01H995.494V2757.56H839.006V2601.01ZM999.506 2601.01H1155.99V2757.56H999.506V2601.01ZM1316.49 2601.01H1160.01V2757.56H1316.49V2601.01ZM1320.51 2601.01H1476.99V2757.56H1320.51V2601.01ZM1637.49 2601.01H1481.01V2757.56H1637.49V2601.01ZM1641.51 2601.01H1797.99V2757.56H1641.51V2601.01ZM1958.49 2601.01H1802.01V2757.56H1958.49V2601.01ZM1962.51 2601.01H2118.99V2757.56H1962.51V2601.01ZM995.494 2761.58H839.006V2918.14H995.494V2761.58ZM999.506 2761.58H1155.99V2918.14H999.506V2761.58ZM1316.49 2761.58H1160.01V2918.14H1316.49V2761.58ZM1320.51 2761.58H1476.99V2918.14H1320.51V2761.58ZM1637.49 2761.58H1481.01V2918.14H1637.49V2761.58ZM1641.51 2761.58H1797.99V2918.14H1641.51V2761.58ZM1958.49 2761.58H1802.01V2918.14H1958.49V2761.58ZM1962.51 2761.58H2118.99V2918.14H1962.51V2761.58ZM995.494 2922.15H839.006V3078.71H995.494V2922.15ZM999.506 2922.15H1155.99V3078.71H999.506V2922.15ZM1316.49 2922.15H1160.01V3078.71H1316.49V2922.15ZM1320.51 2922.15H1476.99V3078.71H1320.51V2922.15ZM1637.49 2922.15H1481.01V3078.71H1637.49V2922.15ZM1641.51 2922.15H1797.99V3078.71H1641.51V2922.15ZM1958.49 2922.15H1802.01V3078.71H1958.49V2922.15ZM1962.51 2922.15H2118.99V3078.71H1962.51V2922.15ZM995.494 3082.72H839.006V3239.28H995.494V3082.72ZM999.506 3082.72H1155.99V3239.28H999.506V3082.72ZM1316.49 3082.72H1160.01V3239.28H1316.49V3082.72ZM1320.51 3082.72H1476.99V3239.28H1320.51V3082.72ZM1637.49 3082.72H1481.01V3239.28H1637.49V3082.72ZM1641.51 3082.72H1797.99V3239.28H1641.51V3082.72ZM1958.49 3082.72H1802.01V3239.28H1958.49V3082.72ZM1962.51 3082.72H2118.99V3239.28H1962.51V3082.72ZM995.494 3243.29H839.006V3399.85H995.494V3243.29ZM999.506 3243.29H1155.99V3399.85H999.506V3243.29ZM1316.49 3243.29H1160.01V3399.85H1316.49V3243.29ZM1320.51 3243.29H1476.99V3399.85H1320.51V3243.29ZM1637.49 3243.29H1481.01V3399.85H1637.49V3243.29ZM1641.51 3243.29H1797.99V3399.85H1641.51V3243.29ZM1958.49 3243.29H1802.01V3399.85H1958.49V3243.29ZM1962.51 3243.29H2118.99V3399.85H1962.51V3243.29ZM995.494 3403.86H839.006V3560.42H995.494V3403.86ZM999.506 3403.86H1155.99V3560.42H999.506V3403.86ZM1316.49 3403.86H1160.01V3560.42H1316.49V3403.86ZM1320.51 3403.86H1476.99V3560.42H1320.51V3403.86ZM1637.49 3403.86H1481.01V3560.42H1637.49V3403.86ZM1641.51 3403.86H1797.99V3560.42H1641.51V3403.86ZM1958.49 3403.86H1802.01V3560.42H1958.49V3403.86ZM1962.51 3403.86H2118.99V3560.42H1962.51V3403.86ZM995.494 3564.44H839.006V3720.99H995.494V3564.44ZM999.506 3564.44H1155.99V3720.99H999.506V3564.44ZM1316.49 3564.44H1160.01V3720.99H1316.49V3564.44ZM1320.51 3564.44H1476.99V3720.99H1320.51V3564.44ZM1637.49 3564.44H1481.01V3720.99H1637.49V3564.44ZM1641.51 3564.44H1797.99V3720.99H1641.51V3564.44ZM1958.49 3564.44H1802.01V3720.99H1958.49V3564.44ZM1962.51 3564.44H2118.99V3720.99H1962.51V3564.44Z" fill="#C3EDC2"/>
<path opacity="0.14" fill-rule="evenodd" clip-rule="evenodd" d="M837 1475H2121V2599H837V1475ZM839.006 1477.01H995.494V1633.56H839.006V1477.01ZM999.506 1477.01H1155.99V1633.56H999.506V1477.01ZM1316.49 1477.01H1160.01V1633.56H1316.49V1477.01ZM1320.51 1477.01H1476.99V1633.56H1320.51V1477.01ZM1637.49 1477.01H1481.01V1633.56H1637.49V1477.01ZM1641.51 1477.01H1797.99V1633.56H1641.51V1477.01ZM1958.49 1477.01H1802.01V1633.56H1958.49V1477.01ZM1962.51 1477.01H2118.99V1633.56H1962.51V1477.01ZM995.494 1637.58H839.006V1794.14H995.494V1637.58ZM999.506 1637.58H1155.99V1794.14H999.506V1637.58ZM1316.49 1637.58H1160.01V1794.14H1316.49V1637.58ZM1320.51 1637.58H1476.99V1794.14H1320.51V1637.58ZM1637.49 1637.58H1481.01V1794.14H1637.49V1637.58ZM1641.51 1637.58H1797.99V1794.14H1641.51V1637.58ZM1958.49 1637.58H1802.01V1794.14H1958.49V1637.58ZM1962.51 1637.58H2118.99V1794.14H1962.51V1637.58ZM995.494 1798.15H839.006V1954.71H995.494V1798.15ZM999.506 1798.15H1155.99V1954.71H999.506V1798.15ZM1316.49 1798.15H1160.01V1954.71H1316.49V1798.15ZM1320.51 1798.15H1476.99V1954.71H1320.51V1798.15ZM1637.49 1798.15H1481.01V1954.71H1637.49V1798.15ZM1641.51 1798.15H1797.99V1954.71H1641.51V1798.15ZM1958.49 1798.15H1802.01V1954.71H1958.49V1798.15ZM1962.51 1798.15H2118.99V1954.71H1962.51V1798.15ZM995.494 1958.72H839.006V2115.28H995.494V1958.72ZM999.506 1958.72H1155.99V2115.28H999.506V1958.72ZM1316.49 1958.72H1160.01V2115.28H1316.49V1958.72ZM1320.51 1958.72H1476.99V2115.28H1320.51V1958.72ZM1637.49 1958.72H1481.01V2115.28H1637.49V1958.72ZM1641.51 1958.72H1797.99V2115.28H1641.51V1958.72ZM1958.49 1958.72H1802.01V2115.28H1958.49V1958.72ZM1962.51 1958.72H2118.99V2115.28H1962.51V1958.72ZM995.494 2119.29H839.006V2275.85H995.494V2119.29ZM999.506 2119.29H1155.99V2275.85H999.506V2119.29ZM1316.49 2119.29H1160.01V2275.85H1316.49V2119.29ZM1320.51 2119.29H1476.99V2275.85H1320.51V2119.29ZM1637.49 2119.29H1481.01V2275.85H1637.49V2119.29ZM1641.51 2119.29H1797.99V2275.85H1641.51V2119.29ZM1958.49 2119.29H1802.01V2275.85H1958.49V2119.29ZM1962.51 2119.29H2118.99V2275.85H1962.51V2119.29ZM995.494 2279.86H839.006V2436.42H995.494V2279.86ZM999.506 2279.86H1155.99V2436.42H999.506V2279.86ZM1316.49 2279.86H1160.01V2436.42H1316.49V2279.86ZM1320.51 2279.86H1476.99V2436.42H1320.51V2279.86ZM1637.49 2279.86H1481.01V2436.42H1637.49V2279.86ZM1641.51 2279.86H1797.99V2436.42H1641.51V2279.86ZM1958.49 2279.86H1802.01V2436.42H1958.49V2279.86ZM1962.51 2279.86H2118.99V2436.42H1962.51V2279.86ZM995.494 2440.44H839.006V2596.99H995.494V2440.44ZM999.506 2440.44H1155.99V2596.99H999.506V2440.44ZM1316.49 2440.44H1160.01V2596.99H1316.49V2440.44ZM1320.51 2440.44H1476.99V2596.99H1320.51V2440.44ZM1637.49 2440.44H1481.01V2596.99H1637.49V2440.44ZM1641.51 2440.44H1797.99V2596.99H1641.51V2440.44ZM1958.49 2440.44H1802.01V2596.99H1958.49V2440.44ZM1962.51 2440.44H2118.99V2596.99H1962.51V2440.44Z" fill="#D9D8D6"/>
<path opacity="0.14" fill-rule="evenodd" clip-rule="evenodd" d="M837 351H2121V1475H837V351ZM839.006 353.007H995.494V509.564H839.006V353.007ZM999.506 353.007H1155.99V509.564H999.506V353.007ZM1316.49 353.007H1160.01V509.564H1316.49V353.007ZM1320.51 353.007H1476.99V509.564H1320.51V353.007ZM1637.49 353.007H1481.01V509.564H1637.49V353.007ZM1641.51 353.007H1797.99V509.564H1641.51V353.007ZM1958.49 353.007H1802.01V509.564H1958.49V353.007ZM1962.51 353.007H2118.99V509.564H1962.51V353.007ZM995.494 513.579H839.006V670.136H995.494V513.579ZM999.506 513.579H1155.99V670.136H999.506V513.579ZM1316.49 513.579H1160.01V670.136H1316.49V513.579ZM1320.51 513.579H1476.99V670.136H1320.51V513.579ZM1637.49 513.579H1481.01V670.136H1637.49V513.579ZM1641.51 513.579H1797.99V670.136H1641.51V513.579ZM1958.49 513.579H1802.01V670.136H1958.49V513.579ZM1962.51 513.579H2118.99V670.136H1962.51V513.579ZM995.494 674.15H839.006V830.707H995.494V674.15ZM999.506 674.15H1155.99V830.707H999.506V674.15ZM1316.49 674.15H1160.01V830.707H1316.49V674.15ZM1320.51 674.15H1476.99V830.707H1320.51V674.15ZM1637.49 674.15H1481.01V830.707H1637.49V674.15ZM1641.51 674.15H1797.99V830.707H1641.51V674.15ZM1958.49 674.15H1802.01V830.707H1958.49V674.15ZM1962.51 674.15H2118.99V830.707H1962.51V674.15ZM995.494 834.721H839.006V991.279H995.494V834.721ZM999.506 834.721H1155.99V991.279H999.506V834.721ZM1316.49 834.721H1160.01V991.279H1316.49V834.721ZM1320.51 834.721H1476.99V991.279H1320.51V834.721ZM1637.49 834.721H1481.01V991.279H1637.49V834.721ZM1641.51 834.721H1797.99V991.279H1641.51V834.721ZM1958.49 834.721H1802.01V991.279H1958.49V834.721ZM1962.51 834.721H2118.99V991.279H1962.51V834.721ZM995.494 995.293H839.006V1151.85H995.494V995.293ZM999.506 995.293H1155.99V1151.85H999.506V995.293ZM1316.49 995.293H1160.01V1151.85H1316.49V995.293ZM1320.51 995.293H1476.99V1151.85H1320.51V995.293ZM1637.49 995.293H1481.01V1151.85H1637.49V995.293ZM1641.51 995.293H1797.99V1151.85H1641.51V995.293ZM1958.49 995.293H1802.01V1151.85H1958.49V995.293ZM1962.51 995.293H2118.99V1151.85H1962.51V995.293ZM995.494 1155.86H839.006V1312.42H995.494V1155.86ZM999.506 1155.86H1155.99V1312.42H999.506V1155.86ZM1316.49 1155.86H1160.01V1312.42H1316.49V1155.86ZM1320.51 1155.86H1476.99V1312.42H1320.51V1155.86ZM1637.49 1155.86H1481.01V1312.42H1637.49V1155.86ZM1641.51 1155.86H1797.99V1312.42H1641.51V1155.86ZM1958.49 1155.86H1802.01V1312.42H1958.49V1155.86ZM1962.51 1155.86H2118.99V1312.42H1962.51V1155.86ZM995.494 1316.44H839.006V1472.99H995.494V1316.44ZM999.506 1316.44H1155.99V1472.99H999.506V1316.44ZM1316.49 1316.44H1160.01V1472.99H1316.49V1316.44ZM1320.51 1316.44H1476.99V1472.99H1320.51V1316.44ZM1637.49 1316.44H1481.01V1472.99H1637.49V1316.44ZM1641.51 1316.44H1797.99V1472.99H1641.51V1316.44ZM1958.49 1316.44H1802.01V1472.99H1958.49V1316.44ZM1962.51 1316.44H2118.99V1472.99H1962.51V1316.44Z" fill="#D9D8D6"/>
<defs>
<filter id="filter0_f_1695_8424" x="383.1" y="0.0999756" width="1853.8" height="1853.8" filterUnits="userSpaceOnUse" color-interpolation-filters="sRGB">
<feFlood flood-opacity="0" result="BackgroundImageFix"/>
<feBlend mode="normal" in="SourceGraphic" in2="BackgroundImageFix" result="shape"/>
<feGaussianBlur stdDeviation="292.45" result="effect1_foregroundBlur_1695_8424"/>
</filter>
<filter id="filter1_f_1695_8424" x="1110.1" y="439.1" width="1853.8" height="1853.8" filterUnits="userSpaceOnUse" color-interpolation-filters="sRGB">
<feFlood flood-opacity="0" result="BackgroundImageFix"/>
<feBlend mode="normal" in="SourceGraphic" in2="BackgroundImageFix" result="shape"/>
<feGaussianBlur stdDeviation="292.45" result="effect1_foregroundBlur_1695_8424"/>
</filter>
<filter id="filter2_f_1695_8424" x="307.1" y="1047.1" width="1712.8" height="1712.8" filterUnits="userSpaceOnUse" color-interpolation-filters="sRGB">
<feFlood flood-opacity="0" result="BackgroundImageFix"/>
<feBlend mode="normal" in="SourceGraphic" in2="BackgroundImageFix" result="shape"/>
<feGaussianBlur stdDeviation="292.45" result="effect1_foregroundBlur_1695_8424"/>
</filter>
<filter id="filter3_f_1695_8424" x="802.1" y="2027.1" width="1853.8" height="1853.8" filterUnits="userSpaceOnUse" color-interpolation-filters="sRGB">
<feFlood flood-opacity="0" result="BackgroundImageFix"/>
<feBlend mode="normal" in="SourceGraphic" in2="BackgroundImageFix" result="shape"/>
<feGaussianBlur stdDeviation="292.45" result="effect1_foregroundBlur_1695_8424"/>
</filter>
<filter id="filter4_f_1695_8424" x="1017.1" y="3427.1" width="1853.8" height="1853.8" filterUnits="userSpaceOnUse" color-interpolation-filters="sRGB">
<feFlood flood-opacity="0" result="BackgroundImageFix"/>
<feBlend mode="normal" in="SourceGraphic" in2="BackgroundImageFix" result="shape"/>
<feGaussianBlur stdDeviation="292.45" result="effect1_foregroundBlur_1695_8424"/>
</filter>
<filter id="filter5_f_1695_8424" x="174.1" y="3900.1" width="1853.8" height="1853.8" filterUnits="userSpaceOnUse" color-interpolation-filters="sRGB">
<feFlood flood-opacity="0" result="BackgroundImageFix"/>
<feBlend mode="normal" in="SourceGraphic" in2="BackgroundImageFix" result="shape"/>
<feGaussianBlur stdDeviation="292.45" result="effect1_foregroundBlur_1695_8424"/>
</filter>
<filter id="filter6_f_1695_8424" x="267.1" y="2751.1" width="1712.8" height="1712.8" filterUnits="userSpaceOnUse" color-interpolation-filters="sRGB">
<feFlood flood-opacity="0" result="BackgroundImageFix"/>
<feBlend mode="normal" in="SourceGraphic" in2="BackgroundImageFix" result="shape"/>
<feGaussianBlur stdDeviation="292.45" result="effect1_foregroundBlur_1695_8424"/>
</filter>
</defs>
</svg>
