<svg width="32" height="32" viewBox="0 0 32 32" fill="none" xmlns="http://www.w3.org/2000/svg">
<g clip-path="url(#clip0_1993_8881)">
<path d="M18.0534 15.9996C18.0605 18.4019 17.1138 20.7089 15.4214 22.4138C13.7289 24.1188 11.429 25.0823 9.02671 25.0929C6.62439 25.0823 4.32447 24.1188 2.63202 22.4138C0.939571 20.7089 -0.00704951 18.4019 3.9531e-05 15.9996C-0.00704951 13.5973 0.939571 11.2903 2.63202 9.58536C4.32447 7.88041 6.62439 6.91684 9.02671 6.90625C11.429 6.91684 13.7289 7.88041 15.4214 9.58536C17.1138 11.2903 18.0605 13.5973 18.0534 15.9996ZM27.9467 15.9996C27.9467 20.7196 25.9334 24.5596 23.44 24.5596C20.9467 24.5596 18.92 20.7196 18.92 15.9996C18.92 11.2796 20.9467 7.43958 23.44 7.43958C25.9334 7.43958 27.9467 11.2796 27.9467 15.9996ZM32 15.9996C32 20.2263 31.2934 23.6663 30.4134 23.6663C29.5334 23.6663 28.8267 20.2263 28.8267 15.9996C28.8267 11.7729 29.5334 8.33292 30.4134 8.33292C31.2934 8.33292 32 11.7729 32 15.9996Z" fill="#9E9E9E"/>
</g>
<defs>
<clipPath id="clip0_1993_8881">
<rect width="32" height="32" fill="white"/>
</clipPath>
</defs>
</svg>
