<svg width="1024" height="322" viewBox="0 0 1024 322" fill="none" xmlns="http://www.w3.org/2000/svg">
<g clip-path="url(#clip0_1378_8992)">
<rect width="1024" height="322" rx="16" fill="url(#paint0_linear_1378_8992)"/>
<g opacity="0.12" clip-path="url(#clip1_1378_8992)">
<path d="M-158.201 -544V10.7373C-158.201 95.6665 -140.401 178.198 -105.301 256.133C-71.5008 331.27 -23.0008 398.914 38.6992 457.065C100.299 515.217 171.999 560.878 251.799 592.752C334.399 625.824 421.899 642.61 511.999 642.61C602.099 642.61 689.599 625.824 772.199 592.752C851.999 560.878 923.699 515.217 985.299 457.065C1047 398.914 1095.5 331.27 1129.3 256.133C1164.4 178.198 1182.2 95.6665 1182.2 10.7373V-544H1187.8V10.7373C1187.8 361.245 883.699 647.906 511.999 647.906C140.299 647.906 -163.801 361.245 -163.801 10.7373V-544H-158.201Z" fill="url(#paint1_linear_1378_8992)"/>
<path d="M-133.002 -544V6.24109C-133.002 87.9729 -115.802 167.307 -82.1016 242.244C-49.5016 314.584 -2.90155 379.63 56.4984 435.583C115.898 491.536 184.898 535.5 261.598 566.274C341.098 598.147 425.298 614.234 511.998 614.234C598.698 614.234 682.898 598.147 762.398 566.274C839.098 535.5 908.098 491.536 967.498 435.583C1026.9 379.63 1073.5 314.584 1106.1 242.244C1139.8 167.307 1157 87.9729 1157 6.24109V-544H1162.6V6.24109C1162.6 343.56 869.798 619.53 511.998 619.53C154.198 619.53 -138.602 343.56 -138.602 6.24109V-544H-133.002Z" fill="url(#paint2_linear_1378_8992)"/>
<path d="M-107.701 -544V1.6449C-107.701 80.1794 -91.3008 156.416 -58.8008 228.456C-27.5008 297.998 17.2992 360.446 74.2992 414.201C131.399 467.956 197.699 510.221 271.399 539.796C347.799 570.37 428.699 585.858 511.999 585.858C595.299 585.858 676.199 570.37 752.599 539.796C826.299 510.221 892.599 467.956 949.699 414.201C1006.7 360.446 1051.5 297.998 1082.8 228.456C1115.3 156.416 1131.7 80.1794 1131.7 1.6449V-544H1137.3V1.6449C1137.3 325.874 855.899 591.153 511.999 591.153C168.099 591.153 -113.301 325.874 -113.301 1.6449V-544L-107.701 -544Z" fill="url(#paint3_linear_1378_8992)"/>
<path d="M-82.4 -544V-2.95123C-82.4 72.3859 -66.7 145.525 -35.5 214.667C-5.5 281.312 37.5 341.262 92.2 392.819C146.9 444.376 210.5 484.942 281.2 513.218C354.5 542.594 432.1 557.481 512 557.481C591.9 557.481 669.5 542.594 742.8 513.218C813.5 484.942 877.1 444.376 931.8 392.819C986.5 341.262 1029.5 281.312 1059.5 214.667C1090.7 145.525 1106.4 72.3859 1106.4 -2.95123V-544H1112V-2.95123C1112 308.189 842 562.777 512 562.777C182 562.777 -88 308.189 -88 -2.95123V-544H-82.4Z" fill="url(#paint4_linear_1378_8992)"/>
<path d="M-57.2008 -544V-7.54742C-57.2008 64.5924 -42.1008 134.734 -12.3008 200.779C16.4992 264.626 57.5992 322.078 109.999 371.436C162.399 420.795 223.299 459.663 290.999 486.74C361.199 514.817 435.499 529.105 511.999 529.105C588.499 529.105 662.799 514.817 732.999 486.74C800.699 459.663 861.599 420.795 913.999 371.436C966.399 322.078 1007.5 264.626 1036.3 200.779C1066.1 134.734 1081.2 64.5924 1081.2 -7.54742V-544H1086.8V-7.54742C1086.8 290.504 828.099 534.301 511.999 534.301C195.899 534.301 -62.8008 290.504 -62.8008 -7.54742V-544L-57.2008 -544Z" fill="url(#paint5_linear_1378_8992)"/>
<path d="M-31.9 -544V-12.1436C-31.9 56.7989 -17.5 123.843 11 186.99C38.5 248.039 77.8 302.894 127.8 350.054C177.9 397.215 236.1 434.284 300.8 460.262C367.8 487.04 438.9 500.729 512 500.729C585.1 500.729 656.2 487.04 723.2 460.262C787.9 434.284 846.1 397.215 896.2 350.054C946.2 302.894 985.5 248.039 1013 186.99C1041.5 123.843 1055.9 56.7989 1055.9 -12.1436V-544H1061.5V-12.1436C1061.5 272.819 814.2 505.924 512 505.924C209.8 505.924 -37.5 272.819 -37.5 -12.1436V-544H-31.9Z" fill="url(#paint6_linear_1378_8992)"/>
<path d="M-6.70081 -544V-16.6399C-6.70081 49.0054 7.09922 112.952 34.1992 173.202C60.4992 231.353 97.9992 283.61 145.699 328.672C193.399 373.635 248.899 409.005 310.599 433.685C374.499 459.363 442.299 472.252 511.999 472.252C581.699 472.252 649.499 459.363 713.399 433.685C775.099 409.005 830.599 373.635 878.299 328.672C925.999 283.61 963.499 231.353 989.799 173.202C1016.9 112.952 1030.7 49.0054 1030.7 -16.6399V-544H1036.3V-16.6399C1036.3 255.133 800.299 477.548 511.999 477.548C223.699 477.548 -12.3008 255.133 -12.3008 -16.6399V-544H-6.70081Z" fill="url(#paint7_linear_1378_8992)"/>
<path d="M18.6 -544V-21.236C18.6 41.2119 31.7 102.061 57.5 159.313C82.4 214.667 118.1 264.426 163.5 307.29C208.9 350.054 261.7 383.726 320.4 407.207C381.2 431.586 445.7 443.876 512 443.876C578.3 443.876 642.8 431.586 703.6 407.207C762.3 383.726 815.1 350.054 860.5 307.29C905.9 264.426 941.6 214.667 966.5 159.313C992.3 102.061 1005.4 41.2119 1005.4 -21.236V-544H1011V-21.236C1011 237.448 786.5 449.172 512 449.172C237.5 449.172 13 237.448 13 -21.236V-544H18.6Z" fill="url(#paint8_linear_1378_8992)"/>
<path d="M43.7992 -544V-25.8322C43.7992 33.5183 56.2992 91.1702 80.7992 145.525C104.399 198.081 138.299 245.242 181.399 285.908C224.399 326.474 274.499 358.347 330.199 380.729C387.899 403.81 449.099 415.5 511.999 415.5C574.899 415.5 636.099 403.81 693.799 380.729C749.499 358.347 799.599 326.474 842.599 285.908C885.699 245.242 919.599 198.081 943.199 145.525C967.699 91.1702 980.199 33.5183 980.199 -25.8322V-544H985.799V-25.8322C985.799 219.763 772.599 420.795 511.999 420.795C251.399 420.795 38.1992 219.763 38.1992 -25.8322V-544H43.7992Z" fill="url(#paint9_linear_1378_8992)"/>
<path d="M69.1 -544V-30.4283C69.1 25.7249 80.8 80.2793 104 131.736C126.4 181.395 158.4 226.058 199.2 264.426C240 302.894 287.3 333.069 340 354.151C394.6 376.033 452.5 387.123 512 387.123C571.5 387.123 629.4 376.033 684 354.151C736.7 333.069 784 302.894 824.8 264.426C865.6 226.058 897.6 181.395 920 131.736C943.2 80.2793 954.9 25.7249 954.9 -30.4283V-544H960.5V-30.4283C960.5 202.178 758.7 392.419 512 392.419C265.3 392.419 63.5 202.178 63.5 -30.4283V-544H69.1Z" fill="url(#paint10_linear_1378_8992)"/>
<path d="M94.2988 -544V-35.0245C94.2988 69.6882 137.899 168.506 216.999 243.044C296.199 317.681 400.899 358.747 511.999 358.747C623.099 358.747 727.799 317.681 806.999 243.044C886.099 168.506 929.699 69.6882 929.699 -35.0245V-544H935.199V-35.0245C935.199 184.492 744.799 364.043 511.999 364.043C279.199 364.043 88.7988 184.492 88.7988 -35.0245V-544H94.2988Z" fill="url(#paint11_linear_1378_8992)"/>
<path d="M119.6 -544V-39.6207C119.6 58.7972 160.5 151.62 234.9 221.661C309.2 291.803 407.6 330.371 512 330.371C616.4 330.371 714.8 291.803 789.1 221.661C863.5 151.62 904.4 58.7972 904.4 -39.6207V-544H910V-39.6207C910 166.807 730.9 335.666 512 335.666C293.1 335.666 114 166.807 114 -39.6207V-544H119.6Z" fill="url(#paint12_linear_1378_8992)"/>
<path d="M144.899 -544V-44.1169C144.899 47.9064 183.199 134.734 252.699 200.279C322.299 265.825 414.299 301.995 511.999 301.995C609.699 301.995 701.699 265.825 771.299 200.279C840.799 134.734 879.099 47.9064 879.099 -44.1169V-544H884.699V-44.1169C884.699 149.122 716.999 307.29 511.999 307.29C306.999 307.29 139.299 149.122 139.299 -44.1169V-544H144.899Z" fill="url(#paint13_linear_1378_8992)"/>
<path d="M170.1 -544V-48.7131C170.1 37.0154 205.8 117.848 270.5 178.897C335.3 239.946 421.1 273.618 512 273.618C602.9 273.618 688.7 239.946 753.5 178.897C818.2 117.848 853.9 37.0154 853.9 -48.7131V-544H859.5V-48.7131C859.5 131.437 703.1 278.814 512 278.814C320.9 278.814 164.5 131.437 164.5 -48.7131V-544H170.1Z" fill="url(#paint14_linear_1378_8992)"/>
<path d="M195.399 -544V-53.3092C195.399 26.1245 228.399 100.962 288.399 157.515C348.399 214.068 427.799 245.242 511.999 245.242C596.199 245.242 675.599 214.068 735.599 157.515C795.599 100.962 828.599 26.1245 828.599 -53.3092V-544H834.199V-53.3092C834.199 113.751 689.199 250.437 511.999 250.437C334.799 250.437 189.799 113.751 189.799 -53.3092V-544H195.399Z" fill="url(#paint15_linear_1378_8992)"/>
<path d="M220.6 -544V-57.9054C220.6 15.1337 251 84.0762 306.2 136.133C361.4 188.189 434.5 216.766 512 216.766C589.5 216.766 662.6 188.189 717.8 136.133C773 84.0762 803.4 15.1337 803.4 -57.9054V-544H809V-57.9054C809 96.0662 675.3 222.061 512 222.061C348.7 222.061 215 96.0662 215 -57.9054V-544H220.6Z" fill="url(#paint16_linear_1378_8992)"/>
<path d="M245.899 -544V-62.5016C245.899 4.24274 273.599 67.1902 324.099 114.751C374.499 162.211 441.199 188.389 511.999 188.389C582.799 188.389 649.499 162.211 699.899 114.751C750.399 67.1902 778.099 4.24274 778.099 -62.5016V-544H783.699V-62.5016C783.699 78.3809 661.399 193.685 511.999 193.685C362.599 193.685 240.299 78.3809 240.299 -62.5016V-544H245.899Z" fill="url(#paint17_linear_1378_8992)"/>
<path d="M271.1 -544V-66.9978C271.1 -6.64813 296.3 50.3044 341.9 93.3685C387.5 136.333 447.9 160.013 512 160.013C576.1 160.013 636.5 136.333 682.1 93.3685C727.7 50.3044 752.9 -6.64813 752.9 -66.9978V-544H758.5V-66.9978C758.5 60.6957 647.5 165.308 512 165.308C376.5 165.308 265.5 60.6957 265.5 -66.9978V-544H271.1Z" fill="url(#paint18_linear_1378_8992)"/>
<path d="M296.401 -544V-71.594C296.401 -17.5391 318.901 33.4185 359.701 71.8864C400.601 110.454 454.701 131.637 512.001 131.637C569.301 131.637 623.401 110.454 664.301 71.8864C705.101 33.4185 727.601 -17.5391 727.601 -71.594V-544H733.201V-71.594C733.201 43.1104 633.701 136.932 512.001 136.932C390.301 136.932 290.801 43.1104 290.801 -71.594V-544H296.401Z" fill="url(#paint19_linear_1378_8992)"/>
<path d="M321.698 -544V-76.1901C321.698 -28.4299 341.498 16.5326 377.598 50.5042C413.598 84.5758 461.398 103.26 511.998 103.26C562.598 103.26 610.398 84.5758 646.398 50.5042C682.498 16.5326 702.298 -28.4299 702.298 -76.1901V-544H707.898V-76.1901C707.898 25.4252 619.798 108.556 511.998 108.556C404.198 108.556 316.098 25.4252 316.098 -76.1901V-544H321.698Z" fill="url(#paint20_linear_1378_8992)"/>
<path d="M346.901 -544V-80.7863C346.901 5.04205 421.001 74.8839 512.001 74.8839C603.001 74.8839 677.101 5.04205 677.101 -80.7863V-544H682.701V-80.7863C682.701 7.73981 605.901 80.1794 512.001 80.1794C418.101 80.1794 341.301 7.73981 341.301 -80.7863V-544H346.901Z" fill="url(#paint21_linear_1378_8992)"/>
<path d="M372.198 -544V-85.3825C372.198 -12.6432 434.898 46.5075 511.998 46.5075C589.098 46.5075 651.798 -12.6432 651.798 -85.3825V-544H657.398V-85.3825C657.398 -9.94543 591.998 51.7032 511.998 51.7032C431.998 51.7032 366.598 -9.94543 366.598 -85.3825V-544H372.198Z" fill="url(#paint22_linear_1378_8992)"/>
<path d="M397.401 -544V-89.9786C397.401 -30.3284 448.801 18.1312 512.001 18.1312C575.201 18.1312 626.601 -30.3284 626.601 -89.9786V-544H632.201V-89.9786C632.201 -27.6306 578.101 23.3268 512.001 23.3268C445.901 23.3268 391.801 -27.6306 391.801 -89.9786V-544L397.401 -544Z" fill="url(#paint23_linear_1378_8992)"/>
</g>
<path d="M294.113 104L297 106.887L299.887 104L297 101.113L294.113 104ZM729.887 104L727 101.113L724.113 104L727 106.887L729.887 104ZM297 104.5H727V103.5H297V104.5Z" fill="white" fill-opacity="0.2"/>
</g>
<defs>
<linearGradient id="paint0_linear_1378_8992" x1="0" y1="0" x2="1023.42" y2="323.821" gradientUnits="userSpaceOnUse">
<stop stop-color="#103CAE"/>
<stop offset="0.531228" stop-color="#2A454B"/>
<stop offset="1" stop-color="#356D9A"/>
</linearGradient>
<linearGradient id="paint1_linear_1378_8992" x1="1187.8" y1="51.953" x2="-163.801" y2="51.953" gradientUnits="userSpaceOnUse">
<stop stop-color="#228420" stop-opacity="0"/>
<stop offset="0.124" stop-color="#2AA228" stop-opacity="0.575701"/>
<stop offset="0.501996" stop-color="#30B92D"/>
<stop offset="0.829" stop-color="#248B22" stop-opacity="0.554214"/>
<stop offset="1" stop-color="#155314" stop-opacity="0"/>
</linearGradient>
<linearGradient id="paint2_linear_1378_8992" x1="1162.6" y1="37.7648" x2="-138.602" y2="37.7648" gradientUnits="userSpaceOnUse">
<stop stop-color="#228420" stop-opacity="0"/>
<stop offset="0.124" stop-color="#2AA228" stop-opacity="0.575701"/>
<stop offset="0.501996" stop-color="#30B92D"/>
<stop offset="0.829" stop-color="#248B22" stop-opacity="0.554214"/>
<stop offset="1" stop-color="#155314" stop-opacity="0"/>
</linearGradient>
<linearGradient id="paint3_linear_1378_8992" x1="1137.3" y1="23.5766" x2="-113.301" y2="23.5766" gradientUnits="userSpaceOnUse">
<stop stop-color="#228420" stop-opacity="0"/>
<stop offset="0.124" stop-color="#2AA228" stop-opacity="0.575701"/>
<stop offset="0.501996" stop-color="#30B92D"/>
<stop offset="0.829" stop-color="#248B22" stop-opacity="0.554214"/>
<stop offset="1" stop-color="#155314" stop-opacity="0"/>
</linearGradient>
<linearGradient id="paint4_linear_1378_8992" x1="1112" y1="9.38847" x2="-88" y2="9.38847" gradientUnits="userSpaceOnUse">
<stop stop-color="#228420" stop-opacity="0"/>
<stop offset="0.124" stop-color="#2AA228" stop-opacity="0.575701"/>
<stop offset="0.501996" stop-color="#30B92D"/>
<stop offset="0.829" stop-color="#248B22" stop-opacity="0.554214"/>
<stop offset="1" stop-color="#155314" stop-opacity="0"/>
</linearGradient>
<linearGradient id="paint5_linear_1378_8992" x1="1086.8" y1="-4.84969" x2="-62.8008" y2="-4.84969" gradientUnits="userSpaceOnUse">
<stop stop-color="#228420" stop-opacity="0"/>
<stop offset="0.124" stop-color="#2AA228" stop-opacity="0.575701"/>
<stop offset="0.501996" stop-color="#30B92D"/>
<stop offset="0.829" stop-color="#248B22" stop-opacity="0.554214"/>
<stop offset="1" stop-color="#155314" stop-opacity="0"/>
</linearGradient>
<linearGradient id="paint6_linear_1378_8992" x1="1061.5" y1="-19.0378" x2="-37.5" y2="-19.0378" gradientUnits="userSpaceOnUse">
<stop stop-color="#228420" stop-opacity="0"/>
<stop offset="0.124" stop-color="#2AA228" stop-opacity="0.575701"/>
<stop offset="0.501996" stop-color="#30B92D"/>
<stop offset="0.829" stop-color="#248B22" stop-opacity="0.554214"/>
<stop offset="1" stop-color="#155314" stop-opacity="0"/>
</linearGradient>
<linearGradient id="paint7_linear_1378_8992" x1="1036.3" y1="-33.226" x2="-12.3008" y2="-33.226" gradientUnits="userSpaceOnUse">
<stop stop-color="#228420" stop-opacity="0"/>
<stop offset="0.124" stop-color="#2AA228" stop-opacity="0.575701"/>
<stop offset="0.501996" stop-color="#30B92D"/>
<stop offset="0.829" stop-color="#248B22" stop-opacity="0.554214"/>
<stop offset="1" stop-color="#155314" stop-opacity="0"/>
</linearGradient>
<linearGradient id="paint8_linear_1378_8992" x1="1011" y1="-47.4141" x2="13" y2="-47.4141" gradientUnits="userSpaceOnUse">
<stop stop-color="#228420" stop-opacity="0"/>
<stop offset="0.124" stop-color="#2AA228" stop-opacity="0.575701"/>
<stop offset="0.501996" stop-color="#30B92D"/>
<stop offset="0.829" stop-color="#248B22" stop-opacity="0.554214"/>
<stop offset="1" stop-color="#155314" stop-opacity="0"/>
</linearGradient>
<linearGradient id="paint9_linear_1378_8992" x1="985.799" y1="-61.6023" x2="38.1992" y2="-61.6023" gradientUnits="userSpaceOnUse">
<stop stop-color="#228420" stop-opacity="0"/>
<stop offset="0.124" stop-color="#2AA228" stop-opacity="0.575701"/>
<stop offset="0.501996" stop-color="#30B92D"/>
<stop offset="0.829" stop-color="#248B22" stop-opacity="0.554214"/>
<stop offset="1" stop-color="#155314" stop-opacity="0"/>
</linearGradient>
<linearGradient id="paint10_linear_1378_8992" x1="960.5" y1="-75.7905" x2="63.5" y2="-75.7905" gradientUnits="userSpaceOnUse">
<stop stop-color="#228420" stop-opacity="0"/>
<stop offset="0.124" stop-color="#2AA228" stop-opacity="0.575701"/>
<stop offset="0.501996" stop-color="#30B92D"/>
<stop offset="0.829" stop-color="#248B22" stop-opacity="0.554214"/>
<stop offset="1" stop-color="#155314" stop-opacity="0"/>
</linearGradient>
<linearGradient id="paint11_linear_1378_8992" x1="935.199" y1="-89.9786" x2="88.7988" y2="-89.9786" gradientUnits="userSpaceOnUse">
<stop stop-color="#228420" stop-opacity="0"/>
<stop offset="0.124" stop-color="#2AA228" stop-opacity="0.575701"/>
<stop offset="0.501996" stop-color="#30B92D"/>
<stop offset="0.829" stop-color="#248B22" stop-opacity="0.554214"/>
<stop offset="1" stop-color="#155314" stop-opacity="0"/>
</linearGradient>
<linearGradient id="paint12_linear_1378_8992" x1="910" y1="-104.167" x2="114" y2="-104.167" gradientUnits="userSpaceOnUse">
<stop stop-color="#228420" stop-opacity="0"/>
<stop offset="0.124" stop-color="#2AA228" stop-opacity="0.575701"/>
<stop offset="0.501996" stop-color="#30B92D"/>
<stop offset="0.829" stop-color="#248B22" stop-opacity="0.554214"/>
<stop offset="1" stop-color="#155314" stop-opacity="0"/>
</linearGradient>
<linearGradient id="paint13_linear_1378_8992" x1="884.699" y1="-118.355" x2="139.299" y2="-118.355" gradientUnits="userSpaceOnUse">
<stop stop-color="#228420" stop-opacity="0"/>
<stop offset="0.124" stop-color="#2AA228" stop-opacity="0.575701"/>
<stop offset="0.501996" stop-color="#30B92D"/>
<stop offset="0.829" stop-color="#248B22" stop-opacity="0.554214"/>
<stop offset="1" stop-color="#155314" stop-opacity="0"/>
</linearGradient>
<linearGradient id="paint14_linear_1378_8992" x1="859.5" y1="-132.593" x2="164.5" y2="-132.593" gradientUnits="userSpaceOnUse">
<stop stop-color="#228420" stop-opacity="0"/>
<stop offset="0.124" stop-color="#2AA228" stop-opacity="0.575701"/>
<stop offset="0.501996" stop-color="#30B92D"/>
<stop offset="0.829" stop-color="#248B22" stop-opacity="0.554214"/>
<stop offset="1" stop-color="#155314" stop-opacity="0"/>
</linearGradient>
<linearGradient id="paint15_linear_1378_8992" x1="834.199" y1="-146.781" x2="189.799" y2="-146.781" gradientUnits="userSpaceOnUse">
<stop stop-color="#228420" stop-opacity="0"/>
<stop offset="0.124" stop-color="#2AA228" stop-opacity="0.575701"/>
<stop offset="0.501996" stop-color="#30B92D"/>
<stop offset="0.829" stop-color="#248B22" stop-opacity="0.554214"/>
<stop offset="1" stop-color="#155314" stop-opacity="0"/>
</linearGradient>
<linearGradient id="paint16_linear_1378_8992" x1="809" y1="-160.969" x2="215" y2="-160.969" gradientUnits="userSpaceOnUse">
<stop stop-color="#228420" stop-opacity="0"/>
<stop offset="0.124" stop-color="#2AA228" stop-opacity="0.575701"/>
<stop offset="0.501996" stop-color="#30B92D"/>
<stop offset="0.829" stop-color="#248B22" stop-opacity="0.554214"/>
<stop offset="1" stop-color="#155314" stop-opacity="0"/>
</linearGradient>
<linearGradient id="paint17_linear_1378_8992" x1="783.699" y1="-175.158" x2="240.299" y2="-175.158" gradientUnits="userSpaceOnUse">
<stop stop-color="#228420" stop-opacity="0"/>
<stop offset="0.124" stop-color="#2AA228" stop-opacity="0.575701"/>
<stop offset="0.501996" stop-color="#30B92D"/>
<stop offset="0.829" stop-color="#248B22" stop-opacity="0.554214"/>
<stop offset="1" stop-color="#155314" stop-opacity="0"/>
</linearGradient>
<linearGradient id="paint18_linear_1378_8992" x1="758.5" y1="-189.346" x2="265.5" y2="-189.346" gradientUnits="userSpaceOnUse">
<stop stop-color="#228420" stop-opacity="0"/>
<stop offset="0.124" stop-color="#2AA228" stop-opacity="0.575701"/>
<stop offset="0.501996" stop-color="#30B92D"/>
<stop offset="0.829" stop-color="#248B22" stop-opacity="0.554214"/>
<stop offset="1" stop-color="#155314" stop-opacity="0"/>
</linearGradient>
<linearGradient id="paint19_linear_1378_8992" x1="733.201" y1="-203.534" x2="290.801" y2="-203.534" gradientUnits="userSpaceOnUse">
<stop stop-color="#228420" stop-opacity="0"/>
<stop offset="0.124" stop-color="#2AA228" stop-opacity="0.575701"/>
<stop offset="0.501996" stop-color="#30B92D"/>
<stop offset="0.829" stop-color="#248B22" stop-opacity="0.554214"/>
<stop offset="1" stop-color="#155314" stop-opacity="0"/>
</linearGradient>
<linearGradient id="paint20_linear_1378_8992" x1="707.898" y1="-217.722" x2="316.098" y2="-217.722" gradientUnits="userSpaceOnUse">
<stop stop-color="#228420" stop-opacity="0"/>
<stop offset="0.124" stop-color="#2AA228" stop-opacity="0.575701"/>
<stop offset="0.501996" stop-color="#30B92D"/>
<stop offset="0.829" stop-color="#248B22" stop-opacity="0.554214"/>
<stop offset="1" stop-color="#155314" stop-opacity="0"/>
</linearGradient>
<linearGradient id="paint21_linear_1378_8992" x1="682.701" y1="-231.91" x2="341.301" y2="-231.91" gradientUnits="userSpaceOnUse">
<stop stop-color="#228420" stop-opacity="0"/>
<stop offset="0.124" stop-color="#2AA228" stop-opacity="0.575701"/>
<stop offset="0.501996" stop-color="#30B92D"/>
<stop offset="0.829" stop-color="#248B22" stop-opacity="0.554214"/>
<stop offset="1" stop-color="#155314" stop-opacity="0"/>
</linearGradient>
<linearGradient id="paint22_linear_1378_8992" x1="657.398" y1="-246.148" x2="366.598" y2="-246.148" gradientUnits="userSpaceOnUse">
<stop stop-color="#228420" stop-opacity="0"/>
<stop offset="0.124" stop-color="#2AA228" stop-opacity="0.575701"/>
<stop offset="0.501996" stop-color="#30B92D"/>
<stop offset="0.829" stop-color="#248B22" stop-opacity="0.554214"/>
<stop offset="1" stop-color="#155314" stop-opacity="0"/>
</linearGradient>
<linearGradient id="paint23_linear_1378_8992" x1="632.201" y1="-260.337" x2="391.801" y2="-260.337" gradientUnits="userSpaceOnUse">
<stop stop-color="#228420" stop-opacity="0"/>
<stop offset="0.124" stop-color="#2AA228" stop-opacity="0.575701"/>
<stop offset="0.501996" stop-color="#30B92D"/>
<stop offset="0.829" stop-color="#248B22" stop-opacity="0.554214"/>
<stop offset="1" stop-color="#155314" stop-opacity="0"/>
</linearGradient>
<clipPath id="clip0_1378_8992">
<rect width="1024" height="322" rx="16" fill="white"/>
</clipPath>
<clipPath id="clip1_1378_8992">
<rect width="1700" height="2398" fill="white" transform="translate(-338 -544)"/>
</clipPath>
</defs>
</svg>
