<svg width="40" height="40" viewBox="0 0 40 40" fill="none" xmlns="http://www.w3.org/2000/svg">
<path d="M26.2969 19.34C30.6948 19.34 34.2599 15.7748 34.2599 11.377C34.2599 6.9792 30.6948 3.41406 26.2969 3.41406C21.8991 3.41406 18.334 6.9792 18.334 11.377C18.334 15.7748 21.8991 19.34 26.2969 19.34Z" fill="url(#paint0_linear_629_3054)" stroke="#FFDB3A" stroke-width="0.5"/>
<path d="M26.2969 16.375C29.0583 16.375 31.2969 14.1364 31.2969 11.375C31.2969 8.61358 29.0583 6.375 26.2969 6.375C23.5355 6.375 21.2969 8.61358 21.2969 11.375C21.2969 14.1364 23.5355 16.375 26.2969 16.375Z" fill="url(#paint1_linear_629_3054)" stroke="#FFDB3A" stroke-width="0.5"/>
<g filter="url(#filter0_d_629_3054)">
<path d="M31.7653 25.4679C31.2712 24.9561 30.6503 24.7002 29.9281 24.7002H21.1225C21.0804 24.7002 21.0385 24.693 20.9987 24.6789L18.7704 23.8891C18.5784 23.8211 18.4773 23.6108 18.5442 23.4185L18.7156 22.9256C18.7844 22.7277 19.0035 22.6262 19.1989 22.7017L20.9944 23.3958C21.0369 23.4123 21.0822 23.4208 21.1279 23.4208H24.6065C25.05 23.4208 25.4047 23.2416 25.6961 22.9474C25.9876 22.6531 26.1269 22.2948 26.1269 21.8982C26.1269 21.2073 25.7975 20.7339 25.1387 20.4652L15.99 17.0468C15.9485 17.0314 15.9046 17.0234 15.8604 17.0234H13.8269C13.6224 17.0234 13.4565 17.1893 13.4565 17.3938V28.26C13.4565 28.425 13.5657 28.5701 13.7242 28.6158L22.2076 31.0634C22.2844 31.0855 22.3662 31.0823 22.4409 31.0541L32.2653 27.3477C32.4072 27.2943 32.5048 27.1594 32.4925 27.0083C32.4457 26.432 32.1977 25.9157 31.7653 25.4679ZM10.9224 17.3938C10.9224 17.1893 10.7566 17.0234 10.5521 17.0234H6.20435C5.99981 17.0234 5.83398 17.1893 5.83398 17.3938V30.7271C5.83398 30.9317 5.99981 31.0975 6.20435 31.0975H10.5521C10.7566 31.0975 10.9224 30.9317 10.9224 30.7271V17.3938Z" fill="url(#paint2_linear_629_3054)" fill-opacity="0.8"/>
<path d="M29.9283 24.7744C30.6311 24.7744 31.2325 25.0227 31.7122 25.5195C32.134 25.9563 32.3735 26.4571 32.4188 27.0145C32.4281 27.1283 32.3545 27.2351 32.2393 27.2785L22.415 30.9849C22.3552 31.0075 22.2897 31.0101 22.2283 30.9924L13.7449 28.5448C13.6181 28.5082 13.5307 28.3921 13.5307 28.2601V17.394C13.5307 17.2303 13.6634 17.0977 13.827 17.0977H15.8605C15.8959 17.0977 15.931 17.104 15.9642 17.1164L25.1118 20.5343C25.4306 20.6645 25.6645 20.842 25.8191 21.0656C25.9738 21.2894 26.053 21.565 26.053 21.8983C26.053 22.276 25.9209 22.6154 25.6437 22.8954C25.3639 23.1779 25.0273 23.3468 24.6066 23.3468H21.1281C21.0915 23.3468 21.0552 23.34 21.0212 23.3269L19.2258 22.6328C18.9913 22.5421 18.7284 22.6639 18.6458 22.9014L18.4744 23.3942C18.3941 23.6251 18.5154 23.8775 18.7458 23.9591L20.9741 24.7489C21.0218 24.7658 21.0721 24.7744 21.1226 24.7744H29.9283ZM6.2045 17.0977H10.5522C10.7158 17.0977 10.8485 17.2303 10.8485 17.394V30.7273C10.8485 30.8909 10.7158 31.0236 10.5522 31.0236H6.2045C6.04086 31.0236 5.9082 30.8909 5.9082 30.7273V17.394C5.9082 17.2303 6.04086 17.0977 6.2045 17.0977Z" stroke="#EFDBA6" stroke-opacity="0.6" stroke-width="0.2"/>
</g>
<defs>
<filter id="filter0_d_629_3054" x="1.80859" y="16.9961" width="34.7109" height="22.1289" filterUnits="userSpaceOnUse" color-interpolation-filters="sRGB">
<feFlood flood-opacity="0" result="BackgroundImageFix"/>
<feColorMatrix in="SourceAlpha" type="matrix" values="0 0 0 0 0 0 0 0 0 0 0 0 0 0 0 0 0 0 127 0" result="hardAlpha"/>
<feOffset dy="4"/>
<feGaussianBlur stdDeviation="2"/>
<feComposite in2="hardAlpha" operator="out"/>
<feColorMatrix type="matrix" values="0 0 0 0 0.0383445 0 0 0 0 0.134341 0 0 0 0 0.638322 0 0 0 0.12 0"/>
<feBlend mode="normal" in2="BackgroundImageFix" result="effect1_dropShadow_629_3054"/>
<feBlend mode="normal" in="SourceGraphic" in2="effect1_dropShadow_629_3054" result="shape"/>
</filter>
<linearGradient id="paint0_linear_629_3054" x1="26.2969" y1="3.22888" x2="26.2969" y2="19.5252" gradientUnits="userSpaceOnUse">
<stop offset="0.324" stop-color="#F9D327"/>
<stop offset="1" stop-color="#F8A600"/>
</linearGradient>
<linearGradient id="paint1_linear_629_3054" x1="26.2969" y1="6.18981" x2="26.2969" y2="16.5602" gradientUnits="userSpaceOnUse">
<stop stop-color="#F8A600"/>
<stop offset="1" stop-color="#FAC803"/>
</linearGradient>
<linearGradient id="paint2_linear_629_3054" x1="18.7969" y1="19.9864" x2="18.7969" y2="32.9494" gradientUnits="userSpaceOnUse">
<stop stop-color="#F7CE3B"/>
<stop offset="1" stop-color="#E26409"/>
</linearGradient>
</defs>
</svg>
