<svg width="41" height="42" viewBox="0 0 41 42" fill="none" xmlns="http://www.w3.org/2000/svg">
<g style="mix-blend-mode:luminosity">
<g filter="url(#filter0_d_634_2774)">
<path d="M32.5601 26.6048C32.0536 26.0802 31.4172 25.8179 30.677 25.8179H21.6512C21.608 25.8179 21.5651 25.8105 21.5243 25.7961L19.2402 24.9866C19.0434 24.9169 18.9399 24.7013 19.0084 24.5041L19.1841 23.9989C19.2547 23.796 19.4793 23.692 19.6796 23.7695L21.5198 24.4809C21.5635 24.4978 21.6099 24.5065 21.6567 24.5065H25.2223C25.6769 24.5065 26.0405 24.3228 26.3392 24.0212C26.6379 23.7196 26.7808 23.3524 26.7808 22.9458C26.7808 22.2377 26.4431 21.7524 25.7678 21.477L16.3904 17.9732C16.3479 17.9573 16.3028 17.9492 16.2575 17.9492H14.1732C13.9635 17.9492 13.7936 18.1192 13.7936 18.3288V29.4667C13.7936 29.6358 13.9055 29.7846 14.0679 29.8314L22.7634 32.3401C22.8421 32.3628 22.926 32.3595 23.0026 32.3307L33.0726 28.5316C33.218 28.4768 33.3181 28.3385 33.3055 28.1837C33.2575 27.5929 33.0033 27.0637 32.5601 26.6048ZM11.1961 18.3288C11.1961 18.1192 11.0261 17.9492 10.8165 17.9492H6.3601C6.15044 17.9492 5.98047 18.1192 5.98047 18.3288V31.9955C5.98047 32.2051 6.15044 32.3751 6.3601 32.3751H10.8165C11.0261 32.3751 11.1961 32.2051 11.1961 31.9955V18.3288Z" fill="url(#paint0_linear_634_2774)" fill-opacity="0.8"/>
<path d="M30.6206 25.8921C31.341 25.8921 31.9574 26.1466 32.4491 26.6558C32.8814 27.1036 33.127 27.6168 33.1734 28.1882C33.1828 28.3048 33.1075 28.4144 32.9894 28.4588L22.9195 32.2579C22.8581 32.281 22.791 32.2837 22.7281 32.2655L14.0326 29.7567C13.9026 29.7192 13.8131 29.6002 13.8131 29.4649V18.3271C13.8131 18.1594 13.9491 18.0234 14.1168 18.0234H16.2011C16.2374 18.0234 16.2734 18.03 16.3074 18.0426L25.6837 21.546C26.0104 21.6794 26.2502 21.8613 26.4087 22.0906C26.5672 22.3199 26.6484 22.6025 26.6484 22.9441C26.6484 23.3313 26.5131 23.6791 26.2289 23.9661C25.9421 24.2557 25.5971 24.4289 25.1659 24.4289H21.6003C21.5628 24.4289 21.5257 24.4219 21.4908 24.4084L19.6506 23.6969C19.4102 23.604 19.1407 23.7288 19.056 23.9722L18.8804 24.4774C18.7981 24.7141 18.9224 24.9728 19.1585 25.0565L21.4426 25.866C21.4915 25.8833 21.5429 25.8921 21.5948 25.8921H30.6206ZM6.3037 18.0234H10.7601C10.9278 18.0234 11.0638 18.1594 11.0638 18.3271V31.9938C11.0638 32.1615 10.9278 32.2975 10.7601 32.2975H6.3037C6.13598 32.2975 6 32.1615 6 31.9938V18.3271C6 18.1594 6.13598 18.0234 6.3037 18.0234Z" stroke="#CBCBCB" stroke-opacity="0.6" stroke-width="0.2"/>
</g>
</g>
<defs>
<filter id="filter0_d_634_2774" x="1.90039" y="17.9219" width="35.4062" height="22.4766" filterUnits="userSpaceOnUse" color-interpolation-filters="sRGB">
<feFlood flood-opacity="0" result="BackgroundImageFix"/>
<feColorMatrix in="SourceAlpha" type="matrix" values="0 0 0 0 0 0 0 0 0 0 0 0 0 0 0 0 0 0 127 0" result="hardAlpha"/>
<feOffset dy="4"/>
<feGaussianBlur stdDeviation="2"/>
<feComposite in2="hardAlpha" operator="out"/>
<feColorMatrix type="matrix" values="0 0 0 0 0.0383445 0 0 0 0 0.134341 0 0 0 0 0.638322 0 0 0 0.12 0"/>
<feBlend mode="normal" in2="BackgroundImageFix" result="effect1_dropShadow_634_2774"/>
<feBlend mode="normal" in="SourceGraphic" in2="effect1_dropShadow_634_2774" result="shape"/>
</filter>
<linearGradient id="paint0_linear_634_2774" x1="19.2675" y1="20.9863" x2="19.2675" y2="34.2733" gradientUnits="userSpaceOnUse">
<stop stop-color="#C1C1C1"/>
<stop offset="1" stop-color="#767676"/>
</linearGradient>
</defs>
</svg>
