<svg width="25" height="24" viewBox="0 0 25 24" fill="none" xmlns="http://www.w3.org/2000/svg">
<path d="M22.399 2.21269C21.6888 1.50244 20.374 1.46419 19.5355 1.89394C18.8508 2.12944 18.13 2.39419 17.395 2.69119L17.4025 2.69869C15.4713 3.51994 12.5823 4.97869 10.27 7.12519C8.64701 8.63269 7.71701 9.79219 7.09376 10.8489L3.12026 12.3114C3.00205 12.3549 2.89667 12.4274 2.81386 12.5223C2.73105 12.6171 2.67346 12.7313 2.64641 12.8543C2.61936 12.9773 2.62372 13.1052 2.65908 13.226C2.69445 13.3469 2.75968 13.4569 2.84876 13.5459L11.2023 21.8987C11.2913 21.9876 11.4013 22.0527 11.522 22.0879C11.6428 22.1232 11.7705 22.1275 11.8934 22.1005C12.0163 22.0734 12.1304 22.0159 12.2252 21.9332C12.32 21.8505 12.3925 21.7453 12.436 21.6272L14.089 17.1377C15.295 16.4192 16.5063 15.5139 17.77 14.2502C19.5625 12.4577 21.0445 9.33019 21.9048 7.23244L21.9115 7.23844C22.2115 6.49594 22.48 5.76769 22.717 5.07619C23.1468 4.23769 23.272 3.08569 22.399 2.21269Z" fill="#CA0B4A"/>
<path d="M17.9717 3.27344C16.084 4.05344 13.1132 5.50694 10.7792 7.67444C9.268 9.07694 8.40025 10.1449 7.82425 11.0869C7.2475 12.0282 6.943 12.8719 6.577 13.8919L6.5755 13.8972C6.448 14.2527 6.313 14.6299 6.15625 15.0327L9.57325 18.4497C12.2747 17.3397 14.6282 16.3287 17.2382 13.7194C19.0015 11.9554 20.4925 8.73794 21.3287 6.65369L17.9717 3.27344Z" fill="#F4F4F4"/>
<path d="M18.8945 8.4375C18.8945 9.08397 18.6377 9.70395 18.1806 10.1611C17.7235 10.6182 17.1035 10.875 16.457 10.875C15.8106 10.875 15.1906 10.6182 14.7335 10.1611C14.2763 9.70395 14.0195 9.08397 14.0195 8.4375C14.0195 7.79103 14.2763 7.17105 14.7335 6.71393C15.1906 6.25681 15.8106 6 16.457 6C17.1035 6 17.7235 6.25681 18.1806 6.71393C18.6377 7.17105 18.8945 7.79103 18.8945 8.4375Z" fill="#9B9B9B"/>
<path d="M18.1445 8.4375C18.1445 8.88505 17.9667 9.31427 17.6503 9.63074C17.3338 9.94721 16.9046 10.125 16.457 10.125C16.0095 10.125 15.5803 9.94721 15.2638 9.63074C14.9473 9.31427 14.7695 8.88505 14.7695 8.4375C14.7695 7.98995 14.9473 7.56073 15.2638 7.24426C15.5803 6.92779 16.0095 6.75 16.457 6.75C16.9046 6.75 17.3338 6.92779 17.6503 7.24426C17.9667 7.56073 18.1445 7.98995 18.1445 8.4375Z" fill="#83CBFF"/>
<path d="M2.33768 22.2085C1.80743 21.6798 2.02043 18.001 3.89543 17.251C3.89543 17.251 5.77043 16.501 6.97793 17.701C8.18693 18.9018 7.64543 20.251 7.64543 20.251C7.11518 21.8418 4.85693 22.4748 4.59218 22.2085C4.44593 22.063 4.70918 21.796 4.59218 21.679C4.47443 21.5613 4.29368 21.6955 3.79718 21.9438C3.44318 22.1208 2.54993 22.4208 2.33768 22.2085Z" fill="#FF8257"/>
<path d="M5.06376 15.7946C5.16823 15.6901 5.29229 15.6071 5.42882 15.5505C5.56536 15.494 5.71171 15.4648 5.85951 15.4648C6.00731 15.4648 6.15366 15.494 6.29019 15.5505C6.42673 15.6071 6.55078 15.6901 6.65526 15.7946L9.30651 18.4466C9.51756 18.6576 9.63616 18.9437 9.63623 19.2421C9.6363 19.5405 9.51783 19.8267 9.30688 20.0377C9.09594 20.2488 8.80979 20.3674 8.5114 20.3674C8.21301 20.3675 7.92681 20.2491 7.71576 20.0381L5.06376 17.3861C4.85285 17.1751 4.73438 16.889 4.73438 16.5907C4.73438 16.2924 4.85285 16.0063 5.06376 15.7954" fill="#533566"/>
<path d="M12.1503 14.0416C12.4818 13.1416 11.6065 12.2656 10.7058 12.5971L5.37026 14.5613C5.25205 14.6047 5.14667 14.6772 5.06386 14.7721C4.98105 14.867 4.92346 14.9812 4.89641 15.1042C4.86936 15.2272 4.87372 15.355 4.90908 15.4759C4.94445 15.5968 5.00968 15.7068 5.09876 15.7958L8.95226 19.6486C9.04129 19.7375 9.15126 19.8026 9.27204 19.8378C9.39282 19.8731 9.52053 19.8774 9.64341 19.8503C9.76629 19.8233 9.88039 19.7658 9.97521 19.6831C10.07 19.6004 10.1425 19.4951 10.186 19.3771L12.1503 14.0416Z" fill="#F92F60"/>
</svg>
