<svg width="32" height="32" viewBox="0 0 32 32" fill="none" xmlns="http://www.w3.org/2000/svg">
<g clip-path="url(#clip0_1993_8879)">
<path fill-rule="evenodd" clip-rule="evenodd" d="M32 16C32 24.8366 24.8366 32 16 32C7.16344 32 0 24.8366 0 16C0 7.16344 7.16344 0 16 0C24.8366 0 32 7.16344 32 16ZM16.5734 11.8127C15.0171 12.46 11.9068 13.7997 7.24252 15.8319C6.48511 16.1331 6.08834 16.4278 6.05222 16.7159C5.99118 17.2028 6.60095 17.3945 7.4313 17.6556C7.54425 17.6912 7.66127 17.728 7.78125 17.767C8.59818 18.0325 9.6971 18.3432 10.2684 18.3555C10.7866 18.3667 11.365 18.1531 12.0035 17.7146C16.3615 14.7728 18.6112 13.2859 18.7524 13.2538C18.8521 13.2312 18.9901 13.2028 19.0837 13.2859C19.1772 13.3691 19.168 13.5266 19.1581 13.5688C19.0977 13.8263 16.7042 16.0516 15.4655 17.2032C15.0793 17.5622 14.8054 17.8168 14.7494 17.875C14.624 18.0053 14.4962 18.1285 14.3733 18.247C13.6144 18.9786 13.0452 19.5272 14.4048 20.4232C15.0582 20.8537 15.581 21.2098 16.1026 21.565C16.6722 21.9529 17.2404 22.3398 17.9755 22.8217C18.1628 22.9445 18.3416 23.072 18.5159 23.1962C19.1788 23.6688 19.7743 24.0934 20.5101 24.0257C20.9377 23.9863 21.3793 23.5843 21.6036 22.3853C22.1336 19.5517 23.1755 13.4121 23.4163 10.8821C23.4374 10.6605 23.4109 10.3768 23.3895 10.2522C23.3682 10.1277 23.3237 9.95029 23.1618 9.81895C22.9701 9.6634 22.6742 9.63059 22.5418 9.63293C21.94 9.64353 21.0167 9.96457 16.5734 11.8127Z" fill="#9E9E9E"/>
</g>
<defs>
<clipPath id="clip0_1993_8879">
<rect width="32" height="32" fill="white"/>
</clipPath>
</defs>
</svg>
