<svg width="1920" height="2437" viewBox="0 0 1920 2437" fill="none" xmlns="http://www.w3.org/2000/svg">
<g filter="url(#filter0_f_1306_7773)">
<circle cx="1170" cy="927" r="342" fill="#F3E0BC"/>
</g>
<g filter="url(#filter1_f_1306_7773)">
<circle cx="364.5" cy="1580.5" r="271.5" fill="#CBF5E6"/>
</g>
<path opacity="0.14" fill-rule="evenodd" clip-rule="evenodd" d="M318 572H1602V1696H318V572ZM320.006 574.007H476.494V730.564H320.006V574.007ZM480.506 574.007H636.994V730.564H480.506V574.007ZM797.494 574.007H641.006V730.564H797.494V574.007ZM801.506 574.007H957.994V730.564H801.506V574.007ZM1118.49 574.007H962.006V730.564H1118.49V574.007ZM1122.51 574.007H1278.99V730.564H1122.51V574.007ZM1439.49 574.007H1283.01V730.564H1439.49V574.007ZM1443.51 574.007H1599.99V730.564H1443.51V574.007ZM476.494 734.579H320.006V891.136H476.494V734.579ZM480.506 734.579H636.994V891.136H480.506V734.579ZM797.494 734.579H641.006V891.136H797.494V734.579ZM801.506 734.579H957.994V891.136H801.506V734.579ZM1118.49 734.579H962.006V891.136H1118.49V734.579ZM1122.51 734.579H1278.99V891.136H1122.51V734.579ZM1439.49 734.579H1283.01V891.136H1439.49V734.579ZM1443.51 734.579H1599.99V891.136H1443.51V734.579ZM476.494 895.15H320.006V1051.71H476.494V895.15ZM480.506 895.15H636.994V1051.71H480.506V895.15ZM797.494 895.15H641.006V1051.71H797.494V895.15ZM801.506 895.15H957.994V1051.71H801.506V895.15ZM1118.49 895.15H962.006V1051.71H1118.49V895.15ZM1122.51 895.15H1278.99V1051.71H1122.51V895.15ZM1439.49 895.15H1283.01V1051.71H1439.49V895.15ZM1443.51 895.15H1599.99V1051.71H1443.51V895.15ZM476.494 1055.72H320.006V1212.28H476.494V1055.72ZM480.506 1055.72H636.994V1212.28H480.506V1055.72ZM797.494 1055.72H641.006V1212.28H797.494V1055.72ZM801.506 1055.72H957.994V1212.28H801.506V1055.72ZM1118.49 1055.72H962.006V1212.28H1118.49V1055.72ZM1122.51 1055.72H1278.99V1212.28H1122.51V1055.72ZM1439.49 1055.72H1283.01V1212.28H1439.49V1055.72ZM1443.51 1055.72H1599.99V1212.28H1443.51V1055.72ZM476.494 1216.29H320.006V1372.85H476.494V1216.29ZM480.506 1216.29H636.994V1372.85H480.506V1216.29ZM797.494 1216.29H641.006V1372.85H797.494V1216.29ZM801.506 1216.29H957.994V1372.85H801.506V1216.29ZM1118.49 1216.29H962.006V1372.85H1118.49V1216.29ZM1122.51 1216.29H1278.99V1372.85H1122.51V1216.29ZM1439.49 1216.29H1283.01V1372.85H1439.49V1216.29ZM1443.51 1216.29H1599.99V1372.85H1443.51V1216.29ZM476.494 1376.86H320.006V1533.42H476.494V1376.86ZM480.506 1376.86H636.994V1533.42H480.506V1376.86ZM797.494 1376.86H641.006V1533.42H797.494V1376.86ZM801.506 1376.86H957.994V1533.42H801.506V1376.86ZM1118.49 1376.86H962.006V1533.42H1118.49V1376.86ZM1122.51 1376.86H1278.99V1533.42H1122.51V1376.86ZM1439.49 1376.86H1283.01V1533.42H1439.49V1376.86ZM1443.51 1376.86H1599.99V1533.42H1443.51V1376.86ZM476.494 1537.44H320.006V1693.99H476.494V1537.44ZM480.506 1537.44H636.994V1693.99H480.506V1537.44ZM797.494 1537.44H641.006V1693.99H797.494V1537.44ZM801.506 1537.44H957.994V1693.99H801.506V1537.44ZM1118.49 1537.44H962.006V1693.99H1118.49V1537.44ZM1122.51 1537.44H1278.99V1693.99H1122.51V1537.44ZM1439.49 1537.44H1283.01V1693.99H1439.49V1537.44ZM1443.51 1537.44H1599.99V1693.99H1443.51V1537.44Z" fill="#C3EDC2"/>
<defs>
<filter id="filter0_f_1306_7773" x="243.1" y="0.0999756" width="1853.8" height="1853.8" filterUnits="userSpaceOnUse" color-interpolation-filters="sRGB">
<feFlood flood-opacity="0" result="BackgroundImageFix"/>
<feBlend mode="normal" in="SourceGraphic" in2="BackgroundImageFix" result="shape"/>
<feGaussianBlur stdDeviation="292.45" result="effect1_foregroundBlur_1306_7773"/>
</filter>
<filter id="filter1_f_1306_7773" x="-491.9" y="724.1" width="1712.8" height="1712.8" filterUnits="userSpaceOnUse" color-interpolation-filters="sRGB">
<feFlood flood-opacity="0" result="BackgroundImageFix"/>
<feBlend mode="normal" in="SourceGraphic" in2="BackgroundImageFix" result="shape"/>
<feGaussianBlur stdDeviation="292.45" result="effect1_foregroundBlur_1306_7773"/>
</filter>
</defs>
</svg>
