<svg width="24" height="24" viewBox="0 0 24 24" fill="none" xmlns="http://www.w3.org/2000/svg">
<path opacity="0.2" d="M9 22.5L10.5 15L4.5 12.75L15 1.5L13.5 9L19.5 11.25L9 22.5Z" fill="#FFB300"/>
<path d="M20.2308 11.0786C20.2024 10.9584 20.1448 10.847 20.063 10.7545C19.9812 10.6619 19.8779 10.591 19.7621 10.548L14.3611 8.52202L15.7355 1.64734C15.7666 1.48761 15.745 1.32209 15.6738 1.17576C15.6026 1.02943 15.4857 0.910224 15.3408 0.836138C15.1959 0.762052 15.0309 0.737102 14.8705 0.765053C14.7102 0.793004 14.5634 0.872339 14.4521 0.991087L3.95208 12.2411C3.8668 12.3309 3.80511 12.4405 3.77252 12.5601C3.73992 12.6796 3.73744 12.8053 3.7653 12.926C3.79316 13.0467 3.85048 13.1587 3.93215 13.2518C4.01382 13.345 4.1173 13.4164 4.23333 13.4598L9.63614 15.4858L8.26552 22.353C8.2344 22.5127 8.25607 22.6782 8.32727 22.8245C8.39848 22.9709 8.51534 23.0901 8.66023 23.1642C8.80512 23.2382 8.97018 23.2632 9.1305 23.2352C9.29081 23.2073 9.43769 23.128 9.54896 23.0092L20.049 11.7592C20.1327 11.6693 20.1931 11.5603 20.2248 11.4416C20.2565 11.3229 20.2586 11.1983 20.2308 11.0786ZM10.254 20.0626L11.2355 15.152C11.2706 14.9779 11.2428 14.7969 11.157 14.6413C11.0711 14.4858 10.9328 14.3658 10.7668 14.3026L5.81302 12.4417L13.7461 3.94234L12.7655 8.85296C12.7304 9.02712 12.7582 9.20809 12.8441 9.36364C12.9299 9.5192 13.0682 9.63922 13.2343 9.70234L18.1843 11.5586L10.254 20.0626Z" fill="#FFB300"/>
</svg>
